<svg width="137" height="128" viewBox="0 0 137 128" fill="none" xmlns="http://www.w3.org/2000/svg">
<path opacity="0.2" d="M84 106C113.271 106 137 82.2711 137 53C137 23.7289 113.271 0 84 0C54.7289 0 31 23.7289 31 53C31 82.2711 54.7289 106 84 106Z" fill="#8FD2FF"/>
<path d="M23.0521 37.1976L7.19237 53.069C6.15857 54.7449 5.22351 56.4894 4.39526 58.2923L28.2714 34.3984C26.4698 35.2273 24.7267 36.163 23.0521 37.1976Z" fill="#FFC778"/>
<path d="M35.895 31.6456L1.64449 65.9215C1.36639 66.9621 1.12053 68.0148 0.908936 69.0817L39.0508 30.9115C37.9847 31.1213 36.9328 31.3673 35.895 31.6456Z" fill="#FFC778"/>
<path d="M44.6973 30.1331L0.133011 74.7304C0.0665087 75.5775 0.0221673 76.4285 0 77.2856L47.2506 30C46.3941 30.0242 45.5437 30.0686 44.6973 30.1331Z" fill="#FFC778"/>
<path d="M52.0124 30.113L0.112793 82.0511C0.165188 82.7932 0.237744 83.5314 0.322382 84.2654L54.2251 30.3227C53.4916 30.238 52.754 30.1654 52.0124 30.113Z" fill="#FFC778"/>
<path d="M58.4168 31.0023L0.999512 88.4622C1.13655 89.1237 1.28769 89.7811 1.45293 90.4325L60.3857 31.4561C59.7348 31.2907 59.0798 31.1394 58.4168 31.0023Z" fill="#FFC778"/>
<path d="M64.1481 32.5653L2.56335 94.1957C2.76689 94.7946 2.98452 95.3855 3.21023 95.9724L65.9255 33.2106C65.337 32.9867 64.7446 32.7689 64.1481 32.5653Z" fill="#FFC778"/>
<path d="M69.3312 34.6767L4.67126 99.3847C4.93123 99.9292 5.19925 100.468 5.47735 101L70.9434 35.4854C70.4134 35.2051 69.8753 34.9369 69.3312 34.6767Z" fill="#FFC778"/>
<path d="M74.0488 37.2561L7.25073 104.104C7.55906 104.6 7.87342 105.094 8.19989 105.578L75.5219 38.2059C75.0363 37.8792 74.5445 37.5646 74.0488 37.2561Z" fill="#FFC778"/>
<path d="M78.3453 40.2549L10.2454 108.403C10.598 108.857 10.9608 109.301 11.3295 109.74L79.6813 41.3379C79.242 40.9708 78.7967 40.6078 78.3453 40.2549Z" fill="#FFC778"/>
<path d="M82.2426 43.651L13.6389 112.306C14.0359 112.717 14.439 113.12 14.8501 113.516L83.4517 44.8631C83.0568 44.4517 82.6537 44.0483 82.2426 43.651Z" fill="#FFC778"/>
<path d="M85.7571 47.4344L17.4194 115.821C17.8608 116.19 18.3061 116.549 18.7596 116.902L86.8353 48.7755C86.4846 48.3217 86.1259 47.874 85.7571 47.4344Z" fill="#FFC778"/>
<path d="M88.8787 51.609L21.5909 118.947C22.0766 119.271 22.5683 119.586 23.0661 119.894L89.8259 53.0852C89.5175 52.5871 89.2031 52.095 88.8787 51.609Z" fill="#FFC778"/>
<path d="M91.5892 56.1949L26.1755 121.657C26.7096 121.935 27.2496 122.202 27.7957 122.46L92.3932 57.8143C92.1333 57.2698 91.8652 56.7293 91.5892 56.1949Z" fill="#FFC778"/>
<path d="M93.8461 61.2347L31.2095 123.918C31.7979 124.142 32.3904 124.359 32.9889 124.561L94.489 63.0154C94.2875 62.4165 94.0718 61.8236 93.8461 61.2347Z" fill="#FFC778"/>
<path d="M95.5894 66.7887L36.7615 125.66C37.4144 125.824 38.0714 125.975 38.7344 126.11L96.0408 68.761C95.9038 68.0995 95.7527 67.4421 95.5894 66.7887Z" fill="#FFC778"/>
<path d="M96.7038 72.9719L42.9401 126.775C43.6756 126.86 44.4152 126.927 45.1588 126.979L96.9073 75.1923C96.857 74.4481 96.7884 73.708 96.7038 72.9719Z" fill="#FFC778"/>
<path d="M97 79.9738L49.9348 127.074C50.7953 127.05 51.6498 127.001 52.4982 126.931L96.8569 82.5391C96.9275 81.6901 96.9758 80.835 97 79.9738Z" fill="#FFC778"/>
<path d="M96.0589 88.2141L58.171 126.13C59.2451 125.912 60.3051 125.658 61.351 125.372L95.3012 91.3965C95.5874 90.3498 95.8413 89.289 96.0589 88.2141Z" fill="#FFC778"/>
<path d="M92.4617 99.1123L69.0612 122.53C70.9131 121.663 72.7006 120.681 74.4156 119.596L89.5296 104.471C90.6158 102.757 91.5952 100.966 92.4617 99.1123Z" fill="#FFC778"/>
</svg>
