<svg width="162" height="155" viewBox="0 0 162 155" fill="none" xmlns="http://www.w3.org/2000/svg">
<path opacity="0.2" d="M118.424 46.7985C103.715 21.4913 71.2762 12.8994 45.969 27.608C20.6618 42.3165 12.0699 74.7557 26.7785 100.063C41.487 125.37 73.9262 133.962 99.2334 119.254C124.541 104.545 133.133 72.1058 118.424 46.7985Z" fill="#D2CCFF"/>
<path d="M97.1087 137.232L112.664 141.346C114.075 141.383 115.494 141.334 116.91 141.198L93.4925 135.005C94.6556 135.823 95.8639 136.567 97.1087 137.232Z" fill="#FFB9B5"/>
<path d="M89.0389 131.27L122.631 140.154C123.376 139.952 124.118 139.725 124.855 139.472L87.4466 129.578C87.9608 130.164 88.4923 130.727 89.0389 131.27Z" fill="#FFB9B5"/>
<path d="M84.9292 126.358L128.637 137.917C129.186 137.653 129.73 137.374 130.269 137.079L83.9266 124.823C84.2502 125.345 84.5842 125.857 84.9292 126.358Z" fill="#FFB9B5"/>
<path d="M82.2809 121.83L133.183 135.292C133.624 134.992 134.056 134.681 134.48 134.364L81.6136 120.383C81.8254 120.868 82.0462 121.351 82.2809 121.83Z" fill="#FFB9B5"/>
<path d="M80.5244 117.539L136.838 132.432C137.199 132.109 137.552 131.778 137.896 131.441L80.0963 116.155C80.2283 116.618 80.3705 117.078 80.5244 117.539Z" fill="#FFB9B5"/>
<path d="M79.4283 113.422L139.829 129.396C140.127 129.054 140.415 128.707 140.698 128.355L79.1879 112.088C79.2611 112.533 79.3396 112.979 79.4283 113.422Z" fill="#FFB9B5"/>
<path d="M78.8697 109.448L142.287 126.22C142.531 125.862 142.768 125.502 142.998 125.138L78.7902 108.157C78.8073 108.587 78.8349 109.017 78.8697 109.448Z" fill="#FFB9B5"/>
<path d="M78.7689 105.594L144.283 122.92C144.48 122.55 144.673 122.177 144.855 121.8L78.827 104.338C78.7995 104.757 78.7816 105.175 78.7689 105.594Z" fill="#FFB9B5"/>
<path d="M79.0801 101.85L145.87 119.514C146.024 119.132 146.168 118.747 146.308 118.36L79.2701 100.631C79.2008 101.036 79.1363 101.443 79.0801 101.85Z" fill="#FFB9B5"/>
<path d="M79.7814 98.2095L147.066 116.004C147.179 115.61 147.283 115.215 147.38 114.817L80.0971 97.0232C79.9844 97.4163 79.8796 97.8115 79.7814 98.2095Z" fill="#FFB9B5"/>
<path d="M80.8606 94.6673L147.884 112.394C147.953 111.987 148.015 111.582 148.071 111.173L81.3036 93.5156C81.1486 93.8965 81.0003 94.2802 80.8606 94.6673Z" fill="#FFB9B5"/>
<path d="M82.3237 91.2278L148.318 108.681C148.344 108.263 148.362 107.845 148.374 107.425L82.8976 90.1086C82.6999 90.4792 82.5081 90.8515 82.3237 91.2278Z" fill="#FFB9B5"/>
<path d="M84.1904 87.8948L148.347 104.862C148.327 104.431 148.297 104 148.261 103.568L84.9047 86.8128C84.6608 87.1702 84.4223 87.5311 84.1904 87.8948Z" fill="#FFB9B5"/>
<path d="M86.5016 84.6795L147.934 100.926C147.861 100.481 147.783 100.035 147.692 99.5913L87.374 83.6393C87.0752 83.9801 86.7854 84.3274 86.5016 84.6795Z" fill="#FFB9B5"/>
<path d="M89.3171 81.5974L147.014 96.8564C146.88 96.3927 146.737 95.9309 146.582 95.4712L90.3773 80.6069C90.0166 80.9302 89.6634 81.2608 89.3171 81.5974Z" fill="#FFB9B5"/>
<path d="M92.7489 78.6785L145.479 92.6239C145.267 92.1374 145.041 91.6548 144.806 91.1749L94.0521 77.7523C93.6089 78.0517 93.1747 78.3608 92.7489 78.6785Z" fill="#FFB9B5"/>
<path d="M96.9834 75.9718L143.144 88.1797C142.819 87.6549 142.481 87.1426 142.132 86.642L98.6254 75.1362C98.0736 75.3984 97.526 75.6765 96.9834 75.9718Z" fill="#FFB9B5"/>
<path d="M102.431 73.586L139.591 83.4135C139.069 82.826 138.529 82.2604 137.975 81.7151L104.677 72.9091C103.925 73.1088 103.176 73.3336 102.431 73.586Z" fill="#FFB9B5"/>
<path d="M110.484 71.8892L133.435 77.9589C132.23 77.1232 130.977 76.3689 129.686 75.6966L114.863 71.7763C113.408 71.7205 111.945 71.7586 110.484 71.8892Z" fill="#FFB9B5"/>
</svg>
