<svg width="174" height="150" viewBox="0 0 174 150" fill="none" xmlns="http://www.w3.org/2000/svg">
<path opacity="0.2" d="M62.9675 114.427C84.7304 134.002 118.241 132.228 137.816 110.465C157.391 88.7024 155.617 55.1916 133.854 35.6167C112.091 16.0418 78.5807 17.8156 59.0058 39.5784C39.4309 61.3413 41.2047 94.8521 62.9675 114.427Z" fill="#D2CCFF"/>
<path d="M55.5128 21.8148L39.446 22.6712C38.0911 23.0689 36.756 23.5505 35.4499 24.1146L59.6379 22.8253C58.2799 22.4033 56.9018 22.0663 55.5128 21.8148Z" fill="#FFB9B5"/>
<path d="M65.0226 25.0135L30.3248 26.863C29.6775 27.2844 29.0416 27.7278 28.4171 28.1951L67.0571 26.1355C66.3882 25.7361 65.7094 25.3628 65.0226 25.0135Z" fill="#FFB9B5"/>
<path d="M70.441 28.4283L25.2947 30.8347C24.853 31.2544 24.4213 31.6869 23.9984 32.1332L71.8661 29.5818C71.3979 29.184 70.9232 28.7998 70.441 28.4283Z" fill="#FFB9B5"/>
<path d="M74.3507 31.9256L21.7732 34.7281C21.4452 35.1489 21.1299 35.5772 20.823 36.0091L75.4298 33.0985C75.0793 32.7016 74.7209 32.3092 74.3507 31.9256Z" fill="#FFB9B5"/>
<path d="M77.3388 35.471L19.1716 38.5714C18.9274 38.9898 18.6927 39.4128 18.4685 39.8393L78.1709 36.6571C77.9032 36.2568 77.6265 35.862 77.3388 35.471Z" fill="#FFB9B5"/>
<path d="M79.6447 39.0527L17.2556 42.3781C17.0769 42.7951 16.9095 43.2145 16.7484 43.6356L80.2828 40.2491C80.0764 39.8476 79.865 39.4473 79.6447 39.0527Z" fill="#FFB9B5"/>
<path d="M81.3955 42.664L15.8911 46.1555C15.7686 46.5705 15.6533 46.9861 15.5462 47.4033L81.8673 43.8683C81.7191 43.4647 81.5609 43.0636 81.3955 42.664Z" fill="#FFB9B5"/>
<path d="M82.6742 46.3015L15.0037 49.9084C14.9301 50.3208 14.8608 50.735 14.8028 51.1496L83.0041 47.5143C82.9018 47.1073 82.7905 46.7037 82.6742 46.3015Z" fill="#FFB9B5"/>
<path d="M83.5265 49.9607L14.5381 53.6369C14.5085 54.0479 14.4891 54.4584 14.4749 54.8697L83.7194 51.1788C83.6612 50.7725 83.5979 50.3654 83.5265 49.9607Z" fill="#FFB9B5"/>
<path d="M83.9757 53.6404L14.476 57.3448C14.4904 57.7546 14.5118 58.1629 14.5415 58.5708L84.0391 54.8664C84.0258 54.4577 84.0044 54.0494 83.9757 53.6404Z" fill="#FFB9B5"/>
<path d="M84.0351 57.3429L14.8058 61.0319C14.8641 61.4403 14.9294 61.8453 15.0019 62.2509L83.9668 58.575C83.9974 58.1649 84.0209 57.7542 84.0351 57.3429Z" fill="#FFB9B5"/>
<path d="M83.6975 61.0655L15.5309 64.6989C15.6341 65.1049 15.7454 65.5084 15.8628 65.9116L83.4945 62.3068C83.569 61.8933 83.6374 61.4802 83.6975 61.0655Z" fill="#FFB9B5"/>
<path d="M82.9434 64.8104L16.6754 68.3426C16.8267 68.7471 16.9869 69.148 17.1543 69.5475L82.5955 66.0594C82.718 65.6444 82.8343 65.2277 82.9434 64.8104Z" fill="#FFB9B5"/>
<path d="M81.7299 68.5797L18.2752 71.9619C18.4816 72.3634 18.693 72.7637 18.9154 73.1582L81.2187 69.8373C81.3985 69.4214 81.5679 69.0018 81.7299 68.5797Z" fill="#FFB9B5"/>
<path d="M79.9957 72.3768L20.3994 75.5533C20.6692 75.9535 20.9469 76.3492 21.2356 76.7392L79.2905 73.6448C79.5347 73.2264 79.7694 72.8034 79.9957 72.3768Z" fill="#FFB9B5"/>
<path d="M77.6248 76.2077L23.1589 79.1108C23.5104 79.5087 23.8728 79.8989 24.2441 80.2834L76.6685 77.4891C76.9985 77.0682 77.3169 76.6407 77.6248 76.2077Z" fill="#FFB9B5"/>
<path d="M74.425 80.083L26.7451 82.6244C27.2155 83.0241 27.6943 83.4081 28.1805 83.7773L73.1186 81.382C73.5633 80.9632 73.9992 80.5305 74.425 80.083Z" fill="#FFB9B5"/>
<path d="M69.9716 84.0249L31.5888 86.0708C32.2659 86.4698 32.9529 86.8426 33.6479 87.1915L68.0415 85.3583C68.696 84.9375 69.3401 84.4937 69.9716 84.0249Z" fill="#FFB9B5"/>
<path d="M62.8277 88.1103L39.1214 89.3739C40.5247 89.7997 41.9487 90.1333 43.3833 90.3772L58.6948 89.5611C60.0959 89.168 61.4769 88.6829 62.8277 88.1103Z" fill="#FFB9B5"/>
</svg>
