<svg width="60" height="73" viewBox="0 0 60 73" fill="none" xmlns="http://www.w3.org/2000/svg">
<path fill-rule="evenodd" clip-rule="evenodd" d="M50.1252 38.7838C50.0328 29.5425 57.7344 25.1078 58.0785 24.8882C53.7496 18.616 47.0054 17.7538 44.6023 17.6569C38.8632 17.083 33.4055 21.0058 30.4897 21.0058C27.5819 21.0058 23.0885 17.743 18.33 17.8293C12.0753 17.9209 6.30891 21.4328 3.08453 26.9817C-3.41364 38.1493 1.42242 54.7014 7.75605 63.7569C10.85 68.1916 14.5397 73.1733 19.3853 72.9954C24.05 72.8136 25.8153 70.0021 31.4579 70.0021C37.0992 70.0021 38.6836 72.9955 43.6218 72.8998C48.6427 72.8082 51.8237 68.3789 54.8973 63.9293C58.4537 58.7832 59.9116 53.8069 60 53.551C59.8884 53.5011 50.2094 49.8289 50.1115 38.7878L50.1251 38.7838H50.1252ZM40.8501 11.6567C43.4205 8.56772 45.1572 4.27981 44.6826 0C40.9793 0.149526 36.4886 2.445 33.8299 5.52997C31.4431 8.26866 29.3582 12.6333 29.9158 16.8255C34.0515 17.1449 38.2742 14.7443 40.846 11.662L40.8501 11.6567Z" fill="black"/>
</svg>
