<svg width="456" height="136" viewBox="0 0 456 136" fill="none" xmlns="http://www.w3.org/2000/svg">
<path d="M54.0762 100.564C66.0771 95.5348 78.2572 91.4036 90.9746 88.5297C94.1988 87.8112 97.2438 87.0927 100.468 86.5538C103.334 86.015 112.111 82.7818 101.901 86.1946C106.916 84.578 114.439 85.1169 119.634 84.9373C126.082 84.7576 132.53 84.7576 138.978 85.1169C141.665 85.2965 144.531 85.4761 147.218 85.8354C149.546 86.015 151.696 86.3742 154.024 86.5538C152.592 86.3742 150.979 86.1946 149.546 86.015C162.801 86.1946 177.131 91.0443 189.848 93.9183C243.942 105.414 303.051 113.497 352.667 82.4226C371.654 70.5677 380.789 43.6246 367.892 23.8664C355.712 4.82671 329.74 -4.15429 309.5 8.59873C306.992 10.2153 304.663 11.6523 301.977 12.9096C300.723 13.6281 299.469 14.167 298.036 14.8854C295.17 16.1428 296.245 15.7835 301.618 13.2689C301.26 14.8854 288.364 17.2205 286.393 17.7594C284.781 18.1186 274.93 18.8371 282.094 18.6575C289.259 18.4778 280.661 18.6575 279.049 18.8371C273.138 19.1963 267.228 19.3759 261.496 19.1963C258.988 19.1963 245.196 19.7352 243.942 17.7594C245.196 19.5556 253.794 19.1963 244.479 17.7594C241.076 17.2205 237.673 16.6816 234.27 15.9632C221.373 13.6281 208.477 10.5746 195.58 7.88025C140.411 -3.61543 84.3472 -4.33391 31.3281 17.939C20.581 22.4295 11.9833 27.0996 5.89322 37.5176C0.51966 46.6782 -1.80888 60.1497 1.59437 70.388C7.86353 90.3259 32.0446 109.725 54.0762 100.564Z" fill="#FFC778"/>
<g opacity="0.5" clip-path="url(#clip0)">
<path d="M120.687 47.5539C120.877 47.4903 121.067 47.363 121.257 47.2358C121.447 47.1085 121.637 46.9812 121.764 46.7904C121.89 46.6631 122.08 46.4722 122.207 46.2813C122.334 46.0904 122.461 45.8995 122.524 45.7086C122.587 45.5178 122.651 45.3269 122.714 45.0723C122.777 44.6269 122.777 44.1815 122.714 43.7361C122.651 43.4816 122.587 43.2907 122.524 43.0998C122.461 42.9089 122.334 42.718 122.207 42.5271C122.08 42.3362 121.954 42.1454 121.764 42.0181C121.574 41.8272 121.447 41.6999 121.257 41.5727C121.067 41.4454 120.877 41.3182 120.687 41.2545C120.497 41.1909 120.307 41.1273 120.054 41.0636C119.864 41 119.61 41 119.42 41C118.977 41 118.534 41.0636 118.154 41.2545C117.71 41.4454 117.33 41.6999 117.013 42.0181C116.38 42.6544 116 43.4816 116 44.436C116 44.8815 116.063 45.3269 116.253 45.7086C116.443 46.0904 116.697 46.5358 117.013 46.854C117.647 47.4903 118.534 47.8721 119.42 47.8721C119.674 47.8721 119.864 47.8721 120.054 47.8084C120.307 47.7448 120.497 47.6812 120.687 47.5539Z" fill="#6C74D1"/>
<path d="M322.736 44.436C322.736 42.5271 321.216 41 319.316 41C317.479 41 315.896 42.5271 315.896 44.436C315.896 46.3449 317.416 47.8721 319.316 47.8721C321.216 47.8084 322.736 46.2813 322.736 44.436Z" fill="#6C74D1"/>
<path d="M344.904 44.436C344.904 42.5271 343.384 41 341.484 41C339.584 41 338.064 42.5271 338.064 44.436C338.064 46.3449 339.584 47.8721 341.484 47.8721C343.384 47.8084 344.904 46.2813 344.904 44.436Z" fill="#6C74D1"/>
<path d="M300.505 44.436C300.505 42.5271 298.984 41 297.084 41C295.184 41 293.664 42.5271 293.664 44.436C293.664 46.3449 295.184 47.8721 297.084 47.8721C298.984 47.8084 300.505 46.2813 300.505 44.436Z" fill="#6C74D1"/>
<path d="M389.368 44.436C389.368 42.5271 387.848 41 385.948 41C384.048 41 382.528 42.5271 382.528 44.436C382.528 46.3449 384.048 47.8721 385.948 47.8721C387.848 47.8084 389.368 46.2813 389.368 44.436Z" fill="#6C74D1"/>
<path d="M367.136 44.436C367.136 42.5271 365.616 41 363.716 41C361.816 41 360.296 42.5271 360.296 44.436C360.296 46.3449 361.816 47.8721 363.716 47.8721C365.616 47.8084 367.136 46.2813 367.136 44.436Z" fill="#6C74D1"/>
<path d="M411.6 44.436C411.6 42.5271 410.08 41 408.18 41C406.279 41 404.759 42.5271 404.759 44.436C404.759 46.3449 406.279 47.8721 408.18 47.8721C410.08 47.8084 411.6 46.2813 411.6 44.436Z" fill="#6C74D1"/>
<path d="M278.273 44.436C278.273 42.5271 276.753 41 274.852 41C272.952 41 271.432 42.5271 271.432 44.436C271.432 46.3449 272.952 47.8721 274.852 47.8721C276.753 47.8721 278.273 46.2813 278.273 44.436Z" fill="#6C74D1"/>
<path d="M189.472 44.436C189.472 42.5271 187.952 41 186.052 41C184.152 41 182.632 42.5271 182.632 44.436C182.632 46.3449 184.152 47.8721 186.052 47.8721C187.952 47.8084 189.472 46.2813 189.472 44.436Z" fill="#6C74D1"/>
<path d="M167.241 44.436C167.241 42.5271 165.721 41 163.821 41C161.921 41 160.4 42.5271 160.4 44.436C160.4 46.3449 161.921 47.8721 163.821 47.8721C165.721 47.8721 167.241 46.2813 167.241 44.436Z" fill="#6C74D1"/>
<path d="M256.104 44.436C256.104 42.5271 254.584 41 252.684 41C250.784 41 249.264 42.5271 249.264 44.436C249.264 46.3449 250.784 47.8721 252.684 47.8721C254.584 47.8084 256.104 46.2813 256.104 44.436Z" fill="#6C74D1"/>
<path d="M145.009 44.436C145.009 42.5271 143.489 41 141.589 41C139.689 41 138.168 42.5271 138.168 44.436C138.168 46.3449 139.689 47.8721 141.589 47.8721C143.489 47.8721 145.009 46.2813 145.009 44.436Z" fill="#6C74D1"/>
<path d="M233.873 44.436C233.873 42.5271 232.353 41 230.452 41C228.552 41 227.032 42.5271 227.032 44.436C227.032 46.3449 228.552 47.8721 230.452 47.8721C232.353 47.8721 233.873 46.2813 233.873 44.436Z" fill="#6C74D1"/>
<path d="M211.641 44.436C211.641 42.5271 210.121 41 208.221 41C206.384 41 204.8 42.5271 204.8 44.436C204.8 46.3449 206.32 47.8721 208.221 47.8721C210.121 47.8084 211.641 46.2813 211.641 44.436Z" fill="#6C74D1"/>
<path d="M431.678 47.5539C431.868 47.4903 432.058 47.363 432.248 47.2358C432.438 47.1085 432.628 46.9812 432.755 46.7904C432.882 46.6631 433.072 46.4722 433.135 46.2813C433.262 46.0904 433.388 45.8995 433.452 45.7086C433.515 45.5178 433.642 45.3269 433.642 45.0723C433.705 44.6269 433.705 44.1815 433.642 43.7361C433.578 43.4816 433.515 43.2907 433.452 43.0998C433.388 42.9089 433.262 42.718 433.135 42.5271C433.008 42.3362 432.882 42.1454 432.755 42.0181C432.628 41.8272 432.438 41.6999 432.248 41.5727C432.058 41.4454 431.868 41.3182 431.678 41.2545C431.488 41.1909 431.235 41.1273 431.045 41.0636C430.792 41 430.602 41 430.348 41C429.905 41 429.461 41.0636 429.081 41.2545C428.701 41.4454 428.321 41.6999 428.005 42.0181C427.688 42.3362 427.435 42.718 427.245 43.1634C427.055 43.5452 426.991 43.9906 426.991 44.436C426.991 45.3269 427.371 46.2177 428.005 46.854C428.638 47.4903 429.525 47.8721 430.411 47.8721C430.665 47.8721 430.855 47.8721 431.108 47.8084C431.235 47.7448 431.488 47.6812 431.678 47.5539Z" fill="#6C74D1"/>
<path d="M120.687 65.2431C120.877 65.1795 121.067 65.0522 121.257 64.9249C121.447 64.7977 121.637 64.6704 121.764 64.4795C121.89 64.3523 122.08 64.1614 122.207 63.9705C122.334 63.7796 122.461 63.5887 122.524 63.3978C122.587 63.2069 122.651 63.016 122.714 62.7615C122.777 62.3161 122.777 61.8707 122.714 61.4253C122.651 61.1708 122.587 60.9799 122.524 60.789C122.461 60.5981 122.334 60.4072 122.207 60.2163C122.08 60.0254 121.954 59.8345 121.764 59.7073C121.574 59.58 121.447 59.3891 121.257 59.2619C121.067 59.1346 120.877 59.0073 120.687 58.9437C120.497 58.8801 120.307 58.8164 120.054 58.7528C119.864 58.6892 119.61 58.6892 119.42 58.6892C118.977 58.6892 118.534 58.7528 118.154 58.9437C117.647 59.071 117.33 59.3255 117.013 59.6436C116.38 60.2799 116 61.1708 116 62.0616C116 62.507 116.063 62.9524 116.253 63.3342C116.443 63.7796 116.697 64.1614 117.013 64.4795C117.647 65.1158 118.534 65.4976 119.42 65.4976C119.674 65.4976 119.864 65.4976 120.054 65.434C120.307 65.3704 120.497 65.3067 120.687 65.2431Z" fill="#6C74D1"/>
<path d="M367.136 62.0616C367.136 60.1527 365.616 58.6256 363.716 58.6256C361.816 58.6256 360.296 60.1527 360.296 62.0616C360.296 63.9705 361.816 65.4976 363.716 65.4976C365.616 65.4976 367.136 63.9705 367.136 62.0616Z" fill="#6C74D1"/>
<path d="M322.736 62.0616C322.736 60.1527 321.216 58.6256 319.316 58.6256C317.479 58.6256 315.896 60.1527 315.896 62.0616C315.896 63.9705 317.416 65.4976 319.316 65.4976C321.216 65.4976 322.736 63.9705 322.736 62.0616Z" fill="#6C74D1"/>
<path d="M344.904 62.0616C344.904 60.1527 343.384 58.6256 341.484 58.6256C339.584 58.6256 338.064 60.1527 338.064 62.0616C338.064 63.9705 339.584 65.4976 341.484 65.4976C343.384 65.4976 344.904 63.9705 344.904 62.0616Z" fill="#6C74D1"/>
<path d="M389.368 62.0616C389.368 60.1527 387.848 58.6256 385.948 58.6256C384.048 58.6256 382.528 60.1527 382.528 62.0616C382.528 63.9705 384.048 65.4976 385.948 65.4976C387.848 65.4976 389.368 63.9705 389.368 62.0616Z" fill="#6C74D1"/>
<path d="M300.505 62.0616C300.505 60.1527 298.984 58.6256 297.084 58.6256C295.184 58.6256 293.664 60.1527 293.664 62.0616C293.664 63.9705 295.184 65.4976 297.084 65.4976C298.984 65.4976 300.505 63.9705 300.505 62.0616Z" fill="#6C74D1"/>
<path d="M411.6 62.0616C411.6 60.1527 410.08 58.6256 408.18 58.6256C406.279 58.6256 404.759 60.1527 404.759 62.0616C404.759 63.9705 406.279 65.4976 408.18 65.4976C410.08 65.4976 411.6 63.9705 411.6 62.0616Z" fill="#6C74D1"/>
<path d="M145.009 62.0616C145.009 60.1527 143.489 58.6256 141.589 58.6256C139.689 58.6256 138.168 60.1527 138.168 62.0616C138.168 63.9705 139.689 65.4976 141.589 65.4976C143.489 65.4976 145.009 63.9705 145.009 62.0616Z" fill="#6C74D1"/>
<path d="M189.472 62.0616C189.472 60.1527 187.952 58.6256 186.052 58.6256C184.152 58.6256 182.632 60.1527 182.632 62.0616C182.632 63.9705 184.152 65.4976 186.052 65.4976C187.952 65.4976 189.472 63.9705 189.472 62.0616Z" fill="#6C74D1"/>
<path d="M211.641 62.0616C211.641 60.1527 210.121 58.6256 208.221 58.6256C206.384 58.6256 204.8 60.1527 204.8 62.0616C204.8 63.9705 206.32 65.4976 208.221 65.4976C210.121 65.4976 211.641 63.9705 211.641 62.0616Z" fill="#6C74D1"/>
<path d="M167.241 62.0616C167.241 60.1527 165.721 58.6256 163.821 58.6256C161.921 58.6256 160.4 60.1527 160.4 62.0616C160.4 63.9705 161.921 65.4976 163.821 65.4976C165.721 65.4976 167.241 63.9705 167.241 62.0616Z" fill="#6C74D1"/>
<path d="M278.273 62.0616C278.273 60.1527 276.753 58.6256 274.852 58.6256C272.952 58.6256 271.432 60.1527 271.432 62.0616C271.432 63.9705 272.952 65.4976 274.852 65.4976C276.753 65.4976 278.273 63.9705 278.273 62.0616Z" fill="#6C74D1"/>
<path d="M256.104 62.0616C256.104 60.1527 254.584 58.6256 252.684 58.6256C250.784 58.6256 249.264 60.1527 249.264 62.0616C249.264 63.9705 250.784 65.4976 252.684 65.4976C254.584 65.4976 256.104 63.9705 256.104 62.0616Z" fill="#6C74D1"/>
<path d="M233.873 62.0616C233.873 60.1527 232.353 58.6256 230.452 58.6256C228.552 58.6256 227.032 60.1527 227.032 62.0616C227.032 63.9705 228.552 65.4976 230.452 65.4976C232.353 65.4976 233.873 63.9705 233.873 62.0616Z" fill="#6C74D1"/>
<path d="M433.705 61.4253C433.641 61.1708 433.578 60.9799 433.515 60.789C433.451 60.5981 433.325 60.4072 433.198 60.2163C433.071 60.0254 432.945 59.8346 432.818 59.7073C432.185 59.071 431.298 58.6892 430.411 58.6892C429.968 58.6892 429.524 58.7528 429.144 58.9437C428.764 59.1346 428.384 59.3891 428.068 59.7073C427.751 60.0254 427.498 60.4072 427.308 60.8526C427.118 61.2344 427.054 61.6798 427.054 62.1252C427.054 63.0161 427.434 63.9069 428.068 64.5432C428.384 64.8613 428.764 65.1159 429.144 65.3068C429.524 65.434 430.031 65.5613 430.411 65.5613C431.298 65.5613 432.185 65.1795 432.818 64.5432C433.578 63.6524 433.958 62.507 433.705 61.4253Z" fill="#6C74D1"/>
<path d="M120.687 82.8687C120.877 82.7414 121.067 82.6778 121.257 82.5506C121.447 82.4233 121.637 82.296 121.764 82.1051C121.954 81.9143 122.08 81.787 122.207 81.5961C122.334 81.4052 122.461 81.2143 122.524 80.9598C122.587 80.7689 122.651 80.578 122.714 80.3235C122.777 79.8781 122.777 79.4327 122.714 78.9873C122.651 78.7327 122.587 78.5419 122.524 78.351C122.461 78.1601 122.334 77.9692 122.207 77.7783C122.08 77.5874 121.954 77.4601 121.827 77.2693C121.637 77.142 121.447 76.9511 121.257 76.8238C121.067 76.7602 120.877 76.6329 120.687 76.5693C120.497 76.5057 120.307 76.4421 120.054 76.3784C119.864 76.3148 119.61 76.3148 119.42 76.3148C118.977 76.3148 118.534 76.3784 118.154 76.5693C117.647 76.6966 117.33 76.9511 117.013 77.2693C116.38 77.9056 116 78.7964 116 79.6872C116 80.1326 116.063 80.578 116.253 80.9598C116.443 81.4052 116.697 81.787 117.013 82.1051C117.647 82.7414 118.534 83.1232 119.42 83.1232C119.674 83.1232 119.864 83.1232 120.054 83.0596C120.307 82.996 120.497 82.9323 120.687 82.8687Z" fill="#6C74D1"/>
<path d="M344.904 79.6872C344.904 77.7783 343.384 76.2512 341.484 76.2512C339.584 76.2512 338.064 77.7783 338.064 79.6872C338.064 81.5961 339.584 83.1232 341.484 83.1232C343.384 83.1232 344.904 81.5961 344.904 79.6872Z" fill="#6C74D1"/>
<path d="M322.736 79.6872C322.736 77.7783 321.216 76.2512 319.316 76.2512C317.479 76.2512 315.896 77.7783 315.896 79.6872C315.896 81.5961 317.416 83.1232 319.316 83.1232C321.216 83.1232 322.736 81.5961 322.736 79.6872Z" fill="#6C74D1"/>
<path d="M367.136 79.6872C367.136 77.7783 365.616 76.2512 363.716 76.2512C361.816 76.2512 360.296 77.7783 360.296 79.6872C360.296 81.5961 361.816 83.1232 363.716 83.1232C365.616 83.1232 367.136 81.5961 367.136 79.6872Z" fill="#6C74D1"/>
<path d="M300.505 79.6872C300.505 77.7783 298.984 76.2512 297.084 76.2512C295.184 76.2512 293.664 77.7783 293.664 79.6872C293.664 81.5961 295.184 83.1232 297.084 83.1232C298.984 83.1232 300.505 81.5961 300.505 79.6872Z" fill="#6C74D1"/>
<path d="M389.368 79.6872C389.368 77.7783 387.848 76.2512 385.948 76.2512C384.048 76.2512 382.528 77.7783 382.528 79.6872C382.528 81.5961 384.048 83.1232 385.948 83.1232C387.848 83.1232 389.368 81.5961 389.368 79.6872Z" fill="#6C74D1"/>
<path d="M411.6 79.6872C411.6 77.7783 410.08 76.2512 408.18 76.2512C406.279 76.2512 404.759 77.7783 404.759 79.6872C404.759 81.5961 406.279 83.1232 408.18 83.1232C410.08 83.1232 411.6 81.5961 411.6 79.6872Z" fill="#6C74D1"/>
<path d="M233.873 79.6872C233.873 77.7783 232.353 76.2512 230.452 76.2512C228.552 76.2512 227.032 77.7783 227.032 79.6872C227.032 81.5961 228.552 83.1232 230.452 83.1232C232.353 83.1232 233.873 81.5961 233.873 79.6872Z" fill="#6C74D1"/>
<path d="M189.472 79.6872C189.472 77.7783 187.952 76.2512 186.052 76.2512C184.152 76.2512 182.632 77.7783 182.632 79.6872C182.632 81.5961 184.152 83.1232 186.052 83.1232C187.952 83.1232 189.472 81.5961 189.472 79.6872Z" fill="#6C74D1"/>
<path d="M167.241 79.6872C167.241 77.7783 165.72 76.2512 163.82 76.2512C161.92 76.2512 160.463 77.7783 160.463 79.6872C160.463 81.5961 161.983 83.1232 163.884 83.1232C165.784 83.1232 167.241 81.5961 167.241 79.6872Z" fill="#6C74D1"/>
<path d="M211.641 79.6872C211.641 77.7783 210.121 76.2512 208.221 76.2512C206.384 76.2512 204.8 77.7783 204.8 79.6872C204.8 81.5961 206.32 83.1232 208.221 83.1232C210.121 83.1232 211.641 81.5961 211.641 79.6872Z" fill="#6C74D1"/>
<path d="M278.273 79.6872C278.273 77.7783 276.753 76.2512 274.852 76.2512C272.952 76.2512 271.432 77.7783 271.432 79.6872C271.432 81.5961 272.952 83.1232 274.852 83.1232C276.753 83.1232 278.273 81.5961 278.273 79.6872Z" fill="#6C74D1"/>
<path d="M256.104 79.6872C256.104 77.7783 254.584 76.2512 252.684 76.2512C250.784 76.2512 249.264 77.7783 249.264 79.6872C249.264 81.5961 250.784 83.1232 252.684 83.1232C254.584 83.1232 256.104 81.5961 256.104 79.6872Z" fill="#6C74D1"/>
<path d="M145.009 79.6872C145.009 77.7783 143.489 76.2512 141.589 76.2512C139.689 76.2512 138.232 77.7783 138.232 79.6872C138.232 81.5961 139.752 83.1232 141.652 83.1232C143.552 83.1232 145.009 81.5961 145.009 79.6872Z" fill="#6C74D1"/>
<path d="M431.678 82.8687C431.868 82.805 432.058 82.6778 432.248 82.5505C432.438 82.4233 432.628 82.296 432.755 82.1051C432.882 81.9142 433.072 81.787 433.135 81.5961C433.262 81.4052 433.388 81.2143 433.452 81.0234C433.515 80.8325 433.642 80.6416 433.642 80.3871C433.705 79.9417 433.705 79.4963 433.642 79.0509C433.578 78.7963 433.515 78.6055 433.452 78.4146C433.388 78.2237 433.262 78.0328 433.135 77.8419C433.008 77.651 432.882 77.4601 432.755 77.3328C432.628 77.2056 432.438 77.0147 432.248 76.8874C432.058 76.7602 431.868 76.6329 431.678 76.5693C431.488 76.5057 431.235 76.442 431.045 76.3784C430.792 76.3148 430.602 76.3148 430.348 76.3148C429.905 76.3148 429.461 76.3784 429.081 76.5693C428.701 76.7602 428.321 77.0147 428.005 77.3328C427.371 77.9691 426.991 78.86 426.991 79.7508C426.991 80.1962 427.055 80.6416 427.245 81.0234C427.371 81.4688 427.625 81.8506 428.005 82.1687C428.321 82.4869 428.701 82.7414 429.081 82.9323C429.461 83.0596 429.968 83.1868 430.348 83.1868C430.602 83.1868 430.792 83.1868 431.045 83.1232C431.235 82.9959 431.488 82.9323 431.678 82.8687Z" fill="#6C74D1"/>
<path d="M120.687 100.494C120.877 100.367 121.067 100.303 121.257 100.176C121.447 100.049 121.637 99.9216 121.827 99.7308C121.954 99.6035 122.144 99.4126 122.27 99.2217C122.334 99.0308 122.461 98.8399 122.524 98.649C122.587 98.3945 122.651 98.2036 122.714 98.0127C122.777 97.5673 122.777 97.1219 122.714 96.6765C122.651 96.422 122.587 96.2311 122.524 96.0402C122.461 95.8493 122.334 95.5948 122.207 95.4039C122.08 95.2766 121.954 95.0857 121.827 94.8949C121.637 94.7676 121.447 94.6403 121.257 94.4494C121.067 94.3858 120.877 94.2586 120.687 94.1949C120.497 94.0677 120.307 94.004 120.054 94.004C119.864 93.9404 119.61 93.9404 119.42 93.9404C118.977 93.9404 118.534 94.004 118.154 94.1949C117.647 94.3222 117.33 94.5767 117.013 94.8949C116.697 95.213 116.443 95.5948 116.253 96.0402C116.063 96.422 116 96.8674 116 97.3128C116 98.2036 116.38 99.0945 117.013 99.7308C117.33 100.049 117.647 100.303 118.09 100.494C118.534 100.622 118.914 100.749 119.42 100.749C119.674 100.749 119.864 100.749 120.054 100.685C120.307 100.622 120.497 100.558 120.687 100.494Z" fill="#6C74D1"/>
<path d="M300.505 97.3128C300.505 95.4039 298.984 93.8768 297.084 93.8768C295.184 93.8768 293.664 95.4039 293.664 97.3128C293.664 99.2217 295.184 100.749 297.084 100.749C298.984 100.749 300.505 99.2217 300.505 97.3128Z" fill="#6C74D1"/>
<path d="M278.273 97.3128C278.273 95.4039 276.753 93.8768 274.852 93.8768C272.952 93.8768 271.432 95.4039 271.432 97.3128C271.432 99.2217 272.952 100.749 274.852 100.749C276.753 100.749 278.273 99.2217 278.273 97.3128Z" fill="#6C74D1"/>
<path d="M344.904 97.3128C344.904 95.4039 343.384 93.8768 341.484 93.8768C339.584 93.8768 338.064 95.4039 338.064 97.3128C338.064 99.2217 339.584 100.749 341.484 100.749C343.384 100.749 344.904 99.2217 344.904 97.3128Z" fill="#6C74D1"/>
<path d="M367.136 97.3128C367.136 95.4039 365.616 93.8768 363.716 93.8768C361.816 93.8768 360.296 95.4039 360.296 97.3128C360.296 99.2217 361.816 100.749 363.716 100.749C365.616 100.749 367.136 99.2217 367.136 97.3128Z" fill="#6C74D1"/>
<path d="M322.736 97.3128C322.736 95.4039 321.216 93.8768 319.316 93.8768C317.479 93.8768 315.896 95.4039 315.896 97.3128C315.896 99.2217 317.416 100.749 319.316 100.749C321.216 100.749 322.736 99.2217 322.736 97.3128Z" fill="#6C74D1"/>
<path d="M256.104 97.3128C256.104 95.4039 254.584 93.8768 252.684 93.8768C250.784 93.8768 249.264 95.4039 249.264 97.3128C249.264 99.2217 250.784 100.749 252.684 100.749C254.584 100.749 256.104 99.2217 256.104 97.3128Z" fill="#6C74D1"/>
<path d="M233.873 97.3128C233.873 95.4039 232.353 93.8768 230.452 93.8768C228.552 93.8768 227.032 95.4039 227.032 97.3128C227.032 99.2217 228.552 100.749 230.452 100.749C232.353 100.749 233.873 99.2217 233.873 97.3128Z" fill="#6C74D1"/>
<path d="M145.009 97.3128C145.009 95.4039 143.489 93.8768 141.589 93.8768C139.689 93.8768 138.232 95.4039 138.232 97.3128C138.232 99.2217 139.752 100.749 141.652 100.749C143.552 100.749 145.009 99.2217 145.009 97.3128Z" fill="#6C74D1"/>
<path d="M411.6 97.3128C411.6 95.4039 410.08 93.8768 408.18 93.8768C406.279 93.8768 404.759 95.4039 404.759 97.3128C404.759 99.2217 406.279 100.749 408.18 100.749C410.08 100.749 411.6 99.2217 411.6 97.3128Z" fill="#6C74D1"/>
<path d="M167.241 97.3128C167.241 95.4039 165.72 93.8768 163.82 93.8768C161.92 93.8768 160.463 95.4039 160.463 97.3128C160.463 99.2217 161.983 100.749 163.884 100.749C165.784 100.749 167.241 99.2217 167.241 97.3128Z" fill="#6C74D1"/>
<path d="M211.641 97.3128C211.641 95.4039 210.121 93.8768 208.221 93.8768C206.384 93.8768 204.8 95.4039 204.8 97.3128C204.8 99.2217 206.32 100.749 208.221 100.749C210.121 100.749 211.641 99.2217 211.641 97.3128Z" fill="#6C74D1"/>
<path d="M189.472 97.3128C189.472 95.4039 187.952 93.8768 186.052 93.8768C184.152 93.8768 182.632 95.4039 182.632 97.3128C182.632 99.2217 184.152 100.749 186.052 100.749C187.952 100.749 189.472 99.2217 189.472 97.3128Z" fill="#6C74D1"/>
<path d="M389.368 97.3128C389.368 95.4039 387.848 93.8768 385.948 93.8768C384.048 93.8768 382.528 95.4039 382.528 97.3128C382.528 99.2217 384.048 100.749 385.948 100.749C387.848 100.749 389.368 99.2217 389.368 97.3128Z" fill="#6C74D1"/>
<path d="M433.705 96.6765C433.641 96.422 433.578 96.2311 433.515 96.0402C433.451 95.8493 433.325 95.6584 433.198 95.4675C433.071 95.2766 432.945 95.0857 432.818 94.9585C432.185 94.3222 431.298 93.9404 430.411 93.9404C429.968 93.9404 429.524 94.004 429.144 94.1949C428.764 94.3222 428.384 94.5767 428.068 94.8949C427.751 95.213 427.498 95.5948 427.308 96.0402C427.118 96.422 427.054 96.8674 427.054 97.3128C427.054 97.7582 427.118 98.2036 427.308 98.649C427.434 99.0308 427.688 99.4126 428.068 99.7308C428.384 100.049 428.764 100.303 429.144 100.494C429.524 100.622 430.031 100.749 430.411 100.749C431.298 100.749 432.185 100.367 432.818 99.7308C433.578 98.9672 433.958 97.7582 433.705 96.6765Z" fill="#6C74D1"/>
<path d="M120.687 118.12C120.877 118.056 121.067 117.929 121.257 117.802C121.447 117.674 121.637 117.547 121.827 117.356C121.954 117.165 122.144 117.038 122.27 116.847C122.334 116.656 122.461 116.465 122.524 116.275C122.587 116.084 122.651 115.829 122.714 115.638C122.777 115.193 122.777 114.747 122.714 114.302C122.651 114.048 122.587 113.857 122.524 113.666C122.461 113.475 122.334 113.22 122.207 113.093C122.08 112.902 121.954 112.711 121.764 112.584C121.574 112.457 121.447 112.266 121.257 112.202C121.067 112.011 120.877 111.884 120.687 111.82C120.497 111.757 120.307 111.63 120.054 111.63C119.864 111.566 119.61 111.566 119.42 111.566C118.534 111.566 117.647 111.948 117.013 112.584C116.697 112.839 116.443 113.22 116.253 113.666C116.063 114.048 116 114.493 116 114.938C116 115.893 116.38 116.72 117.013 117.356C117.647 117.993 118.534 118.374 119.42 118.374C119.674 118.374 119.864 118.374 120.054 118.311C120.307 118.247 120.497 118.183 120.687 118.12Z" fill="#6C74D1"/>
<path d="M278.273 114.938C278.273 113.029 276.753 111.502 274.852 111.502C272.952 111.502 271.432 113.029 271.432 114.938C271.432 116.847 272.952 118.374 274.852 118.374C276.753 118.374 278.273 116.847 278.273 114.938Z" fill="#6C74D1"/>
<path d="M300.505 114.938C300.505 113.029 298.984 111.502 297.084 111.502C295.184 111.502 293.664 113.029 293.664 114.938C293.664 116.847 295.184 118.374 297.084 118.374C298.984 118.374 300.505 116.847 300.505 114.938Z" fill="#6C74D1"/>
<path d="M344.904 114.938C344.904 113.029 343.384 111.502 341.484 111.502C339.584 111.502 338.064 113.029 338.064 114.938C338.064 116.847 339.584 118.374 341.484 118.374C343.384 118.374 344.904 116.847 344.904 114.938Z" fill="#6C74D1"/>
<path d="M322.736 114.938C322.736 113.029 321.216 111.502 319.316 111.502C317.479 111.502 315.896 113.029 315.896 114.938C315.896 116.847 317.416 118.374 319.316 118.374C321.216 118.374 322.736 116.847 322.736 114.938Z" fill="#6C74D1"/>
<path d="M411.6 114.938C411.6 113.029 410.08 111.502 408.18 111.502C406.279 111.502 404.759 113.029 404.759 114.938C404.759 116.847 406.279 118.374 408.18 118.374C410.08 118.374 411.6 116.847 411.6 114.938Z" fill="#6C74D1"/>
<path d="M367.136 114.938C367.136 113.029 365.616 111.502 363.716 111.502C361.816 111.502 360.296 113.029 360.296 114.938C360.296 116.847 361.816 118.374 363.716 118.374C365.616 118.374 367.136 116.847 367.136 114.938Z" fill="#6C74D1"/>
<path d="M389.368 114.938C389.368 113.029 387.848 111.502 385.948 111.502C384.048 111.502 382.528 113.029 382.528 114.938C382.528 116.847 384.048 118.374 385.948 118.374C387.848 118.374 389.368 116.847 389.368 114.938Z" fill="#6C74D1"/>
<path d="M189.472 114.938C189.472 113.029 187.952 111.502 186.052 111.502C184.152 111.502 182.632 113.029 182.632 114.938C182.632 116.847 184.152 118.374 186.052 118.374C187.952 118.374 189.472 116.847 189.472 114.938Z" fill="#6C74D1"/>
<path d="M256.104 114.938C256.104 113.029 254.584 111.502 252.684 111.502C250.784 111.502 249.264 113.029 249.264 114.938C249.264 116.847 250.784 118.374 252.684 118.374C254.584 118.374 256.104 116.847 256.104 114.938Z" fill="#6C74D1"/>
<path d="M167.241 114.938C167.241 113.029 165.72 111.502 163.82 111.502C161.92 111.502 160.463 113.093 160.463 114.938C160.463 116.847 161.983 118.374 163.884 118.374C165.784 118.374 167.241 116.847 167.241 114.938Z" fill="#6C74D1"/>
<path d="M233.873 114.938C233.873 113.029 232.353 111.502 230.452 111.502C228.552 111.502 227.032 113.029 227.032 114.938C227.032 116.847 228.552 118.374 230.452 118.374C232.353 118.374 233.873 116.847 233.873 114.938Z" fill="#6C74D1"/>
<path d="M211.641 114.938C211.641 113.029 210.121 111.502 208.221 111.502C206.384 111.502 204.8 113.029 204.8 114.938C204.8 116.847 206.32 118.374 208.221 118.374C210.121 118.374 211.641 116.847 211.641 114.938Z" fill="#6C74D1"/>
<path d="M145.009 114.938C145.009 113.029 143.489 111.502 141.589 111.502C139.689 111.502 138.232 113.093 138.232 114.938C138.232 116.847 139.752 118.374 141.652 118.374C143.552 118.374 145.009 116.847 145.009 114.938Z" fill="#6C74D1"/>
<path d="M433.198 116.847C433.325 116.656 433.451 116.465 433.515 116.275C433.578 116.084 433.705 115.829 433.705 115.638C433.768 115.193 433.768 114.747 433.705 114.302C433.641 114.048 433.578 113.857 433.515 113.666C433.451 113.475 433.325 113.284 433.198 113.093C433.071 112.902 432.945 112.711 432.818 112.584C432.691 112.457 432.501 112.266 432.311 112.139C432.121 112.011 431.931 111.884 431.741 111.82C431.551 111.757 431.298 111.63 431.108 111.63C430.854 111.566 430.664 111.566 430.411 111.566C429.968 111.566 429.524 111.63 429.144 111.82C428.764 111.948 428.384 112.202 428.068 112.52C427.434 113.157 427.054 114.048 427.054 114.938C427.054 115.829 427.434 116.72 428.068 117.356C428.384 117.674 428.764 117.929 429.144 118.12C429.524 118.311 430.031 118.374 430.411 118.374C431.298 118.374 432.185 117.993 432.818 117.356C432.945 117.229 433.071 117.038 433.198 116.847Z" fill="#6C74D1"/>
<path d="M120.687 135.745C120.877 135.682 121.067 135.555 121.257 135.427C121.447 135.3 121.637 135.173 121.764 134.982C121.89 134.791 122.08 134.664 122.207 134.473C122.334 134.282 122.461 134.091 122.524 133.9C122.587 133.709 122.651 133.455 122.714 133.264C122.777 132.818 122.777 132.373 122.714 131.928C122.651 131.673 122.587 131.482 122.524 131.291C122.461 131.1 122.334 130.91 122.207 130.719C122.08 130.528 121.954 130.337 121.764 130.21C121.574 130.019 121.447 129.891 121.257 129.828C121.067 129.637 120.877 129.51 120.687 129.446C120.497 129.382 120.307 129.319 120.054 129.255C119.864 129.192 119.61 129.192 119.42 129.192C118.534 129.192 117.647 129.573 117.013 130.21C116.697 130.464 116.443 130.91 116.253 131.291C116.063 131.673 116 132.119 116 132.564C116 133.518 116.38 134.346 117.013 134.982C117.647 135.682 118.47 136 119.42 136C119.674 136 119.864 136 120.054 135.936C120.307 135.873 120.497 135.873 120.687 135.745Z" fill="#6C74D1"/>
<path d="M278.273 132.564C278.273 130.655 276.753 129.128 274.852 129.128C272.952 129.128 271.432 130.655 271.432 132.564C271.432 134.473 273.016 136 274.916 136C276.816 136 278.273 134.473 278.273 132.564Z" fill="#6C74D1"/>
<path d="M300.505 132.564C300.505 130.655 298.984 129.128 297.084 129.128C295.184 129.128 293.664 130.655 293.664 132.564C293.664 134.473 295.248 136 297.084 136C298.984 136 300.505 134.473 300.505 132.564Z" fill="#6C74D1"/>
<path d="M344.904 132.564C344.904 130.655 343.384 129.128 341.484 129.128C339.584 129.128 338.064 130.655 338.064 132.564C338.064 134.473 339.647 136 341.548 136C343.384 136 344.904 134.473 344.904 132.564Z" fill="#6C74D1"/>
<path d="M322.736 132.564C322.736 130.655 321.216 129.128 319.316 129.128C317.479 129.128 315.896 130.655 315.896 132.564C315.896 134.473 317.479 136 319.316 136C321.216 136 322.736 134.473 322.736 132.564Z" fill="#6C74D1"/>
<path d="M411.6 132.564C411.6 130.655 410.08 129.128 408.18 129.128C406.279 129.128 404.759 130.655 404.759 132.564C404.759 134.473 406.279 136 408.18 136C410.08 136 411.6 134.473 411.6 132.564Z" fill="#6C74D1"/>
<path d="M367.136 132.564C367.136 130.655 365.616 129.128 363.716 129.128C361.816 129.128 360.296 130.655 360.296 132.564C360.296 134.473 361.879 136 363.716 136C365.616 136 367.136 134.473 367.136 132.564Z" fill="#6C74D1"/>
<path d="M389.368 132.564C389.368 130.655 387.848 129.128 385.948 129.128C384.048 129.128 382.528 130.655 382.528 132.564C382.528 134.473 384.111 136 385.948 136C387.848 136 389.368 134.473 389.368 132.564Z" fill="#6C74D1"/>
<path d="M189.472 132.564C189.472 130.655 187.952 129.128 186.052 129.128C184.152 129.128 182.632 130.655 182.632 132.564C182.632 134.473 184.152 136 186.052 136C187.952 136 189.472 134.473 189.472 132.564Z" fill="#6C74D1"/>
<path d="M256.104 132.564C256.104 130.655 254.584 129.128 252.684 129.128C250.784 129.128 249.264 130.655 249.264 132.564C249.264 134.473 250.784 136 252.684 136C254.584 136 256.104 134.473 256.104 132.564Z" fill="#6C74D1"/>
<path d="M167.241 132.564C167.241 130.655 165.72 129.128 163.82 129.128C161.92 129.128 160.463 130.719 160.463 132.564C160.463 134.409 161.983 136 163.82 136C165.657 136 167.241 134.473 167.241 132.564Z" fill="#6C74D1"/>
<path d="M233.873 132.564C233.873 130.655 232.353 129.128 230.452 129.128C228.552 129.128 227.032 130.655 227.032 132.564C227.032 134.473 228.552 136 230.452 136C232.353 136 233.873 134.473 233.873 132.564Z" fill="#6C74D1"/>
<path d="M211.641 132.564C211.641 130.655 210.121 129.128 208.221 129.128C206.384 129.128 204.8 130.655 204.8 132.564C204.8 134.473 206.384 136 208.221 136C210.121 136 211.641 134.473 211.641 132.564Z" fill="#6C74D1"/>
<path d="M145.009 132.564C145.009 130.655 143.489 129.128 141.589 129.128C139.689 129.128 138.232 130.719 138.232 132.564C138.232 134.409 139.752 136 141.589 136C143.426 136 145.009 134.473 145.009 132.564Z" fill="#6C74D1"/>
<path d="M433.198 134.473C433.325 134.282 433.452 134.091 433.515 133.9C433.578 133.709 433.705 133.455 433.705 133.264C433.768 132.818 433.768 132.373 433.705 131.928C433.642 131.673 433.578 131.482 433.515 131.291C433.452 131.1 433.325 130.91 433.198 130.719C433.072 130.528 432.945 130.337 432.818 130.21C432.692 130.019 432.502 129.891 432.312 129.764C432.122 129.637 431.932 129.51 431.742 129.446C431.552 129.382 431.298 129.319 431.108 129.255C430.855 129.192 430.665 129.192 430.411 129.192C429.968 129.192 429.525 129.255 429.145 129.446C428.701 129.637 428.321 129.828 428.005 130.146C427.371 130.782 426.991 131.673 426.991 132.564C426.991 133.455 427.371 134.346 428.005 134.982C428.321 135.3 428.701 135.555 429.081 135.745C429.461 135.936 429.968 136 430.348 136C431.235 136 432.122 135.618 432.755 134.982C432.945 134.855 433.072 134.664 433.198 134.473Z" fill="#6C74D1"/>
<path d="M453.91 47.5539C454.1 47.4903 454.29 47.363 454.48 47.2358C454.67 47.1085 454.86 46.9812 454.986 46.7904C455.113 46.6631 455.303 46.4722 455.366 46.2813C455.493 46.0904 455.62 45.8995 455.683 45.7086C455.747 45.5178 455.873 45.3269 455.873 45.0723C455.937 44.6269 455.937 44.1815 455.873 43.7361C455.81 43.4816 455.747 43.2907 455.683 43.0998C455.62 42.9089 455.493 42.718 455.366 42.5271C455.24 42.3362 455.113 42.1454 454.986 42.0181C454.86 41.8272 454.67 41.6999 454.48 41.5727C454.29 41.4454 454.1 41.3182 453.91 41.2545C453.72 41.1909 453.466 41.1273 453.276 41.0636C453.023 41 452.833 41 452.58 41C452.136 41 451.693 41.0636 451.313 41.2545C450.933 41.4454 450.553 41.6999 450.236 42.0181C449.919 42.3362 449.666 42.718 449.476 43.1634C449.286 43.5452 449.223 43.9906 449.223 44.436C449.223 45.3269 449.603 46.2177 450.236 46.854C450.869 47.4903 451.756 47.8721 452.643 47.8721C452.896 47.8721 453.086 47.8721 453.34 47.8084C453.466 47.7448 453.656 47.6812 453.91 47.5539Z" fill="#6C74D1"/>
<path d="M455.937 61.4253C455.873 61.1708 455.81 60.9799 455.747 60.789C455.683 60.5981 455.557 60.4072 455.43 60.2163C455.303 60.0254 455.177 59.8346 455.05 59.7073C454.417 59.071 453.53 58.6892 452.643 58.6892C452.2 58.6892 451.756 58.7528 451.376 58.9437C450.996 59.1346 450.616 59.3891 450.3 59.7073C449.983 60.0254 449.73 60.4072 449.539 60.8526C449.349 61.2344 449.286 61.6798 449.286 62.1252C449.286 63.0161 449.666 63.9069 450.3 64.5432C450.616 64.8613 450.996 65.1159 451.376 65.3068C451.756 65.434 452.263 65.5613 452.643 65.5613C453.53 65.5613 454.417 65.1795 455.05 64.5432C455.747 63.6524 456.127 62.507 455.937 61.4253Z" fill="#6C74D1"/>
<path d="M453.91 82.8687C454.1 82.805 454.29 82.6778 454.48 82.5505C454.67 82.4233 454.86 82.296 454.986 82.1051C455.113 81.9142 455.303 81.787 455.366 81.5961C455.493 81.4052 455.62 81.2143 455.683 81.0234C455.747 80.8325 455.873 80.6416 455.873 80.3871C455.937 79.9417 455.937 79.4963 455.873 79.0509C455.81 78.7963 455.747 78.6055 455.683 78.4146C455.62 78.2237 455.493 78.0328 455.366 77.8419C455.24 77.651 455.113 77.4601 454.986 77.3328C454.86 77.2056 454.67 77.0147 454.48 76.8874C454.29 76.7602 454.1 76.6329 453.91 76.5693C453.72 76.5057 453.466 76.442 453.276 76.3784C453.023 76.3148 452.833 76.3148 452.58 76.3148C452.136 76.3148 451.693 76.3784 451.313 76.5693C450.933 76.7602 450.553 77.0147 450.236 77.3328C449.603 77.9691 449.223 78.86 449.223 79.7508C449.223 80.1962 449.286 80.6416 449.476 81.0234C449.603 81.4688 449.856 81.8506 450.236 82.1687C450.553 82.4869 450.933 82.7414 451.313 82.9323C451.693 83.0596 452.2 83.1868 452.58 83.1868C452.833 83.1868 453.023 83.1868 453.276 83.1232C453.466 82.9959 453.656 82.9323 453.91 82.8687Z" fill="#6C74D1"/>
<path d="M455.937 96.6765C455.873 96.422 455.81 96.2311 455.747 96.0402C455.683 95.8493 455.557 95.6584 455.43 95.4675C455.303 95.2766 455.177 95.0857 455.05 94.9585C454.417 94.3222 453.53 93.9404 452.643 93.9404C452.2 93.9404 451.756 94.004 451.376 94.1949C450.996 94.3222 450.616 94.5767 450.3 94.8949C449.983 95.213 449.73 95.5948 449.539 96.0402C449.349 96.422 449.286 96.8674 449.286 97.3128C449.286 97.7582 449.349 98.2036 449.539 98.649C449.666 99.0308 449.92 99.4126 450.3 99.7308C450.616 100.049 450.996 100.303 451.376 100.494C451.756 100.622 452.263 100.749 452.643 100.749C453.53 100.749 454.417 100.367 455.05 99.7308C455.747 98.9672 456.127 97.7582 455.937 96.6765Z" fill="#6C74D1"/>
<path d="M455.43 116.847C455.557 116.656 455.683 116.465 455.747 116.275C455.81 116.084 455.937 115.829 455.937 115.638C456 115.193 456 114.747 455.937 114.302C455.873 114.048 455.81 113.857 455.747 113.666C455.683 113.475 455.557 113.284 455.43 113.093C455.303 112.902 455.177 112.711 455.05 112.584C454.923 112.457 454.733 112.266 454.543 112.139C454.353 112.011 454.163 111.884 453.973 111.82C453.783 111.757 453.53 111.63 453.34 111.63C453.086 111.566 452.896 111.566 452.643 111.566C452.2 111.566 451.756 111.63 451.376 111.82C450.996 111.948 450.616 112.202 450.3 112.52C449.666 113.157 449.286 114.048 449.286 114.938C449.286 115.829 449.666 116.72 450.3 117.356C450.616 117.674 450.996 117.929 451.376 118.12C451.756 118.311 452.263 118.374 452.643 118.374C453.53 118.374 454.417 117.993 455.05 117.356C455.113 117.229 455.303 117.038 455.43 116.847Z" fill="#6C74D1"/>
<path d="M455.43 134.473C455.557 134.282 455.684 134.091 455.747 133.9C455.81 133.709 455.937 133.455 455.937 133.264C456 132.818 456 132.373 455.937 131.928C455.874 131.673 455.81 131.482 455.747 131.291C455.684 131.1 455.557 130.91 455.43 130.719C455.304 130.528 455.177 130.337 455.05 130.21C454.923 130.019 454.733 129.891 454.543 129.764C454.353 129.637 454.163 129.51 453.973 129.446C453.783 129.382 453.53 129.319 453.34 129.255C453.087 129.192 452.897 129.192 452.643 129.192C452.2 129.192 451.757 129.255 451.377 129.446C450.87 129.637 450.49 129.828 450.173 130.146C449.54 130.782 449.16 131.673 449.16 132.564C449.16 133.455 449.54 134.346 450.173 134.982C450.49 135.3 450.87 135.555 451.25 135.745C451.693 135.936 452.137 136 452.58 136C453.467 136 454.353 135.618 454.987 134.982C455.113 134.855 455.304 134.664 455.43 134.473Z" fill="#6C74D1"/>
</g>
<defs>
<clipPath id="clip0">
<rect width="95" height="340" fill="white" transform="translate(116 136) rotate(-90)"/>
</clipPath>
</defs>
</svg>
