<svg width="439" height="128" viewBox="0 0 439 128" fill="none" xmlns="http://www.w3.org/2000/svg">
<path d="M119.076 100.564C131.077 95.5348 143.257 91.4036 155.975 88.5297C159.199 87.8112 162.244 87.0927 165.468 86.5538C168.334 86.015 177.111 82.7818 166.901 86.1946C171.916 84.578 179.439 85.1169 184.634 84.9373C191.082 84.7576 197.53 84.7576 203.978 85.1169C206.665 85.2965 209.531 85.4761 212.218 85.8354C214.546 86.015 216.696 86.3742 219.024 86.5538C217.592 86.3742 215.979 86.1946 214.546 86.015C227.801 86.1946 242.131 91.0443 254.848 93.9183C308.942 105.414 368.051 113.497 417.667 82.4226C436.654 70.5677 445.789 43.6246 432.892 23.8664C420.712 4.82671 394.74 -4.15429 374.5 8.59873C371.992 10.2153 369.663 11.6523 366.977 12.9096C365.723 13.6281 364.469 14.167 363.036 14.8854C360.17 16.1428 361.245 15.7835 366.618 13.2689C366.26 14.8854 353.364 17.2205 351.393 17.7594C349.781 18.1186 339.93 18.8371 347.094 18.6575C354.259 18.4778 345.661 18.6575 344.049 18.8371C338.138 19.1963 332.228 19.3759 326.496 19.1963C323.988 19.1963 310.196 19.7352 308.942 17.7594C310.196 19.5556 318.794 19.1963 309.479 17.7594C306.076 17.2205 302.673 16.6816 299.27 15.9632C286.373 13.6281 273.477 10.5746 260.58 7.88025C205.411 -3.61543 149.347 -4.33391 96.3281 17.939C85.581 22.4295 76.9833 27.0996 70.8932 37.5176C65.5197 46.6782 63.1911 60.1497 66.5944 70.388C72.8635 90.3259 97.0446 109.725 119.076 100.564Z" fill="#FFC778"/>
<g opacity="0.5" clip-path="url(#clip0)">
<path d="M4.68703 39.5539C4.87705 39.4903 5.06706 39.363 5.25708 39.2358C5.44709 39.1085 5.63711 38.9812 5.76379 38.7904C5.89046 38.6631 6.08048 38.4722 6.20715 38.2813C6.33383 38.0904 6.46051 37.8995 6.52384 37.7086C6.58718 37.5178 6.65052 37.3269 6.71386 37.0723C6.7772 36.6269 6.7772 36.1815 6.71386 35.7361C6.65052 35.4816 6.58718 35.2907 6.52384 35.0998C6.46051 34.9089 6.33383 34.718 6.20715 34.5271C6.08048 34.3362 5.9538 34.1454 5.76379 34.0181C5.57377 33.8272 5.44709 33.6999 5.25708 33.5727C5.06706 33.4454 4.87705 33.3182 4.68703 33.2545C4.49702 33.1909 4.307 33.1273 4.05365 33.0636C3.86364 33 3.61028 33 3.42027 33C2.9769 33 2.53353 33.0636 2.1535 33.2545C1.71013 33.4454 1.3301 33.6999 1.01341 34.0181C0.38003 34.6544 0 35.4816 0 36.436C0 36.8815 0.0633383 37.3269 0.253353 37.7086C0.443368 38.0904 0.696721 38.5358 1.01341 38.854C1.6468 39.4903 2.53353 39.8721 3.42027 39.8721C3.67362 39.8721 3.86364 39.8721 4.05365 39.8084C4.307 39.7448 4.49702 39.6812 4.68703 39.5539Z" fill="#6C74D1"/>
<path d="M206.736 36.436C206.736 34.5271 205.216 33 203.316 33C201.479 33 199.896 34.5271 199.896 36.436C199.896 38.3449 201.416 39.8721 203.316 39.8721C205.216 39.8084 206.736 38.2813 206.736 36.436Z" fill="#6C74D1"/>
<path d="M228.904 36.436C228.904 34.5271 227.384 33 225.484 33C223.584 33 222.064 34.5271 222.064 36.436C222.064 38.3449 223.584 39.8721 225.484 39.8721C227.384 39.8084 228.904 38.2813 228.904 36.436Z" fill="#6C74D1"/>
<path d="M184.505 36.436C184.505 34.5271 182.984 33 181.084 33C179.184 33 177.664 34.5271 177.664 36.436C177.664 38.3449 179.184 39.8721 181.084 39.8721C182.984 39.8084 184.505 38.2813 184.505 36.436Z" fill="#6C74D1"/>
<path d="M273.368 36.436C273.368 34.5271 271.848 33 269.948 33C268.048 33 266.528 34.5271 266.528 36.436C266.528 38.3449 268.048 39.8721 269.948 39.8721C271.848 39.8084 273.368 38.2813 273.368 36.436Z" fill="#6C74D1"/>
<path d="M251.136 36.436C251.136 34.5271 249.616 33 247.716 33C245.816 33 244.296 34.5271 244.296 36.436C244.296 38.3449 245.816 39.8721 247.716 39.8721C249.616 39.8084 251.136 38.2813 251.136 36.436Z" fill="#6C74D1"/>
<path d="M295.6 36.436C295.6 34.5271 294.08 33 292.18 33C290.279 33 288.759 34.5271 288.759 36.436C288.759 38.3449 290.279 39.8721 292.18 39.8721C294.08 39.8084 295.6 38.2813 295.6 36.436Z" fill="#6C74D1"/>
<path d="M162.273 36.436C162.273 34.5271 160.753 33 158.852 33C156.952 33 155.432 34.5271 155.432 36.436C155.432 38.3449 156.952 39.8721 158.852 39.8721C160.753 39.8721 162.273 38.2813 162.273 36.436Z" fill="#6C74D1"/>
<path d="M73.4724 36.436C73.4724 34.5271 71.9522 33 70.0521 33C68.152 33 66.6318 34.5271 66.6318 36.436C66.6318 38.3449 68.152 39.8721 70.0521 39.8721C71.9522 39.8084 73.4724 38.2813 73.4724 36.436Z" fill="#6C74D1"/>
<path d="M51.2409 36.436C51.2409 34.5271 49.7208 33 47.8207 33C45.9205 33 44.4004 34.5271 44.4004 36.436C44.4004 38.3449 45.9205 39.8721 47.8207 39.8721C49.7208 39.8721 51.2409 38.2813 51.2409 36.436Z" fill="#6C74D1"/>
<path d="M140.104 36.436C140.104 34.5271 138.584 33 136.684 33C134.784 33 133.264 34.5271 133.264 36.436C133.264 38.3449 134.784 39.8721 136.684 39.8721C138.584 39.8084 140.104 38.2813 140.104 36.436Z" fill="#6C74D1"/>
<path d="M29.009 36.436C29.009 34.5271 27.4889 33 25.5887 33C23.6886 33 22.1685 34.5271 22.1685 36.436C22.1685 38.3449 23.6886 39.8721 25.5887 39.8721C27.4889 39.8721 29.009 38.2813 29.009 36.436Z" fill="#6C74D1"/>
<path d="M117.873 36.436C117.873 34.5271 116.353 33 114.452 33C112.552 33 111.032 34.5271 111.032 36.436C111.032 38.3449 112.552 39.8721 114.452 39.8721C116.353 39.8721 117.873 38.2813 117.873 36.436Z" fill="#6C74D1"/>
<path d="M95.6408 36.436C95.6408 34.5271 94.1207 33 92.2206 33C90.3838 33 88.8003 34.5271 88.8003 36.436C88.8003 38.3449 90.3204 39.8721 92.2206 39.8721C94.1207 39.8084 95.6408 38.2813 95.6408 36.436Z" fill="#6C74D1"/>
<path d="M315.678 39.5539C315.868 39.4903 316.058 39.363 316.248 39.2358C316.438 39.1085 316.628 38.9812 316.755 38.7904C316.882 38.6631 317.072 38.4722 317.135 38.2813C317.262 38.0904 317.388 37.8995 317.452 37.7086C317.515 37.5178 317.642 37.3269 317.642 37.0723C317.705 36.6269 317.705 36.1815 317.642 35.7361C317.578 35.4816 317.515 35.2907 317.452 35.0998C317.388 34.9089 317.262 34.718 317.135 34.5271C317.008 34.3362 316.882 34.1454 316.755 34.0181C316.628 33.8272 316.438 33.6999 316.248 33.5727C316.058 33.4454 315.868 33.3182 315.678 33.2545C315.488 33.1909 315.235 33.1273 315.045 33.0636C314.792 33 314.602 33 314.348 33C313.905 33 313.461 33.0636 313.081 33.2545C312.701 33.4454 312.321 33.6999 312.005 34.0181C311.688 34.3362 311.435 34.718 311.245 35.1634C311.055 35.5452 310.991 35.9906 310.991 36.436C310.991 37.3269 311.371 38.2177 312.005 38.854C312.638 39.4903 313.525 39.8721 314.411 39.8721C314.665 39.8721 314.855 39.8721 315.108 39.8084C315.235 39.7448 315.488 39.6812 315.678 39.5539Z" fill="#6C74D1"/>
<path d="M4.68703 57.2431C4.87705 57.1795 5.06706 57.0522 5.25708 56.9249C5.44709 56.7977 5.63711 56.6704 5.76379 56.4795C5.89046 56.3523 6.08048 56.1614 6.20715 55.9705C6.33383 55.7796 6.46051 55.5887 6.52384 55.3978C6.58718 55.2069 6.65052 55.016 6.71386 54.7615C6.7772 54.3161 6.7772 53.8707 6.71386 53.4253C6.65052 53.1708 6.58718 52.9799 6.52384 52.789C6.46051 52.5981 6.33383 52.4072 6.20715 52.2163C6.08048 52.0254 5.9538 51.8345 5.76379 51.7073C5.57377 51.58 5.44709 51.3891 5.25708 51.2619C5.06706 51.1346 4.87705 51.0073 4.68703 50.9437C4.49702 50.8801 4.307 50.8164 4.05365 50.7528C3.86364 50.6892 3.61028 50.6892 3.42027 50.6892C2.9769 50.6892 2.53353 50.7528 2.1535 50.9437C1.6468 51.071 1.3301 51.3255 1.01341 51.6436C0.38003 52.2799 0 53.1708 0 54.0616C0 54.507 0.0633383 54.9524 0.253353 55.3342C0.443368 55.7796 0.696721 56.1614 1.01341 56.4795C1.6468 57.1158 2.53353 57.4976 3.42027 57.4976C3.67362 57.4976 3.86364 57.4976 4.05365 57.434C4.307 57.3704 4.49702 57.3067 4.68703 57.2431Z" fill="#6C74D1"/>
<path d="M251.136 54.0616C251.136 52.1527 249.616 50.6256 247.716 50.6256C245.816 50.6256 244.296 52.1527 244.296 54.0616C244.296 55.9705 245.816 57.4976 247.716 57.4976C249.616 57.4976 251.136 55.9705 251.136 54.0616Z" fill="#6C74D1"/>
<path d="M206.736 54.0616C206.736 52.1527 205.216 50.6256 203.316 50.6256C201.479 50.6256 199.896 52.1527 199.896 54.0616C199.896 55.9705 201.416 57.4976 203.316 57.4976C205.216 57.4976 206.736 55.9705 206.736 54.0616Z" fill="#6C74D1"/>
<path d="M228.904 54.0616C228.904 52.1527 227.384 50.6256 225.484 50.6256C223.584 50.6256 222.064 52.1527 222.064 54.0616C222.064 55.9705 223.584 57.4976 225.484 57.4976C227.384 57.4976 228.904 55.9705 228.904 54.0616Z" fill="#6C74D1"/>
<path d="M273.368 54.0616C273.368 52.1527 271.848 50.6256 269.948 50.6256C268.048 50.6256 266.528 52.1527 266.528 54.0616C266.528 55.9705 268.048 57.4976 269.948 57.4976C271.848 57.4976 273.368 55.9705 273.368 54.0616Z" fill="#6C74D1"/>
<path d="M184.505 54.0616C184.505 52.1527 182.984 50.6256 181.084 50.6256C179.184 50.6256 177.664 52.1527 177.664 54.0616C177.664 55.9705 179.184 57.4976 181.084 57.4976C182.984 57.4976 184.505 55.9705 184.505 54.0616Z" fill="#6C74D1"/>
<path d="M295.6 54.0616C295.6 52.1527 294.08 50.6256 292.18 50.6256C290.279 50.6256 288.759 52.1527 288.759 54.0616C288.759 55.9705 290.279 57.4976 292.18 57.4976C294.08 57.4976 295.6 55.9705 295.6 54.0616Z" fill="#6C74D1"/>
<path d="M29.009 54.0616C29.009 52.1527 27.4889 50.6256 25.5887 50.6256C23.6886 50.6256 22.1685 52.1527 22.1685 54.0616C22.1685 55.9705 23.6886 57.4976 25.5887 57.4976C27.4889 57.4976 29.009 55.9705 29.009 54.0616Z" fill="#6C74D1"/>
<path d="M73.4724 54.0616C73.4724 52.1527 71.9522 50.6256 70.0521 50.6256C68.152 50.6256 66.6318 52.1527 66.6318 54.0616C66.6318 55.9705 68.152 57.4976 70.0521 57.4976C71.9522 57.4976 73.4724 55.9705 73.4724 54.0616Z" fill="#6C74D1"/>
<path d="M95.6408 54.0616C95.6408 52.1527 94.1207 50.6256 92.2206 50.6256C90.3838 50.6256 88.8003 52.1527 88.8003 54.0616C88.8003 55.9705 90.3204 57.4976 92.2206 57.4976C94.1207 57.4976 95.6408 55.9705 95.6408 54.0616Z" fill="#6C74D1"/>
<path d="M51.2409 54.0616C51.2409 52.1527 49.7208 50.6256 47.8207 50.6256C45.9205 50.6256 44.4004 52.1527 44.4004 54.0616C44.4004 55.9705 45.9205 57.4976 47.8207 57.4976C49.7208 57.4976 51.2409 55.9705 51.2409 54.0616Z" fill="#6C74D1"/>
<path d="M162.273 54.0616C162.273 52.1527 160.753 50.6256 158.852 50.6256C156.952 50.6256 155.432 52.1527 155.432 54.0616C155.432 55.9705 156.952 57.4976 158.852 57.4976C160.753 57.4976 162.273 55.9705 162.273 54.0616Z" fill="#6C74D1"/>
<path d="M140.104 54.0616C140.104 52.1527 138.584 50.6256 136.684 50.6256C134.784 50.6256 133.264 52.1527 133.264 54.0616C133.264 55.9705 134.784 57.4976 136.684 57.4976C138.584 57.4976 140.104 55.9705 140.104 54.0616Z" fill="#6C74D1"/>
<path d="M117.873 54.0616C117.873 52.1527 116.353 50.6256 114.452 50.6256C112.552 50.6256 111.032 52.1527 111.032 54.0616C111.032 55.9705 112.552 57.4976 114.452 57.4976C116.353 57.4976 117.873 55.9705 117.873 54.0616Z" fill="#6C74D1"/>
<path d="M317.705 53.4253C317.641 53.1708 317.578 52.9799 317.515 52.789C317.451 52.5981 317.325 52.4072 317.198 52.2163C317.071 52.0254 316.945 51.8346 316.818 51.7073C316.185 51.071 315.298 50.6892 314.411 50.6892C313.968 50.6892 313.524 50.7528 313.144 50.9437C312.764 51.1346 312.384 51.3891 312.068 51.7073C311.751 52.0254 311.498 52.4072 311.308 52.8526C311.118 53.2344 311.054 53.6798 311.054 54.1252C311.054 55.0161 311.434 55.9069 312.068 56.5432C312.384 56.8613 312.764 57.1159 313.144 57.3068C313.524 57.434 314.031 57.5613 314.411 57.5613C315.298 57.5613 316.185 57.1795 316.818 56.5432C317.578 55.6524 317.958 54.507 317.705 53.4253Z" fill="#6C74D1"/>
<path d="M4.68703 74.8687C4.87705 74.7414 5.06706 74.6778 5.25708 74.5506C5.44709 74.4233 5.63711 74.296 5.76379 74.1051C5.9538 73.9143 6.08048 73.787 6.20715 73.5961C6.33383 73.4052 6.46051 73.2143 6.52384 72.9598C6.58718 72.7689 6.65052 72.578 6.71386 72.3235C6.7772 71.8781 6.7772 71.4327 6.71386 70.9873C6.65052 70.7327 6.58718 70.5419 6.52384 70.351C6.46051 70.1601 6.33383 69.9692 6.20715 69.7783C6.08048 69.5874 5.9538 69.4601 5.82712 69.2693C5.63711 69.142 5.44709 68.9511 5.25708 68.8238C5.06706 68.7602 4.87705 68.6329 4.68703 68.5693C4.49702 68.5057 4.307 68.4421 4.05365 68.3784C3.86364 68.3148 3.61028 68.3148 3.42027 68.3148C2.9769 68.3148 2.53353 68.3784 2.1535 68.5693C1.6468 68.6966 1.3301 68.9511 1.01341 69.2693C0.38003 69.9056 0 70.7964 0 71.6872C0 72.1326 0.0633383 72.578 0.253353 72.9598C0.443368 73.4052 0.696721 73.787 1.01341 74.1051C1.6468 74.7414 2.53353 75.1232 3.42027 75.1232C3.67362 75.1232 3.86364 75.1232 4.05365 75.0596C4.307 74.996 4.49702 74.9323 4.68703 74.8687Z" fill="#6C74D1"/>
<path d="M228.904 71.6872C228.904 69.7783 227.384 68.2512 225.484 68.2512C223.584 68.2512 222.064 69.7783 222.064 71.6872C222.064 73.5961 223.584 75.1232 225.484 75.1232C227.384 75.1232 228.904 73.5961 228.904 71.6872Z" fill="#6C74D1"/>
<path d="M206.736 71.6872C206.736 69.7783 205.216 68.2512 203.316 68.2512C201.479 68.2512 199.896 69.7783 199.896 71.6872C199.896 73.5961 201.416 75.1232 203.316 75.1232C205.216 75.1232 206.736 73.5961 206.736 71.6872Z" fill="#6C74D1"/>
<path d="M251.136 71.6872C251.136 69.7783 249.616 68.2512 247.716 68.2512C245.816 68.2512 244.296 69.7783 244.296 71.6872C244.296 73.5961 245.816 75.1232 247.716 75.1232C249.616 75.1232 251.136 73.5961 251.136 71.6872Z" fill="#6C74D1"/>
<path d="M184.505 71.6872C184.505 69.7783 182.984 68.2512 181.084 68.2512C179.184 68.2512 177.664 69.7783 177.664 71.6872C177.664 73.5961 179.184 75.1232 181.084 75.1232C182.984 75.1232 184.505 73.5961 184.505 71.6872Z" fill="#6C74D1"/>
<path d="M273.368 71.6872C273.368 69.7783 271.848 68.2512 269.948 68.2512C268.048 68.2512 266.528 69.7783 266.528 71.6872C266.528 73.5961 268.048 75.1232 269.948 75.1232C271.848 75.1232 273.368 73.5961 273.368 71.6872Z" fill="#6C74D1"/>
<path d="M295.6 71.6872C295.6 69.7783 294.08 68.2512 292.18 68.2512C290.279 68.2512 288.759 69.7783 288.759 71.6872C288.759 73.5961 290.279 75.1232 292.18 75.1232C294.08 75.1232 295.6 73.5961 295.6 71.6872Z" fill="#6C74D1"/>
<path d="M117.873 71.6872C117.873 69.7783 116.353 68.2512 114.452 68.2512C112.552 68.2512 111.032 69.7783 111.032 71.6872C111.032 73.5961 112.552 75.1232 114.452 75.1232C116.353 75.1232 117.873 73.5961 117.873 71.6872Z" fill="#6C74D1"/>
<path d="M73.4724 71.6872C73.4724 69.7783 71.9522 68.2512 70.0521 68.2512C68.152 68.2512 66.6318 69.7783 66.6318 71.6872C66.6318 73.5961 68.152 75.1232 70.0521 75.1232C71.9522 75.1232 73.4724 73.5961 73.4724 71.6872Z" fill="#6C74D1"/>
<path d="M51.2406 71.6872C51.2406 69.7783 49.7205 68.2512 47.8203 68.2512C45.9202 68.2512 44.4634 69.7783 44.4634 71.6872C44.4634 73.5961 45.9835 75.1232 47.8836 75.1232C49.7838 75.1232 51.2406 73.5961 51.2406 71.6872Z" fill="#6C74D1"/>
<path d="M95.6408 71.6872C95.6408 69.7783 94.1207 68.2512 92.2206 68.2512C90.3838 68.2512 88.8003 69.7783 88.8003 71.6872C88.8003 73.5961 90.3204 75.1232 92.2206 75.1232C94.1207 75.1232 95.6408 73.5961 95.6408 71.6872Z" fill="#6C74D1"/>
<path d="M162.273 71.6872C162.273 69.7783 160.753 68.2512 158.852 68.2512C156.952 68.2512 155.432 69.7783 155.432 71.6872C155.432 73.5961 156.952 75.1232 158.852 75.1232C160.753 75.1232 162.273 73.5961 162.273 71.6872Z" fill="#6C74D1"/>
<path d="M140.104 71.6872C140.104 69.7783 138.584 68.2512 136.684 68.2512C134.784 68.2512 133.264 69.7783 133.264 71.6872C133.264 73.5961 134.784 75.1232 136.684 75.1232C138.584 75.1232 140.104 73.5961 140.104 71.6872Z" fill="#6C74D1"/>
<path d="M29.0089 71.6872C29.0089 69.7783 27.4888 68.2512 25.5886 68.2512C23.6885 68.2512 22.2317 69.7783 22.2317 71.6872C22.2317 73.5961 23.7518 75.1232 25.652 75.1232C27.5521 75.1232 29.0089 73.5961 29.0089 71.6872Z" fill="#6C74D1"/>
<path d="M315.678 74.8687C315.868 74.805 316.058 74.6778 316.248 74.5505C316.438 74.4233 316.628 74.296 316.755 74.1051C316.882 73.9142 317.072 73.787 317.135 73.5961C317.262 73.4052 317.388 73.2143 317.452 73.0234C317.515 72.8325 317.642 72.6416 317.642 72.3871C317.705 71.9417 317.705 71.4963 317.642 71.0509C317.578 70.7963 317.515 70.6055 317.452 70.4146C317.388 70.2237 317.262 70.0328 317.135 69.8419C317.008 69.651 316.882 69.4601 316.755 69.3328C316.628 69.2056 316.438 69.0147 316.248 68.8874C316.058 68.7602 315.868 68.6329 315.678 68.5693C315.488 68.5057 315.235 68.442 315.045 68.3784C314.792 68.3148 314.602 68.3148 314.348 68.3148C313.905 68.3148 313.461 68.3784 313.081 68.5693C312.701 68.7602 312.321 69.0147 312.005 69.3328C311.371 69.9691 310.991 70.86 310.991 71.7508C310.991 72.1962 311.055 72.6416 311.245 73.0234C311.371 73.4688 311.625 73.8506 312.005 74.1687C312.321 74.4869 312.701 74.7414 313.081 74.9323C313.461 75.0596 313.968 75.1868 314.348 75.1868C314.602 75.1868 314.792 75.1868 315.045 75.1232C315.235 74.9959 315.488 74.9323 315.678 74.8687Z" fill="#6C74D1"/>
<path d="M4.68703 92.4943C4.87705 92.3671 5.06706 92.3034 5.25708 92.1762C5.44709 92.0489 5.63711 91.9216 5.82712 91.7308C5.9538 91.6035 6.14382 91.4126 6.27049 91.2217C6.33383 91.0308 6.46051 90.8399 6.52384 90.649C6.58718 90.3945 6.65052 90.2036 6.71386 90.0127C6.7772 89.5673 6.7772 89.1219 6.71386 88.6765C6.65052 88.422 6.58718 88.2311 6.52384 88.0402C6.46051 87.8493 6.33383 87.5948 6.20715 87.4039C6.08048 87.2766 5.9538 87.0857 5.82712 86.8949C5.63711 86.7676 5.44709 86.6403 5.25708 86.4494C5.06706 86.3858 4.87705 86.2586 4.68703 86.1949C4.49702 86.0677 4.307 86.004 4.05365 86.004C3.86364 85.9404 3.61028 85.9404 3.42027 85.9404C2.9769 85.9404 2.53353 86.004 2.1535 86.1949C1.6468 86.3222 1.3301 86.5767 1.01341 86.8949C0.696721 87.213 0.443368 87.5948 0.253353 88.0402C0.0633383 88.422 0 88.8674 0 89.3128C0 90.2036 0.38003 91.0945 1.01341 91.7308C1.3301 92.0489 1.6468 92.3034 2.09016 92.4943C2.53353 92.6216 2.91356 92.7488 3.42027 92.7488C3.67362 92.7488 3.86364 92.7488 4.05365 92.6852C4.307 92.6216 4.49702 92.5579 4.68703 92.4943Z" fill="#6C74D1"/>
<path d="M184.505 89.3128C184.505 87.4039 182.984 85.8768 181.084 85.8768C179.184 85.8768 177.664 87.4039 177.664 89.3128C177.664 91.2217 179.184 92.7488 181.084 92.7488C182.984 92.7488 184.505 91.2217 184.505 89.3128Z" fill="#6C74D1"/>
<path d="M162.273 89.3128C162.273 87.4039 160.753 85.8768 158.852 85.8768C156.952 85.8768 155.432 87.4039 155.432 89.3128C155.432 91.2217 156.952 92.7488 158.852 92.7488C160.753 92.7488 162.273 91.2217 162.273 89.3128Z" fill="#6C74D1"/>
<path d="M228.904 89.3128C228.904 87.4039 227.384 85.8768 225.484 85.8768C223.584 85.8768 222.064 87.4039 222.064 89.3128C222.064 91.2217 223.584 92.7488 225.484 92.7488C227.384 92.7488 228.904 91.2217 228.904 89.3128Z" fill="#6C74D1"/>
<path d="M251.136 89.3128C251.136 87.4039 249.616 85.8768 247.716 85.8768C245.816 85.8768 244.296 87.4039 244.296 89.3128C244.296 91.2217 245.816 92.7488 247.716 92.7488C249.616 92.7488 251.136 91.2217 251.136 89.3128Z" fill="#6C74D1"/>
<path d="M206.736 89.3128C206.736 87.4039 205.216 85.8768 203.316 85.8768C201.479 85.8768 199.896 87.4039 199.896 89.3128C199.896 91.2217 201.416 92.7488 203.316 92.7488C205.216 92.7488 206.736 91.2217 206.736 89.3128Z" fill="#6C74D1"/>
<path d="M140.104 89.3128C140.104 87.4039 138.584 85.8768 136.684 85.8768C134.784 85.8768 133.264 87.4039 133.264 89.3128C133.264 91.2217 134.784 92.7488 136.684 92.7488C138.584 92.7488 140.104 91.2217 140.104 89.3128Z" fill="#6C74D1"/>
<path d="M117.873 89.3128C117.873 87.4039 116.353 85.8768 114.452 85.8768C112.552 85.8768 111.032 87.4039 111.032 89.3128C111.032 91.2217 112.552 92.7488 114.452 92.7488C116.353 92.7488 117.873 91.2217 117.873 89.3128Z" fill="#6C74D1"/>
<path d="M29.0089 89.3128C29.0089 87.4039 27.4888 85.8768 25.5886 85.8768C23.6885 85.8768 22.2317 87.4039 22.2317 89.3128C22.2317 91.2217 23.7518 92.7488 25.652 92.7488C27.5521 92.7488 29.0089 91.2217 29.0089 89.3128Z" fill="#6C74D1"/>
<path d="M295.6 89.3128C295.6 87.4039 294.08 85.8768 292.18 85.8768C290.279 85.8768 288.759 87.4039 288.759 89.3128C288.759 91.2217 290.279 92.7488 292.18 92.7488C294.08 92.7488 295.6 91.2217 295.6 89.3128Z" fill="#6C74D1"/>
<path d="M51.2406 89.3128C51.2406 87.4039 49.7205 85.8768 47.8203 85.8768C45.9202 85.8768 44.4634 87.4039 44.4634 89.3128C44.4634 91.2217 45.9835 92.7488 47.8836 92.7488C49.7838 92.7488 51.2406 91.2217 51.2406 89.3128Z" fill="#6C74D1"/>
<path d="M95.6408 89.3128C95.6408 87.4039 94.1207 85.8768 92.2206 85.8768C90.3838 85.8768 88.8003 87.4039 88.8003 89.3128C88.8003 91.2217 90.3204 92.7488 92.2206 92.7488C94.1207 92.7488 95.6408 91.2217 95.6408 89.3128Z" fill="#6C74D1"/>
<path d="M73.4724 89.3128C73.4724 87.4039 71.9522 85.8768 70.0521 85.8768C68.152 85.8768 66.6318 87.4039 66.6318 89.3128C66.6318 91.2217 68.152 92.7488 70.0521 92.7488C71.9522 92.7488 73.4724 91.2217 73.4724 89.3128Z" fill="#6C74D1"/>
<path d="M273.368 89.3128C273.368 87.4039 271.848 85.8768 269.948 85.8768C268.048 85.8768 266.528 87.4039 266.528 89.3128C266.528 91.2217 268.048 92.7488 269.948 92.7488C271.848 92.7488 273.368 91.2217 273.368 89.3128Z" fill="#6C74D1"/>
<path d="M317.705 88.6765C317.641 88.422 317.578 88.2311 317.515 88.0402C317.451 87.8493 317.325 87.6584 317.198 87.4675C317.071 87.2766 316.945 87.0857 316.818 86.9585C316.185 86.3222 315.298 85.9404 314.411 85.9404C313.968 85.9404 313.524 86.004 313.144 86.1949C312.764 86.3222 312.384 86.5767 312.068 86.8949C311.751 87.213 311.498 87.5948 311.308 88.0402C311.118 88.422 311.054 88.8674 311.054 89.3128C311.054 89.7582 311.118 90.2036 311.308 90.649C311.434 91.0308 311.688 91.4126 312.068 91.7308C312.384 92.0489 312.764 92.3034 313.144 92.4943C313.524 92.6216 314.031 92.7488 314.411 92.7488C315.298 92.7488 316.185 92.3671 316.818 91.7308C317.578 90.9672 317.958 89.7582 317.705 88.6765Z" fill="#6C74D1"/>
<path d="M4.68703 110.12C4.87705 110.056 5.06706 109.929 5.25708 109.802C5.44709 109.674 5.63711 109.547 5.82712 109.356C5.9538 109.165 6.14382 109.038 6.27049 108.847C6.33383 108.656 6.46051 108.465 6.52384 108.275C6.58718 108.084 6.65052 107.829 6.71386 107.638C6.7772 107.193 6.7772 106.747 6.71386 106.302C6.65052 106.048 6.58718 105.857 6.52384 105.666C6.46051 105.475 6.33383 105.22 6.20715 105.093C6.08048 104.902 5.9538 104.711 5.76379 104.584C5.57377 104.457 5.44709 104.266 5.25708 104.202C5.06706 104.011 4.87705 103.884 4.68703 103.82C4.49702 103.757 4.307 103.63 4.05365 103.63C3.86364 103.566 3.61028 103.566 3.42027 103.566C2.53353 103.566 1.6468 103.948 1.01341 104.584C0.696721 104.839 0.443368 105.22 0.253353 105.666C0.0633383 106.048 0 106.493 0 106.938C0 107.893 0.38003 108.72 1.01341 109.356C1.6468 109.993 2.53353 110.374 3.42027 110.374C3.67362 110.374 3.86364 110.374 4.05365 110.311C4.307 110.247 4.49702 110.183 4.68703 110.12Z" fill="#6C74D1"/>
<path d="M162.273 106.938C162.273 105.029 160.753 103.502 158.852 103.502C156.952 103.502 155.432 105.029 155.432 106.938C155.432 108.847 156.952 110.374 158.852 110.374C160.753 110.374 162.273 108.847 162.273 106.938Z" fill="#6C74D1"/>
<path d="M184.505 106.938C184.505 105.029 182.984 103.502 181.084 103.502C179.184 103.502 177.664 105.029 177.664 106.938C177.664 108.847 179.184 110.374 181.084 110.374C182.984 110.374 184.505 108.847 184.505 106.938Z" fill="#6C74D1"/>
<path d="M228.904 106.938C228.904 105.029 227.384 103.502 225.484 103.502C223.584 103.502 222.064 105.029 222.064 106.938C222.064 108.847 223.584 110.374 225.484 110.374C227.384 110.374 228.904 108.847 228.904 106.938Z" fill="#6C74D1"/>
<path d="M206.736 106.938C206.736 105.029 205.216 103.502 203.316 103.502C201.479 103.502 199.896 105.029 199.896 106.938C199.896 108.847 201.416 110.374 203.316 110.374C205.216 110.374 206.736 108.847 206.736 106.938Z" fill="#6C74D1"/>
<path d="M295.6 106.938C295.6 105.029 294.08 103.502 292.18 103.502C290.279 103.502 288.759 105.029 288.759 106.938C288.759 108.847 290.279 110.374 292.18 110.374C294.08 110.374 295.6 108.847 295.6 106.938Z" fill="#6C74D1"/>
<path d="M251.136 106.938C251.136 105.029 249.616 103.502 247.716 103.502C245.816 103.502 244.296 105.029 244.296 106.938C244.296 108.847 245.816 110.374 247.716 110.374C249.616 110.374 251.136 108.847 251.136 106.938Z" fill="#6C74D1"/>
<path d="M273.368 106.938C273.368 105.029 271.848 103.502 269.948 103.502C268.048 103.502 266.528 105.029 266.528 106.938C266.528 108.847 268.048 110.374 269.948 110.374C271.848 110.374 273.368 108.847 273.368 106.938Z" fill="#6C74D1"/>
<path d="M73.4724 106.938C73.4724 105.029 71.9522 103.502 70.0521 103.502C68.152 103.502 66.6318 105.029 66.6318 106.938C66.6318 108.847 68.152 110.374 70.0521 110.374C71.9522 110.374 73.4724 108.847 73.4724 106.938Z" fill="#6C74D1"/>
<path d="M140.104 106.938C140.104 105.029 138.584 103.502 136.684 103.502C134.784 103.502 133.264 105.029 133.264 106.938C133.264 108.847 134.784 110.374 136.684 110.374C138.584 110.374 140.104 108.847 140.104 106.938Z" fill="#6C74D1"/>
<path d="M51.2406 106.938C51.2406 105.029 49.7205 103.502 47.8203 103.502C45.9202 103.502 44.4634 105.093 44.4634 106.938C44.4634 108.847 45.9835 110.374 47.8836 110.374C49.7838 110.374 51.2406 108.847 51.2406 106.938Z" fill="#6C74D1"/>
<path d="M117.873 106.938C117.873 105.029 116.353 103.502 114.452 103.502C112.552 103.502 111.032 105.029 111.032 106.938C111.032 108.847 112.552 110.374 114.452 110.374C116.353 110.374 117.873 108.847 117.873 106.938Z" fill="#6C74D1"/>
<path d="M95.6408 106.938C95.6408 105.029 94.1207 103.502 92.2206 103.502C90.3838 103.502 88.8003 105.029 88.8003 106.938C88.8003 108.847 90.3204 110.374 92.2206 110.374C94.1207 110.374 95.6408 108.847 95.6408 106.938Z" fill="#6C74D1"/>
<path d="M29.0089 106.938C29.0089 105.029 27.4888 103.502 25.5886 103.502C23.6885 103.502 22.2317 105.093 22.2317 106.938C22.2317 108.847 23.7518 110.374 25.652 110.374C27.5521 110.374 29.0089 108.847 29.0089 106.938Z" fill="#6C74D1"/>
<path d="M317.198 108.847C317.325 108.656 317.451 108.465 317.515 108.275C317.578 108.084 317.705 107.829 317.705 107.638C317.768 107.193 317.768 106.747 317.705 106.302C317.641 106.048 317.578 105.857 317.515 105.666C317.451 105.475 317.325 105.284 317.198 105.093C317.071 104.902 316.945 104.711 316.818 104.584C316.691 104.457 316.501 104.266 316.311 104.139C316.121 104.011 315.931 103.884 315.741 103.82C315.551 103.757 315.298 103.63 315.108 103.63C314.854 103.566 314.664 103.566 314.411 103.566C313.968 103.566 313.524 103.63 313.144 103.82C312.764 103.948 312.384 104.202 312.068 104.52C311.434 105.157 311.054 106.048 311.054 106.938C311.054 107.829 311.434 108.72 312.068 109.356C312.384 109.674 312.764 109.929 313.144 110.12C313.524 110.311 314.031 110.374 314.411 110.374C315.298 110.374 316.185 109.993 316.818 109.356C316.945 109.229 317.071 109.038 317.198 108.847Z" fill="#6C74D1"/>
<path d="M4.68703 127.745C4.87705 127.682 5.06706 127.555 5.25708 127.427C5.44709 127.3 5.63711 127.173 5.76379 126.982C5.89046 126.791 6.08048 126.664 6.20715 126.473C6.33383 126.282 6.46051 126.091 6.52384 125.9C6.58718 125.709 6.65052 125.455 6.71386 125.264C6.7772 124.818 6.7772 124.373 6.71386 123.928C6.65052 123.673 6.58718 123.482 6.52384 123.291C6.46051 123.1 6.33383 122.91 6.20715 122.719C6.08048 122.528 5.9538 122.337 5.76379 122.21C5.57377 122.019 5.44709 121.891 5.25708 121.828C5.06706 121.637 4.87705 121.51 4.68703 121.446C4.49702 121.382 4.307 121.319 4.05365 121.255C3.86364 121.192 3.61028 121.192 3.42027 121.192C2.53353 121.192 1.6468 121.573 1.01341 122.21C0.696721 122.464 0.443368 122.91 0.253353 123.291C0.0633383 123.673 0 124.119 0 124.564C0 125.518 0.38003 126.346 1.01341 126.982C1.6468 127.682 2.47019 128 3.42027 128C3.67362 128 3.86364 128 4.05365 127.936C4.307 127.873 4.49702 127.873 4.68703 127.745Z" fill="#6C74D1"/>
<path d="M162.273 124.564C162.273 122.655 160.753 121.128 158.852 121.128C156.952 121.128 155.432 122.655 155.432 124.564C155.432 126.473 157.016 128 158.916 128C160.816 128 162.273 126.473 162.273 124.564Z" fill="#6C74D1"/>
<path d="M184.505 124.564C184.505 122.655 182.984 121.128 181.084 121.128C179.184 121.128 177.664 122.655 177.664 124.564C177.664 126.473 179.248 128 181.084 128C182.984 128 184.505 126.473 184.505 124.564Z" fill="#6C74D1"/>
<path d="M228.904 124.564C228.904 122.655 227.384 121.128 225.484 121.128C223.584 121.128 222.064 122.655 222.064 124.564C222.064 126.473 223.647 128 225.548 128C227.384 128 228.904 126.473 228.904 124.564Z" fill="#6C74D1"/>
<path d="M206.736 124.564C206.736 122.655 205.216 121.128 203.316 121.128C201.479 121.128 199.896 122.655 199.896 124.564C199.896 126.473 201.479 128 203.316 128C205.216 128 206.736 126.473 206.736 124.564Z" fill="#6C74D1"/>
<path d="M295.6 124.564C295.6 122.655 294.08 121.128 292.18 121.128C290.279 121.128 288.759 122.655 288.759 124.564C288.759 126.473 290.279 128 292.18 128C294.08 128 295.6 126.473 295.6 124.564Z" fill="#6C74D1"/>
<path d="M251.136 124.564C251.136 122.655 249.616 121.128 247.716 121.128C245.816 121.128 244.296 122.655 244.296 124.564C244.296 126.473 245.879 128 247.716 128C249.616 128 251.136 126.473 251.136 124.564Z" fill="#6C74D1"/>
<path d="M273.368 124.564C273.368 122.655 271.848 121.128 269.948 121.128C268.048 121.128 266.528 122.655 266.528 124.564C266.528 126.473 268.111 128 269.948 128C271.848 128 273.368 126.473 273.368 124.564Z" fill="#6C74D1"/>
<path d="M73.4724 124.564C73.4724 122.655 71.9522 121.128 70.0521 121.128C68.152 121.128 66.6318 122.655 66.6318 124.564C66.6318 126.473 68.152 128 70.0521 128C71.9522 128 73.4724 126.473 73.4724 124.564Z" fill="#6C74D1"/>
<path d="M140.104 124.564C140.104 122.655 138.584 121.128 136.684 121.128C134.784 121.128 133.264 122.655 133.264 124.564C133.264 126.473 134.784 128 136.684 128C138.584 128 140.104 126.473 140.104 124.564Z" fill="#6C74D1"/>
<path d="M51.2406 124.564C51.2406 122.655 49.7205 121.128 47.8203 121.128C45.9202 121.128 44.4634 122.719 44.4634 124.564C44.4634 126.409 45.9835 128 47.8203 128C49.6571 128 51.2406 126.473 51.2406 124.564Z" fill="#6C74D1"/>
<path d="M117.873 124.564C117.873 122.655 116.353 121.128 114.452 121.128C112.552 121.128 111.032 122.655 111.032 124.564C111.032 126.473 112.552 128 114.452 128C116.353 128 117.873 126.473 117.873 124.564Z" fill="#6C74D1"/>
<path d="M95.6408 124.564C95.6408 122.655 94.1207 121.128 92.2206 121.128C90.3838 121.128 88.8003 122.655 88.8003 124.564C88.8003 126.473 90.3838 128 92.2206 128C94.1207 128 95.6408 126.473 95.6408 124.564Z" fill="#6C74D1"/>
<path d="M29.0089 124.564C29.0089 122.655 27.4888 121.128 25.5886 121.128C23.6885 121.128 22.2317 122.719 22.2317 124.564C22.2317 126.409 23.7518 128 25.5886 128C27.4254 128 29.0089 126.473 29.0089 124.564Z" fill="#6C74D1"/>
<path d="M317.198 126.473C317.325 126.282 317.452 126.091 317.515 125.9C317.578 125.709 317.705 125.455 317.705 125.264C317.768 124.818 317.768 124.373 317.705 123.928C317.642 123.673 317.578 123.482 317.515 123.291C317.452 123.1 317.325 122.91 317.198 122.719C317.072 122.528 316.945 122.337 316.818 122.21C316.692 122.019 316.502 121.891 316.312 121.764C316.122 121.637 315.932 121.51 315.742 121.446C315.552 121.382 315.298 121.319 315.108 121.255C314.855 121.192 314.665 121.192 314.411 121.192C313.968 121.192 313.525 121.255 313.145 121.446C312.701 121.637 312.321 121.828 312.005 122.146C311.371 122.782 310.991 123.673 310.991 124.564C310.991 125.455 311.371 126.346 312.005 126.982C312.321 127.3 312.701 127.555 313.081 127.745C313.461 127.936 313.968 128 314.348 128C315.235 128 316.122 127.618 316.755 126.982C316.945 126.855 317.072 126.664 317.198 126.473Z" fill="#6C74D1"/>
<path d="M337.91 39.5539C338.1 39.4903 338.29 39.363 338.48 39.2358C338.67 39.1085 338.86 38.9812 338.986 38.7904C339.113 38.6631 339.303 38.4722 339.366 38.2813C339.493 38.0904 339.62 37.8995 339.683 37.7086C339.747 37.5178 339.873 37.3269 339.873 37.0723C339.937 36.6269 339.937 36.1815 339.873 35.7361C339.81 35.4816 339.747 35.2907 339.683 35.0998C339.62 34.9089 339.493 34.718 339.366 34.5271C339.24 34.3362 339.113 34.1454 338.986 34.0181C338.86 33.8272 338.67 33.6999 338.48 33.5727C338.29 33.4454 338.1 33.3182 337.91 33.2545C337.72 33.1909 337.466 33.1273 337.276 33.0636C337.023 33 336.833 33 336.58 33C336.136 33 335.693 33.0636 335.313 33.2545C334.933 33.4454 334.553 33.6999 334.236 34.0181C333.919 34.3362 333.666 34.718 333.476 35.1634C333.286 35.5452 333.223 35.9906 333.223 36.436C333.223 37.3269 333.603 38.2177 334.236 38.854C334.869 39.4903 335.756 39.8721 336.643 39.8721C336.896 39.8721 337.086 39.8721 337.34 39.8084C337.466 39.7448 337.656 39.6812 337.91 39.5539Z" fill="#6C74D1"/>
<path d="M339.937 53.4253C339.873 53.1708 339.81 52.9799 339.747 52.789C339.683 52.5981 339.557 52.4072 339.43 52.2163C339.303 52.0254 339.177 51.8346 339.05 51.7073C338.417 51.071 337.53 50.6892 336.643 50.6892C336.2 50.6892 335.756 50.7528 335.376 50.9437C334.996 51.1346 334.616 51.3891 334.3 51.7073C333.983 52.0254 333.73 52.4072 333.539 52.8526C333.349 53.2344 333.286 53.6798 333.286 54.1252C333.286 55.0161 333.666 55.9069 334.3 56.5432C334.616 56.8613 334.996 57.1159 335.376 57.3068C335.756 57.434 336.263 57.5613 336.643 57.5613C337.53 57.5613 338.417 57.1795 339.05 56.5432C339.747 55.6524 340.127 54.507 339.937 53.4253Z" fill="#6C74D1"/>
<path d="M337.91 74.8687C338.1 74.805 338.29 74.6778 338.48 74.5505C338.67 74.4233 338.86 74.296 338.986 74.1051C339.113 73.9142 339.303 73.787 339.366 73.5961C339.493 73.4052 339.62 73.2143 339.683 73.0234C339.747 72.8325 339.873 72.6416 339.873 72.3871C339.937 71.9417 339.937 71.4963 339.873 71.0509C339.81 70.7963 339.747 70.6055 339.683 70.4146C339.62 70.2237 339.493 70.0328 339.366 69.8419C339.24 69.651 339.113 69.4601 338.986 69.3328C338.86 69.2056 338.67 69.0147 338.48 68.8874C338.29 68.7602 338.1 68.6329 337.91 68.5693C337.72 68.5057 337.466 68.442 337.276 68.3784C337.023 68.3148 336.833 68.3148 336.58 68.3148C336.136 68.3148 335.693 68.3784 335.313 68.5693C334.933 68.7602 334.553 69.0147 334.236 69.3328C333.603 69.9691 333.223 70.86 333.223 71.7508C333.223 72.1962 333.286 72.6416 333.476 73.0234C333.603 73.4688 333.856 73.8506 334.236 74.1687C334.553 74.4869 334.933 74.7414 335.313 74.9323C335.693 75.0596 336.2 75.1868 336.58 75.1868C336.833 75.1868 337.023 75.1868 337.276 75.1232C337.466 74.9959 337.656 74.9323 337.91 74.8687Z" fill="#6C74D1"/>
<path d="M339.937 88.6765C339.873 88.422 339.81 88.2311 339.747 88.0402C339.683 87.8493 339.557 87.6584 339.43 87.4675C339.303 87.2766 339.177 87.0857 339.05 86.9585C338.417 86.3222 337.53 85.9404 336.643 85.9404C336.2 85.9404 335.756 86.004 335.376 86.1949C334.996 86.3222 334.616 86.5767 334.3 86.8949C333.983 87.213 333.73 87.5948 333.539 88.0402C333.349 88.422 333.286 88.8674 333.286 89.3128C333.286 89.7582 333.349 90.2036 333.539 90.649C333.666 91.0308 333.92 91.4126 334.3 91.7308C334.616 92.0489 334.996 92.3034 335.376 92.4943C335.756 92.6216 336.263 92.7488 336.643 92.7488C337.53 92.7488 338.417 92.3671 339.05 91.7308C339.747 90.9672 340.127 89.7582 339.937 88.6765Z" fill="#6C74D1"/>
<path d="M339.43 108.847C339.557 108.656 339.683 108.465 339.747 108.275C339.81 108.084 339.937 107.829 339.937 107.638C340 107.193 340 106.747 339.937 106.302C339.873 106.048 339.81 105.857 339.747 105.666C339.683 105.475 339.557 105.284 339.43 105.093C339.303 104.902 339.177 104.711 339.05 104.584C338.923 104.457 338.733 104.266 338.543 104.139C338.353 104.011 338.163 103.884 337.973 103.82C337.783 103.757 337.53 103.63 337.34 103.63C337.086 103.566 336.896 103.566 336.643 103.566C336.2 103.566 335.756 103.63 335.376 103.82C334.996 103.948 334.616 104.202 334.3 104.52C333.666 105.157 333.286 106.048 333.286 106.938C333.286 107.829 333.666 108.72 334.3 109.356C334.616 109.674 334.996 109.929 335.376 110.12C335.756 110.311 336.263 110.374 336.643 110.374C337.53 110.374 338.417 109.993 339.05 109.356C339.113 109.229 339.303 109.038 339.43 108.847Z" fill="#6C74D1"/>
<path d="M339.43 126.473C339.557 126.282 339.684 126.091 339.747 125.9C339.81 125.709 339.937 125.455 339.937 125.264C340 124.818 340 124.373 339.937 123.928C339.874 123.673 339.81 123.482 339.747 123.291C339.684 123.1 339.557 122.91 339.43 122.719C339.304 122.528 339.177 122.337 339.05 122.21C338.923 122.019 338.733 121.891 338.543 121.764C338.353 121.637 338.163 121.51 337.973 121.446C337.783 121.382 337.53 121.319 337.34 121.255C337.087 121.192 336.897 121.192 336.643 121.192C336.2 121.192 335.757 121.255 335.377 121.446C334.87 121.637 334.49 121.828 334.173 122.146C333.54 122.782 333.16 123.673 333.16 124.564C333.16 125.455 333.54 126.346 334.173 126.982C334.49 127.3 334.87 127.555 335.25 127.745C335.693 127.936 336.137 128 336.58 128C337.467 128 338.353 127.618 338.987 126.982C339.113 126.855 339.304 126.664 339.43 126.473Z" fill="#6C74D1"/>
</g>
<defs>
<clipPath id="clip0">
<rect width="95" height="340" fill="white" transform="translate(0 128) rotate(-90)"/>
</clipPath>
</defs>
</svg>
