<svg width="104" height="105" viewBox="0 0 104 105" fill="none" xmlns="http://www.w3.org/2000/svg">
<g filter="url(#filter0_d)">
<rect x="13" y="9" width="78" height="79" rx="10" fill="#FFE1DF"/>
</g>
<path d="M72.6288 65.0099H36.4835L28.2373 71.9541V33.4215C28.2373 31.6912 29.6403 30.2888 31.3705 30.2888H72.6288C74.3591 30.2888 75.7621 31.6912 75.7621 33.4215V61.8767C75.7621 63.6069 74.3591 65.0099 72.6288 65.0099Z" fill="#FF5D5D"/>
<path d="M38.1302 29.4132C37.9 29.6433 37.7676 29.9629 37.7676 30.2883C37.7676 30.6151 37.9 30.9332 38.1302 31.1633C38.3603 31.3934 38.6798 31.5259 39.0052 31.5259C39.332 31.5259 39.6501 31.3934 39.8802 31.1633C40.1104 30.9332 40.2428 30.6151 40.2428 30.2883C40.2428 29.9629 40.1104 29.6433 39.8802 29.4132C39.6501 29.1831 39.332 29.0506 39.0052 29.0506C38.6798 29.0506 38.3603 29.1831 38.1302 29.4132Z" fill="black"/>
<path d="M72.6292 29.0511H43.9554C43.2719 29.0511 42.7178 29.6052 42.7178 30.2888C42.7178 30.9723 43.2719 31.5264 43.9554 31.5264H72.6292C73.6744 31.5264 74.5248 32.3763 74.5248 33.4215V58.8218H66.2994C65.6158 58.8218 65.0618 59.3758 65.0618 60.0594C65.0618 60.743 65.6158 61.297 66.2994 61.297H74.5248V61.8767C74.5248 62.9219 73.6744 63.7723 72.6292 63.7723H36.4838C36.1923 63.7723 35.9099 63.8752 35.6866 64.0633L29.4752 69.2937V33.4215C29.4752 32.3763 30.3256 31.5264 31.3708 31.5264H34.0549C34.738 31.5264 35.2926 30.9723 35.2926 30.2888C35.2926 29.6052 34.738 29.0511 34.0549 29.0511H31.3708C28.9609 29.0511 27 31.0115 27 33.4215V71.9541C27 72.4356 27.2789 72.8732 27.7155 73.0762C27.8823 73.1536 28.0602 73.1917 28.2371 73.1917C28.5238 73.1917 28.8071 73.0922 29.0348 72.9007L36.9353 66.2475H72.6292C75.0391 66.2475 77 64.2867 77 61.8767V33.4215C77 31.0115 75.0391 29.0511 72.6292 29.0511Z" fill="black"/>
<path d="M52.0003 24.6595C52.6839 24.6595 53.2379 24.1055 53.2379 23.4219V17.2376C53.2379 16.554 52.6839 16 52.0003 16C51.3167 16 50.7627 16.554 50.7627 17.2376V23.4219C50.7627 24.1055 51.3167 24.6595 52.0003 24.6595Z" fill="black"/>
<path d="M61.3284 25.1618C61.6456 25.1618 61.9618 25.041 62.2035 24.7992L66.5303 20.4729C67.0138 19.9894 67.0138 19.2058 66.5303 18.7223C66.0469 18.2389 65.2632 18.2389 64.7798 18.7223L60.4534 23.0487C59.97 23.5321 59.97 24.3158 60.4534 24.7992C60.6951 25.041 61.0118 25.1618 61.3284 25.1618Z" fill="black"/>
<path d="M41.7969 24.791C42.0386 25.0327 42.3552 25.1536 42.6719 25.1536C42.9886 25.1536 43.3052 25.0327 43.5469 24.791C44.0304 24.3076 44.0304 23.5239 43.5469 23.0404L39.2201 18.7141C38.7371 18.2306 37.9535 18.2306 37.47 18.7141C36.9866 19.1975 36.9866 19.9807 37.47 20.4641L41.7969 24.791Z" fill="black"/>
<path d="M52.0003 70.7068C51.3167 70.7068 50.7627 71.2609 50.7627 71.9445V78.1287C50.7627 78.8123 51.3167 79.3663 52.0003 79.3663C52.6839 79.3663 53.2379 78.8123 53.2379 78.1287V71.9445C53.2379 71.2609 52.6839 70.7068 52.0003 70.7068Z" fill="black"/>
<path d="M62.2035 70.5671C61.72 70.0837 60.9369 70.0837 60.4534 70.5671C59.97 71.0506 59.97 71.8343 60.4534 72.3177L64.7798 76.6441C65.0215 76.8858 65.3382 77.0066 65.6548 77.0066C65.972 77.0066 66.2886 76.8858 66.5303 76.6441C67.0133 76.1606 67.0133 75.3769 66.5303 74.8935L62.2035 70.5671Z" fill="black"/>
<path d="M41.7969 70.5754L37.47 74.9022C36.9866 75.3857 36.9866 76.1688 37.47 76.6523C37.7117 76.894 38.0284 77.0149 38.345 77.0149C38.6617 77.0149 38.9784 76.894 39.2201 76.6523L43.5469 72.3259C44.0304 71.8425 44.0304 71.0588 43.5469 70.5754C43.0635 70.0919 42.2803 70.0919 41.7969 70.5754Z" fill="black"/>
<path d="M63.3766 46.8976C63.3766 43.6541 60.7384 41.016 57.495 41.016H54.8099C54.1268 41.016 53.5723 41.57 53.5723 42.2536V53.1447C53.5723 53.8278 54.1268 54.3823 54.8099 54.3823H57.495C60.7379 54.3823 63.3766 51.7437 63.3766 48.5002V46.8976ZM60.9013 48.5002C60.9013 50.3789 59.3731 51.9071 57.495 51.9071H56.0475V43.4912H57.495C59.3731 43.4912 60.9013 45.0189 60.9013 46.8976V48.5002Z" fill="black"/>
<path d="M41.7357 49.6382L40.689 52.7497C40.471 53.3975 40.8191 54.0995 41.4669 54.3175C42.1157 54.5356 42.8167 54.187 43.0347 53.5392L43.8073 51.2433H47.2456L48.0181 53.5392C48.1917 54.056 48.6737 54.3823 49.1909 54.3823C49.322 54.3823 49.4549 54.3615 49.5854 54.3175C50.2333 54.0995 50.5818 53.3975 50.3638 52.7497L46.6993 41.8586C46.5301 41.3549 46.0577 41.016 45.5264 41.016C44.9951 41.016 44.5228 41.3549 44.3536 41.8586L41.7367 49.6358C41.7362 49.6368 41.7357 49.6373 41.7357 49.6382ZM45.5264 46.1342L46.4126 48.768H44.6403L45.5264 46.1342Z" fill="black"/>
<path d="M60.5354 59.1844C60.3053 59.4145 60.1729 59.734 60.1729 60.0594C60.1729 60.3862 60.3053 60.7043 60.5354 60.9344C60.766 61.1646 61.0851 61.297 61.4105 61.297C61.7363 61.297 62.0554 61.1646 62.2855 60.9344C62.5156 60.7043 62.6481 60.3848 62.6481 60.0594C62.6481 59.734 62.5156 59.4145 62.2855 59.1844C62.0554 58.9542 61.7363 58.8218 61.4105 58.8218C61.0851 58.8218 60.7656 58.9542 60.5354 59.1844Z" fill="black"/>
<defs>
<filter id="filter0_d" x="0" y="0" width="104" height="105" filterUnits="userSpaceOnUse" color-interpolation-filters="sRGB">
<feFlood flood-opacity="0" result="BackgroundImageFix"/>
<feColorMatrix in="SourceAlpha" type="matrix" values="0 0 0 0 0 0 0 0 0 0 0 0 0 0 0 0 0 0 127 0"/>
<feOffset dy="4"/>
<feGaussianBlur stdDeviation="6.5"/>
<feColorMatrix type="matrix" values="0 0 0 0 0 0 0 0 0 0 0 0 0 0 0 0 0 0 0.25 0"/>
<feBlend mode="normal" in2="BackgroundImageFix" result="effect1_dropShadow"/>
<feBlend mode="normal" in="SourceGraphic" in2="effect1_dropShadow" result="shape"/>
</filter>
</defs>
</svg>
