<svg width="104" height="104" viewBox="0 0 104 104" fill="none" xmlns="http://www.w3.org/2000/svg">
<g filter="url(#filter0_d)">
<rect x="13" y="9" width="78" height="78" rx="10" fill="#619ED7"/>
</g>
<path d="M79.1859 56.0641V78.6897H25.8115V56.0641H44.3532C45.1713 52.4707 48.5797 49.4683 52.6585 49.4626C56.7443 49.4564 60.1664 52.4707 60.9914 56.0641H79.1859ZM59.4795 66.8445V64.989C59.4795 64.0761 58.78 63.3098 57.8566 63.21L55.3218 62.9381V58.6074L44.2309 62.4302H38.5169C38.0142 62.4302 37.6068 62.8305 37.6068 63.3244V68.7478C37.6062 69.2423 38.0137 69.6431 38.5169 69.6436H38.6455V75.7097H41.8105L43.6324 69.6436H44.2309L55.3218 73.4648V68.897L57.8566 68.6241C58.78 68.5243 59.4795 67.7575 59.4795 66.8445Z" fill="#FFB9B5"/>
<path d="M75.2577 31.3107C74.5868 31.7474 73.7988 31.9792 72.9939 31.9761C72.3711 31.9772 71.7557 31.8394 71.1953 31.5727C69.7956 30.9036 68.9114 29.5041 68.922 27.9751V25.3465H77.0664V27.9751C77.0744 29.3153 76.3944 30.5693 75.2577 31.3107Z" fill="#FEDB41"/>
<path d="M71.772 18.7881L77.0203 25.2893H68.9219V25.3465L64.3848 18.7881H71.772Z" fill="#FFB9B5"/>
<path d="M75.2584 31.972V56.0641H71.1943V31.5753L71.1959 31.5727C71.7563 31.8394 72.3717 31.9772 72.9946 31.9761C73.7994 31.9793 74.5874 31.7474 75.2584 31.3107V31.972Z" fill="#00ACEA"/>
<path d="M68.9215 27.9751V28.8896C68.9215 31.8248 66.4995 34.2044 63.5118 34.2044C60.5236 34.2044 58.1016 31.8248 58.1016 28.8896V25.3465H68.9215V27.9751Z" fill="#F4B844"/>
<path d="M64.3857 18.7881L68.9228 25.3465H58.0446L55.3691 18.7881H64.3857Z" fill="#00CEB4"/>
<path d="M59.48 64.989V66.8445C59.48 67.7574 58.7804 68.5243 57.857 68.6241L55.3223 68.897V62.9381L57.857 63.21C58.7804 63.3098 59.48 64.0761 59.48 64.989Z" fill="#00ACEA"/>
<path d="M58.044 25.3465V28.8896C58.044 31.8243 55.6225 34.2038 52.6348 34.2038C49.6476 34.2038 47.2256 31.8243 47.2256 28.8896V25.3465H58.044Z" fill="#FEDB41"/>
<path d="M55.3685 18.7881L58.044 25.3465H47.2256L49.9011 18.7881H55.3685Z" fill="#FFB9B5"/>
<path d="M55.3224 68.8971V73.4648L44.2314 69.6436V62.4302L55.3224 58.6074V68.8971Z" fill="#FEDB41"/>
<path d="M49.9013 18.7881L47.2258 25.3465H36.3477L41.8151 18.7881H49.9013Z" fill="#00CEB4"/>
<path d="M47.2252 25.3465V28.8896C47.2252 31.8248 44.8032 34.2044 41.8155 34.2044C38.8273 34.2044 36.4053 31.8248 36.4053 28.8896V25.3465H47.2252Z" fill="#F4B844"/>
<path d="M44.2316 62.4301V69.6436H38.5176C38.0144 69.6431 37.6069 69.2422 37.6074 68.7478V63.3243C37.6074 62.8305 38.0149 62.4301 38.5176 62.4301H44.2316Z" fill="#00ACEA"/>
<path d="M43.6324 69.6436L41.8105 75.7096H38.6455V69.6436H43.6324Z" fill="#FEDB41"/>
<path d="M41.8151 18.7881L36.3477 25.3465V25.2893H28.2588L34.5448 18.7881H41.8151Z" fill="#FFB9B5"/>
<path d="M33.805 31.6886C32.4434 32.221 30.8961 32.0037 29.7409 31.1173C29.6171 31.0227 29.4996 30.9202 29.3885 30.8116C28.6249 30.0588 28.1984 29.0382 28.2032 27.9751V25.3465H36.3476V27.9751C36.3582 29.6091 35.3496 31.0824 33.805 31.6886Z" fill="#FEDB41"/>
<path d="M33.8043 55.931V56.0641H29.7402V31.1173C30.8954 32.0037 32.4427 32.221 33.8043 31.6886V55.931Z" fill="#00ACEA"/>
<path d="M25.8128 55.2656C25.3641 55.2656 25 55.6233 25 56.0642V78.6897C25 79.1306 25.3641 79.4882 25.8128 79.4882H79.1872C79.6359 79.4882 80 79.1306 80 78.6897V56.0642C80 55.6233 79.6359 55.2656 79.1872 55.2656H76.0714V31.7116C77.207 30.795 77.8553 29.4194 77.8325 27.9751V25.2894C77.8415 25.03 77.7182 24.783 77.5034 24.6312L72.3979 18.2969C72.2482 18.1082 72.0169 17.998 71.773 18H34.5452C34.3229 17.998 34.1097 18.0858 33.9557 18.2433L27.8417 24.5891C27.5845 24.7305 27.4289 25.0003 27.4384 25.2894V27.9751C27.4231 29.2473 27.9268 30.4722 28.8381 31.3757C28.8751 31.4121 28.8905 31.4464 28.9286 31.4813V55.2656H25.8128ZM78.3744 77.8911H26.6256V56.8627H44.3545C44.7349 56.8627 45.0646 56.6033 45.1477 56.2383C45.9224 52.8357 49.1525 50.2659 52.6614 50.2612C56.173 50.2591 59.4157 52.8258 60.1994 56.2399C60.2831 56.6043 60.6127 56.8627 60.9927 56.8627H78.3744V77.8911ZM30.2414 30.4883C30.1515 30.4129 30.0668 30.3323 29.9874 30.2465C29.3826 29.6419 29.0498 28.8236 29.064 27.9751V26.1186H35.5665V27.9751C35.5707 29.2858 34.7579 30.4654 33.5175 30.9478C33.1249 31.1007 32.7063 31.1787 32.2835 31.1776C31.5432 31.1823 30.8225 30.939 30.2414 30.4883ZM48.7 19.5971L46.6765 24.5215H38.0647L42.2007 19.5971H48.7ZM54.8194 19.5971L56.8434 24.5215H48.4275L50.4516 19.5971H54.8194ZM63.9555 19.5971L67.3877 24.5215H58.5945L56.5704 19.5971H63.9555ZM37.1921 26.1186H46.4039V28.8896C46.4039 31.3887 44.3418 33.4147 41.798 33.4147C39.2543 33.4147 37.1921 31.3887 37.1921 28.8896V26.1186ZM48.0296 26.1186H57.2414V28.8896C57.2414 31.3887 55.1792 33.4147 52.6355 33.4147C50.0917 33.4147 48.0296 31.3887 48.0296 28.8896V26.1186ZM58.867 26.1186H68.0788V28.8896C68.0788 31.3887 66.0166 33.4147 63.4729 33.4147C60.9292 33.4147 58.867 31.3887 58.867 28.8896V26.1186ZM34.6182 32.1919C35.1495 31.9112 35.6221 31.5343 36.0115 31.082C36.3269 31.8784 36.8079 32.6016 37.4239 33.2052C38.7939 34.559 40.7307 35.2037 42.6563 34.9473C44.582 34.691 46.2743 33.5634 47.2289 31.9003C47.5067 32.3775 47.848 32.8163 48.2439 33.2052C49.6213 34.5663 51.5708 35.2104 53.5049 34.9437C55.4395 34.677 57.1334 33.5307 58.0769 31.8499C58.36 32.3463 58.7114 32.8023 59.1215 33.2047C60.6 34.6656 62.7299 35.2941 64.7831 34.8751C66.8368 34.4566 68.536 33.0477 69.3012 31.1293C69.3758 31.2135 69.4525 31.2962 69.5335 31.3762C69.7902 31.6268 70.0749 31.8483 70.3818 32.0365V55.2656H61.6176C60.4392 51.459 56.7064 48.611 52.673 48.611H52.6593C48.6275 48.611 44.9006 51.4663 43.729 55.2656H34.6182V32.1919ZM72.0074 55.2656V32.6765C72.817 32.8387 73.6552 32.7992 74.4458 32.5621V55.2656H72.0074ZM74.7845 30.6458C74.2511 30.9952 73.624 31.1808 72.9827 31.1776C72.1148 31.1834 71.2803 30.8485 70.6649 30.247C70.0495 29.646 69.7034 28.8283 69.7044 27.9751V26.1186H76.2069V27.9751C76.2222 29.0445 75.6872 30.0484 74.7845 30.6458ZM75.3391 24.5215H69.3134L65.9209 19.5971H71.3803L75.3391 24.5215ZM34.8939 19.5971H40.0994L36.011 24.5215H30.1525L34.8939 19.5971ZM30.5542 32.4732C31.1051 32.6739 31.6882 32.7758 32.2761 32.7747C32.5158 32.7747 32.7555 32.7576 32.9926 32.7243V55.2656H30.5542V32.4732Z" fill="black"/>
<path d="M57.9881 62.4161L56.1572 62.2222V58.6074C56.1545 58.347 56.0228 58.1042 55.8042 57.9565C55.5857 57.8089 55.3079 57.7746 55.0592 57.8656L44.0937 61.654H38.5178C38.0627 61.6493 37.624 61.8224 37.2986 62.1359C36.9737 62.4494 36.789 62.8768 36.7853 63.3244V68.7479C36.7768 69.4388 37.2102 70.0601 37.869 70.3018V75.7097C37.869 76.1505 38.1976 76.5602 38.6464 76.5602H41.8114C42.1759 76.5488 42.4919 76.3065 42.5908 75.9613L44.227 70.5004L55.0539 74.2244C55.1401 74.2529 55.2311 74.267 55.3227 74.2659C55.4947 74.2654 55.6624 74.2134 55.8037 74.1173C56.0212 73.9681 56.153 73.7253 56.1572 73.4648V69.6129L57.9887 69.418C59.3296 69.2771 60.3488 68.1692 60.3567 66.8445V64.9891C60.3488 63.6644 59.329 62.5565 57.9881 62.4161ZM38.4109 63.3244C38.4109 63.2708 38.4643 63.2511 38.5178 63.2511H43.4232V68.8409H38.5178C38.4628 68.843 38.4157 68.8019 38.4109 68.7479V63.3244ZM41.2033 74.9631H39.4946V70.438H42.5458L41.2033 74.9631ZM45.0488 69.0769V62.9958L54.5316 59.734V72.3382L45.0488 69.0769ZM58.7311 66.8445C58.7221 67.354 58.3273 67.7772 57.8114 67.8303L56.1572 68.006V63.8287L57.8114 64.0034C58.3273 64.0564 58.7221 64.4796 58.7311 64.9891V66.8445Z" fill="black"/>
<path d="M61.4414 66.046C61.4414 66.4869 61.8055 66.8446 62.2542 66.8446H67.6729C68.1217 66.8446 68.4857 66.4869 68.4857 66.046C68.4857 65.6051 68.1217 65.2475 67.6729 65.2475H62.2542C61.8055 65.2475 61.4414 65.6051 61.4414 66.046Z" fill="black"/>
<path d="M62.0673 63.5973C62.1356 63.5973 62.2033 63.5885 62.2695 63.5719L66.0896 62.6095C66.3722 62.5399 66.5949 62.3267 66.6738 62.0512C66.7521 61.7762 66.6754 61.4803 66.4711 61.276C66.2674 61.0717 65.9679 60.9906 65.6864 61.0624L61.8657 62.0247C61.4689 62.1245 61.209 62.4988 61.2604 62.8981C61.3112 63.2979 61.6572 63.5973 62.0673 63.5973Z" fill="black"/>
<path d="M61.8649 70.1147L65.685 71.076C65.967 71.1482 66.2665 71.0666 66.4703 70.8623C66.6745 70.658 66.7513 70.3621 66.6724 70.0866C66.5936 69.8111 66.3708 69.5984 66.0882 69.5288L62.2681 68.5675C61.8342 68.4604 61.3934 68.7183 61.2823 69.1441C61.1717 69.5698 61.432 70.0039 61.8649 70.1147Z" fill="black"/>
<defs>
<filter id="filter0_d" x="0" y="0" width="104" height="104" filterUnits="userSpaceOnUse" color-interpolation-filters="sRGB">
<feFlood flood-opacity="0" result="BackgroundImageFix"/>
<feColorMatrix in="SourceAlpha" type="matrix" values="0 0 0 0 0 0 0 0 0 0 0 0 0 0 0 0 0 0 127 0"/>
<feOffset dy="4"/>
<feGaussianBlur stdDeviation="6.5"/>
<feColorMatrix type="matrix" values="0 0 0 0 0 0 0 0 0 0 0 0 0 0 0 0 0 0 0.25 0"/>
<feBlend mode="normal" in2="BackgroundImageFix" result="effect1_dropShadow"/>
<feBlend mode="normal" in="SourceGraphic" in2="effect1_dropShadow" result="shape"/>
</filter>
</defs>
</svg>
