<svg width="147" height="335" viewBox="0 0 147 335" fill="none" xmlns="http://www.w3.org/2000/svg">
<g filter="url(#filter0_d)">
<path d="M11.5125 230.477H66.8799L66.8799 57.8057H11.5125L11.5125 230.477Z" fill="white"/>
<path d="M19.2029 219.259H58.9707V198.582H19.2029V219.259Z" fill="#589783"/>
<path d="M19.2029 219.259H58.9707V198.582H19.2029V219.259Z" fill="#588DBB"/>
<path d="M19.2029 191.543H58.9707V170.867H19.2029V191.543Z" fill="#79A4C9"/>
<path d="M19.2029 163.828H58.9707V143.151H19.2029V163.828Z" fill="#9BBBD6"/>
<path d="M19.2029 136.113H58.9707V115.436H19.2029V136.113Z" fill="#BCD1E4"/>
<path d="M19.2029 108.397H58.9707V87.7207H19.2029V108.397Z" fill="#DEE8F1"/>
<path d="M33.9216 69.9037C33.9216 67.0441 36.3384 64.6245 39.1947 64.6245C42.0509 64.6245 44.4678 67.0441 44.4678 69.9037C44.4678 72.7632 42.0509 75.1828 39.1947 75.1828C36.3384 75.1828 33.9216 72.7632 33.9216 69.9037Z" fill="#6A9AC2"/>
</g>
<g filter="url(#filter1_d)">
<path d="M69.958 198.607H132.995L132.995 2.01648H69.958L69.958 198.607Z" fill="white"/>
<path d="M78.9636 185.584H124.24V162.044H78.9636V185.584Z" fill="#589783"/>
<path d="M78.9636 185.584H124.24V162.044H78.9636V185.584Z" fill="#E88E2E"/>
<path d="M78.9636 154.03H124.24V130.489H78.9636V154.03Z" fill="#EDA558"/>
<path d="M78.9636 122.726H124.24V99.1848H78.9636V122.726Z" fill="#F1BB82"/>
<path d="M78.9636 91.1709H124.24V67.6301H78.9636V91.1709Z" fill="#F6D2AB"/>
<path d="M78.9636 59.6163L124.24 59.6163V36.0755L78.9636 36.0755V59.6163Z" fill="#FAE8D5"/>
<path d="M101.476 9.77989C98.1603 9.77989 95.4724 12.4708 95.4724 15.7903C95.4724 19.1098 98.1603 21.8007 101.476 21.8007C104.792 21.8007 107.479 19.1098 107.479 15.7903C107.479 12.4708 104.792 9.77989 101.476 9.77989Z" fill="#FFCC80"/>
</g>
<path d="M116.344 284.939H132.511L137.4 62.7801H111.455L116.344 284.939Z" fill="#5382A3"/>
<path d="M136.829 87.7262H112.026L111.455 62.7801H137.4L136.829 87.7262Z" fill="#639BC2"/>
<path d="M126.979 9.17648C148.392 20.7751 148.963 49.2543 137.4 62.7801H111.49C105.566 43.1516 101.855 21.7387 126.979 9.17648Z" fill="#FFDEC8"/>
<path d="M137.4 62.7801H111.491C110.384 59.1399 109.385 55.4284 108.6 51.7168C117.522 52.6447 126.373 47.3628 129.549 39.6185C133.153 30.8392 133.76 26.2711 140.505 22.6309C147.714 35.9426 145.644 53.1443 137.4 62.7801Z" fill="#F0DAD7"/>
<path d="M21.0934 313.383H37.2244L42.1494 91.2593H16.2041L21.0934 313.383Z" fill="#5382A3"/>
<path d="M41.5784 116.17H16.7394L16.2041 91.2593H42.1494L41.5784 116.17Z" fill="#639BC2"/>
<path d="M31.7272 37.62C53.1401 49.2186 53.7111 77.6978 42.1481 91.2593H16.2385C10.3143 71.5951 6.56702 50.1822 31.7272 37.62Z" fill="#FFB9B5"/>
<path d="M42.1492 91.2593H16.2396C15.1333 87.6191 14.134 83.9075 13.3489 80.1959C22.2709 81.1238 31.1216 75.842 34.2978 68.0976C37.938 59.2826 38.509 54.7502 45.2541 51.11C52.4631 64.3861 50.3932 81.5878 42.1492 91.2593Z" fill="#F0DAD7"/>
<path d="M57.5311 64.9771C58.2806 63.4782 60.2434 62.4789 62.92 61.8009L63.9193 62.6574L64.7401 61.4083C66.3818 61.1228 68.2376 60.9087 70.2004 60.8016C70.7001 64.0492 71.6636 70.4374 71.6636 72.2575C71.6636 74.1847 73.8763 64.6559 74.8042 60.6588C76.1247 60.6232 77.4451 60.6232 78.8013 60.6588L79.6221 67.7608L80.8712 60.6945C84.6898 60.7659 88.4371 60.9087 91.6847 61.0157L92.1487 63.2641L92.8981 61.0514C94.6468 61.0871 96.2528 61.0871 97.5733 61.0514C100.535 63.05 106.174 95.4548 91.1137 111.122H65.2041C54.9259 99.9872 54.2121 71.5794 57.5311 64.9771Z" fill="#FFC380"/>
<path d="M70.0588 333.21H86.1898L91.0791 111.086H65.1695L70.0588 333.21Z" fill="#5382A3"/>
<path d="M90.5438 136.032H65.7048L65.1695 111.086H91.0791L90.5438 136.032Z" fill="#639BC2"/>
<path d="M58.0668 96.2757C66.8104 97.5605 75.1615 95.6334 79.0515 88.1031C83.7623 78.9313 91.7922 73.9349 100.857 74.042C101.821 85.3908 100.393 101.415 91.1141 111.086H65.2045C61.8498 107.518 59.5657 102.129 58.0668 96.2757Z" fill="#F0DAD7"/>
<path d="M145.181 149.253H1.28586L5.53275 334.831H140.969L145.181 149.253Z" fill="#FAE2D7"/>
<path d="M142.683 259.672L140.97 334.831H5.53288L1.32167 149.253H28.4804C42.4702 208.995 92.8976 241.721 142.683 259.672Z" fill="#FFB9B5"/>
<path d="M2.4985 155.926H144.466C145.858 155.926 147 154.784 147 153.393V149.217C147 147.825 145.858 146.683 144.466 146.683H2.53419C1.14235 146.683 0.000335693 147.825 0.000335693 149.217V153.393C-0.0353546 154.784 1.10666 155.926 2.4985 155.926Z" fill="#407091"/>
<path d="M111.598 153.857H138.828C139.542 153.857 140.148 153.25 140.148 152.536V150.359C140.148 149.645 139.542 149.039 138.828 149.039H111.598C110.884 149.039 110.277 149.645 110.277 150.359V152.536C110.277 153.286 110.884 153.857 111.598 153.857Z" fill="#4F3836"/>
<path d="M123.767 201.929H132.047C134.831 201.929 137.079 199.68 137.079 196.897V168.132C137.079 165.348 134.831 163.1 132.047 163.1H123.767C120.984 163.1 118.735 165.348 118.735 168.132V196.897C118.735 199.645 120.984 201.929 123.767 201.929Z" fill="#4F3836"/>
<path d="M103.853 181.586H110.098C112.204 181.586 113.917 179.873 113.917 177.768V166.883C113.917 164.777 112.204 163.064 110.098 163.064H103.853C101.747 163.064 100.034 164.777 100.034 166.883V177.768C100.034 179.873 101.747 181.586 103.853 181.586Z" fill="#4F3836"/>
<defs>
<filter id="filter0_d" x="5.5127" y="55.8057" width="67.3673" height="184.671" filterUnits="userSpaceOnUse" color-interpolation-filters="sRGB">
<feFlood flood-opacity="0" result="BackgroundImageFix"/>
<feColorMatrix in="SourceAlpha" type="matrix" values="0 0 0 0 0 0 0 0 0 0 0 0 0 0 0 0 0 0 127 0"/>
<feOffset dy="4"/>
<feGaussianBlur stdDeviation="3"/>
<feColorMatrix type="matrix" values="0 0 0 0 0 0 0 0 0 0 0 0 0 0 0 0 0 0 0.25 0"/>
<feBlend mode="normal" in2="BackgroundImageFix" result="effect1_dropShadow"/>
<feBlend mode="normal" in="SourceGraphic" in2="effect1_dropShadow" result="shape"/>
</filter>
<filter id="filter1_d" x="63.958" y="0.0164795" width="75.0371" height="208.591" filterUnits="userSpaceOnUse" color-interpolation-filters="sRGB">
<feFlood flood-opacity="0" result="BackgroundImageFix"/>
<feColorMatrix in="SourceAlpha" type="matrix" values="0 0 0 0 0 0 0 0 0 0 0 0 0 0 0 0 0 0 127 0"/>
<feOffset dy="4"/>
<feGaussianBlur stdDeviation="3"/>
<feColorMatrix type="matrix" values="0 0 0 0 0 0 0 0 0 0 0 0 0 0 0 0 0 0 0.25 0"/>
<feBlend mode="normal" in2="BackgroundImageFix" result="effect1_dropShadow"/>
<feBlend mode="normal" in="SourceGraphic" in2="effect1_dropShadow" result="shape"/>
</filter>
</defs>
</svg>
