<svg width="104" height="105" viewBox="0 0 104 105" fill="none" xmlns="http://www.w3.org/2000/svg">
<g filter="url(#filter0_d)">
<rect x="13" y="9" width="78" height="79" rx="10" fill="#B99565"/>
</g>
<path d="M69.9992 20.2537C70.1366 20.2538 70.2708 20.294 70.3849 20.3692C70.4991 20.4444 70.588 20.5512 70.6405 20.6761C70.693 20.801 70.7067 20.9384 70.6799 21.071C70.6531 21.2036 70.5869 21.3253 70.4898 21.4209C70.3927 21.5165 70.2689 21.5816 70.1342 21.608C69.9995 21.6344 69.8599 21.6209 69.7329 21.5693C69.606 21.5176 69.4975 21.4301 69.4211 21.3177C69.3447 21.2054 69.3039 21.0733 69.3037 20.9381C69.3035 20.8482 69.3214 20.7591 69.3563 20.676C69.3912 20.5929 69.4424 20.5173 69.507 20.4537C69.5716 20.3901 69.6484 20.3397 69.7328 20.3054C69.8173 20.2711 69.9078 20.2535 69.9992 20.2537Z" fill="#5AC5DF"/>
<path d="M55.5041 41.0238C55.6414 41.0239 55.7757 41.0641 55.8898 41.1393C56.004 41.2145 56.0929 41.3213 56.1454 41.4462C56.1979 41.5711 56.2116 41.7086 56.1848 41.8411C56.1579 41.9737 56.0918 42.0955 55.9947 42.191C55.8975 42.2866 55.7738 42.3517 55.6391 42.3781C55.5044 42.4045 55.3647 42.3911 55.2378 42.3394C55.1109 42.2877 55.0024 42.2002 54.926 42.0879C54.8496 41.9755 54.8087 41.8434 54.8086 41.7083C54.8084 41.6183 54.8263 41.5292 54.8611 41.4461C54.896 41.363 54.9473 41.2875 55.0119 41.2239C55.0765 41.1603 55.1532 41.1099 55.2377 41.0755C55.3222 41.0412 55.4127 41.0236 55.5041 41.0238Z" fill="#5AC5DF"/>
<path d="M57.7072 48.1445C57.8446 48.1446 57.9788 48.1848 58.0929 48.26C58.2071 48.3352 58.296 48.442 58.3485 48.5669C58.401 48.6918 58.4147 48.8292 58.3879 48.9618C58.3611 49.0944 58.2949 49.2161 58.1978 49.3117C58.1007 49.4073 57.9769 49.4724 57.8422 49.4988C57.7075 49.5252 57.5679 49.5117 57.441 49.4601C57.314 49.4084 57.2055 49.3209 57.1291 49.2085C57.0527 49.0962 57.0119 48.9641 57.0117 48.8289C57.0115 48.739 57.0294 48.6499 57.0643 48.5668C57.0992 48.4836 57.1504 48.4081 57.215 48.3445C57.2796 48.2809 57.3564 48.2305 57.4408 48.1962C57.5253 48.1619 57.6158 48.1443 57.7072 48.1445Z" fill="#5AC5DF"/>
<path d="M37.1718 23.23L34.9045 25.0287L35.1258 27.8861L32.6879 26.3208L29.9941 27.4093L30.7547 24.643L28.8691 22.4602L31.777 22.3164L33.3053 19.8774L34.3421 22.5541L37.1718 23.23Z" fill="#50DD5A"/>
<path d="M82.1327 45.8478L79.2524 46.259L77.9641 48.829L76.6757 46.259L73.7939 45.8478L75.879 43.847L75.3874 41.0238L77.9641 42.3572L80.5408 41.0238L80.0491 43.847L82.1327 45.8478Z" fill="#50DD5A"/>
<path d="M71.2794 52.1602V75.2825C71.2794 76.4237 70.8187 77.5182 69.9987 78.3252C69.1787 79.1322 68.0665 79.5856 66.9069 79.5856H54.8086V52.1602H71.2794Z" fill="#E04A5D"/>
<path d="M62.4221 24.8358L65.6971 29.9045L50.5681 39.3703L44.9463 30.6701L56.3852 23.5124C56.8699 23.2091 57.4105 23.0028 57.9762 22.9052C58.5419 22.8076 59.1216 22.8206 59.6822 22.9435C60.2427 23.0664 60.7732 23.2968 61.2434 23.6214C61.7135 23.9461 62.114 24.3587 62.4221 24.8358Z" fill="#E04A5D"/>
<path d="M43.7822 52.1602H54.809V79.5856H43.7822V52.1602Z" fill="#F9CD53"/>
<path d="M40.1689 33.6612V33.6598L44.9477 30.6701L50.5696 39.3703L41.1883 45.2401L35.5664 36.5414L40.1689 33.6612Z" fill="#F9CD53"/>
<path d="M43.7826 52.1602V79.5856H34.5791C34.0048 79.5857 33.4361 79.4745 32.9054 79.2583C32.3748 79.0421 31.8926 78.7252 31.4865 78.3256C31.0803 77.926 30.7581 77.4516 30.5382 76.9295C30.3184 76.4073 30.2052 75.8477 30.2051 75.2825V52.1602H43.7826Z" fill="#E04A5D"/>
<path d="M41.1887 45.2402L25.8241 54.854L22.5504 49.7866C22.2422 49.3098 22.0324 48.7778 21.9331 48.2211C21.8338 47.6645 21.8468 47.094 21.9716 46.5423C22.0963 45.9906 22.3303 45.4685 22.6601 45.0058C22.9899 44.5431 23.4091 44.1489 23.8937 43.8456L35.5669 36.5414L41.1887 45.2402Z" fill="#E04A5D"/>
<path d="M34.5429 75.2825V52.1602H30.2051V75.2825C30.2052 75.8477 30.3184 76.4073 30.5382 76.9295C30.7581 77.4516 31.0803 77.926 31.4865 78.3256C31.8926 78.7252 32.3748 79.0421 32.9054 79.2583C33.4361 79.4745 34.0048 79.5857 34.5791 79.5856H38.9169C38.3426 79.5857 37.7739 79.4745 37.2433 79.2583C36.7126 79.0421 36.2305 78.7252 35.8243 78.3256C35.4181 77.926 35.0959 77.4516 34.8761 76.9295C34.6562 76.4073 34.543 75.8477 34.5429 75.2825Z" fill="#FF5A5A"/>
<path d="M27.0324 46.7983C26.5187 46.0033 26.2843 45.0644 26.3651 44.1256C26.4458 43.1868 26.8374 42.3001 27.4797 41.6015L23.8937 43.8455C23.4091 44.1488 22.9899 44.543 22.6601 45.0057C22.3303 45.4684 22.0963 45.9905 21.9716 46.5422C21.8468 47.0939 21.8338 47.6644 21.9331 48.2211C22.0324 48.7777 22.2422 49.3097 22.5504 49.7866L25.8241 54.8539L30.3065 51.8656L27.0324 46.7983Z" fill="#FF5A5A"/>
<path d="M71.2793 51.3058H33.1116L66.1631 30.6248C66.2593 30.5647 66.3425 30.4864 66.4079 30.3946C66.4734 30.3028 66.5198 30.1992 66.5446 30.0898C66.5693 29.9803 66.5719 29.8671 66.5522 29.7567C66.5325 29.6462 66.4909 29.5406 66.4298 29.446L63.1551 24.3776C62.4083 23.2244 61.2272 22.4099 59.8709 22.1127C58.5147 21.8155 57.094 22.06 55.9206 22.7924L51.2697 25.7025L51.6381 23.9677C51.7833 23.3406 51.8012 22.6913 51.6907 22.0573C51.5802 21.4233 51.3434 20.817 50.9941 20.2733C50.6448 19.7296 50.1897 19.2592 49.6551 18.8891C49.1204 18.519 48.5168 18.2565 47.8787 18.1167C47.2407 17.9769 46.5809 17.9626 45.9372 18.0745C45.2935 18.1864 44.6787 18.4224 44.128 18.7689C43.5772 19.1154 43.1015 19.5655 42.7281 20.0935C42.3547 20.6215 42.091 21.2169 41.9521 21.8455L39.5359 32.5257L31.4457 30.7535C30.2392 30.4888 28.9758 30.6769 27.9028 31.2809C26.8298 31.8849 26.0246 32.8613 25.6447 34.0189C25.2648 35.1765 25.3377 36.432 25.849 37.5395C26.3603 38.647 27.2733 39.5268 28.4092 40.0067L23.4267 43.1245C22.255 43.8594 21.4274 45.0217 21.1254 46.3564C20.8235 47.6912 21.0718 49.0893 21.816 50.244L25.0906 55.3126C25.1517 55.4072 25.2312 55.4891 25.3244 55.5535C25.4177 55.6179 25.523 55.6636 25.6342 55.688C25.7454 55.7124 25.8604 55.715 25.9726 55.6956C26.0849 55.6762 26.1921 55.6353 26.2883 55.5751L29.3363 53.6683V75.282C29.3379 76.6494 29.8906 77.9604 30.8731 78.9273C31.8557 79.8942 33.1878 80.438 34.5773 80.4395H66.9065C68.2959 80.4379 69.628 79.8941 70.6105 78.9272C71.593 77.9603 72.1456 76.6494 72.1472 75.282V52.1596C72.1472 52.0475 72.1247 51.9365 72.0811 51.8328C72.0375 51.7292 71.9736 51.6351 71.893 51.5558C71.8124 51.4765 71.7167 51.4136 71.6114 51.3708C71.5061 51.3279 71.3933 51.3058 71.2793 51.3058ZM56.8516 24.2336C57.4112 23.8814 58.0615 23.6941 58.7257 23.6937C58.9843 23.6938 59.2421 23.7218 59.4944 23.7772C59.9442 23.8746 60.3699 24.0587 60.7469 24.3191C61.1239 24.5794 61.4448 24.9107 61.6908 25.2938L64.5 29.6418L50.8358 38.1921L46.1457 30.9328L56.8516 24.2336ZM43.6458 22.2167C43.8332 21.395 44.3446 20.6803 45.0676 20.2297C45.7905 19.7791 46.6657 19.6296 47.5007 19.814C48.3356 19.9985 49.0619 20.5018 49.5198 21.2132C49.9777 21.9247 50.1296 22.786 49.9422 23.6077L49.2299 26.9609L41.4699 31.8345L43.6458 22.2167ZM44.6811 31.849L49.3712 39.1083L41.4531 44.0626L36.7632 36.8033L44.6811 31.849ZM27.6447 37.2234C27.3023 36.6935 27.1273 36.0755 27.1417 35.4476C27.1562 34.8197 27.3595 34.2102 27.726 33.6961C28.0925 33.1819 28.6057 32.7863 29.2007 32.5592C29.7956 32.3321 30.4457 32.2837 31.0686 32.4202L38.0793 33.9562L30.2969 38.7573L29.6662 38.619C29.2522 38.5294 28.8604 38.36 28.5134 38.1204C28.1664 37.8809 27.8712 37.576 27.6447 37.2234ZM26.0896 53.676L23.2806 49.3279C22.7828 48.5555 22.6166 47.6203 22.8186 46.7275C23.0205 45.8347 23.5741 45.0572 24.3578 44.5655L35.2989 37.7196L39.9888 44.9789L26.0896 53.676ZM42.9137 78.7319H34.5773C33.6479 78.7308 32.7569 78.367 32.0997 77.7203C31.4425 77.0735 31.0728 76.1966 31.0718 75.282V53.0134H42.9141L42.9137 78.7319ZM53.9411 78.7319H44.6488V53.0134H53.9411V78.7319ZM70.4118 75.282C70.4107 76.1966 70.0411 77.0734 69.3839 77.7202C68.7268 78.3669 67.8358 78.7308 66.9065 78.7319H55.6762V53.0134H70.4118V75.282Z" fill="black"/>
<path d="M80.9802 43.5498L81.3952 41.1684C81.4225 41.0115 81.4047 40.8501 81.3437 40.7026C81.2827 40.5551 81.181 40.4273 81.0501 40.3337C80.9192 40.24 80.7643 40.1843 80.6029 40.1728C80.4415 40.1612 80.2801 40.1944 80.1368 40.2684L77.9638 41.3926L75.7907 40.2684C75.6474 40.1942 75.4859 40.161 75.3244 40.1725C75.163 40.184 75.008 40.2397 74.877 40.3333C74.746 40.427 74.6443 40.5548 74.5833 40.7024C74.5223 40.85 74.5045 41.0114 74.5319 41.1684L74.9469 43.5498L73.1889 45.2361C73.0729 45.3473 72.9909 45.4882 72.9521 45.6429C72.9132 45.7976 72.9192 45.9598 72.9692 46.1114C73.0192 46.2629 73.1113 46.3977 73.2351 46.5004C73.3589 46.6031 73.5094 46.6696 73.6696 46.6925L76.0988 47.04L77.1853 49.2065C77.257 49.3494 77.3678 49.4698 77.5053 49.5539C77.6428 49.6381 77.8015 49.6826 77.9634 49.6826C78.1253 49.6826 78.284 49.6381 78.4215 49.5539C78.559 49.4698 78.6698 49.3494 78.7415 49.2065L79.8278 47.04L82.257 46.6925C82.4172 46.6696 82.5677 46.6031 82.6915 46.5004C82.8153 46.3977 82.9074 46.2629 82.9574 46.1114C83.0075 45.9598 83.0134 45.7976 82.9746 45.6429C82.9358 45.4882 82.8537 45.3473 82.7378 45.2361L80.9802 43.5498ZM79.127 45.414C78.9878 45.4338 78.8555 45.4868 78.7417 45.5681C78.6279 45.6495 78.5359 45.7569 78.4737 45.881L77.9634 46.8987L77.453 45.881C77.3907 45.7569 77.2988 45.6495 77.185 45.5681C77.0712 45.4868 76.939 45.4339 76.7998 45.414L75.6584 45.2507L76.4843 44.4586C76.5851 44.3619 76.6604 44.2427 76.7039 44.111C76.7474 43.9793 76.7577 43.8392 76.7339 43.7028L76.5388 42.584L77.5597 43.1121C77.6842 43.1766 77.8227 43.2103 77.9634 43.2103C78.1041 43.2103 78.2426 43.1766 78.3671 43.1121L79.3878 42.584L79.1929 43.7028C79.1691 43.8392 79.1794 43.9793 79.2228 44.111C79.2663 44.2426 79.3416 44.3619 79.4423 44.4586L80.2682 45.2507L79.127 45.414Z" fill="black"/>
<path d="M29.7962 24.8541L29.1558 27.1864C29.1135 27.3402 29.1158 27.5026 29.1625 27.6552C29.2091 27.8078 29.2981 27.9445 29.4196 28.0498C29.5411 28.1552 29.69 28.225 29.8497 28.2514C30.0094 28.2777 30.1734 28.2596 30.3231 28.199L32.5933 27.2805L34.6495 28.6009C34.7851 28.6879 34.9428 28.7359 35.1046 28.7394C35.2665 28.7429 35.4261 28.7017 35.5654 28.6206C35.7047 28.5395 35.8182 28.4216 35.893 28.2803C35.9678 28.139 36.0009 27.9799 35.9886 27.8211L35.8028 25.412L37.7138 23.8953C37.8398 23.7953 37.9348 23.6627 37.9882 23.5123C38.0415 23.3619 38.0511 23.1999 38.0158 23.0444C37.9805 22.889 37.9017 22.7464 37.7883 22.6327C37.675 22.519 37.5316 22.4388 37.3743 22.4012L34.9885 21.8307L34.1137 19.5732C34.056 19.4244 33.9571 19.2944 33.8283 19.1979C33.6994 19.1014 33.5457 19.0424 33.3845 19.0275C33.2233 19.0125 33.0611 19.0422 32.9162 19.1133C32.7712 19.1843 32.6494 19.2939 32.5645 19.4295L31.2761 21.486L28.8241 21.6073C28.6624 21.6153 28.5062 21.6676 28.3732 21.7584C28.2402 21.8492 28.1356 21.9748 28.0713 22.121C28.0071 22.2672 27.9856 22.4282 28.0095 22.5858C28.0333 22.7433 28.1015 22.8912 28.2062 23.0126L29.7962 24.8541ZM31.8192 23.1687C31.9597 23.1618 32.0964 23.1213 32.2174 23.0509C32.3385 22.9804 32.4403 22.882 32.5142 22.7642L33.1194 21.7981L33.5304 22.8585C33.5805 22.9879 33.6618 23.1033 33.7674 23.1948C33.8729 23.2863 33.9994 23.3512 34.1361 23.3839L35.2567 23.6518L34.3591 24.3642C34.2496 24.4511 34.1632 24.5629 34.1073 24.6899C34.0515 24.817 34.0278 24.9555 34.0385 25.0935L34.1252 26.2253L33.1592 25.6051C33.0414 25.5294 32.9067 25.4831 32.7667 25.4701C32.6266 25.4572 32.4855 25.4779 32.3554 25.5305L31.2889 25.9619L31.5896 24.8662C31.6263 24.7326 31.6295 24.5922 31.5988 24.4571C31.5681 24.3219 31.5044 24.1962 31.4134 24.0907L30.6668 23.2255L31.8192 23.1687Z" fill="black"/>
<path d="M62.4594 43.6728C60.5008 44.8859 59.5438 46.3558 59.5041 46.4179C59.3808 46.6091 59.3398 46.8407 59.3901 47.0616C59.4404 47.2826 59.5778 47.4749 59.7721 47.5962C59.9664 47.7175 60.2017 47.7578 60.4262 47.7083C60.6508 47.6589 60.8462 47.5237 60.9694 47.3324C61.0995 47.1332 64.2385 42.4636 71.0708 44.1268C71.2933 44.1789 71.5277 44.1424 71.723 44.0252C71.9183 43.9081 72.0586 43.7198 72.1136 43.5013C72.1685 43.2828 72.1336 43.0519 72.0164 42.8586C71.8992 42.6653 71.7092 42.5254 71.4877 42.4693C67.284 41.4458 64.2578 42.5587 62.4594 43.6728Z" fill="black"/>
<path d="M78.9224 34.6307C79.1349 34.7175 79.3738 34.7176 79.5864 34.6311C79.7991 34.5446 79.9681 34.3785 80.0563 34.1693C80.1445 33.9602 80.1446 33.7251 80.0567 33.5158C79.9688 33.3066 79.8 33.1402 79.5875 33.0534C73.4113 30.5309 68.9223 32.4199 66.2443 34.4491C64.4676 35.8089 62.997 37.5167 61.9255 39.4646C61.8748 39.565 61.8447 39.6743 61.837 39.7862C61.8292 39.898 61.8439 40.0103 61.8802 40.1166C61.9166 40.2228 61.9738 40.321 62.0487 40.4055C62.1236 40.49 62.2146 40.5592 62.3167 40.6091C62.4187 40.6589 62.5298 40.6885 62.6434 40.6962C62.7571 40.7038 62.8712 40.6893 62.9792 40.6536C63.0871 40.6178 63.1869 40.5615 63.2728 40.4878C63.3587 40.4141 63.4289 40.3245 63.4796 40.2241C64.4357 38.5099 65.7365 37.0053 67.3027 35.8021C70.67 33.2514 74.5794 32.8569 78.9224 34.6307Z" fill="black"/>
<path d="M69.1739 28.3056C69.1031 28.521 69.1222 28.7553 69.2269 28.9569C69.3316 29.1586 69.5135 29.311 69.7324 29.3807C70.9268 29.727 72.1654 29.9032 73.4106 29.9038C74.8614 29.9038 76.5371 29.6461 78.0398 28.7695C80.0063 27.6228 81.2671 25.6692 81.7897 22.9637C81.8114 22.8533 81.8108 22.7399 81.7879 22.6298C81.7649 22.5197 81.7201 22.4151 81.6561 22.3221C81.592 22.2291 81.5099 22.1494 81.4144 22.0877C81.319 22.026 81.2121 21.9834 81.0999 21.9625C80.9877 21.9415 80.8724 21.9425 80.7607 21.9655C80.6489 21.9884 80.5428 22.0329 80.4485 22.0963C80.3542 22.1597 80.2736 22.2408 80.2112 22.3349C80.1489 22.4291 80.106 22.5344 80.0851 22.6449C79.6603 24.845 78.677 26.4102 77.1627 27.2967C74.2822 28.9834 70.3281 27.7758 70.2655 27.7562C70.0467 27.6868 69.8089 27.7056 69.6042 27.8086C69.3995 27.9116 69.2448 28.0904 69.1739 28.3056Z" fill="black"/>
<path d="M57.7059 50.3663C58.0149 50.3663 58.3171 50.2761 58.574 50.1072C58.831 49.9382 59.0313 49.6981 59.1496 49.4171C59.2679 49.1361 59.2988 48.8269 59.2385 48.5287C59.1783 48.2304 59.0295 47.9564 58.811 47.7413C58.5924 47.5262 58.314 47.3798 58.0109 47.3204C57.7078 47.2611 57.3937 47.2915 57.1081 47.4079C56.8226 47.5243 56.5786 47.7214 56.4069 47.9742C56.2352 48.2271 56.1436 48.5244 56.1436 48.8286C56.1441 49.2362 56.3088 49.627 56.6017 49.9153C56.8946 50.2035 57.2917 50.3657 57.7059 50.3663ZM57.7059 48.6586C57.7401 48.6586 57.7735 48.6686 57.802 48.6872C57.8304 48.7059 57.8526 48.7325 57.8657 48.7636C57.8788 48.7946 57.8822 48.8288 57.8755 48.8618C57.8689 48.8948 57.8524 48.9252 57.8282 48.9489C57.8041 48.9727 57.7733 48.9889 57.7397 48.9955C57.7062 49.002 57.6714 48.9987 57.6399 48.9858C57.6083 48.9729 57.5813 48.9511 57.5623 48.9231C57.5433 48.8951 57.5332 48.8622 57.5333 48.8286C57.5335 48.7836 57.5518 48.7405 57.5841 48.7087C57.6164 48.6768 57.6602 48.6589 57.7059 48.6586Z" fill="black"/>
<path d="M69.999 22.4755C70.3081 22.4755 70.6101 22.3853 70.8671 22.2163C71.1241 22.0473 71.3243 21.8072 71.4426 21.5262C71.5608 21.2452 71.5918 20.9361 71.5315 20.6378C71.4712 20.3395 71.3224 20.0655 71.1039 19.8505C70.8854 19.6354 70.6069 19.4889 70.3039 19.4296C70.0008 19.3703 69.6866 19.4007 69.4011 19.5171C69.1156 19.6335 68.8715 19.8306 68.6999 20.0835C68.5282 20.3363 68.4365 20.6336 68.4365 20.9378C68.437 21.3454 68.6018 21.7363 68.8947 22.0246C69.1876 22.3129 69.5848 22.475 69.999 22.4755ZM69.999 20.7679C70.0332 20.7679 70.0666 20.7778 70.095 20.7965C70.1235 20.8152 70.1456 20.8418 70.1587 20.8729C70.1717 20.9039 70.1752 20.9381 70.1685 20.9711C70.1618 21.0041 70.1453 21.0344 70.1212 21.0582C70.097 21.082 70.0662 21.0982 70.0326 21.1047C69.9991 21.1112 69.9644 21.1079 69.9328 21.095C69.9012 21.0821 69.8743 21.0603 69.8553 21.0323C69.8363 21.0043 69.8262 20.9714 69.8262 20.9378C69.8265 20.8927 69.8447 20.8496 69.8771 20.8178C69.9095 20.786 69.9533 20.768 69.999 20.7679Z" fill="black"/>
<path d="M57.0654 41.7079C57.0654 41.4037 56.9738 41.1064 56.802 40.8535C56.6303 40.6006 56.3862 40.4035 56.1007 40.2871C55.8151 40.1708 55.5009 40.1404 55.1978 40.1998C54.8947 40.2592 54.6163 40.4057 54.3978 40.6209C54.1793 40.836 54.0305 41.1101 53.9703 41.4084C53.9102 41.7067 53.9412 42.0159 54.0596 42.2969C54.178 42.5779 54.3784 42.818 54.6355 42.9868C54.8925 43.1557 55.1947 43.2457 55.5038 43.2456C55.9179 43.2449 56.3149 43.0827 56.6076 42.7944C56.9004 42.5062 57.065 42.1154 57.0654 41.7079ZM55.5038 41.8786C55.4696 41.8787 55.4363 41.8687 55.4078 41.8501C55.3794 41.8315 55.3572 41.8049 55.3441 41.7739C55.331 41.7429 55.3275 41.7087 55.3341 41.6758C55.3407 41.6428 55.3571 41.6125 55.3812 41.5886C55.4052 41.5648 55.436 41.5486 55.4694 41.5419C55.5029 41.5352 55.5376 41.5385 55.5692 41.5513C55.6008 41.564 55.6279 41.5857 55.647 41.6136C55.666 41.6415 55.6763 41.6743 55.6764 41.7079C55.6762 41.753 55.6579 41.7962 55.6254 41.8281C55.5929 41.86 55.5489 41.8779 55.5031 41.8779L55.5038 41.8786Z" fill="black"/>
<defs>
<filter id="filter0_d" x="0" y="0" width="104" height="105" filterUnits="userSpaceOnUse" color-interpolation-filters="sRGB">
<feFlood flood-opacity="0" result="BackgroundImageFix"/>
<feColorMatrix in="SourceAlpha" type="matrix" values="0 0 0 0 0 0 0 0 0 0 0 0 0 0 0 0 0 0 127 0"/>
<feOffset dy="4"/>
<feGaussianBlur stdDeviation="6.5"/>
<feColorMatrix type="matrix" values="0 0 0 0 0 0 0 0 0 0 0 0 0 0 0 0 0 0 0.25 0"/>
<feBlend mode="normal" in2="BackgroundImageFix" result="effect1_dropShadow"/>
<feBlend mode="normal" in="SourceGraphic" in2="effect1_dropShadow" result="shape"/>
</filter>
</defs>
</svg>
