<svg width="105" height="105" viewBox="0 0 105 105" fill="none" xmlns="http://www.w3.org/2000/svg">
<g filter="url(#filter0_d)">
<rect x="13" y="9" width="79" height="79" rx="10" fill="#C75450"/>
</g>
<path fill-rule="evenodd" clip-rule="evenodd" d="M81.1406 70.5523C81.1406 66.933 78.1812 63.9702 74.5587 63.9702H66.8236L65.4058 70.709L66.8236 77.1342H74.5587C78.1813 77.1342 81.1406 74.1749 81.1406 70.5523V70.5523Z" fill="#CCF49F"/>
<path fill-rule="evenodd" clip-rule="evenodd" d="M66.8223 77.1342V63.9702H52.5051L50.8816 70.9704L52.5051 77.1342H66.8223Z" fill="#B3E59F"/>
<path fill-rule="evenodd" clip-rule="evenodd" d="M52.5059 77.1342V63.9702H38.1887L36.6762 70.6895L38.1887 77.1342H52.5059Z" fill="#95D6A4"/>
<path fill-rule="evenodd" clip-rule="evenodd" d="M38.1895 77.1342V63.9702H30.4511C26.8317 63.9702 23.869 66.933 23.869 70.5523C23.869 74.1749 26.8317 77.1342 30.4511 77.1342H38.1895Z" fill="#78C2A4"/>
<path fill-rule="evenodd" clip-rule="evenodd" d="M79.2131 75.2064C81.774 72.6454 81.774 68.4576 79.2131 65.8968L73.7448 60.4287L64.4353 69.7382L69.9034 75.2064C72.4642 77.7673 76.652 77.7673 79.2131 75.2064V75.2064Z" fill="#F4FBFF"/>
<path fill-rule="evenodd" clip-rule="evenodd" d="M64.4356 69.739L73.7451 60.4294L63.6189 50.3032L58.131 53.6088L54.3093 59.6127L64.4356 69.739Z" fill="#D3EFFB"/>
<path fill-rule="evenodd" clip-rule="evenodd" d="M54.3086 59.6127L63.6182 50.3032L53.4952 40.1802L47.9518 43.708L44.1856 49.4897L54.3086 59.6127Z" fill="#B1E4F9"/>
<path fill-rule="evenodd" clip-rule="evenodd" d="M44.1865 49.4898L53.4961 40.1802L48.0246 34.7087C45.4636 32.151 41.2759 32.151 38.715 34.7087C36.1574 37.2697 36.1574 41.4574 38.715 44.0182L44.1865 49.4898Z" fill="#6BBEF6"/>
<path fill-rule="evenodd" clip-rule="evenodd" d="M74.5587 77.1342C70.9394 77.1342 67.9766 74.1748 67.9766 70.5523L67.9766 26.4443C67.9766 22.825 70.9394 19.8623 74.5587 19.8623C78.1813 19.8623 81.1406 22.825 81.1406 26.4443L81.1406 70.5523C81.1406 74.1749 78.1813 77.1342 74.5587 77.1342V77.1342Z" fill="#365E7D"/>
<path fill-rule="evenodd" clip-rule="evenodd" d="M74.5574 77.1342C70.9381 77.1342 67.9753 74.1748 67.9753 70.5523L67.9753 26.4443C67.9753 22.825 70.9381 19.8623 74.5574 19.8623C75.1388 19.8623 75.7006 19.9408 76.2363 20.0811C73.4206 20.8291 71.33 23.4032 71.33 26.4443L71.33 70.5523C71.33 73.5934 73.4207 76.1708 76.2363 76.9155C75.7006 77.0592 75.1388 77.1342 74.5574 77.1342V77.1342Z" fill="#2B4D66"/>
<path fill-rule="evenodd" clip-rule="evenodd" d="M76.3182 71.9045C75.3513 72.8715 73.7868 72.8715 72.8231 71.9045C71.8561 70.9409 71.8561 69.3763 72.8231 68.4094C73.7868 67.4458 75.3513 67.4458 76.3182 68.4094C77.2819 69.3763 77.2819 70.9409 76.3182 71.9045V71.9045Z" fill="#2B4D66"/>
<path d="M76.9296 72.5154C76.2795 73.1687 75.4238 73.4955 74.5712 73.4955C73.7187 73.4955 72.8628 73.1687 72.2127 72.5154C71.5594 71.8654 71.2359 71.0129 71.2359 70.157C71.2359 69.3045 71.5594 68.4518 72.2127 67.7985C72.8628 67.1485 73.7185 66.8218 74.5712 66.8218C75.4238 66.8218 76.2795 67.1485 76.9296 67.7985C77.5797 68.4518 77.9064 69.3044 77.9064 70.157C77.9064 71.0129 77.5797 71.8655 76.9296 72.5154V72.5154ZM78.2331 43.4793C78.71 43.4793 79.0987 43.8648 79.0987 44.3416C79.0987 44.8218 78.71 45.2073 78.2331 45.2073H70.8833C70.4064 45.2073 70.021 44.8218 70.021 44.3416C70.021 43.8647 70.4065 43.4793 70.8833 43.4793H78.2331ZM44.186 48.268L52.2739 40.1802L47.4133 35.3195C46.3026 34.2089 44.836 33.6537 43.3693 33.6537C41.9026 33.6537 40.4391 34.2089 39.3252 35.3195C38.2146 36.4333 37.6594 37.8968 37.6594 39.3635C37.6594 40.8302 38.2146 42.2968 39.3252 43.4074L44.186 48.268ZM64.4353 68.514L67.1138 65.8387V55.02L63.6186 51.528L55.5306 59.6126C58.4999 62.582 61.4659 65.5479 64.4353 68.514V68.514ZM80.2778 42.9762C80.2778 42.4993 80.6634 42.1106 81.1401 42.1106C81.6171 42.1106 82.0059 42.4993 82.0059 42.9762V70.5523C82.0059 72.6003 81.1696 74.4624 79.8173 75.8115C78.4683 77.1637 76.6063 78 74.5581 78L30.4502 78C28.4022 78 26.5401 77.1637 25.191 75.8115C23.8421 74.4624 23.0059 72.6005 23.0059 70.5523C23.0059 68.5042 23.8421 66.6422 25.1912 65.2931C26.5402 63.9441 28.4022 63.1078 30.4503 63.1078H38.1887H43.389C43.8659 63.1078 44.2513 63.4933 44.2513 63.9701C44.2513 64.4469 43.8658 64.8359 43.389 64.8359H39.051V76.2719H51.6402L51.6402 64.836L47.3022 64.836C46.8253 64.836 46.4399 64.4472 46.4399 63.9702C46.4399 63.4933 46.8254 63.1079 47.3022 63.1079H56.5824L38.1036 44.6293C36.6565 43.1822 35.9313 41.2712 35.9313 39.3636C35.9313 37.456 36.6565 35.5483 38.1036 34.098C39.554 32.6509 41.4617 31.9257 43.3693 31.9257C45.277 31.9257 47.1879 32.6509 48.6349 34.098L54.1065 39.5693L57.7846 43.2474C58.121 43.5839 58.121 44.1326 57.7846 44.4691C57.4449 44.8056 56.8993 44.8056 56.5629 44.4691L53.4956 41.4019L45.4076 49.4899L54.3089 58.3911L62.3968 50.3033L59.3295 47.236C58.993 46.8996 58.993 46.3541 59.3295 46.0143C59.6659 45.6778 60.2148 45.6778 60.5513 46.0143L67.1137 52.5768L67.1137 26.4445C67.1137 24.3965 67.9499 22.5345 69.299 21.1854C70.648 19.8362 72.5101 19 74.5581 19C76.6062 19 78.4683 19.8362 79.8173 21.1853C81.1664 22.5343 82.0059 24.3963 82.0059 26.4444V39.0596C82.0059 39.5366 81.6171 39.9253 81.1401 39.9253C80.6633 39.9253 80.2778 39.5366 80.2778 39.0596V26.4444C80.2778 24.8733 79.6343 23.4459 78.5956 22.407C77.5601 21.3715 76.1294 20.728 74.5581 20.728C72.9869 20.728 71.5595 21.3715 70.5207 22.407C69.4853 23.4459 68.8418 24.8733 68.8418 26.4444L68.8418 70.5523C68.8418 72.1235 69.4853 73.5543 70.5207 74.5898C71.5595 75.6285 72.9869 76.2719 74.5581 76.2719C76.0803 76.2719 77.524 75.6643 78.5956 74.5898C79.6343 73.5543 80.2778 72.1235 80.2778 70.5523L80.2778 42.9762ZM65.6569 69.739L67.143 71.2219C67.1235 71.0032 67.1137 70.7778 67.1137 70.5523V68.2821L65.6569 69.739ZM69.8021 76.2719C69.6258 76.125 69.4591 75.9715 69.2991 75.8115C68.7635 75.279 68.2244 74.7498 67.6887 74.2141V76.2719H69.8021ZM65.9574 72.4828L63.8243 70.3497L58.3103 64.8359H53.368V76.2719H65.9574V72.4828ZM37.323 76.2719V64.836H30.4502C28.879 64.836 27.4515 65.4794 26.4128 66.5148C25.3773 67.5537 24.7338 68.9811 24.7338 70.5523C24.7338 72.1235 25.3773 73.5543 26.4128 74.5898C27.4515 75.6285 28.879 76.2719 30.4502 76.2719H37.323ZM78.2331 36.7666C78.71 36.7666 79.0987 37.1554 79.0987 37.6324C79.0987 38.1093 78.71 38.4947 78.2331 38.4947H70.8833C70.4064 38.4947 70.021 38.1092 70.021 37.6324C70.021 37.1554 70.4065 36.7666 70.8833 36.7666H78.2331ZM78.2331 40.1245C78.71 40.1245 79.0987 40.51 79.0987 40.9868C79.0987 41.4639 78.71 41.8526 78.2331 41.8526H70.8833C70.4064 41.8526 70.021 41.4639 70.021 40.9868C70.021 40.5099 70.4065 40.1245 70.8833 40.1245H78.2331ZM75.6034 33.4119C76.0803 33.4119 76.4691 33.7974 76.4691 34.2742C76.4691 34.7544 76.0803 35.1398 75.6034 35.1398H73.5127C73.0359 35.1398 72.6504 34.7544 72.6504 34.2742C72.6504 33.7972 73.036 33.4119 73.5127 33.4119H75.6034ZM75.6034 46.8341C76.0803 46.8341 76.4691 47.2227 76.4691 47.6997C76.4691 48.1766 76.0803 48.562 75.6034 48.562H73.5127C73.0359 48.562 72.6504 48.1765 72.6504 47.6997C72.6504 47.2229 73.036 46.8341 73.5127 46.8341H75.6034ZM75.708 71.2938C76.0216 70.9802 76.1783 70.5686 76.1783 70.1571C76.1783 69.7455 76.0216 69.3339 75.708 69.0204C75.3944 68.7067 74.9828 68.55 74.5713 68.55C74.1598 68.55 73.748 68.7067 73.4346 69.0204C73.1209 69.334 72.9641 69.7455 72.9641 70.1571C72.9641 70.5686 73.1209 70.9803 73.4346 71.2938C73.7482 71.6075 74.1598 71.7642 74.5713 71.7642C74.9828 71.7642 75.3944 71.6074 75.708 71.2938Z" fill="black"/>
<defs>
<filter id="filter0_d" x="0" y="0" width="105" height="105" filterUnits="userSpaceOnUse" color-interpolation-filters="sRGB">
<feFlood flood-opacity="0" result="BackgroundImageFix"/>
<feColorMatrix in="SourceAlpha" type="matrix" values="0 0 0 0 0 0 0 0 0 0 0 0 0 0 0 0 0 0 127 0"/>
<feOffset dy="4"/>
<feGaussianBlur stdDeviation="6.5"/>
<feColorMatrix type="matrix" values="0 0 0 0 0 0 0 0 0 0 0 0 0 0 0 0 0 0 0.25 0"/>
<feBlend mode="normal" in2="BackgroundImageFix" result="effect1_dropShadow"/>
<feBlend mode="normal" in="SourceGraphic" in2="effect1_dropShadow" result="shape"/>
</filter>
</defs>
</svg>
