<svg width="105" height="105" viewBox="0 0 105 105" fill="none" xmlns="http://www.w3.org/2000/svg">
<g filter="url(#filter0_d)">
<rect x="13" y="9" width="79" height="79" rx="10" fill="#6C74D1"/>
</g>
<path d="M76.0827 48.4837H29.917V20.3773C29.917 19.5696 30.5718 18.9147 31.3795 18.9147H74.6202C75.4279 18.9147 76.0828 19.5696 76.0828 20.3773V48.4837H76.0827Z" fill="#C3DDFF"/>
<path d="M63.5442 39.6593C67.6443 39.6593 70.9682 36.3354 70.9682 32.2353C70.9682 28.1351 67.6443 24.8112 63.5442 24.8112C59.444 24.8112 56.1201 28.1351 56.1201 32.2353C56.1201 36.3354 59.444 39.6593 63.5442 39.6593Z" fill="#FFE177"/>
<path d="M65.0673 39.5019C64.5749 39.6055 64.0654 39.6592 63.5438 39.6592C59.4438 39.6592 56.1201 36.3355 56.1201 32.2355C56.1201 28.1355 59.4438 24.8118 63.5438 24.8118C64.0654 24.8118 64.5749 24.8655 65.0673 24.9691C61.6985 25.6711 59.1671 28.6571 59.1671 32.2355C59.1671 35.8139 61.6985 38.7999 65.0673 39.5019Z" fill="#FFD15B"/>
<path d="M71.32 54.9209H34.6807L52.5786 23.9209C52.7663 23.5955 53.2356 23.5955 53.4233 23.9209L71.32 54.9209Z" fill="#7A6D79"/>
<path d="M54.5238 25.8283L37.7276 54.9209H34.6807L52.5786 23.9209C52.7663 23.5955 53.2356 23.5955 53.4233 23.9209L54.5238 25.8283Z" fill="#685E68"/>
<path d="M34.4265 18.9141C33.6185 18.9141 32.964 19.5698 32.964 20.3766V48.4832H29.917V20.3766C29.917 19.5698 30.5715 18.9141 31.3795 18.9141H34.4265Z" fill="#A4CCFF"/>
<path d="M59.3979 34.2684L59.3967 34.2697C58.9603 34.639 58.4375 34.9181 57.6465 34.9181C55.3101 34.9181 55.3101 32.4805 52.9736 32.4805C51.0796 32.4805 50.7213 34.082 49.4087 34.6877C49.1015 34.8303 48.7432 34.9181 48.2996 34.9181C47.5305 34.9181 47.015 34.6548 46.5859 34.3001L52.5787 23.9209C52.7664 23.5955 53.2357 23.5955 53.4234 23.9209L54.5239 25.8283L59.3979 34.2684Z" fill="#EDF4FF"/>
<path d="M41.5807 44.5331V42.3302C41.5807 41.5225 40.9259 40.8676 40.1182 40.8676H24.3766C23.5689 40.8676 22.9141 41.5225 22.9141 42.3302V77.4354C22.9141 78.2431 23.5689 78.898 24.3766 78.898H81.6242C82.4319 78.898 83.0867 78.2431 83.0867 77.4354V47.4582C83.0867 46.6505 82.4319 45.9957 81.6242 45.9957H43.0433C42.2356 45.9957 41.5807 45.3408 41.5807 44.5331Z" fill="#FFE177"/>
<path d="M27.4236 78.8982H24.3766C23.5686 78.8982 22.9141 78.2425 22.9141 77.4356V42.3295C22.9141 41.5227 23.5686 40.867 24.3766 40.867H27.4236C26.6155 40.867 25.961 41.5227 25.961 42.3295V77.4356C25.961 78.2425 26.6155 78.8982 27.4236 78.8982Z" fill="#FFD15B"/>
<path d="M54.5239 25.8283L49.4087 34.6877C49.1015 34.8303 48.7432 34.9181 48.2996 34.9181C47.5305 34.9181 47.015 34.6548 46.5859 34.3001L52.5787 23.9209C52.7664 23.5955 53.2357 23.5955 53.4234 23.9209L54.5239 25.8283Z" fill="#DBEAFF"/>
<path d="M71.7158 77.9841H24.3766C24.0743 77.9841 23.8282 77.738 23.8282 77.4356V51.557C23.8282 51.0522 23.4189 50.6429 22.9141 50.6429C22.4093 50.6429 22 51.0522 22 51.557V77.4356C22 78.7461 23.0662 79.8123 24.3766 79.8123H71.7158C72.2206 79.8123 72.6299 79.403 72.6299 78.8982C72.6299 78.3934 72.2206 77.9841 71.7158 77.9841Z" fill="black"/>
<path d="M81.6234 45.0816H76.9968V20.3766C76.9968 19.0662 75.9306 18 74.6202 18H31.3798C30.0694 18 29.0032 19.0662 29.0032 20.3766V39.9529H24.3766C23.0662 39.9529 22 41.0191 22 42.3295V47.2913C22 47.7961 22.4093 48.2053 22.9141 48.2053C23.4189 48.2053 23.8282 47.7961 23.8282 47.2913V42.3295C23.8282 42.0272 24.0743 41.7811 24.3766 41.7811H40.1174C40.4197 41.7811 40.6658 42.0272 40.6658 42.3295V44.5331C40.6658 45.8436 41.732 46.9098 43.0425 46.9098H81.6234C81.9257 46.9098 82.1718 47.1558 82.1718 47.4582V77.4357C82.1718 77.738 81.9257 77.9841 81.6234 77.9841H75.9816C75.4767 77.9841 75.0675 78.3934 75.0675 78.8982C75.0675 79.403 75.4767 79.8123 75.9816 79.8123H81.6234C82.9338 79.8123 84 78.7461 84 77.4357V47.4582C84 46.1478 82.9339 45.0816 81.6234 45.0816ZM40.1174 39.9529H30.8314V20.3766C30.8314 20.0743 31.0774 19.8282 31.3798 19.8282H74.6202C74.9225 19.8282 75.1686 20.0743 75.1686 20.3766V45.0816H66.6944L64.0804 40.5541C68.4292 40.2764 71.8828 36.6525 71.8828 32.2355C71.8828 27.6374 68.1419 23.8965 63.5438 23.8965C60.6989 23.8965 58.1273 25.3098 56.6049 27.6063L54.2136 23.4642C53.9641 23.0315 53.499 22.7628 53 22.7628C52.501 22.7628 52.0361 23.0315 51.7867 23.4638L41.8382 40.695C41.4049 40.2391 40.7945 39.9529 40.1174 39.9529ZM58.1494 33.9378C58.0047 33.9785 57.8406 34.004 57.646 34.004C56.9025 34.004 56.5598 33.6826 55.9696 33.0668C55.3289 32.3983 54.5314 31.5664 52.9732 31.5664C51.4152 31.5664 50.6177 32.3981 49.977 33.0665C49.3864 33.6826 49.0434 34.004 48.2991 34.004C48.1321 34.004 47.9824 33.9875 47.8419 33.9527L53 25.0187L58.1494 33.9378ZM57.6638 29.4403C58.7384 27.1697 61.0014 25.7247 63.5438 25.7247C67.1339 25.7247 70.0546 28.6454 70.0546 32.2355C70.0546 35.8248 67.1339 38.7451 63.5438 38.7451C63.3709 38.7451 63.1972 38.7375 63.0237 38.7239L57.6638 29.4403ZM42.494 44.5331V43.2155L46.911 35.565C47.3366 35.7453 47.7925 35.8322 48.2991 35.8322C49.8581 35.8322 50.6556 35.0002 51.2966 34.3316C51.887 33.7158 52.2296 33.3946 52.9731 33.3946C53.7166 33.3946 54.0594 33.716 54.6496 34.3318C55.2904 35.0002 56.0877 35.8322 57.6459 35.8322C58.1687 35.8322 58.6385 35.7387 59.0774 35.5453L64.5832 45.0816H43.0425C42.74 45.0816 42.494 44.8356 42.494 44.5331Z" fill="black"/>
<defs>
<filter id="filter0_d" x="0" y="0" width="105" height="105" filterUnits="userSpaceOnUse" color-interpolation-filters="sRGB">
<feFlood flood-opacity="0" result="BackgroundImageFix"/>
<feColorMatrix in="SourceAlpha" type="matrix" values="0 0 0 0 0 0 0 0 0 0 0 0 0 0 0 0 0 0 127 0"/>
<feOffset dy="4"/>
<feGaussianBlur stdDeviation="6.5"/>
<feColorMatrix type="matrix" values="0 0 0 0 0 0 0 0 0 0 0 0 0 0 0 0 0 0 0.25 0"/>
<feBlend mode="normal" in2="BackgroundImageFix" result="effect1_dropShadow"/>
<feBlend mode="normal" in="SourceGraphic" in2="effect1_dropShadow" result="shape"/>
</filter>
</defs>
</svg>
