<svg width="192" height="212" viewBox="0 0 192 212" fill="none" xmlns="http://www.w3.org/2000/svg">
<path d="M51.9006 143.876C2.05858 118.499 19.8283 32.2491 16.2527 17.4232C62.3565 78.8372 69.562 127.211 69.562 127.211C70.0495 43.0168 72.1082 27.1087 86.4649 3.57121C96.7042 58.3298 98.2753 124.614 98.2753 124.614C142.266 20.4533 162.799 3.57121 162.799 3.57121C156.623 64.4982 122.329 135.49 122.329 135.49C156.677 102.862 192 103.89 192 103.89C166.375 127.968 135.223 142.145 135.223 142.145C80.2888 145.879 51.9006 143.876 51.9006 143.876Z" fill="#386E3E"/>
<path d="M61.8152 118.499C52.0635 50.9709 56.6684 21.5355 61.8152 11.2547C66.9619 46.047 89.9867 108.922 81.2644 143.444C66.4201 137.167 66.1492 148.259 61.8152 118.499Z" fill="#3F7D46"/>
<path d="M74.1126 132.027C77.8508 75.5906 104.56 20.9944 102.663 0C117.508 47.7243 105.101 107.353 100.442 124.614C95.6747 143.281 73.4625 142.253 74.1126 132.027Z" fill="#3F7D46"/>
<path d="M63.9274 137.87C46.4286 107.732 54.6633 91.4446 42.6904 64.1736C66.2028 79.6488 89.0651 122.99 85.3812 139.115C71.8372 141.117 63.9274 137.87 63.9274 137.87Z" fill="#79B543"/>
<path d="M132.948 121.692C143.242 47.2374 191.946 24.7279 191.946 24.7279C185.12 63.9571 173.147 130.349 153.318 139.115C130.835 134.245 131.052 135.598 132.948 121.692Z" fill="#3F7D46"/>
<path d="M66.0406 140.63C17.4447 134.678 9.91422 83.0036 0 74.8872C23.5666 76.2399 44.0451 112.277 60.7856 121.692C67.6659 131.864 66.0406 140.63 66.0406 140.63Z" fill="#79B543"/>
<path d="M91.5576 135.435C91.6118 94.6912 109.761 49.023 129.481 35.3333C124.334 79.3242 119.512 137.167 113.228 142.794C100.388 145.933 91.5576 141.874 91.5576 135.435Z" fill="#79B543"/>
<path d="M117.67 139.277C127.963 97.7213 151.53 66.9872 168.92 64.1736C153.047 76.7269 151.476 127.427 138.419 137.924C124.117 142.794 117.67 139.277 117.67 139.277Z" fill="#79B543"/>
<path d="M147.901 212H48.542C45.7248 212 43.1243 210.431 41.8241 207.888C30.393 185.162 24.4336 160.109 24.4336 134.678H172.009C172.009 160.109 166.05 185.162 154.619 207.888C153.318 210.431 150.718 212 147.901 212Z" fill="#79AED4"/>
<path d="M36.1358 159.46C36.1358 159.46 31.2599 149.342 36.1358 141.117C41.2283 151.614 36.1358 159.46 36.1358 159.46Z" fill="#FFFCE3"/>
<path d="M49.7881 203.018C49.7881 203.018 44.9123 192.899 49.7881 184.675C54.9349 195.118 49.7881 203.018 49.7881 203.018Z" fill="#FFFCE3"/>
<path d="M101.689 205.399C101.689 205.399 96.8127 195.28 101.689 187.056C106.835 197.499 101.689 205.399 101.689 205.399Z" fill="#FFFCE3"/>
<path d="M95.9463 160.488C95.9463 160.488 91.0705 150.37 95.9463 142.145C101.039 152.642 95.9463 160.488 95.9463 160.488Z" fill="#FFFCE3"/>
<path d="M70.4834 180.617C70.4834 180.617 65.6076 170.498 70.4834 162.274C75.6302 172.771 70.4834 180.617 70.4834 180.617Z" fill="#FFFCE3"/>
<path d="M129.427 180.779C129.427 180.779 124.551 170.661 129.427 162.436C134.519 172.933 129.427 180.779 129.427 180.779Z" fill="#FFFCE3"/>
<path d="M148.876 204.695C148.876 204.695 144 194.577 148.876 186.352C154.023 196.849 148.876 204.695 148.876 204.695Z" fill="#FFFCE3"/>
<path d="M158.086 160.488C158.086 160.488 153.21 150.37 158.086 142.145C163.233 152.642 158.086 160.488 158.086 160.488Z" fill="#FFFCE3"/>
</svg>
