<svg width="105" height="104" viewBox="0 0 105 104" fill="none" xmlns="http://www.w3.org/2000/svg">
<g filter="url(#filter0_d)">
<rect x="13" y="9" width="79" height="78" rx="10" fill="#59AF63"/>
</g>
<path d="M65.77 75.6883H31.4975C30.2387 75.6883 29.2178 74.6679 29.2178 73.4085V24.0788C29.2178 22.6553 30.3717 21.5014 31.7952 21.5014H66.419C67.8424 21.5014 68.9963 22.6553 68.9963 24.0788V72.4614C68.9969 74.2437 67.5523 75.6883 65.77 75.6883Z" fill="#6DC9F7"/>
<path d="M66.419 21.5014H31.7952C30.3717 21.5014 29.2178 22.6553 29.2178 24.0788V25.5846C29.2178 24.1611 30.3717 23.0072 31.7952 23.0072H66.419C67.8424 23.0072 68.9963 24.1611 68.9963 25.5846V24.0788C68.9969 22.6553 67.8424 21.5014 66.419 21.5014Z" fill="white"/>
<path d="M31.1988 29.3902H27.2356C26.2779 29.3902 25.502 28.6137 25.502 27.6565C25.502 26.6988 26.2784 25.9229 27.2356 25.9229H31.1988C32.1565 25.9229 32.9325 26.6993 32.9325 27.6565C32.933 28.6137 32.1565 29.3902 31.1988 29.3902Z" fill="#0089EF"/>
<path d="M31.1988 36.4272H27.2356C26.2779 36.4272 25.502 35.6507 25.502 34.6935C25.502 33.7358 26.2784 32.9599 27.2356 32.9599H31.1988C32.1565 32.9599 32.9325 33.7363 32.9325 34.6935C32.933 35.6507 32.1565 36.4272 31.1988 36.4272Z" fill="#0089EF"/>
<path d="M31.1988 43.4637H27.2356C26.2779 43.4637 25.502 42.6872 25.502 41.73C25.502 40.7723 26.2784 39.9964 27.2356 39.9964H31.1988C32.1565 39.9964 32.9325 40.7728 32.9325 41.73C32.933 42.6877 32.1565 43.4637 31.1988 43.4637Z" fill="#0089EF"/>
<path d="M31.1988 50.5006H27.2356C26.2779 50.5006 25.502 49.7242 25.502 48.767C25.502 47.8093 26.2784 47.0333 27.2356 47.0333H31.1988C32.1565 47.0333 32.9325 47.8098 32.9325 48.767C32.933 49.7242 32.1565 50.5006 31.1988 50.5006Z" fill="#0089EF"/>
<path d="M31.1988 57.5371H27.2356C26.2779 57.5371 25.502 56.7607 25.502 55.8035C25.502 54.8458 26.2784 54.0698 27.2356 54.0698H31.1988C32.1565 54.0698 32.9325 54.8463 32.9325 55.8035C32.933 56.7612 32.1565 57.5371 31.1988 57.5371Z" fill="#0089EF"/>
<path d="M31.1988 64.5741H27.2356C26.2779 64.5741 25.502 63.7976 25.502 62.8405C25.502 61.8828 26.2784 61.1068 27.2356 61.1068H31.1988C32.1565 61.1068 32.9325 61.8833 32.9325 62.8405C32.933 63.7976 32.1565 64.5741 31.1988 64.5741Z" fill="#0089EF"/>
<path d="M31.1988 71.2673H27.2356C26.2779 71.2673 25.502 70.4908 25.502 69.5336C25.502 68.576 26.2784 67.8 27.2356 67.8H31.1988C32.1565 67.8 32.9325 68.5765 32.9325 69.5336C32.933 70.4908 32.1565 71.2673 31.1988 71.2673Z" fill="#0089EF"/>
<path d="M72.1702 55.2509C72.7068 54.7269 73.3779 54.4267 74.069 54.3434L71.4886 51.7023C71.0806 52.2172 70.6394 52.7141 70.1575 53.1854C69.6732 53.6583 69.1642 54.0889 68.6377 54.4864L71.2186 57.1286C71.3185 56.4384 71.6337 55.7749 72.1702 55.2509Z" fill="#FFD7E5"/>
<path d="M73.1147 49.1538C77.059 41.4978 74.05 32.0939 66.394 28.1497C58.7379 24.2054 49.3341 27.2143 45.3898 34.8704C41.4455 42.5264 44.4545 51.9303 52.1105 55.8746C59.7665 59.8188 69.1704 56.8099 73.1147 49.1538Z" fill="#FA759E"/>
<path d="M69.9618 47.3868C72.9263 41.4841 70.5445 34.2959 64.6418 31.3314C58.7392 28.3669 51.551 30.7487 48.5865 36.6513C45.622 42.5539 48.0038 49.7422 53.9064 52.7067C59.809 55.6712 66.9972 53.2894 69.9618 47.3868Z" fill="#D4FBFF"/>
<path d="M84.6868 63.3625L76.8151 55.3051C75.5477 54.0076 73.4683 53.9835 72.1708 55.2509C70.8733 56.5182 70.8492 58.5977 72.1166 59.8952L79.9883 67.9526C81.2556 69.2501 83.3351 69.2742 84.6326 68.0068C85.9301 66.7389 85.9541 64.66 84.6868 63.3625Z" fill="#0089EF"/>
<path d="M52.9473 38.2506C52.9473 37.4887 53.1917 36.7173 53.6811 35.9353C54.1695 35.1533 54.8837 34.5058 55.8223 33.9928C56.7604 33.4798 57.8546 33.2229 59.1059 33.2229C60.2688 33.2229 61.2953 33.4372 62.1857 33.8663C63.0756 34.2955 63.7632 34.8787 64.2486 35.6165C64.7335 36.3544 64.9764 37.1559 64.9764 38.0218C64.9764 38.7034 64.8379 39.3012 64.5613 39.8141C64.2847 40.3276 63.9555 40.7703 63.575 41.1432C63.1941 41.5162 62.5104 42.1436 61.5237 43.0255C61.2511 43.2739 61.0328 43.4927 60.8681 43.6815C60.704 43.8697 60.5815 44.0424 60.5017 44.1985C60.4214 44.3551 60.3592 44.5111 60.315 44.6672C60.2714 44.8238 60.2046 45.0984 60.1168 45.4909C59.9642 46.3251 59.4873 46.7417 58.6853 46.7417C58.2687 46.7417 57.9178 46.6057 57.6327 46.3326C57.3476 46.0601 57.2056 45.655 57.2056 45.118C57.2056 44.4444 57.31 43.8612 57.5183 43.3678C57.7266 42.8744 58.0032 42.4412 58.3485 42.0688C58.6933 41.6959 59.1586 41.2527 59.7443 40.7397C60.2573 40.2905 60.6282 39.9517 60.8571 39.7233C61.0855 39.4949 61.2777 39.2404 61.4343 38.9594C61.5909 38.6788 61.6692 38.3741 61.6692 38.0454C61.6692 37.4039 61.4303 36.8623 60.9535 36.4216C60.4761 35.9804 59.8608 35.7601 59.1064 35.7601C58.2245 35.7601 57.5745 35.9829 57.1579 36.4276C56.7413 36.8724 56.388 37.5284 56.0999 38.3942C55.8268 39.3002 55.3093 39.7534 54.5479 39.7534C54.0992 39.7534 53.7202 39.5953 53.4115 39.2781C53.1014 38.9624 52.9473 38.6201 52.9473 38.2506ZM58.8168 51.4342C58.3274 51.4342 57.9003 51.2756 57.5354 50.9589C57.1705 50.6422 56.9883 50.199 56.9883 49.6298C56.9883 49.1243 57.1644 48.6997 57.5173 48.3549C57.8707 48.0101 58.3028 47.8379 58.8168 47.8379C59.3217 47.8379 59.7468 48.0106 60.0917 48.3549C60.4365 48.6997 60.6087 49.1248 60.6087 49.6298C60.6087 50.1909 60.4285 50.6321 60.0676 50.9529C59.7072 51.2736 59.2896 51.4342 58.8168 51.4342Z" fill="#6DC9F7"/>
<path d="M58.9613 75.1859H52.9472C52.6697 75.1859 52.4453 75.4102 52.4453 75.6878C52.4453 75.9654 52.6697 76.1897 52.9472 76.1897H58.9613C59.2389 76.1897 59.4632 75.9654 59.4632 75.6878C59.4632 75.4102 59.2389 75.1859 58.9613 75.1859Z" fill="black"/>
<path d="M39.1924 62.3531H61.8533C62.1308 62.3531 62.3552 62.1288 62.3552 61.8512C62.3552 61.5736 62.1308 61.3493 61.8533 61.3493H39.1924C38.9148 61.3493 38.6904 61.5736 38.6904 61.8512C38.6904 62.1288 38.9153 62.3531 39.1924 62.3531Z" fill="black"/>
<path d="M51.5272 67.8512H39.1924C38.9148 67.8512 38.6904 68.0755 38.6904 68.3531C38.6904 68.6306 38.9148 68.855 39.1924 68.855H51.5267C51.8042 68.855 52.0286 68.6306 52.0286 68.3531C52.0286 68.0755 51.8042 67.8512 51.5272 67.8512Z" fill="black"/>
<path d="M68.1709 33.3263C63.3715 28.4134 55.4686 28.3216 50.5553 33.121C45.6424 37.9209 45.5501 45.8232 50.3505 50.7365C52.6754 53.1162 55.7884 54.4488 59.1156 54.4874C59.1658 54.4879 59.2145 54.4884 59.2647 54.4884C62.5367 54.4884 65.6216 53.2321 67.9661 50.9418C72.8789 46.1414 72.9708 38.2396 68.1709 33.3263ZM67.2639 50.2236C65.1086 52.3297 62.2727 53.4846 59.2642 53.4846C59.218 53.4846 59.1723 53.4841 59.1272 53.4836C56.0679 53.4479 53.206 52.2233 51.0678 50.0349C46.6548 45.5175 46.7397 38.2522 51.257 33.8387C53.481 31.6659 56.3706 30.5837 59.2592 30.5837C62.2371 30.5837 65.212 31.7347 67.4526 34.0275C71.866 38.5448 71.7812 45.8102 67.2639 50.2236Z" fill="black"/>
<path d="M85.0453 63.0116L77.1736 54.9537C76.3831 54.1441 75.315 53.7692 74.2645 53.8244L72.1554 51.6656C74.1917 48.9522 75.3145 45.6757 75.3552 42.2189C75.4054 37.9199 73.7781 33.8588 70.7736 30.7835C70.3655 30.3654 69.9384 29.9764 69.4977 29.6125V24.0793C69.4977 22.3813 68.1164 21 66.4184 21H31.7946C30.0966 21 28.7153 22.3813 28.7153 24.0793V25.4205H27.2356C26.0028 25.4205 25 26.4238 25 27.6565C25 28.8893 26.0028 29.8926 27.2356 29.8926H28.7153V32.4574H27.2356C26.0028 32.4574 25 33.4608 25 34.6935C25 35.9263 26.0028 36.9296 27.2356 36.9296H28.7153V39.4944H27.2356C26.0028 39.4944 25 40.4978 25 41.7305C25 42.9632 26.0028 43.9666 27.2356 43.9666H28.7153V46.5319H27.2356C26.0028 46.5319 25 47.5348 25 48.7675C25 50.0002 26.0028 51.0036 27.2356 51.0036H28.7153V53.5684H27.2356C26.0028 53.5684 25 54.5718 25 55.8045C25 57.0372 26.0028 58.0401 27.2356 58.0401H28.7153V60.6049H27.2356C26.0028 60.6049 25 61.6083 25 62.841C25 64.0737 26.0028 65.0766 27.2356 65.0766H28.7153V67.2981H27.2356C26.0028 67.2981 25 68.3014 25 69.5342C25 70.7669 26.0028 71.7697 27.2356 71.7697H28.7153V73.4095C28.7153 74.9434 29.9625 76.1907 31.4964 76.1907H50.3507C50.6283 76.1907 50.8527 75.9663 50.8527 75.6888C50.8527 75.4112 50.6283 75.1869 50.3507 75.1869H31.4964C30.5167 75.1869 29.7191 74.3893 29.7191 73.4095V71.7697H31.1983C32.431 71.7697 33.4344 70.7669 33.4344 69.5342C33.4344 68.3014 32.431 67.2981 31.1983 67.2981H29.7191V65.0766H31.1983C32.431 65.0766 33.4344 64.0737 33.4344 62.841C33.4344 61.6083 32.431 60.6049 31.1983 60.6049H29.7191V58.0401H31.1983C32.431 58.0401 33.4344 57.0372 33.4344 55.8045C33.4344 54.5718 32.431 53.5684 31.1983 53.5684H29.7191V51.0036H31.1983C32.431 51.0036 33.4344 50.0002 33.4344 48.7675C33.4344 47.5348 32.431 46.5319 31.1983 46.5319H29.7191V43.9666H31.1983C32.431 43.9666 33.4344 42.9632 33.4344 41.7305C33.4344 40.4978 32.431 39.4944 31.1983 39.4944H29.7191V36.9296H31.1983C32.431 36.9296 33.4344 35.9263 33.4344 34.6935C33.4344 33.4608 32.431 32.4574 31.1983 32.4574H29.7191V29.8926H31.1983C32.431 29.8926 33.4344 28.8893 33.4344 27.6565C33.4344 26.4238 32.431 25.4205 31.1983 25.4205H29.7191V24.0793C29.7191 22.9349 30.6497 22.0039 31.7946 22.0039H66.4184C67.5628 22.0039 68.4938 22.9349 68.4938 24.0793V28.8511C62.9872 24.9903 55.5703 24.9712 50.0401 28.8411H39.1919C38.9144 28.8411 38.69 29.0659 38.69 29.343C38.69 29.6201 38.9144 29.8449 39.1919 29.8449H48.7506C48.5001 30.0613 48.2527 30.2836 48.0128 30.518C46.5702 31.9274 45.4304 33.5622 44.6162 35.3425H39.1919C38.9144 35.3425 38.69 35.5674 38.69 35.8444C38.69 36.1215 38.9144 36.3464 39.1919 36.3464H44.1956C43.5421 38.081 43.1888 39.9346 43.1662 41.8435V41.8445H39.1919C38.9144 41.8445 38.69 42.0693 38.69 42.3464C38.69 42.6234 38.9144 42.8483 39.1919 42.8483H43.1888C43.2836 44.7642 43.7143 46.6188 44.4516 48.3464H39.1919C38.9144 48.3464 38.69 48.5713 38.69 48.8483C38.69 49.1254 38.9144 49.3502 39.1919 49.3502H44.9194C45.6492 50.7762 46.5963 52.1003 47.7478 53.2793C48.3049 53.85 48.8977 54.373 49.5201 54.8483H39.1919C38.9144 54.8483 38.69 55.0727 38.69 55.3503C38.69 55.6278 38.9144 55.8522 39.1919 55.8522H51.0048C53.4195 57.3002 56.1826 58.0923 59.0727 58.1259C59.137 58.1264 59.2012 58.1269 59.2654 58.1269C62.6118 58.1269 65.8045 57.1065 68.4938 55.2147V72.4624C68.4938 73.9647 67.2717 75.1869 65.7694 75.1869H61.3509C61.0734 75.1869 60.849 75.4112 60.849 75.6888C60.849 75.9663 61.0734 76.1907 61.3509 76.1907H65.7694C67.8253 76.1907 69.4977 74.5183 69.4977 72.4624V56.0846L70.6958 57.3108C70.616 58.3593 70.9658 59.4359 71.7574 60.246L79.6291 68.3034C80.3353 69.0262 81.2819 69.4318 82.2933 69.4433H82.339C83.3328 69.4433 84.2709 69.0619 84.9836 68.3657C85.7064 67.6595 86.1119 66.7128 86.1235 65.7015C86.135 64.6901 85.752 63.7349 85.0453 63.0116ZM32.431 69.5337C32.431 70.2133 31.8779 70.7654 31.1988 70.7654H27.2356C26.556 70.7654 26.0039 70.2128 26.0039 69.5337C26.0039 68.8546 26.5565 68.3014 27.2356 68.3014H31.1988C31.8779 68.3014 32.431 68.8541 32.431 69.5337ZM32.431 62.8405C32.431 63.5201 31.8779 64.0722 31.1988 64.0722H27.2356C26.556 64.0722 26.0039 63.5196 26.0039 62.8405C26.0039 62.1614 26.5565 61.6083 27.2356 61.6083H31.1988C31.8779 61.6083 32.431 62.1609 32.431 62.8405ZM32.431 55.8035C32.431 56.4831 31.8779 57.0352 31.1988 57.0352H27.2356C26.556 57.0352 26.0039 56.4826 26.0039 55.8035C26.0039 55.1244 26.5565 54.5713 27.2356 54.5713H31.1988C31.8779 54.5713 32.431 55.1244 32.431 55.8035ZM32.431 48.7665C32.431 49.4461 31.8779 49.9987 31.1988 49.9987H27.2356C26.556 49.9987 26.0039 49.4461 26.0039 48.7665C26.0039 48.0874 26.5565 47.5348 27.2356 47.5348H31.1988C31.8779 47.5348 32.431 48.0874 32.431 48.7665ZM32.431 41.73C32.431 42.4096 31.8779 42.9622 31.1988 42.9622H27.2356C26.556 42.9622 26.0039 42.4096 26.0039 41.73C26.0039 41.0504 26.5565 40.4978 27.2356 40.4978H31.1988C31.8779 40.4978 32.431 41.0504 32.431 41.73ZM32.431 34.693C32.431 35.3726 31.8779 35.9253 31.1988 35.9253H27.2356C26.556 35.9253 26.0039 35.3726 26.0039 34.693C26.0039 34.0134 26.5565 33.4608 27.2356 33.4608H31.1988C31.8779 33.4613 32.431 34.0139 32.431 34.693ZM32.431 27.6565C32.431 28.3361 31.8779 28.8888 31.1988 28.8888H27.2356C26.556 28.8888 26.0039 28.3361 26.0039 27.6565C26.0039 26.9769 26.5565 26.4243 27.2356 26.4243H31.1988C31.8779 26.4243 32.431 26.9769 32.431 27.6565ZM48.4655 52.5771C42.6507 46.6248 42.7626 37.0511 48.715 31.2363C51.6457 28.3733 55.4533 26.9473 59.2594 26.9473C63.1825 26.9473 67.104 28.4641 70.0563 31.4857C72.8731 34.3693 74.3985 38.1769 74.3518 42.2078C74.3051 46.2388 72.6904 50.0098 69.8069 52.8271C63.8545 58.6404 54.2813 58.5305 48.4655 52.5771ZM69.3908 54.5386C69.7758 54.2259 70.1492 53.8952 70.5086 53.5438C70.8659 53.1945 71.2032 52.8306 71.5235 52.4552L73.1005 54.0698C72.6352 54.249 72.1981 54.5226 71.8196 54.892C71.4412 55.2619 71.1581 55.6921 70.9678 56.1528L69.3908 54.5386ZM84.2809 67.6479C83.7574 68.1594 83.0688 68.4395 82.338 68.4395C82.3269 68.4395 82.3154 68.4395 82.3048 68.4395C81.562 68.4304 80.8663 68.1333 80.3468 67.6012L72.4751 59.5438C71.9561 59.0123 71.6745 58.3106 71.6836 57.5673C71.6926 56.8239 71.9898 56.1287 72.5218 55.6093C73.0619 55.0812 73.7641 54.8187 74.4658 54.8187C75.189 54.8187 75.9118 55.0983 76.4564 55.6554L84.3281 63.7133C84.8471 64.2449 85.1287 64.9466 85.1196 65.6899C85.1106 66.4333 84.8129 67.1284 84.2809 67.6479Z" fill="black"/>
<path d="M58.8158 47.3355C58.1698 47.3355 57.6147 47.5574 57.1659 47.9956C56.7152 48.4367 56.4863 48.9864 56.4863 49.6293C56.4863 50.3481 56.7283 50.9233 57.2061 51.3379C57.6638 51.7344 58.2054 51.9357 58.8163 51.9357C59.4131 51.9357 59.9466 51.7314 60.4003 51.3273C60.8711 50.9092 61.1101 50.3375 61.1101 49.6293C61.1101 48.9884 60.8867 48.4398 60.446 47.9991C60.0043 47.5589 59.4562 47.3355 58.8158 47.3355ZM59.7333 50.578C59.4648 50.8164 59.1646 50.9323 58.8158 50.9323C58.4489 50.9323 58.1367 50.8174 57.8636 50.58C57.6121 50.3611 57.4902 50.0509 57.4902 49.6298C57.4902 49.2619 57.6137 48.9623 57.8676 48.7138C58.1261 48.4623 58.4363 48.3394 58.8163 48.3394C59.1857 48.3394 59.4868 48.4603 59.7363 48.7093C59.9853 48.9582 60.1062 49.2594 60.1062 49.6293C60.1057 50.0449 59.9837 50.3551 59.7333 50.578Z" fill="black"/>
<path d="M62.4025 33.4141C61.4483 32.9538 60.3386 32.7209 59.1054 32.7209C57.7758 32.7209 56.5897 33.001 55.5813 33.5526C54.5705 34.1047 53.7885 34.817 53.2554 35.6692C52.7179 36.528 52.4453 37.3969 52.4453 38.2506C52.4453 38.7531 52.6486 39.2168 53.0506 39.6294C53.4557 40.0455 53.9591 40.2563 54.5464 40.2563C55.2375 40.2563 56.151 39.9587 56.5752 38.5538C56.8387 37.7608 57.1579 37.1615 57.5238 36.772C57.84 36.4342 58.3715 36.263 59.1054 36.263C59.7338 36.263 60.2262 36.4357 60.6111 36.7915C60.9841 37.1364 61.1653 37.5469 61.1653 38.0469C61.1653 38.2913 61.1095 38.5101 60.9941 38.7164C60.8616 38.9543 60.6955 39.1742 60.5012 39.3689C60.2774 39.5923 59.911 39.9266 59.412 40.3632C58.8163 40.8857 58.3344 41.345 57.9795 41.729C57.5966 42.1421 57.2859 42.6284 57.0555 43.1735C56.8211 43.7266 56.7026 44.3817 56.7026 45.1195C56.7026 45.7966 56.8989 46.3271 57.2849 46.6965C57.6648 47.0604 58.1351 47.2446 58.6842 47.2446C59.7298 47.2446 60.4134 46.6544 60.6051 45.6018C60.6909 45.2209 60.7552 44.9544 60.7974 44.8043C60.8315 44.6813 60.8822 44.5548 60.9479 44.4278C61.0087 44.3094 61.1085 44.1693 61.2461 44.0122C61.3987 43.8371 61.6055 43.6303 61.8574 43.4004C62.8407 42.5215 63.5364 41.8831 63.9259 41.5021C64.3414 41.0945 64.7043 40.6067 65.0025 40.0531C65.3182 39.4683 65.4778 38.7852 65.4778 38.0223C65.4778 37.0606 65.2053 36.1586 64.6677 35.341C64.1331 34.5294 63.3712 33.8814 62.4025 33.4141ZM64.1181 39.5767C63.8676 40.0415 63.5665 40.4486 63.2232 40.7849C62.8447 41.1548 62.1601 41.7832 61.1843 42.6555C60.9008 42.914 60.6669 43.1484 60.4887 43.3522C60.2949 43.5741 60.1529 43.7763 60.054 43.9696C59.9591 44.1553 59.8833 44.3445 59.8306 44.5332C59.7855 44.6944 59.7162 44.9769 59.6218 45.4016C59.5124 45.9979 59.2409 46.2408 58.6842 46.2408C58.3951 46.2408 58.1713 46.1555 57.979 45.9713C57.7983 45.7981 57.7065 45.5115 57.7065 45.1195C57.7065 44.5167 57.7988 43.9937 57.98 43.5645C58.1653 43.1263 58.4127 42.7384 58.7164 42.4111C59.0476 42.0527 59.5044 41.6176 60.0736 41.1186C60.5886 40.6684 60.971 40.3186 61.2109 40.0792C61.4724 39.8182 61.6943 39.524 61.8715 39.2053C62.0697 38.8504 62.1696 38.4609 62.1696 38.0469C62.1696 37.2629 61.8745 36.5923 61.2928 36.0542C60.7216 35.5267 59.9857 35.2592 59.1059 35.2592C58.0834 35.2592 57.3045 35.5372 56.7915 36.0853C56.3262 36.5812 55.9332 37.305 55.619 38.2501C55.351 39.1385 54.9052 39.2525 54.5469 39.2525C54.2317 39.2525 53.9847 39.1496 53.7699 38.9292C53.5541 38.7079 53.4492 38.486 53.4492 38.2506C53.4492 37.5881 53.67 36.899 54.1067 36.2013C54.5474 35.4966 55.2054 34.9018 56.0627 34.433C56.9225 33.9627 57.9459 33.7243 59.1059 33.7243C60.187 33.7243 61.1497 33.924 61.9673 34.3181C62.7704 34.705 63.3963 35.2346 63.829 35.8921C64.2626 36.5521 64.474 37.2488 64.474 38.0218C64.4735 38.617 64.3535 39.1401 64.1181 39.5767Z" fill="black"/>
<defs>
<filter id="filter0_d" x="0" y="0" width="105" height="104" filterUnits="userSpaceOnUse" color-interpolation-filters="sRGB">
<feFlood flood-opacity="0" result="BackgroundImageFix"/>
<feColorMatrix in="SourceAlpha" type="matrix" values="0 0 0 0 0 0 0 0 0 0 0 0 0 0 0 0 0 0 127 0"/>
<feOffset dy="4"/>
<feGaussianBlur stdDeviation="6.5"/>
<feColorMatrix type="matrix" values="0 0 0 0 0 0 0 0 0 0 0 0 0 0 0 0 0 0 0.25 0"/>
<feBlend mode="normal" in2="BackgroundImageFix" result="effect1_dropShadow"/>
<feBlend mode="normal" in="SourceGraphic" in2="effect1_dropShadow" result="shape"/>
</filter>
</defs>
</svg>
