<svg width="105" height="105" viewBox="0 0 105 105" fill="none" xmlns="http://www.w3.org/2000/svg">
<g filter="url(#filter0_d)">
<rect x="13" y="9" width="79" height="79" rx="10" fill="#639BC2"/>
</g>
<path d="M78.9756 22.2109H29.085C26.41 22.2109 24.2412 24.3797 24.2412 27.0547V59.2656H83.8193V27.0547C83.8193 24.3797 81.6505 22.2109 78.9756 22.2109Z" fill="white"/>
<path d="M83.8193 59.2656V64.1094C83.8193 66.7843 81.6505 68.9531 78.9756 68.9531C76.7921 68.9531 31.5196 68.9531 29.085 68.9531C26.41 68.9531 24.2412 66.7843 24.2412 64.1094V59.2656H83.8193Z" fill="#3A5361"/>
<path d="M75.8271 59.2656H66.1396V30.2031H75.8271V59.2656Z" fill="#F6D465"/>
<path d="M66.1396 81.7891H41.9209C41.9209 79.1155 44.0907 76.9453 46.7646 76.9453H61.2959C63.9708 76.9453 66.1396 79.1141 66.1396 81.7891Z" fill="#3A5361"/>
<path d="M58.4282 37.3888C60.2744 40.5916 57.9731 44.6506 54.231 44.6506C50.4795 44.6506 48.192 40.5822 50.0325 37.3888L54.231 30.1194L58.4282 37.3888Z" fill="#F6D465"/>
<path d="M49.1865 68.9531H58.874V76.9453H49.1865V68.9531Z" fill="#3A5361"/>
<path d="M57.6631 59.2656H50.3975C50.3975 57.5169 50.4386 55.8991 50.5053 54.4219H57.56C57.6243 55.893 57.6631 57.5098 57.6631 59.2656Z" fill="#3A5361"/>
<path d="M37.0771 30.2031L41.9209 39.8906C40.7487 39.8906 33.4131 39.8906 32.2334 39.8906L37.0771 30.2031Z" fill="#F6D465"/>
<path d="M32.2334 39.8906V59.2656H41.9209V39.8906C40.7487 39.8906 33.4131 39.8906 32.2334 39.8906Z" fill="#6EBA7B"/>
<path d="M61.2656 62.8984C60.5972 62.8984 60.0547 63.441 60.0547 64.1094C60.0547 64.7778 60.5972 65.3203 61.2656 65.3203C61.934 65.3203 62.4766 64.7778 62.4766 64.1094C62.4766 63.441 61.934 62.8984 61.2656 62.8984Z" fill="black"/>
<path d="M78.9453 21H29.0547C25.7161 21 23 23.7161 23 27.0547V64.1094C23 67.448 25.7161 70.1641 29.0547 70.1641H47.9453V75.7344H46.7344C45.1176 75.7344 43.5978 76.3644 42.4535 77.5082C41.3098 78.6525 40.6797 80.1723 40.6797 81.7891C40.6797 82.4579 41.2218 83 41.8906 83H66.1094C66.7782 83 67.3203 82.4579 67.3203 81.7891C67.3203 78.4505 64.6042 75.7344 61.2656 75.7344H60.0547V70.1641H78.9453C82.2839 70.1641 85 67.448 85 64.1094V27.0547C85 23.7161 82.2839 21 78.9453 21ZM29.0547 23.4219H78.9453C80.9486 23.4219 82.5781 25.0514 82.5781 27.0547V58.0547H77.0078V30.2031C77.0078 29.5343 76.4657 28.9922 75.7969 28.9922H66.1094C65.4405 28.9922 64.8984 29.5343 64.8984 30.2031V58.0547H58.8371C58.8244 56.8021 58.7917 55.5675 58.7397 54.3698C58.5278 49.4381 58.0448 46.1345 57.7936 44.6814C60.2921 42.8418 60.9742 39.4323 59.4469 36.7833L55.2497 29.5139C55.0331 29.1393 54.6334 28.9085 54.201 28.9085C53.7682 28.9085 53.3685 29.1393 53.1523 29.5139L48.9533 36.7838C47.5134 39.2814 48.0238 42.5164 50.2858 44.4255C50.0238 45.8744 49.4949 49.2962 49.265 54.3675C49.2106 55.5779 49.1761 56.8135 49.1629 58.0547H43.1016V39.8906C43.1016 39.6986 43.0562 39.5236 42.9819 39.3679C42.9786 39.3618 42.9767 39.3552 42.9738 39.349L38.1301 29.6615C37.9248 29.2514 37.5057 28.9922 37.0469 28.9922C36.588 28.9922 36.1689 29.2514 35.9637 29.6615L31.1199 39.349C31.1171 39.3552 31.1152 39.3618 31.1123 39.3679C31.0367 39.525 30.9922 39.7028 30.9922 39.8906V58.0547H25.4219V27.0547C25.4219 25.0514 27.0514 23.4219 29.0547 23.4219ZM67.3203 58.0547V31.4141H74.5859V33.8359H73.375C72.7061 33.8359 72.1641 34.378 72.1641 35.0469C72.1641 35.7157 72.7061 36.2578 73.375 36.2578H74.5859V39.8906H73.375C72.7061 39.8906 72.1641 40.4327 72.1641 41.1016C72.1641 41.7704 72.7061 42.3125 73.375 42.3125H74.5859V45.9453H73.375C72.7061 45.9453 72.1641 46.4874 72.1641 47.1562C72.1641 47.8251 72.7061 48.3672 73.375 48.3672H74.5859V53.2109H73.375C72.7061 53.2109 72.1641 53.753 72.1641 54.4219C72.1641 55.0907 72.7061 55.6328 73.375 55.6328H74.5859V58.0547H67.3203ZM54.201 45.8616C54.6409 45.8616 55.079 45.811 55.5075 45.7164C55.7322 47.1567 56.0624 49.7054 56.2577 53.2109H51.7503C51.9551 49.7077 52.3009 47.1194 52.5398 45.6303C53.0762 45.7831 53.6348 45.8616 54.201 45.8616ZM54.201 43.4397C51.4334 43.4397 49.6487 40.4275 51.0512 37.9943L54.201 32.5413L57.349 37.9938C58.7463 40.4171 56.9862 43.4397 54.201 43.4397ZM51.6391 55.6328H56.3642C56.3897 56.4284 56.4072 57.2378 56.4157 58.0547H51.5847C51.5937 57.243 51.6122 56.4336 51.6391 55.6328ZM38.2578 58.0547V41.1016H40.6797V58.0547H38.2578ZM33.4141 58.0547V41.1016H35.8359V58.0547H33.4141ZM34.1624 38.6797L37.0469 32.9107L39.9314 38.6797H34.1624ZM64.6908 80.5781H43.3078C43.4857 80.0734 43.7761 79.6108 44.1659 79.2206C44.8527 78.5342 45.7647 78.1562 46.7344 78.1562H61.2656C62.8446 78.1562 64.1913 79.1685 64.6908 80.5781ZM57.6328 75.7344H50.3672V70.1641H57.6328V75.7344ZM78.9453 67.7422H29.0547C27.0514 67.7422 25.4219 66.1126 25.4219 64.1094V60.4766H82.5781V64.1094C82.5781 66.1126 80.9486 67.7422 78.9453 67.7422Z" fill="black"/>
<path d="M56.4219 62.8984H49.1562C48.4874 62.8984 47.9453 63.4405 47.9453 64.1094C47.9453 64.7782 48.4874 65.3203 49.1562 65.3203H56.4219C57.0907 65.3203 57.6328 64.7782 57.6328 64.1094C57.6328 63.4405 57.0907 62.8984 56.4219 62.8984Z" fill="black"/>
<defs>
<filter id="filter0_d" x="0" y="0" width="105" height="105" filterUnits="userSpaceOnUse" color-interpolation-filters="sRGB">
<feFlood flood-opacity="0" result="BackgroundImageFix"/>
<feColorMatrix in="SourceAlpha" type="matrix" values="0 0 0 0 0 0 0 0 0 0 0 0 0 0 0 0 0 0 127 0"/>
<feOffset dy="4"/>
<feGaussianBlur stdDeviation="6.5"/>
<feColorMatrix type="matrix" values="0 0 0 0 0 0 0 0 0 0 0 0 0 0 0 0 0 0 0.25 0"/>
<feBlend mode="normal" in2="BackgroundImageFix" result="effect1_dropShadow"/>
<feBlend mode="normal" in="SourceGraphic" in2="effect1_dropShadow" result="shape"/>
</filter>
</defs>
</svg>
