<svg width="105" height="105" viewBox="0 0 105 105" fill="none" xmlns="http://www.w3.org/2000/svg">
<g filter="url(#filter0_d)">
<rect x="13" y="9" width="79" height="79" rx="10" fill="#FFC778"/>
</g>
<path fill-rule="evenodd" clip-rule="evenodd" d="M26.7078 26.2109H79.2928C81.2028 26.2109 82.7652 27.7733 82.7652 29.6834V62.1171C82.7652 64.0267 81.2028 65.5896 79.2928 65.5896H26.7078C24.7982 65.5896 23.2354 64.0267 23.2354 62.1171V29.6834C23.2354 27.7733 24.7982 26.2109 26.7078 26.2109Z" fill="#D0D7DF"/>
<path fill-rule="evenodd" clip-rule="evenodd" d="M61.3619 45.9L44.6377 36.2447V55.5554L52.9998 50.7282L61.3619 45.9Z" fill="#FA5C66"/>
<path fill-rule="evenodd" clip-rule="evenodd" d="M38.7643 71.3671C40.5183 71.3671 41.9534 72.8022 41.9534 74.5562V79.2595C41.9534 81.0134 40.5183 82.4486 38.7643 82.4486C37.0108 82.4486 35.5752 81.0134 35.5752 79.2595V74.5562C35.5752 72.8022 37.0108 71.3671 38.7643 71.3671Z" fill="#88C9F7"/>
<path fill-rule="evenodd" clip-rule="evenodd" d="M82.7652 42.0581C82.0964 42.0581 81.5543 42.6007 81.5543 43.2691V62.1171C81.5543 63.364 80.5397 64.3787 79.2928 64.3787H26.7078C25.4609 64.3787 24.4463 63.364 24.4463 62.1171V58.4115C24.4463 57.7426 23.9042 57.2005 23.2354 57.2005C22.5665 57.2005 22.0244 57.7426 22.0244 58.4115V62.1171C22.0244 64.6994 24.1256 66.8005 26.7078 66.8005H79.2928C81.875 66.8005 83.9762 64.6994 83.9762 62.1171V43.2691C83.9762 42.6007 83.4341 42.0581 82.7652 42.0581Z" fill="black"/>
<path fill-rule="evenodd" clip-rule="evenodd" d="M23.2373 49.7419C23.9062 49.7419 24.4482 49.1998 24.4482 48.531V29.6834C24.4482 28.4365 25.4629 27.4219 26.7098 27.4219H79.2947C80.5416 27.4219 81.5563 28.4365 81.5563 29.6834V33.3891C81.5563 34.0574 82.0983 34.6 82.7672 34.6C83.436 34.6 83.9781 34.0574 83.9781 33.3891V29.6834C83.9781 27.1012 81.877 25 79.2947 25H26.7098C24.1275 25 22.0264 27.1012 22.0264 29.6834V48.531C22.0264 49.1998 22.5685 49.7419 23.2373 49.7419Z" fill="black"/>
<path fill-rule="evenodd" clip-rule="evenodd" d="M45.2432 35.196C44.8685 34.9798 44.4069 34.9798 44.0322 35.196C43.6576 35.4122 43.4268 35.8119 43.4268 36.2447V55.5554C43.4268 55.9882 43.6576 56.3879 44.0322 56.6041C44.2195 56.7124 44.4286 56.7663 44.6377 56.7663C44.8468 56.7663 45.0558 56.7124 45.2432 56.6041L61.9669 46.9487C62.3415 46.7325 62.5723 46.3328 62.5723 45.9C62.5723 45.4677 62.3415 45.068 61.9669 44.8513L45.2432 35.196ZM45.8486 53.4585V38.3421L58.94 45.9L45.8486 53.4585Z" fill="black"/>
<path fill-rule="evenodd" clip-rule="evenodd" d="M82.7652 75.6971H43.1647V74.5562C43.1647 72.1296 41.1913 70.1561 38.7647 70.1561C36.3385 70.1561 34.3646 72.1296 34.3646 74.5562V75.6971H23.2354C22.5665 75.6971 22.0244 76.2392 22.0244 76.9081C22.0244 77.5769 22.5665 78.119 23.2354 78.119H34.3646V79.2595C34.3646 81.6861 36.3385 83.6595 38.7647 83.6595C41.1913 83.6595 43.1647 81.6861 43.1647 79.2595V78.119H82.7652C83.4341 78.119 83.9762 77.5769 83.9762 76.9081C83.9762 76.2392 83.4341 75.6971 82.7652 75.6971ZM40.7429 79.2595C40.7429 80.3507 39.8555 81.2376 38.7647 81.2376C37.6739 81.2376 36.7865 80.3507 36.7865 79.2595V74.5562C36.7865 73.4654 37.6739 72.578 38.7647 72.578C39.8555 72.578 40.7429 73.4654 40.7429 74.5562V79.2595Z" fill="black"/>
<path fill-rule="evenodd" clip-rule="evenodd" d="M23.2351 54.7063C23.9153 54.7063 24.4701 54.1514 24.4701 53.4712C24.4701 52.791 23.9153 52.2362 23.2351 52.2362C22.5549 52.2362 22 52.791 22 53.4712C22 54.1514 22.5549 54.7063 23.2351 54.7063Z" fill="black"/>
<path fill-rule="evenodd" clip-rule="evenodd" d="M82.7653 37.0938C82.0851 37.0938 81.5303 37.6486 81.5303 38.3288C81.5303 39.009 82.0851 39.5639 82.7653 39.5639C83.4455 39.5639 84.0004 39.009 84.0004 38.3288C84.0004 37.6486 83.4455 37.0938 82.7653 37.0938Z" fill="black"/>
<defs>
<filter id="filter0_d" x="0" y="0" width="105" height="105" filterUnits="userSpaceOnUse" color-interpolation-filters="sRGB">
<feFlood flood-opacity="0" result="BackgroundImageFix"/>
<feColorMatrix in="SourceAlpha" type="matrix" values="0 0 0 0 0 0 0 0 0 0 0 0 0 0 0 0 0 0 127 0"/>
<feOffset dy="4"/>
<feGaussianBlur stdDeviation="6.5"/>
<feColorMatrix type="matrix" values="0 0 0 0 0 0 0 0 0 0 0 0 0 0 0 0 0 0 0.25 0"/>
<feBlend mode="normal" in2="BackgroundImageFix" result="effect1_dropShadow"/>
<feBlend mode="normal" in="SourceGraphic" in2="effect1_dropShadow" result="shape"/>
</filter>
</defs>
</svg>
