<svg width="105" height="104" viewBox="0 0 105 104" fill="none" xmlns="http://www.w3.org/2000/svg">
<g filter="url(#filter0_d)">
<rect x="13" y="9" width="79" height="78" rx="10" fill="#FF9500"/>
</g>
<path fill-rule="evenodd" clip-rule="evenodd" d="M79.3525 42.2381V71.2609C79.3525 74.3014 76.8649 76.7891 73.8243 76.7891H35.035C31.9945 76.7891 29.5068 74.3014 29.5068 71.2609V42.2381H79.3525Z" fill="#D0D7DF"/>
<path fill-rule="evenodd" clip-rule="evenodd" d="M27.4304 35.0695L29.507 42.2381L77.3844 28.3686L75.3078 21.2C74.4616 18.2795 71.3803 16.5823 68.4599 17.4285L31.2018 28.2215C28.2814 29.0677 26.5846 32.149 27.4304 35.0695Z" fill="#49AAEE"/>
<path fill-rule="evenodd" clip-rule="evenodd" d="M29.5068 42.2381H79.3525V53.5708H29.5068V42.2381Z" fill="#49AAEE"/>
<path fill-rule="evenodd" clip-rule="evenodd" d="M61.5919 65.0567L56.2727 61.9858L50.9531 58.9145V71.1989L56.2727 68.1275L61.5919 65.0567Z" fill="#FA5C66"/>
<path fill-rule="evenodd" clip-rule="evenodd" d="M79.3526 41.0271H38.0389L77.7212 29.5318C78.0296 29.4424 78.2898 29.2337 78.4449 28.9528C78.6001 28.6713 78.637 28.3402 78.5476 28.0318L76.471 20.8631C75.6413 17.9999 72.9754 16 69.9878 16C69.3582 16 68.7309 16.0894 68.1226 16.2654L30.865 27.0583C29.1418 27.5574 27.7137 28.703 26.8429 30.2834C25.9725 31.8638 25.7682 33.6835 26.2672 35.4062L28.296 42.4098V71.2608C28.296 74.9769 31.3191 78 35.0347 78H49.5858C50.2547 78 50.7968 77.4579 50.7968 76.7891C50.7968 76.1202 50.2547 75.5781 49.5858 75.5781H35.0352C32.6545 75.5781 30.7179 73.6416 30.7179 71.2608V54.7817H36.9216H36.9244H36.9268H46.41H46.4128H46.4156H55.8988H55.9016H55.9045H65.3876H65.3904H65.3928H78.1417V71.2608C78.1417 73.6416 76.2052 75.5781 73.8244 75.5781H59.2733C58.6049 75.5781 58.0624 76.1202 58.0624 76.7891C58.0624 77.4579 58.6049 78 59.2733 78H73.8244C77.5405 78 80.5636 74.9769 80.5636 71.2608V42.2381C80.5636 41.5692 80.0215 41.0271 79.3526 41.0271ZM57.9999 52.3598L63.145 43.449H69.8369L64.6923 52.3598H57.9999ZM48.5111 52.3598L53.6562 43.449H60.348L55.2034 52.3598H48.5111ZM39.0228 52.3598L44.1674 43.449H50.8597L45.7146 52.3598H39.0228ZM43.525 36.6834L34.9094 28.4083L41.3647 26.5385C41.4101 26.6047 41.4631 26.6671 41.5236 26.7253L50.1393 35.0004L43.6839 36.8702C43.6385 36.804 43.5851 36.7411 43.525 36.6834ZM59.7515 21.445L68.3672 29.72L61.9118 31.5899C61.8664 31.5237 61.8135 31.4607 61.7529 31.403L53.1373 23.128L59.5926 21.2581C59.638 21.3243 59.691 21.3868 59.7515 21.445ZM50.6374 24.0854L59.253 32.36L52.7976 34.2303C52.7522 34.1641 52.6993 34.1012 52.6387 34.0434L44.0231 25.7684L50.4784 23.8985C50.5243 23.9643 50.5773 24.0272 50.6374 24.0854ZM68.7967 18.5917C69.1855 18.4791 69.5862 18.4219 69.9878 18.4219C71.904 18.4219 73.613 19.7028 74.1447 21.5372L75.8844 27.5422L71.026 28.9495C70.9802 28.8832 70.9272 28.8208 70.8666 28.7626L62.2515 20.488L68.7967 18.5917ZM28.9644 31.4518C29.5226 30.4381 30.4369 29.7039 31.5391 29.3846L32.2505 29.1784C32.2964 29.2446 32.3494 29.3075 32.4094 29.3652L41.0251 37.6403L30.3333 40.7377L28.5936 34.7326C28.2743 33.631 28.4062 32.4659 28.9644 31.4518ZM30.7179 43.449H41.3708L36.2263 52.3598H30.7179V43.449ZM67.4888 52.3598L72.6334 43.449H78.1417V52.3598H67.4888Z" fill="black"/>
<path fill-rule="evenodd" clip-rule="evenodd" d="M62.8028 65.0567C62.8028 64.6239 62.572 64.2242 62.1973 64.008L51.5586 57.8658C51.184 57.6496 50.7223 57.6496 50.3477 57.8658C49.973 58.082 49.7422 58.4817 49.7422 58.9145V71.1989C49.7422 71.6312 49.973 72.0309 50.3477 72.2471C50.535 72.3554 50.744 72.4098 50.9531 72.4098C51.1622 72.4098 51.3713 72.3554 51.5586 72.2471L62.1973 66.1054C62.572 65.8892 62.8028 65.4895 62.8028 65.0567ZM52.1641 69.1015V61.0119L59.17 65.0567L52.1641 69.1015Z" fill="black"/>
<path fill-rule="evenodd" clip-rule="evenodd" d="M54.4297 75.5781C53.7627 75.5781 53.2188 76.1221 53.2188 76.7891C53.2188 77.456 53.7627 78 54.4297 78C55.0971 78 55.6406 77.456 55.6406 76.7891C55.6406 76.1221 55.0971 75.5781 54.4297 75.5781Z" fill="black"/>
<defs>
<filter id="filter0_d" x="0" y="0" width="105" height="104" filterUnits="userSpaceOnUse" color-interpolation-filters="sRGB">
<feFlood flood-opacity="0" result="BackgroundImageFix"/>
<feColorMatrix in="SourceAlpha" type="matrix" values="0 0 0 0 0 0 0 0 0 0 0 0 0 0 0 0 0 0 127 0"/>
<feOffset dy="4"/>
<feGaussianBlur stdDeviation="6.5"/>
<feColorMatrix type="matrix" values="0 0 0 0 0 0 0 0 0 0 0 0 0 0 0 0 0 0 0.25 0"/>
<feBlend mode="normal" in2="BackgroundImageFix" result="effect1_dropShadow"/>
<feBlend mode="normal" in="SourceGraphic" in2="effect1_dropShadow" result="shape"/>
</filter>
</defs>
</svg>
