<svg width="132" height="80" viewBox="0 0 132 80" fill="none" xmlns="http://www.w3.org/2000/svg">
<path fill-rule="evenodd" clip-rule="evenodd" d="M47.4168 74.4441C42.6149 77.5466 36.8932 79.3475 30.7509 79.3475C13.7676 79.3475 0 65.5799 0 48.5967C0 31.6134 13.7676 17.8458 30.7509 17.8458C32.3356 17.8458 33.8924 17.9657 35.4126 18.1969C40.2148 7.47192 50.9811 0 63.4925 0C76.365 0 87.3901 7.9094 91.9732 19.1334C94.771 18.2958 97.7363 17.8458 100.807 17.8458C117.79 17.8458 131.558 31.6134 131.558 48.5967C131.558 65.5799 117.79 79.3475 100.807 79.3475C93.9237 79.3475 87.5689 77.0862 82.4447 73.2659C77.3205 77.0862 70.9657 79.3475 64.0828 79.3475C57.9404 79.3475 52.2187 77.5466 47.4168 74.4441Z" fill="#EDBDB2"/>
</svg>
