<svg width="50" height="30" viewBox="0 0 50 30" fill="none" xmlns="http://www.w3.org/2000/svg">
<path fill-rule="evenodd" clip-rule="evenodd" d="M17.9275 28.1461C16.112 29.3191 13.9487 30 11.6264 30C5.20531 30 0 24.7947 0 18.3736C0 11.9526 5.20531 6.74724 11.6264 6.74724C12.2254 6.74724 12.8139 6.79255 13.3885 6.87992C15.2042 2.825 19.2747 0 24.0051 0C28.872 0 33.0404 2.99044 34.7732 7.23409C35.831 6.91738 36.9522 6.74724 38.1131 6.74724C44.5341 6.74724 49.7394 11.9526 49.7394 18.3736C49.7394 24.7947 44.5341 30 38.1131 30C35.5108 30 33.1082 29.1451 31.1709 27.7008C29.2335 29.1451 26.8309 30 24.2287 30C21.9063 30 19.743 29.3191 17.9275 28.1461Z" fill="#CBC0E0"/>
</svg>
