<svg width="85" height="51" viewBox="0 0 85 51" fill="none" xmlns="http://www.w3.org/2000/svg">
<path fill-rule="evenodd" clip-rule="evenodd" d="M30.4768 47.8484C27.3904 49.8425 23.7128 51 19.7649 51C8.84903 51 0 42.151 0 31.2351C0 20.3193 8.84903 11.4703 19.7649 11.4703C20.7835 11.4703 21.7842 11.5473 22.7613 11.6959C25.8479 4.80253 32.7679 0 40.8095 0C49.0832 0 56.1695 5.08369 59.1152 12.2978C60.9135 11.7595 62.8193 11.4703 64.7927 11.4703C75.7086 11.4703 84.5576 20.3193 84.5576 31.2351C84.5576 42.151 75.7086 51 64.7927 51C60.3688 51 56.2842 49.5465 52.9907 47.091C49.6971 49.5465 45.6126 51 41.1886 51C37.2407 51 33.5631 49.8425 30.4768 47.8484Z" fill="#BDDCFD"/>
</svg>
