<svg width="122" height="73" viewBox="0 0 122 73" fill="none" xmlns="http://www.w3.org/2000/svg">
<path fill-rule="evenodd" clip-rule="evenodd" d="M43.6237 68.4888C39.2059 71.3432 33.9419 73 28.2909 73C12.6663 73 0 60.3337 0 44.7091C0 29.0845 12.6663 16.4182 28.2909 16.4182C29.7489 16.4182 31.1811 16.5285 32.5797 16.7412C36.9978 6.87418 46.9028 0 58.4133 0C70.2561 0 80.3992 7.27665 84.6157 17.6028C87.1897 16.8322 89.9177 16.4182 92.7424 16.4182C108.367 16.4182 121.033 29.0845 121.033 44.7091C121.033 60.3337 108.367 73 92.7424 73C86.4101 73 80.5637 70.9196 75.8495 67.4049C71.1352 70.9196 65.2888 73 58.9565 73C53.3055 73 48.0415 71.3432 43.6237 68.4888Z" fill="#BDDCFD"/>
</svg>
