<svg width="87" height="52" viewBox="0 0 87 52" fill="none" xmlns="http://www.w3.org/2000/svg">
<path fill-rule="evenodd" clip-rule="evenodd" d="M31.0744 48.7865C27.9275 50.8198 24.1778 52 20.1524 52C9.02254 52 0 42.9775 0 31.8476C0 20.7177 9.02254 11.6952 20.1524 11.6952C21.191 11.6952 22.2112 11.7737 23.2074 11.9252C26.3545 4.89668 33.4101 0 41.6094 0C50.0453 0 57.2706 5.18339 60.2741 12.539C62.1077 11.9901 64.051 11.6952 66.0632 11.6952C77.193 11.6952 86.2156 20.7177 86.2156 31.8476C86.2156 42.9775 77.193 52 66.0632 52C61.5525 52 57.3879 50.518 54.0298 48.0144C50.6716 50.518 46.5071 52 41.9964 52C37.971 52 34.2213 50.8198 31.0744 48.7865Z" fill="#CBC0E0"/>
</svg>
