<svg width="114" height="69" viewBox="0 0 114 69" fill="none" xmlns="http://www.w3.org/2000/svg">
<path fill-rule="evenodd" clip-rule="evenodd" d="M40.7404 64.4551C36.6146 67.1209 31.6985 68.6682 26.4209 68.6682C11.8291 68.6682 0 56.8392 0 42.2473C0 27.6554 11.8291 15.8264 26.4209 15.8264C27.7825 15.8264 29.12 15.9293 30.426 16.128C34.5521 6.91312 43.8024 0.493286 54.5521 0.493286C65.6121 0.493286 75.0848 7.28901 79.0226 16.9327C81.4264 16.213 83.9741 15.8264 86.6122 15.8264C101.204 15.8264 113.033 27.6554 113.033 42.2473C113.033 56.8392 101.204 68.6682 86.6122 68.6682C80.6985 68.6682 75.2386 66.7254 70.836 63.4432C66.4334 66.7254 60.9735 68.6682 55.0598 68.6682C49.7823 68.6682 44.8662 67.1209 40.7404 64.4551Z" fill="#BDDCFD"/>
</svg>
