<svg width="343" height="296" viewBox="0 0 343 296" fill="none" xmlns="http://www.w3.org/2000/svg">
<path d="M206.757 3.74963C206.808 3.90164 206.91 4.05365 207.011 4.20566C207.113 4.35768 207.215 4.50969 207.368 4.61103C207.47 4.71237 207.622 4.86438 207.775 4.96572C207.928 5.06706 208.08 5.16841 208.233 5.21908C208.386 5.26975 208.539 5.32042 208.742 5.37109C209.098 5.42176 209.455 5.42176 209.811 5.37109C210.015 5.32042 210.167 5.26975 210.32 5.21908C210.473 5.16841 210.626 5.06706 210.778 4.96572C210.931 4.86438 211.084 4.76304 211.186 4.61103C211.338 4.45902 211.44 4.35768 211.542 4.20566C211.644 4.05365 211.745 3.90164 211.796 3.74963C211.847 3.59762 211.898 3.4456 211.949 3.24292C212 3.09091 212 2.88823 212 2.73621C212 2.38152 211.949 2.02683 211.796 1.7228C211.644 1.36811 211.44 1.06408 211.186 0.81073C210.677 0.304024 210.015 0 209.251 0C208.895 0 208.539 0.0506706 208.233 0.202683C207.928 0.354694 207.571 0.557377 207.317 0.81073C206.808 1.31744 206.502 2.02683 206.502 2.73621C206.502 2.9389 206.502 3.09091 206.553 3.24292C206.604 3.4456 206.655 3.59762 206.757 3.74963Z" fill="#FFC77F"/>
<path d="M209.251 165.389C210.778 165.389 212 164.173 212 162.653C212 161.183 210.778 159.917 209.251 159.917C207.724 159.917 206.502 161.133 206.502 162.653C206.553 164.173 207.775 165.389 209.251 165.389Z" fill="#FFC77F"/>
<path d="M209.251 183.124C210.778 183.124 212 181.908 212 180.388C212 178.867 210.778 177.651 209.251 177.651C207.724 177.651 206.502 178.867 206.502 180.388C206.553 181.908 207.775 183.124 209.251 183.124Z" fill="#FFC77F"/>
<path d="M209.251 147.604C210.778 147.604 212 146.387 212 144.867C212 143.347 210.778 142.131 209.251 142.131C207.724 142.131 206.502 143.347 206.502 144.867C206.553 146.387 207.775 147.604 209.251 147.604Z" fill="#FFC77F"/>
<path d="M209.251 218.695C210.778 218.695 212 217.478 212 215.958C212 214.438 210.778 213.222 209.251 213.222C207.724 213.222 206.502 214.438 206.502 215.958C206.553 217.478 207.775 218.695 209.251 218.695Z" fill="#FFC77F"/>
<path d="M209.251 200.909C210.778 200.909 212 199.693 212 198.173C212 196.653 210.778 195.437 209.251 195.437C207.724 195.437 206.502 196.653 206.502 198.173C206.553 199.693 207.775 200.909 209.251 200.909Z" fill="#FFC77F"/>
<path d="M209.251 236.48C210.778 236.48 212 235.264 212 233.744C212 232.223 210.778 231.007 209.251 231.007C207.724 231.007 206.502 232.223 206.502 233.744C206.553 235.264 207.775 236.48 209.251 236.48Z" fill="#FFC77F"/>
<path d="M209.251 129.818C210.778 129.818 212 128.602 212 127.082C212 125.562 210.778 124.346 209.251 124.346C207.724 124.346 206.502 125.562 206.502 127.082C206.502 128.602 207.775 129.818 209.251 129.818Z" fill="#FFC77F"/>
<path d="M209.251 58.7778C210.778 58.7778 212 57.5617 212 56.0416C212 54.5215 210.778 53.3054 209.251 53.3054C207.724 53.3054 206.502 54.5215 206.502 56.0416C206.553 57.5617 207.775 58.7778 209.251 58.7778Z" fill="#FFC77F"/>
<path d="M209.251 40.9927C210.778 40.9927 212 39.7766 212 38.2565C212 36.7364 210.778 35.5203 209.251 35.5203C207.724 35.5203 206.502 36.7364 206.502 38.2565C206.502 39.7766 207.775 40.9927 209.251 40.9927Z" fill="#FFC77F"/>
<path d="M209.251 112.084C210.778 112.084 212 110.867 212 109.347C212 107.827 210.778 106.611 209.251 106.611C207.724 106.611 206.502 107.827 206.502 109.347C206.553 110.867 207.775 112.084 209.251 112.084Z" fill="#FFC77F"/>
<path d="M209.251 23.207C210.778 23.207 212 21.991 212 20.4708C212 18.9507 210.778 17.7346 209.251 17.7346C207.724 17.7346 206.502 18.9507 206.502 20.4708C206.502 21.991 207.775 23.207 209.251 23.207Z" fill="#FFC77F"/>
<path d="M209.251 94.2981C210.778 94.2981 212 93.082 212 91.5619C212 90.0418 210.778 88.8257 209.251 88.8257C207.724 88.8257 206.502 90.0418 206.502 91.5619C206.502 93.082 207.775 94.2981 209.251 94.2981Z" fill="#FFC77F"/>
<path d="M209.251 76.5127C210.778 76.5127 212 75.2966 212 73.7765C212 72.307 210.778 71.0403 209.251 71.0403C207.724 71.0403 206.502 72.2564 206.502 73.7765C206.553 75.2966 207.775 76.5127 209.251 76.5127Z" fill="#FFC77F"/>
<path d="M206.757 252.543C206.808 252.695 206.91 252.847 207.011 252.999C207.113 253.151 207.215 253.303 207.368 253.404C207.47 253.505 207.622 253.657 207.775 253.708C207.928 253.809 208.08 253.911 208.233 253.961C208.386 254.012 208.539 254.113 208.742 254.113C209.098 254.164 209.455 254.164 209.811 254.113C210.015 254.063 210.167 254.012 210.32 253.961C210.473 253.911 210.626 253.809 210.778 253.708C210.931 253.607 211.084 253.505 211.186 253.404C211.338 253.303 211.44 253.151 211.542 252.999C211.644 252.847 211.745 252.695 211.796 252.543C211.847 252.391 211.898 252.188 211.949 252.036C212 251.833 212 251.681 212 251.479C212 251.124 211.949 250.769 211.796 250.465C211.644 250.161 211.44 249.857 211.186 249.604C210.931 249.35 210.626 249.148 210.269 248.996C209.964 248.844 209.608 248.793 209.251 248.793C208.539 248.793 207.826 249.097 207.317 249.604C206.808 250.11 206.502 250.82 206.502 251.529C206.502 251.732 206.502 251.884 206.553 252.087C206.604 252.188 206.655 252.391 206.757 252.543Z" fill="#FFC77F"/>
<path d="M192.606 3.74963C192.656 3.90164 192.758 4.05365 192.86 4.20566C192.962 4.35768 193.064 4.50969 193.216 4.61103C193.318 4.71237 193.471 4.86438 193.624 4.96572C193.776 5.06706 193.929 5.16841 194.082 5.21908C194.234 5.26975 194.387 5.32042 194.591 5.37109C194.947 5.42176 195.303 5.42176 195.66 5.37109C195.863 5.32042 196.016 5.26975 196.169 5.21908C196.322 5.16841 196.474 5.06706 196.627 4.96572C196.78 4.86438 196.932 4.76304 197.034 4.61103C197.136 4.45902 197.289 4.35768 197.39 4.20566C197.492 4.05365 197.594 3.90164 197.645 3.74963C197.696 3.59762 197.747 3.4456 197.798 3.24292C197.849 3.09091 197.849 2.88823 197.849 2.73621C197.849 2.38152 197.798 2.02683 197.645 1.7228C197.543 1.31744 197.34 1.06408 197.085 0.81073C196.576 0.304024 195.863 0 195.151 0C194.794 0 194.438 0.0506706 194.133 0.202683C193.776 0.354694 193.471 0.557377 193.216 0.81073C192.707 1.31744 192.402 2.02683 192.402 2.73621C192.402 2.9389 192.402 3.09091 192.453 3.24292C192.504 3.4456 192.555 3.59762 192.606 3.74963Z" fill="#FFC77F"/>
<path d="M195.151 200.909C196.678 200.909 197.9 199.693 197.9 198.173C197.9 196.653 196.678 195.437 195.151 195.437C193.624 195.437 192.402 196.653 192.402 198.173C192.402 199.693 193.624 200.909 195.151 200.909Z" fill="#FFC77F"/>
<path d="M195.151 165.389C196.678 165.389 197.9 164.173 197.9 162.653C197.9 161.183 196.678 159.917 195.151 159.917C193.624 159.917 192.402 161.133 192.402 162.653C192.402 164.173 193.624 165.389 195.151 165.389Z" fill="#FFC77F"/>
<path d="M195.151 183.124C196.678 183.124 197.9 181.908 197.9 180.388C197.9 178.867 196.678 177.651 195.151 177.651C193.624 177.651 192.402 178.867 192.402 180.388C192.402 181.908 193.624 183.124 195.151 183.124Z" fill="#FFC77F"/>
<path d="M195.151 218.695C196.678 218.695 197.9 217.478 197.9 215.958C197.9 214.438 196.678 213.222 195.151 213.222C193.624 213.222 192.402 214.438 192.402 215.958C192.402 217.478 193.624 218.695 195.151 218.695Z" fill="#FFC77F"/>
<path d="M195.151 147.604C196.678 147.604 197.9 146.387 197.9 144.867C197.9 143.347 196.678 142.131 195.151 142.131C193.624 142.131 192.402 143.347 192.402 144.867C192.402 146.387 193.624 147.604 195.151 147.604Z" fill="#FFC77F"/>
<path d="M195.151 236.48C196.678 236.48 197.9 235.264 197.9 233.744C197.9 232.223 196.678 231.007 195.151 231.007C193.624 231.007 192.402 232.223 192.402 233.744C192.402 235.264 193.624 236.48 195.151 236.48Z" fill="#FFC77F"/>
<path d="M195.151 23.207C196.678 23.207 197.9 21.991 197.9 20.4708C197.9 18.9507 196.678 17.7346 195.151 17.7346C193.624 17.7346 192.402 18.9507 192.402 20.4708C192.402 21.991 193.624 23.207 195.151 23.207Z" fill="#FFC77F"/>
<path d="M195.151 58.7778C196.678 58.7778 197.9 57.5617 197.9 56.0416C197.9 54.5215 196.678 53.3054 195.151 53.3054C193.624 53.3054 192.402 54.5215 192.402 56.0416C192.402 57.5617 193.624 58.7778 195.151 58.7778Z" fill="#FFC77F"/>
<path d="M195.151 76.5127C196.678 76.5127 197.9 75.2966 197.9 73.7765C197.9 72.307 196.678 71.0403 195.151 71.0403C193.624 71.0403 192.402 72.2564 192.402 73.7765C192.402 75.2966 193.624 76.5127 195.151 76.5127Z" fill="#FFC77F"/>
<path d="M195.151 40.9927C196.678 40.9927 197.9 39.7766 197.9 38.2565C197.9 36.7364 196.678 35.5203 195.151 35.5203C193.624 35.5203 192.402 36.7364 192.402 38.2565C192.402 39.7766 193.624 40.9927 195.151 40.9927Z" fill="#FFC77F"/>
<path d="M195.151 129.818C196.678 129.818 197.9 128.602 197.9 127.082C197.9 125.562 196.678 124.346 195.151 124.346C193.624 124.346 192.402 125.562 192.402 127.082C192.402 128.602 193.624 129.818 195.151 129.818Z" fill="#FFC77F"/>
<path d="M195.151 112.084C196.678 112.084 197.9 110.867 197.9 109.347C197.9 107.827 196.678 106.611 195.151 106.611C193.624 106.611 192.402 107.827 192.402 109.347C192.402 110.867 193.624 112.084 195.151 112.084Z" fill="#FFC77F"/>
<path d="M195.151 94.2981C196.678 94.2981 197.9 93.082 197.9 91.5619C197.9 90.0418 196.678 88.8257 195.151 88.8257C193.624 88.8257 192.402 90.0418 192.402 91.5619C192.402 93.082 193.624 94.2981 195.151 94.2981Z" fill="#FFC77F"/>
<path d="M195.66 254.164C195.863 254.113 196.016 254.063 196.169 254.012C196.322 253.961 196.474 253.86 196.627 253.759C196.78 253.657 196.932 253.556 197.034 253.455C197.543 252.948 197.849 252.238 197.849 251.529C197.849 251.174 197.798 250.82 197.645 250.516C197.492 250.212 197.289 249.908 197.034 249.654C196.78 249.401 196.474 249.198 196.118 249.046C195.812 248.894 195.456 248.844 195.1 248.844C194.387 248.844 193.675 249.148 193.165 249.654C192.911 249.908 192.707 250.212 192.555 250.516C192.453 250.82 192.351 251.225 192.351 251.529C192.351 252.238 192.656 252.948 193.165 253.455C193.878 254.063 194.794 254.367 195.66 254.164Z" fill="#FFC77F"/>
<path d="M178.505 3.74963C178.607 3.90164 178.658 4.05365 178.76 4.20566C178.861 4.35768 178.963 4.50969 179.116 4.61103C179.269 4.76304 179.37 4.86438 179.523 4.96572C179.676 5.06706 179.829 5.16841 180.032 5.21908C180.185 5.26975 180.338 5.32042 180.541 5.37109C180.898 5.42176 181.254 5.42176 181.61 5.37109C181.814 5.32042 181.966 5.26975 182.119 5.21908C182.272 5.16841 182.425 5.06706 182.577 4.96572C182.73 4.86438 182.832 4.76304 182.985 4.6617C183.086 4.50969 183.239 4.35768 183.341 4.20566C183.392 4.05365 183.494 3.90164 183.545 3.74963C183.595 3.59762 183.646 3.4456 183.697 3.24292C183.748 3.09091 183.748 2.88823 183.748 2.73621C183.748 2.38152 183.697 2.02683 183.545 1.7228C183.443 1.31744 183.239 1.06408 182.985 0.81073C182.476 0.304024 181.763 0 181.05 0C180.694 0 180.338 0.0506706 180.032 0.202683C179.676 0.354694 179.37 0.557377 179.116 0.81073C178.607 1.31744 178.301 2.02683 178.301 2.73621C178.301 2.9389 178.301 3.09091 178.352 3.24292C178.403 3.4456 178.454 3.59762 178.505 3.74963Z" fill="#FFC77F"/>
<path d="M181.05 183.124C182.577 183.124 183.799 181.908 183.799 180.388C183.799 178.867 182.577 177.651 181.05 177.651C179.523 177.651 178.301 178.867 178.301 180.388C178.301 181.908 179.523 183.124 181.05 183.124Z" fill="#FFC77F"/>
<path d="M181.05 165.389C182.577 165.389 183.799 164.173 183.799 162.653C183.799 161.183 182.577 159.917 181.05 159.917C179.523 159.917 178.301 161.133 178.301 162.653C178.301 164.173 179.523 165.389 181.05 165.389Z" fill="#FFC77F"/>
<path d="M181.05 200.909C182.577 200.909 183.799 199.693 183.799 198.173C183.799 196.653 182.577 195.437 181.05 195.437C179.523 195.437 178.301 196.653 178.301 198.173C178.301 199.693 179.523 200.909 181.05 200.909Z" fill="#FFC77F"/>
<path d="M181.05 147.604C182.577 147.604 183.799 146.387 183.799 144.867C183.799 143.347 182.577 142.131 181.05 142.131C179.523 142.131 178.301 143.347 178.301 144.867C178.301 146.387 179.523 147.604 181.05 147.604Z" fill="#FFC77F"/>
<path d="M181.05 218.695C182.577 218.695 183.799 217.478 183.799 215.958C183.799 214.438 182.577 213.222 181.05 213.222C179.523 213.222 178.301 214.438 178.301 215.958C178.301 217.478 179.523 218.695 181.05 218.695Z" fill="#FFC77F"/>
<path d="M181.05 236.48C182.577 236.48 183.799 235.264 183.799 233.744C183.799 232.223 182.577 231.007 181.05 231.007C179.523 231.007 178.301 232.223 178.301 233.744C178.301 235.264 179.523 236.48 181.05 236.48Z" fill="#FFC77F"/>
<path d="M181.05 94.2981C182.577 94.2981 183.799 93.082 183.799 91.5619C183.799 90.0418 182.577 88.8257 181.05 88.8257C179.523 88.8257 178.301 90.0418 178.301 91.5619C178.301 93.082 179.523 94.2981 181.05 94.2981Z" fill="#FFC77F"/>
<path d="M181.05 58.7778C182.577 58.7778 183.799 57.5617 183.799 56.0416C183.799 54.5215 182.577 53.3054 181.05 53.3054C179.523 53.3054 178.301 54.5215 178.301 56.0416C178.301 57.5617 179.523 58.7778 181.05 58.7778Z" fill="#FFC77F"/>
<path d="M181.05 40.9926C182.577 40.9926 183.799 39.7765 183.799 38.2563C183.799 36.7362 182.577 35.5708 181.05 35.5708C179.523 35.5708 178.301 36.7869 178.301 38.307C178.301 39.8271 179.523 40.9926 181.05 40.9926Z" fill="#FFC77F"/>
<path d="M181.05 76.5127C182.577 76.5127 183.799 75.2966 183.799 73.7765C183.799 72.307 182.577 71.0403 181.05 71.0403C179.523 71.0403 178.301 72.2564 178.301 73.7765C178.301 75.2966 179.523 76.5127 181.05 76.5127Z" fill="#FFC77F"/>
<path d="M181.05 129.818C182.577 129.818 183.799 128.602 183.799 127.082C183.799 125.562 182.577 124.346 181.05 124.346C179.523 124.346 178.301 125.562 178.301 127.082C178.301 128.602 179.523 129.818 181.05 129.818Z" fill="#FFC77F"/>
<path d="M181.05 112.084C182.577 112.084 183.799 110.867 183.799 109.347C183.799 107.827 182.577 106.611 181.05 106.611C179.523 106.611 178.301 107.827 178.301 109.347C178.301 110.867 179.523 112.084 181.05 112.084Z" fill="#FFC77F"/>
<path d="M181.05 23.2072C182.577 23.2072 183.799 21.9911 183.799 20.4709C183.799 18.9508 182.577 17.7854 181.05 17.7854C179.523 17.7854 178.301 19.0015 178.301 20.5216C178.301 22.0417 179.523 23.2072 181.05 23.2072Z" fill="#FFC77F"/>
<path d="M178.505 252.543C178.556 252.695 178.658 252.847 178.76 252.999C178.861 253.151 178.963 253.303 179.116 253.404C179.269 253.505 179.37 253.657 179.523 253.708C179.676 253.809 179.829 253.911 179.981 253.961C180.134 254.012 180.287 254.113 180.49 254.113C180.847 254.164 181.203 254.164 181.559 254.113C181.763 254.063 181.916 254.012 182.068 253.961C182.221 253.911 182.374 253.809 182.526 253.708C182.679 253.607 182.832 253.505 182.934 253.404C183.036 253.303 183.188 253.151 183.29 252.999C183.392 252.847 183.494 252.695 183.545 252.543C183.595 252.391 183.646 252.188 183.697 252.036C183.748 251.833 183.748 251.681 183.748 251.479C183.748 251.124 183.697 250.769 183.545 250.465C183.392 250.161 183.188 249.857 182.934 249.604C182.425 249.097 181.712 248.793 180.999 248.793C180.643 248.793 180.287 248.844 179.981 248.996C179.625 249.097 179.32 249.3 179.065 249.604C178.81 249.857 178.607 250.161 178.454 250.465C178.352 250.769 178.251 251.175 178.251 251.479C178.251 251.681 178.251 251.833 178.301 252.036C178.403 252.188 178.454 252.391 178.505 252.543Z" fill="#FFC77F"/>
<path d="M164.405 3.74963C164.506 3.90164 164.557 4.05365 164.659 4.20566C164.761 4.35768 164.863 4.50969 165.015 4.6617C165.117 4.76304 165.27 4.91505 165.423 5.01639C165.575 5.06706 165.728 5.16841 165.881 5.21908C166.084 5.26975 166.237 5.32042 166.39 5.37109C166.746 5.42176 167.102 5.42176 167.459 5.37109C167.662 5.32042 167.815 5.26975 167.968 5.21908C168.121 5.16841 168.324 5.06706 168.477 4.96572C168.579 4.86438 168.731 4.76304 168.884 4.6617C168.986 4.50969 169.088 4.35768 169.24 4.20566C169.291 4.05365 169.393 3.90164 169.444 3.74963C169.546 3.59762 169.597 3.4456 169.597 3.24292C169.648 3.09091 169.648 2.88823 169.648 2.73621C169.648 2.38152 169.597 2.02683 169.444 1.7228C169.342 1.31744 169.139 1.06408 168.884 0.81073C168.63 0.557377 168.324 0.354694 167.968 0.202683C167.662 0.0506706 167.306 0 166.95 0C166.237 0 165.524 0.304024 165.015 0.81073C164.761 1.06408 164.557 1.31744 164.405 1.67213C164.303 2.02683 164.201 2.33085 164.201 2.73621C164.201 2.9389 164.201 3.09091 164.252 3.24292C164.303 3.4456 164.354 3.59762 164.405 3.74963Z" fill="#FFC77F"/>
<path d="M166.95 147.604C168.477 147.604 169.699 146.387 169.699 144.867C169.699 143.347 168.477 142.131 166.95 142.131C165.423 142.131 164.201 143.347 164.201 144.867C164.201 146.387 165.423 147.604 166.95 147.604Z" fill="#FFC77F"/>
<path d="M166.95 129.818C168.477 129.818 169.699 128.602 169.699 127.082C169.699 125.562 168.477 124.346 166.95 124.346C165.423 124.346 164.201 125.562 164.201 127.082C164.201 128.602 165.423 129.818 166.95 129.818Z" fill="#FFC77F"/>
<path d="M166.95 183.124C168.477 183.124 169.699 181.908 169.699 180.388C169.699 178.867 168.477 177.651 166.95 177.651C165.423 177.651 164.201 178.867 164.201 180.388C164.201 181.908 165.423 183.124 166.95 183.124Z" fill="#FFC77F"/>
<path d="M166.95 200.909C168.477 200.909 169.699 199.693 169.699 198.173C169.699 196.653 168.477 195.437 166.95 195.437C165.423 195.437 164.201 196.653 164.201 198.173C164.201 199.693 165.423 200.909 166.95 200.909Z" fill="#FFC77F"/>
<path d="M166.95 165.389C168.477 165.389 169.699 164.173 169.699 162.653C169.699 161.183 168.477 159.917 166.95 159.917C165.423 159.917 164.201 161.133 164.201 162.653C164.201 164.173 165.423 165.389 166.95 165.389Z" fill="#FFC77F"/>
<path d="M166.95 112.084C168.477 112.084 169.699 110.867 169.699 109.347C169.699 107.827 168.477 106.611 166.95 106.611C165.423 106.611 164.201 107.827 164.201 109.347C164.201 110.867 165.423 112.084 166.95 112.084Z" fill="#FFC77F"/>
<path d="M166.95 94.2981C168.477 94.2981 169.699 93.082 169.699 91.5619C169.699 90.0418 168.477 88.8257 166.95 88.8257C165.423 88.8257 164.201 90.0418 164.201 91.5619C164.201 93.082 165.423 94.2981 166.95 94.2981Z" fill="#FFC77F"/>
<path d="M166.95 23.2072C168.477 23.2072 169.699 21.9911 169.699 20.4709C169.699 18.9508 168.477 17.7854 166.95 17.7854C165.423 17.7854 164.201 19.0015 164.201 20.5216C164.201 22.0417 165.423 23.2072 166.95 23.2072Z" fill="#FFC77F"/>
<path d="M166.95 236.48C168.477 236.48 169.699 235.264 169.699 233.744C169.699 232.223 168.477 231.007 166.95 231.007C165.423 231.007 164.201 232.223 164.201 233.744C164.201 235.264 165.423 236.48 166.95 236.48Z" fill="#FFC77F"/>
<path d="M166.95 40.9926C168.477 40.9926 169.699 39.7765 169.699 38.2563C169.699 36.7362 168.477 35.5708 166.95 35.5708C165.423 35.5708 164.201 36.7869 164.201 38.307C164.201 39.8271 165.423 40.9926 166.95 40.9926Z" fill="#FFC77F"/>
<path d="M166.95 76.5127C168.477 76.5127 169.699 75.2966 169.699 73.7765C169.699 72.307 168.477 71.0403 166.95 71.0403C165.423 71.0403 164.201 72.2564 164.201 73.7765C164.201 75.2966 165.423 76.5127 166.95 76.5127Z" fill="#FFC77F"/>
<path d="M166.95 58.7778C168.477 58.7778 169.699 57.5617 169.699 56.0416C169.699 54.5215 168.477 53.3054 166.95 53.3054C165.423 53.3054 164.201 54.5215 164.201 56.0416C164.201 57.5617 165.423 58.7778 166.95 58.7778Z" fill="#FFC77F"/>
<path d="M166.95 218.695C168.477 218.695 169.699 217.478 169.699 215.958C169.699 214.438 168.477 213.222 166.95 213.222C165.423 213.222 164.201 214.438 164.201 215.958C164.201 217.478 165.423 218.695 166.95 218.695Z" fill="#FFC77F"/>
<path d="M167.459 254.164C167.662 254.113 167.815 254.063 167.968 254.012C168.121 253.961 168.273 253.86 168.426 253.759C168.579 253.657 168.731 253.556 168.833 253.455C169.342 252.948 169.648 252.238 169.648 251.529C169.648 251.174 169.597 250.82 169.444 250.516C169.342 250.212 169.139 249.908 168.884 249.654C168.63 249.401 168.324 249.198 167.968 249.046C167.662 248.894 167.306 248.844 166.95 248.844C166.593 248.844 166.237 248.894 165.881 249.046C165.575 249.148 165.27 249.35 165.015 249.654C164.761 249.908 164.557 250.212 164.405 250.516C164.303 250.82 164.201 251.225 164.201 251.529C164.201 252.238 164.506 252.948 165.015 253.455C165.626 254.063 166.593 254.367 167.459 254.164Z" fill="#FFC77F"/>
<path d="M150.304 3.74963C150.355 3.90164 150.457 4.05365 150.559 4.20566C150.66 4.35768 150.762 4.50969 150.915 4.6617C151.068 4.76304 151.169 4.91505 151.322 5.01639C151.475 5.06706 151.628 5.16841 151.78 5.21908C151.933 5.26975 152.137 5.32042 152.289 5.37109C152.646 5.42176 153.002 5.42176 153.358 5.37109C153.562 5.32042 153.715 5.26975 153.867 5.21908C154.02 5.16841 154.224 5.06706 154.326 4.96572C154.478 4.86438 154.631 4.76304 154.733 4.61103C154.835 4.45902 154.987 4.35768 155.038 4.20566C155.191 4.05365 155.293 3.90164 155.344 3.74963C155.395 3.59762 155.496 3.4456 155.496 3.24292C155.547 3.09091 155.547 2.88823 155.547 2.73621C155.547 2.02683 155.242 1.31744 154.733 0.81073C154.529 0.557377 154.224 0.354694 153.867 0.202683C153.562 0.0506706 153.206 0 152.849 0C152.086 0 151.424 0.304024 150.915 0.81073C150.406 1.31744 150.1 2.02683 150.1 2.73621C150.1 2.9389 150.1 3.09091 150.151 3.24292C150.202 3.4456 150.253 3.59762 150.304 3.74963Z" fill="#FFC77F"/>
<path d="M152.849 129.818C154.376 129.818 155.598 128.602 155.598 127.082C155.598 125.562 154.376 124.346 152.849 124.346C151.322 124.346 150.1 125.562 150.1 127.082C150.1 128.602 151.322 129.818 152.849 129.818Z" fill="#FFC77F"/>
<path d="M152.849 147.604C154.376 147.604 155.598 146.387 155.598 144.867C155.598 143.347 154.376 142.131 152.849 142.131C151.322 142.131 150.1 143.347 150.1 144.867C150.1 146.387 151.322 147.604 152.849 147.604Z" fill="#FFC77F"/>
<path d="M152.849 183.124C154.376 183.124 155.598 181.908 155.598 180.388C155.598 178.867 154.376 177.651 152.849 177.651C151.322 177.651 150.1 178.867 150.1 180.388C150.1 181.908 151.322 183.124 152.849 183.124Z" fill="#FFC77F"/>
<path d="M152.849 165.389C154.376 165.389 155.598 164.173 155.598 162.653C155.598 161.183 154.376 159.917 152.849 159.917C151.322 159.917 150.1 161.133 150.1 162.653C150.1 164.173 151.322 165.389 152.849 165.389Z" fill="#FFC77F"/>
<path d="M152.849 236.48C154.376 236.48 155.598 235.264 155.598 233.744C155.598 232.223 154.376 231.007 152.849 231.007C151.322 231.007 150.1 232.223 150.1 233.744C150.1 235.264 151.322 236.48 152.849 236.48Z" fill="#FFC77F"/>
<path d="M152.849 200.909C154.376 200.909 155.598 199.693 155.598 198.173C155.598 196.653 154.376 195.437 152.849 195.437C151.322 195.437 150.1 196.653 150.1 198.173C150.1 199.693 151.322 200.909 152.849 200.909Z" fill="#FFC77F"/>
<path d="M152.849 218.695C154.376 218.695 155.598 217.478 155.598 215.958C155.598 214.438 154.376 213.222 152.849 213.222C151.322 213.222 150.1 214.438 150.1 215.958C150.1 217.478 151.322 218.695 152.849 218.695Z" fill="#FFC77F"/>
<path d="M152.849 58.7778C154.376 58.7778 155.598 57.5617 155.598 56.0416C155.598 54.5215 154.376 53.3054 152.849 53.3054C151.322 53.3054 150.1 54.5215 150.1 56.0416C150.1 57.5617 151.322 58.7778 152.849 58.7778Z" fill="#FFC77F"/>
<path d="M152.849 112.084C154.376 112.084 155.598 110.867 155.598 109.347C155.598 107.827 154.376 106.611 152.849 106.611C151.322 106.611 150.1 107.827 150.1 109.347C150.1 110.867 151.322 112.084 152.849 112.084Z" fill="#FFC77F"/>
<path d="M152.849 40.9926C154.376 40.9926 155.598 39.7765 155.598 38.2563C155.598 36.7362 154.326 35.5708 152.849 35.5708C151.322 35.5708 150.1 36.7869 150.1 38.307C150.1 39.8271 151.322 40.9926 152.849 40.9926Z" fill="#FFC77F"/>
<path d="M152.849 94.2981C154.376 94.2981 155.598 93.082 155.598 91.5619C155.598 90.0418 154.376 88.8257 152.849 88.8257C151.322 88.8257 150.1 90.0418 150.1 91.5619C150.1 93.082 151.322 94.2981 152.849 94.2981Z" fill="#FFC77F"/>
<path d="M152.849 76.5127C154.376 76.5127 155.598 75.2966 155.598 73.7765C155.598 72.307 154.376 71.0403 152.849 71.0403C151.322 71.0403 150.1 72.2564 150.1 73.7765C150.1 75.2966 151.322 76.5127 152.849 76.5127Z" fill="#FFC77F"/>
<path d="M152.849 23.2072C154.376 23.2072 155.598 21.9911 155.598 20.4709C155.598 18.9508 154.326 17.7854 152.849 17.7854C151.322 17.7854 150.1 19.0015 150.1 20.5216C150.1 22.0417 151.322 23.2072 152.849 23.2072Z" fill="#FFC77F"/>
<path d="M151.322 253.759C151.475 253.86 151.628 253.961 151.78 254.012C151.933 254.063 152.137 254.164 152.289 254.164C152.646 254.215 153.002 254.215 153.358 254.164C153.562 254.113 153.715 254.063 153.867 254.012C154.02 253.961 154.173 253.86 154.326 253.759C154.478 253.657 154.631 253.556 154.733 253.455C154.835 253.353 154.987 253.201 155.089 253.049C155.191 252.897 155.293 252.745 155.344 252.593C155.395 252.441 155.496 252.238 155.496 252.086C155.547 251.884 155.547 251.732 155.547 251.529C155.547 251.174 155.496 250.82 155.344 250.516C155.242 250.212 155.038 249.908 154.784 249.654C154.275 249.148 153.562 248.844 152.849 248.844C152.137 248.844 151.424 249.148 150.915 249.654C150.66 249.908 150.457 250.212 150.304 250.516C150.151 250.82 150.1 251.225 150.1 251.529C150.1 252.238 150.406 252.948 150.915 253.455C151.017 253.556 151.169 253.657 151.322 253.759Z" fill="#FFC77F"/>
<path d="M136.204 3.74963C136.255 3.90164 136.356 4.05365 136.458 4.20566C136.56 4.35768 136.662 4.50969 136.814 4.61103C136.967 4.71237 137.069 4.86438 137.222 4.96572C137.374 5.06706 137.527 5.16841 137.68 5.21908C137.833 5.26975 138.036 5.32042 138.189 5.37109C138.545 5.42176 138.902 5.42176 139.258 5.37109C139.461 5.32042 139.614 5.26975 139.767 5.21908C139.92 5.16841 140.072 5.06706 140.225 4.96572C140.378 4.86438 140.53 4.76304 140.632 4.61103C140.785 4.45902 140.887 4.35768 140.938 4.20566C141.09 4.05365 141.192 3.90164 141.243 3.74963C141.294 3.59762 141.345 3.4456 141.396 3.24292C141.447 3.09091 141.447 2.88823 141.447 2.73621C141.447 2.02683 141.141 1.31744 140.632 0.81073C140.429 0.557377 140.072 0.354694 139.767 0.202683C139.461 0.0506706 139.105 0 138.749 0C137.985 0 137.324 0.304024 136.814 0.81073C136.255 1.31744 136 1.97616 136 2.73621C136 2.9389 136 3.09091 136.051 3.24292C136.102 3.4456 136.102 3.59762 136.204 3.74963Z" fill="#FFC77F"/>
<path d="M138.749 129.818C140.276 129.818 141.498 128.602 141.498 127.082C141.498 125.562 140.276 124.346 138.749 124.346C137.222 124.346 136 125.612 136 127.133C136 128.653 137.222 129.818 138.749 129.818Z" fill="#FFC77F"/>
<path d="M138.749 147.604C140.276 147.604 141.498 146.387 141.498 144.867C141.498 143.347 140.276 142.131 138.749 142.131C137.222 142.131 136 143.398 136 144.867C136 146.387 137.222 147.604 138.749 147.604Z" fill="#FFC77F"/>
<path d="M138.749 183.124C140.276 183.124 141.498 181.908 141.498 180.388C141.498 178.867 140.276 177.651 138.749 177.651C137.222 177.651 136 178.918 136 180.438C136 181.908 137.222 183.124 138.749 183.124Z" fill="#FFC77F"/>
<path d="M138.749 165.389C140.276 165.389 141.498 164.173 141.498 162.653C141.498 161.183 140.276 159.917 138.749 159.917C137.222 159.917 136 161.183 136 162.653C136 164.173 137.222 165.389 138.749 165.389Z" fill="#FFC77F"/>
<path d="M138.749 236.48C140.276 236.48 141.498 235.264 141.498 233.744C141.498 232.223 140.276 231.007 138.749 231.007C137.222 231.007 136 232.223 136 233.744C136 235.264 137.222 236.48 138.749 236.48Z" fill="#FFC77F"/>
<path d="M138.749 200.909C140.276 200.909 141.498 199.693 141.498 198.173C141.498 196.653 140.276 195.437 138.749 195.437C137.222 195.437 136 196.704 136 198.173C136 199.693 137.222 200.909 138.749 200.909Z" fill="#FFC77F"/>
<path d="M138.749 218.695C140.276 218.695 141.498 217.478 141.498 215.958C141.498 214.438 140.276 213.222 138.749 213.222C137.222 213.222 136 214.489 136 215.958C136 217.478 137.222 218.695 138.749 218.695Z" fill="#FFC77F"/>
<path d="M138.749 58.7778C140.276 58.7778 141.498 57.5617 141.498 56.0416C141.498 54.5215 140.276 53.3054 138.749 53.3054C137.222 53.3054 136 54.5215 136 56.0416C136 57.5617 137.222 58.7778 138.749 58.7778Z" fill="#FFC77F"/>
<path d="M138.749 112.084C140.276 112.084 141.498 110.867 141.498 109.347C141.498 107.827 140.276 106.611 138.749 106.611C137.222 106.611 136 107.827 136 109.347C136 110.867 137.222 112.084 138.749 112.084Z" fill="#FFC77F"/>
<path d="M138.749 40.9926C140.276 40.9926 141.498 39.7765 141.498 38.2563C141.498 36.7362 140.225 35.5708 138.749 35.5708C137.273 35.5708 136 36.7869 136 38.2563C136 39.7258 137.222 40.9926 138.749 40.9926Z" fill="#FFC77F"/>
<path d="M138.749 94.2981C140.276 94.2981 141.498 93.082 141.498 91.5619C141.498 90.0418 140.276 88.8257 138.749 88.8257C137.222 88.8257 136 90.0418 136 91.5619C136 93.082 137.222 94.2981 138.749 94.2981Z" fill="#FFC77F"/>
<path d="M138.749 76.5127C140.276 76.5127 141.498 75.2966 141.498 73.7765C141.498 72.307 140.276 71.0403 138.749 71.0403C137.222 71.0403 136 72.307 136 73.7765C136 75.2966 137.222 76.5127 138.749 76.5127Z" fill="#FFC77F"/>
<path d="M138.749 23.2072C140.276 23.2072 141.498 21.9911 141.498 20.4709C141.498 18.9508 140.225 17.7854 138.749 17.7854C137.273 17.7854 136 19.0015 136 20.4709C136 21.9404 137.222 23.2072 138.749 23.2072Z" fill="#FFC77F"/>
<path d="M137.222 253.759C137.374 253.86 137.527 253.961 137.68 254.012C137.833 254.063 138.036 254.164 138.189 254.164C138.545 254.215 138.902 254.215 139.258 254.164C139.461 254.113 139.614 254.063 139.767 254.012C139.92 253.961 140.072 253.86 140.225 253.759C140.378 253.657 140.53 253.556 140.632 253.455C140.785 253.353 140.887 253.201 140.989 253.049C141.09 252.897 141.192 252.745 141.243 252.593C141.294 252.441 141.345 252.239 141.396 252.087C141.447 251.884 141.447 251.732 141.447 251.529C141.447 251.174 141.396 250.82 141.243 250.516C141.09 250.161 140.938 249.857 140.683 249.604C140.174 249.097 139.461 248.793 138.749 248.793C138.036 248.793 137.324 249.097 136.814 249.604C136.56 249.857 136.356 250.161 136.204 250.465C136.051 250.769 136 251.175 136 251.479C136 252.188 136.305 252.897 136.814 253.404C136.916 253.556 137.069 253.657 137.222 253.759Z" fill="#FFC77F"/>
<path d="M206.757 270.328C206.808 270.48 206.91 270.632 207.011 270.784C207.113 270.936 207.215 271.088 207.368 271.189C207.47 271.291 207.622 271.443 207.775 271.493C207.928 271.595 208.08 271.696 208.233 271.747C208.386 271.797 208.539 271.899 208.742 271.899C209.098 271.949 209.455 271.949 209.811 271.899C210.015 271.848 210.167 271.797 210.32 271.747C210.473 271.696 210.626 271.595 210.778 271.493C210.931 271.392 211.084 271.291 211.186 271.189C211.338 271.088 211.44 270.936 211.542 270.784C211.644 270.632 211.745 270.48 211.796 270.328C211.847 270.176 211.898 269.973 211.949 269.821C212 269.618 212 269.466 212 269.264C212 268.909 211.949 268.554 211.796 268.25C211.644 267.946 211.44 267.642 211.186 267.389C210.931 267.136 210.626 266.933 210.269 266.781C209.964 266.629 209.608 266.578 209.251 266.578C208.539 266.578 207.826 266.882 207.317 267.389C206.808 267.896 206.502 268.605 206.502 269.314C206.502 269.517 206.502 269.669 206.553 269.872C206.604 269.973 206.655 270.125 206.757 270.328Z" fill="#FFC77F"/>
<path d="M195.66 271.949C195.863 271.899 196.016 271.848 196.169 271.797C196.322 271.747 196.474 271.645 196.627 271.544C196.78 271.443 196.932 271.341 197.034 271.24C197.543 270.733 197.849 270.024 197.849 269.314C197.849 268.96 197.798 268.605 197.645 268.301C197.492 267.997 197.289 267.693 197.034 267.44C196.78 267.186 196.474 266.984 196.118 266.832C195.812 266.68 195.456 266.629 195.1 266.629C194.387 266.629 193.675 266.933 193.165 267.44C192.911 267.693 192.707 267.997 192.555 268.301C192.453 268.605 192.351 269.01 192.351 269.314C192.351 270.024 192.656 270.733 193.165 271.24C193.878 271.797 194.794 272.101 195.66 271.949Z" fill="#FFC77F"/>
<path d="M178.505 270.328C178.556 270.48 178.658 270.632 178.76 270.784C178.861 270.936 178.963 271.088 179.116 271.189C179.269 271.291 179.37 271.443 179.523 271.493C179.676 271.595 179.829 271.696 179.981 271.747C180.134 271.797 180.287 271.899 180.49 271.899C180.847 271.949 181.203 271.949 181.559 271.899C181.763 271.848 181.916 271.797 182.068 271.747C182.221 271.696 182.374 271.595 182.526 271.493C182.679 271.392 182.832 271.291 182.934 271.189C183.036 271.088 183.188 270.936 183.29 270.784C183.392 270.632 183.494 270.48 183.545 270.328C183.595 270.176 183.646 269.973 183.697 269.821C183.748 269.618 183.748 269.466 183.748 269.264C183.748 268.909 183.697 268.554 183.545 268.25C183.392 267.946 183.188 267.642 182.934 267.389C182.425 266.882 181.712 266.578 180.999 266.578C180.643 266.578 180.287 266.629 179.981 266.781C179.625 266.882 179.32 267.085 179.065 267.389C178.81 267.642 178.607 267.946 178.454 268.25C178.352 268.554 178.251 268.96 178.251 269.264C178.251 269.466 178.251 269.618 178.301 269.821C178.403 269.973 178.454 270.125 178.505 270.328Z" fill="#FFC77F"/>
<path d="M167.459 271.949C167.662 271.899 167.815 271.848 167.968 271.797C168.121 271.747 168.273 271.645 168.426 271.544C168.579 271.443 168.731 271.341 168.833 271.24C169.342 270.733 169.648 270.024 169.648 269.314C169.648 268.96 169.597 268.605 169.444 268.301C169.342 267.997 169.139 267.693 168.884 267.44C168.63 267.186 168.324 266.984 167.968 266.832C167.662 266.68 167.306 266.629 166.95 266.629C166.593 266.629 166.237 266.68 165.881 266.832C165.575 266.933 165.27 267.136 165.015 267.44C164.761 267.693 164.557 267.997 164.405 268.301C164.303 268.605 164.201 269.01 164.201 269.314C164.201 270.024 164.506 270.733 165.015 271.24C165.626 271.797 166.593 272.101 167.459 271.949Z" fill="#FFC77F"/>
<path d="M151.322 271.544C151.475 271.645 151.628 271.747 151.78 271.797C151.933 271.848 152.137 271.949 152.289 271.949C152.646 272 153.002 272 153.358 271.949C153.562 271.899 153.715 271.848 153.867 271.797C154.02 271.747 154.173 271.645 154.326 271.544C154.478 271.443 154.631 271.341 154.733 271.24C154.835 271.139 154.987 270.987 155.089 270.835C155.191 270.683 155.293 270.531 155.344 270.379C155.395 270.227 155.496 270.024 155.496 269.872C155.547 269.669 155.547 269.517 155.547 269.314C155.547 268.96 155.496 268.605 155.344 268.301C155.242 267.997 155.038 267.693 154.784 267.44C154.275 266.933 153.562 266.629 152.849 266.629C152.137 266.629 151.424 266.933 150.915 267.44C150.66 267.693 150.457 267.997 150.304 268.301C150.151 268.605 150.1 269.01 150.1 269.314C150.1 270.024 150.406 270.733 150.915 271.24C151.017 271.291 151.169 271.443 151.322 271.544Z" fill="#FFC77F"/>
<path d="M137.222 271.544C137.374 271.645 137.527 271.747 137.68 271.797C137.833 271.848 138.036 271.949 138.189 271.949C138.545 272 138.902 272 139.258 271.949C139.461 271.899 139.614 271.848 139.767 271.797C139.92 271.747 140.072 271.645 140.225 271.544C140.378 271.443 140.53 271.341 140.632 271.24C140.785 271.139 140.887 270.987 140.989 270.835C141.09 270.683 141.192 270.531 141.243 270.379C141.294 270.227 141.345 270.024 141.396 269.872C141.447 269.669 141.447 269.517 141.447 269.314C141.447 268.96 141.396 268.605 141.243 268.301C141.09 267.896 140.938 267.592 140.683 267.338C140.174 266.832 139.461 266.528 138.749 266.528C138.036 266.528 137.324 266.832 136.814 267.338C136.56 267.592 136.356 267.896 136.204 268.2C136.051 268.554 136 268.909 136 269.264C136 269.973 136.305 270.683 136.814 271.189C136.916 271.291 137.069 271.443 137.222 271.544Z" fill="#FFC77F"/>
<path d="M342.986 101.444L169.921 31L0.0508423 98.2386V114.063L173.116 176.933L343 117.269L342.986 101.444Z" fill="#333333"/>
<path d="M342.985 117.269L173.094 176.933L0 114.063L169.892 46.8174L342.985 117.269Z" fill="black"/>
<path d="M291.322 206.184L291.496 133.166H291.648C291.431 119.355 241.168 100.667 173.479 100.667C105.789 100.667 50.8724 121.311 50.6473 133.275L50.8942 206.155L291.322 206.184Z" fill="#333333"/>
<path d="M291.336 206.489C291.336 223.644 237.596 237.782 170.85 237.782C104.097 237.782 50.8433 223.426 50.8433 206.271C50.8433 189.123 104.097 170.158 170.85 170.158C237.596 170.158 291.336 189.341 291.336 206.489Z" fill="black"/>
<path d="M252.488 263.289H240.638L240.696 59.7998L252.547 64.5319L252.488 263.289Z" fill="#CC4331"/>
<path d="M264.012 296H228.17L233.682 258.201H258.501L264.012 296Z" fill="#CC4331"/>
<path d="M27.5354 194.2L13.002 208.774C12.0547 210.312 11.1978 211.914 10.4388 213.57L32.3182 191.63C30.6673 192.391 29.07 193.25 27.5354 194.2Z" fill="#FFC778"/>
<path d="M39.3042 189.102L7.91812 220.575C7.66328 221.531 7.43798 222.497 7.24408 223.477L42.1961 188.428C41.2192 188.62 40.2552 188.846 39.3042 189.102Z" fill="#FFC778"/>
<path d="M47.3705 187.713L6.53311 228.664C6.47217 229.441 6.43154 230.223 6.41122 231.01L49.7102 187.591C48.9254 187.613 48.1461 187.654 47.3705 187.713Z" fill="#FFC778"/>
<path d="M54.0739 187.695L6.51462 235.386C6.56263 236.067 6.62912 236.745 6.70668 237.419L56.1015 187.887C55.4293 187.809 54.7534 187.743 54.0739 187.695Z" fill="#FFC778"/>
<path d="M59.9426 188.511L7.32718 241.273C7.45275 241.88 7.59125 242.484 7.74268 243.082L61.7468 188.928C61.1504 188.776 60.5502 188.637 59.9426 188.511Z" fill="#FFC778"/>
<path d="M65.1946 189.946L8.76022 246.537C8.94674 247.087 9.14617 247.63 9.353 248.169L66.8233 190.539C66.2841 190.333 65.7412 190.133 65.1946 189.946Z" fill="#FFC778"/>
<path d="M69.9442 191.885L10.6918 251.302C10.9301 251.802 11.1757 252.297 11.4305 252.785L71.4216 192.628C70.9359 192.37 70.4428 192.124 69.9442 191.885Z" fill="#FFC778"/>
<path d="M74.2673 194.254L13.0556 255.635C13.3381 256.091 13.6262 256.544 13.9253 256.989L75.6172 195.126C75.1722 194.826 74.7216 194.537 74.2673 194.254Z" fill="#FFC778"/>
<path d="M78.2044 197.007L15.7997 259.583C16.1229 260 16.4553 260.407 16.7933 260.811L79.4288 198.002C79.0262 197.665 78.6181 197.331 78.2044 197.007Z" fill="#FFC778"/>
<path d="M81.7759 200.126L18.9095 263.167C19.2733 263.544 19.6427 263.915 20.0194 264.278L82.8839 201.239C82.5219 200.861 82.1526 200.491 81.7759 200.126Z" fill="#FFC778"/>
<path d="M84.9965 203.6L22.3739 266.394C22.7783 266.733 23.1864 267.063 23.6019 267.387L85.9844 204.831C85.6631 204.414 85.3344 204.003 84.9965 203.6Z" fill="#FFC778"/>
<path d="M87.857 207.433L26.1965 269.264C26.6416 269.563 27.0921 269.851 27.5483 270.135L88.7249 208.788C88.4424 208.331 88.1543 207.879 87.857 207.433Z" fill="#FFC778"/>
<path d="M90.3408 211.644L30.3977 271.753C30.8871 272.009 31.382 272.253 31.8824 272.49L91.0776 213.131C90.8394 212.631 90.5938 212.135 90.3408 211.644Z" fill="#FFC778"/>
<path d="M92.409 216.271L35.0107 273.829C35.5499 274.035 36.0928 274.235 36.6413 274.42L92.9981 217.907C92.8135 217.357 92.6159 216.812 92.409 216.271Z" fill="#FFC778"/>
<path d="M94.0064 221.371L40.0983 275.429C40.6966 275.579 41.2986 275.718 41.9062 275.842L94.42 223.182C94.2945 222.575 94.156 221.971 94.0064 221.371Z" fill="#FFC778"/>
<path d="M95.0276 227.049L45.7602 276.453C46.4342 276.531 47.1119 276.592 47.7934 276.64L95.2141 229.088C95.168 228.404 95.1052 227.725 95.0276 227.049Z" fill="#FFC778"/>
<path d="M95.2991 233.478L52.17 276.727C52.9585 276.705 53.7415 276.66 54.519 276.596L95.168 235.834C95.2326 235.054 95.2769 234.269 95.2991 233.478Z" fill="#FFC778"/>
<path d="M94.4367 241.045L59.7173 275.861C60.7016 275.661 61.673 275.427 62.6314 275.164L93.7423 243.967C94.0045 243.006 94.2372 242.032 94.4367 241.045Z" fill="#FFC778"/>
<path d="M91.1403 251.052L69.6967 272.555C71.3938 271.759 73.0319 270.857 74.6034 269.861L88.4534 255.972C89.4488 254.398 90.3463 252.754 91.1403 251.052Z" fill="#FFC778"/>
<path d="M263.579 46.6791L252.057 58.233C251.306 59.453 250.627 60.7229 250.025 62.0353L267.371 44.6414C266.062 45.2447 264.795 45.9259 263.579 46.6791Z" fill="#8FD2FF"/>
<path d="M272.909 42.6374L248.026 67.5891C247.824 68.3467 247.646 69.113 247.492 69.8896L275.202 42.103C274.427 42.2557 273.663 42.4348 272.909 42.6374Z" fill="#8FD2FF"/>
<path d="M279.304 41.5363L246.928 74.0018C246.88 74.6184 246.848 75.2379 246.832 75.8618L281.159 41.4395C280.537 41.4571 279.919 41.4894 279.304 41.5363Z" fill="#8FD2FF"/>
<path d="M284.618 41.5217L246.914 79.331C246.952 79.8713 247.005 80.4086 247.066 80.943L286.226 41.6744C285.693 41.6128 285.157 41.5599 284.618 41.5217Z" fill="#8FD2FF"/>
<path d="M289.271 42.1692L247.558 83.9981C247.658 84.4797 247.767 84.9583 247.887 85.4324L290.701 42.4995C290.229 42.3791 289.753 42.269 289.271 42.1692Z" fill="#8FD2FF"/>
<path d="M293.435 43.3069L248.694 88.1718C248.842 88.6078 249 89.038 249.164 89.4652L294.726 43.7767C294.299 43.6137 293.868 43.4552 293.435 43.3069Z" fill="#8FD2FF"/>
<path d="M297.2 44.844L250.225 91.9492C250.414 92.3456 250.609 92.7376 250.811 93.1252L298.372 45.4327C297.986 45.2286 297.596 45.0334 297.2 44.844Z" fill="#8FD2FF"/>
<path d="M300.628 46.7217L252.099 95.3846C252.323 95.7457 252.552 96.1054 252.789 96.4578L301.698 47.4132C301.345 47.1753 300.988 46.9463 300.628 46.7217Z" fill="#8FD2FF"/>
<path d="M303.749 48.9048L254.275 98.5146C254.531 98.8449 254.795 99.1679 255.063 99.488L304.72 49.6932C304.4 49.426 304.077 49.1617 303.749 48.9048Z" fill="#8FD2FF"/>
<path d="M306.58 51.377L256.74 101.355C257.029 101.655 257.322 101.948 257.62 102.236L307.459 52.2593C307.172 51.9598 306.879 51.6662 306.58 51.377Z" fill="#8FD2FF"/>
<path d="M309.134 54.1311L259.487 103.914C259.807 104.183 260.131 104.444 260.46 104.701L309.917 55.1074C309.662 54.7771 309.402 54.4511 309.134 54.1311Z" fill="#8FD2FF"/>
<path d="M311.401 57.1702L262.517 106.19C262.87 106.426 263.227 106.655 263.589 106.88L312.09 58.2448C311.866 57.8822 311.637 57.524 311.401 57.1702Z" fill="#8FD2FF"/>
<path d="M313.371 60.5085L265.848 108.163C266.236 108.365 266.628 108.559 267.025 108.747L313.955 61.6874C313.766 61.291 313.571 60.8976 313.371 60.5085Z" fill="#8FD2FF"/>
<path d="M315.01 64.1772L269.505 109.809C269.933 109.971 270.363 110.13 270.798 110.277L315.477 65.4736C315.331 65.0375 315.174 64.6059 315.01 64.1772Z" fill="#8FD2FF"/>
<path d="M316.277 68.2205L273.539 111.077C274.013 111.196 274.49 111.306 274.972 111.404L316.605 69.6563C316.505 69.1747 316.395 68.6961 316.277 68.2205Z" fill="#8FD2FF"/>
<path d="M317.086 72.7217L278.027 111.889C278.562 111.951 279.099 111.999 279.639 112.037L317.234 74.3381C317.198 73.7963 317.148 73.2575 317.086 72.7217Z" fill="#8FD2FF"/>
<path d="M317.301 77.8188L283.109 112.106C283.734 112.089 284.355 112.053 284.971 112.002L317.198 79.6863C317.249 79.0682 317.284 78.4457 317.301 77.8188Z" fill="#8FD2FF"/>
<path d="M316.618 83.8174L289.092 111.419C289.873 111.26 290.643 111.075 291.403 110.867L316.067 86.134C316.275 85.3721 316.46 84.5999 316.618 83.8174Z" fill="#8FD2FF"/>
<path d="M314.004 91.751L297.004 108.798C298.35 108.167 299.648 107.452 300.894 106.662L311.874 95.6517C312.663 94.4038 313.375 93.1002 314.004 91.751Z" fill="#8FD2FF"/>
<path d="M22.4577 75.9882L19.2336 81.591L16.0096 75.9882L10.4182 72.7576L16.0096 69.527L19.2336 63.9243L22.4577 69.527L28.0491 72.7576L22.4577 75.9882Z" fill="#FFB9B5"/>
<path d="M304.551 224.549L301.327 230.152L298.103 224.549L292.512 221.318L298.103 218.088L301.327 212.485L304.551 218.088L310.143 221.318L304.551 224.549Z" fill="#FFB9B5"/>
</svg>
