<svg width="480" height="342" viewBox="0 0 480 342" fill="none" xmlns="http://www.w3.org/2000/svg">
<g filter="url(#filter0_d)">
<g opacity="0.5" clip-path="url(#clip0)">
<path d="M202.357 12.2107C202.508 12.1601 202.659 12.0589 202.811 11.9577C202.962 11.8566 203.113 11.7554 203.213 11.6036C203.314 11.5024 203.465 11.3507 203.566 11.1989C203.667 11.0471 203.767 10.8954 203.818 10.7436C203.868 10.5918 203.918 10.4401 203.969 10.2377C204.019 9.88359 204.019 9.52947 203.969 9.17535C203.918 8.97299 203.868 8.82122 203.818 8.66946C203.767 8.51769 203.667 8.36593 203.566 8.21416C203.465 8.06239 203.364 7.91062 203.213 7.80944C203.062 7.65768 202.962 7.5565 202.811 7.45532C202.659 7.35415 202.508 7.25297 202.357 7.20238C202.206 7.15179 202.055 7.1012 201.854 7.05061C201.703 7.00002 201.501 7.00002 201.35 7.00002C200.998 7.00002 200.645 7.05061 200.343 7.20238C199.991 7.35415 199.688 7.5565 199.437 7.80944C198.933 8.31533 198.631 8.97299 198.631 9.73182C198.631 10.0859 198.681 10.4401 198.832 10.7436C198.983 11.0471 199.185 11.4013 199.437 11.6542C199.94 12.1601 200.645 12.4636 201.35 12.4636C201.552 12.4636 201.703 12.4636 201.854 12.413C202.055 12.3624 202.206 12.3119 202.357 12.2107Z" fill="#B0B7C7"/>
<path d="M362.996 9.73182C362.996 8.21416 361.787 7.00002 360.276 7.00002C358.816 7.00002 357.557 8.21416 357.557 9.73182C357.557 11.2495 358.766 12.4636 360.276 12.4636C361.787 12.413 362.996 11.1989 362.996 9.73182Z" fill="#B0B7C7"/>
<path d="M380.621 9.73182C380.621 8.21416 379.412 7.00002 377.901 7.00002C376.391 7.00002 375.182 8.21416 375.182 9.73182C375.182 11.2495 376.391 12.4636 377.901 12.4636C379.412 12.413 380.621 11.1989 380.621 9.73182Z" fill="#B0B7C7"/>
<path d="M345.32 9.73182C345.32 8.21416 344.112 7.00002 342.601 7.00002C341.09 7.00002 339.882 8.21416 339.882 9.73182C339.882 11.2495 341.09 12.4636 342.601 12.4636C344.112 12.413 345.32 11.1989 345.32 9.73182Z" fill="#B0B7C7"/>
<path d="M415.971 9.73182C415.971 8.21416 414.763 7.00002 413.252 7.00002C411.741 7.00002 410.533 8.21416 410.533 9.73182C410.533 11.2495 411.741 12.4636 413.252 12.4636C414.763 12.413 415.971 11.1989 415.971 9.73182Z" fill="#B0B7C7"/>
<path d="M398.296 9.73182C398.296 8.21416 397.087 7.00002 395.577 7.00002C394.066 7.00002 392.857 8.21416 392.857 9.73182C392.857 11.2495 394.066 12.4636 395.577 12.4636C397.087 12.413 398.296 11.1989 398.296 9.73182Z" fill="#B0B7C7"/>
<path d="M433.646 9.73182C433.646 8.21416 432.438 7.00002 430.927 7.00002C429.416 7.00002 428.208 8.21416 428.208 9.73182C428.208 11.2495 429.416 12.4636 430.927 12.4636C432.438 12.413 433.646 11.1989 433.646 9.73182Z" fill="#B0B7C7"/>
<path d="M327.645 9.73182C327.645 8.21416 326.437 7.00002 324.926 7.00002C323.415 7.00002 322.207 8.21416 322.207 9.73182C322.207 11.2495 323.415 12.4636 324.926 12.4636C326.437 12.4636 327.645 11.1989 327.645 9.73182Z" fill="#B0B7C7"/>
<path d="M257.045 9.73182C257.045 8.21416 255.836 7.00002 254.326 7.00002C252.815 7.00002 251.606 8.21416 251.606 9.73182C251.606 11.2495 252.815 12.4636 254.326 12.4636C255.836 12.413 257.045 11.1989 257.045 9.73182Z" fill="#B0B7C7"/>
<path d="M239.37 9.73182C239.37 8.21416 238.161 7.00002 236.65 7.00002C235.14 7.00002 233.931 8.21416 233.931 9.73182C233.931 11.2495 235.14 12.4636 236.65 12.4636C238.161 12.4636 239.37 11.1989 239.37 9.73182Z" fill="#B0B7C7"/>
<path d="M310.02 9.73182C310.02 8.21416 308.812 7.00002 307.301 7.00002C305.79 7.00002 304.582 8.21416 304.582 9.73182C304.582 11.2495 305.79 12.4636 307.301 12.4636C308.812 12.413 310.02 11.1989 310.02 9.73182Z" fill="#B0B7C7"/>
<path d="M221.694 9.73182C221.694 8.21416 220.486 7.00002 218.975 7.00002C217.464 7.00002 216.256 8.21416 216.256 9.73182C216.256 11.2495 217.464 12.4636 218.975 12.4636C220.486 12.4636 221.694 11.1989 221.694 9.73182Z" fill="#B0B7C7"/>
<path d="M292.345 9.73182C292.345 8.21416 291.136 7.00002 289.626 7.00002C288.115 7.00002 286.906 8.21416 286.906 9.73182C286.906 11.2495 288.115 12.4636 289.626 12.4636C291.136 12.4636 292.345 11.1989 292.345 9.73182Z" fill="#B0B7C7"/>
<path d="M274.67 9.73182C274.67 8.21416 273.461 7.00002 271.95 7.00002C270.49 7.00002 269.231 8.21416 269.231 9.73182C269.231 11.2495 270.44 12.4636 271.95 12.4636C273.461 12.413 274.67 11.1989 274.67 9.73182Z" fill="#B0B7C7"/>
<path d="M449.61 12.2107C449.761 12.1601 449.912 12.0589 450.063 11.9577C450.214 11.8566 450.365 11.7554 450.466 11.6036C450.566 11.5024 450.717 11.3507 450.768 11.1989C450.868 11.0471 450.969 10.8954 451.02 10.7436C451.07 10.5918 451.171 10.4401 451.171 10.2377C451.221 9.88359 451.221 9.52947 451.171 9.17535C451.12 8.97299 451.07 8.82122 451.02 8.66946C450.969 8.51769 450.868 8.36593 450.768 8.21416C450.667 8.06239 450.566 7.91062 450.466 7.80944C450.365 7.65768 450.214 7.5565 450.063 7.45532C449.912 7.35415 449.761 7.25297 449.61 7.20238C449.458 7.15179 449.257 7.1012 449.106 7.05061C448.905 7.00002 448.753 7.00002 448.552 7.00002C448.2 7.00002 447.847 7.05061 447.545 7.20238C447.243 7.35415 446.941 7.5565 446.689 7.80944C446.437 8.06239 446.236 8.36592 446.085 8.72005C445.933 9.02358 445.883 9.3777 445.883 9.73182C445.883 10.4401 446.185 11.1483 446.689 11.6542C447.192 12.1601 447.897 12.4636 448.602 12.4636C448.804 12.4636 448.955 12.4636 449.156 12.413C449.257 12.3624 449.458 12.3119 449.61 12.2107Z" fill="#B0B7C7"/>
<path d="M202.357 26.2745C202.508 26.2239 202.659 26.1227 202.811 26.0215C202.962 25.9203 203.113 25.8191 203.213 25.6674C203.314 25.5662 203.465 25.4144 203.566 25.2627C203.667 25.1109 203.767 24.9591 203.818 24.8074C203.868 24.6556 203.918 24.5038 203.969 24.3015C204.019 23.9474 204.019 23.5932 203.969 23.2391C203.918 23.0368 203.868 22.885 203.818 22.7332C203.767 22.5815 203.667 22.4297 203.566 22.2779C203.465 22.1262 203.364 21.9744 203.213 21.8732C203.062 21.772 202.962 21.6203 202.811 21.5191C202.659 21.4179 202.508 21.3167 202.357 21.2661C202.206 21.2155 202.055 21.165 201.854 21.1144C201.703 21.0638 201.501 21.0638 201.35 21.0638C200.998 21.0638 200.645 21.1144 200.343 21.2661C199.94 21.3673 199.688 21.5697 199.437 21.8226C198.933 22.3285 198.631 23.0368 198.631 23.745C198.631 24.0991 198.681 24.4532 198.832 24.7568C198.983 25.1109 199.185 25.4144 199.437 25.6674C199.94 26.1733 200.645 26.4768 201.35 26.4768C201.552 26.4768 201.703 26.4768 201.854 26.4262C202.055 26.3756 202.206 26.325 202.357 26.2745Z" fill="#B0B7C7"/>
<path d="M398.296 23.745C398.296 22.2273 397.087 21.0132 395.577 21.0132C394.066 21.0132 392.857 22.2273 392.857 23.745C392.857 25.2627 394.066 26.4768 395.577 26.4768C397.087 26.4768 398.296 25.2627 398.296 23.745Z" fill="#B0B7C7"/>
<path d="M362.996 23.745C362.996 22.2273 361.787 21.0132 360.276 21.0132C358.816 21.0132 357.557 22.2273 357.557 23.745C357.557 25.2627 358.766 26.4768 360.276 26.4768C361.787 26.4768 362.996 25.2627 362.996 23.745Z" fill="#B0B7C7"/>
<path d="M380.621 23.745C380.621 22.2273 379.412 21.0132 377.901 21.0132C376.391 21.0132 375.182 22.2273 375.182 23.745C375.182 25.2627 376.391 26.4768 377.901 26.4768C379.412 26.4768 380.621 25.2627 380.621 23.745Z" fill="#B0B7C7"/>
<path d="M415.971 23.745C415.971 22.2273 414.763 21.0132 413.252 21.0132C411.741 21.0132 410.533 22.2273 410.533 23.745C410.533 25.2627 411.741 26.4768 413.252 26.4768C414.763 26.4768 415.971 25.2627 415.971 23.745Z" fill="#B0B7C7"/>
<path d="M345.32 23.745C345.32 22.2273 344.112 21.0132 342.601 21.0132C341.09 21.0132 339.882 22.2273 339.882 23.745C339.882 25.2627 341.09 26.4768 342.601 26.4768C344.112 26.4768 345.32 25.2627 345.32 23.745Z" fill="#B0B7C7"/>
<path d="M433.646 23.745C433.646 22.2273 432.438 21.0132 430.927 21.0132C429.416 21.0132 428.208 22.2273 428.208 23.745C428.208 25.2627 429.416 26.4768 430.927 26.4768C432.438 26.4768 433.646 25.2627 433.646 23.745Z" fill="#B0B7C7"/>
<path d="M221.694 23.745C221.694 22.2273 220.486 21.0132 218.975 21.0132C217.464 21.0132 216.256 22.2273 216.256 23.745C216.256 25.2627 217.464 26.4768 218.975 26.4768C220.486 26.4768 221.694 25.2627 221.694 23.745Z" fill="#B0B7C7"/>
<path d="M257.045 23.745C257.045 22.2273 255.836 21.0132 254.326 21.0132C252.815 21.0132 251.606 22.2273 251.606 23.745C251.606 25.2627 252.815 26.4768 254.326 26.4768C255.836 26.4768 257.045 25.2627 257.045 23.745Z" fill="#B0B7C7"/>
<path d="M274.67 23.745C274.67 22.2273 273.461 21.0132 271.95 21.0132C270.49 21.0132 269.231 22.2273 269.231 23.745C269.231 25.2627 270.44 26.4768 271.95 26.4768C273.461 26.4768 274.67 25.2627 274.67 23.745Z" fill="#B0B7C7"/>
<path d="M239.37 23.745C239.37 22.2273 238.161 21.0132 236.65 21.0132C235.14 21.0132 233.931 22.2273 233.931 23.745C233.931 25.2627 235.14 26.4768 236.65 26.4768C238.161 26.4768 239.37 25.2627 239.37 23.745Z" fill="#B0B7C7"/>
<path d="M327.645 23.745C327.645 22.2273 326.437 21.0132 324.926 21.0132C323.415 21.0132 322.207 22.2273 322.207 23.745C322.207 25.2627 323.415 26.4768 324.926 26.4768C326.437 26.4768 327.645 25.2627 327.645 23.745Z" fill="#B0B7C7"/>
<path d="M310.02 23.745C310.02 22.2273 308.812 21.0132 307.301 21.0132C305.79 21.0132 304.582 22.2273 304.582 23.745C304.582 25.2627 305.79 26.4768 307.301 26.4768C308.812 26.4768 310.02 25.2627 310.02 23.745Z" fill="#B0B7C7"/>
<path d="M292.345 23.745C292.345 22.2273 291.136 21.0132 289.626 21.0132C288.115 21.0132 286.906 22.2273 286.906 23.745C286.906 25.2627 288.115 26.4768 289.626 26.4768C291.136 26.4768 292.345 25.2627 292.345 23.745Z" fill="#B0B7C7"/>
<path d="M451.221 23.2391C451.17 23.0367 451.12 22.8849 451.07 22.7332C451.019 22.5814 450.919 22.4296 450.818 22.2779C450.717 22.1261 450.617 21.9743 450.516 21.8732C450.012 21.3673 449.307 21.0637 448.602 21.0637C448.25 21.0637 447.897 21.1143 447.595 21.2661C447.293 21.4179 446.991 21.6202 446.739 21.8732C446.487 22.1261 446.286 22.4296 446.135 22.7838C445.984 23.0873 445.933 23.4414 445.933 23.7955C445.933 24.5038 446.236 25.212 446.739 25.7179C446.991 25.9709 447.293 26.1732 447.595 26.325C447.897 26.4262 448.3 26.5273 448.602 26.5273C449.307 26.5273 450.012 26.2238 450.516 25.7179C451.12 25.0097 451.422 24.0991 451.221 23.2391Z" fill="#B0B7C7"/>
<path d="M202.357 40.2876C202.508 40.1865 202.659 40.1359 202.811 40.0347C202.962 39.9335 203.113 39.8323 203.213 39.6806C203.364 39.5288 203.465 39.4276 203.566 39.2759C203.667 39.1241 203.767 38.9723 203.818 38.77C203.868 38.6182 203.918 38.4664 203.969 38.2641C204.019 37.91 204.019 37.5558 203.969 37.2017C203.918 36.9994 203.868 36.8476 203.818 36.6958C203.767 36.544 203.667 36.3923 203.566 36.2405C203.465 36.0888 203.364 35.9876 203.264 35.8358C203.113 35.7346 202.962 35.5829 202.811 35.4817C202.659 35.4311 202.508 35.3299 202.357 35.2793C202.206 35.2287 202.055 35.1781 201.854 35.1276C201.703 35.077 201.501 35.077 201.35 35.077C200.998 35.077 200.645 35.1276 200.343 35.2793C199.94 35.3805 199.688 35.5829 199.437 35.8358C198.933 36.3417 198.631 37.0499 198.631 37.7582C198.631 38.1123 198.681 38.4664 198.832 38.77C198.983 39.1241 199.185 39.4276 199.437 39.6806C199.94 40.1865 200.645 40.49 201.35 40.49C201.552 40.49 201.703 40.49 201.854 40.4394C202.055 40.3888 202.206 40.3382 202.357 40.2876Z" fill="#B0B7C7"/>
<path d="M380.621 37.7582C380.621 36.2405 379.412 35.0264 377.901 35.0264C376.391 35.0264 375.182 36.2405 375.182 37.7582C375.182 39.2759 376.391 40.49 377.901 40.49C379.412 40.49 380.621 39.2759 380.621 37.7582Z" fill="#B0B7C7"/>
<path d="M362.996 37.7582C362.996 36.2405 361.787 35.0264 360.276 35.0264C358.816 35.0264 357.557 36.2405 357.557 37.7582C357.557 39.2759 358.766 40.49 360.276 40.49C361.787 40.49 362.996 39.2759 362.996 37.7582Z" fill="#B0B7C7"/>
<path d="M398.296 37.7582C398.296 36.2405 397.087 35.0264 395.577 35.0264C394.066 35.0264 392.857 36.2405 392.857 37.7582C392.857 39.2759 394.066 40.49 395.577 40.49C397.087 40.49 398.296 39.2759 398.296 37.7582Z" fill="#B0B7C7"/>
<path d="M345.32 37.7582C345.32 36.2405 344.112 35.0264 342.601 35.0264C341.09 35.0264 339.882 36.2405 339.882 37.7582C339.882 39.2759 341.09 40.49 342.601 40.49C344.112 40.49 345.32 39.2759 345.32 37.7582Z" fill="#B0B7C7"/>
<path d="M415.971 37.7582C415.971 36.2405 414.763 35.0264 413.252 35.0264C411.741 35.0264 410.533 36.2405 410.533 37.7582C410.533 39.2759 411.741 40.49 413.252 40.49C414.763 40.49 415.971 39.2759 415.971 37.7582Z" fill="#B0B7C7"/>
<path d="M433.646 37.7582C433.646 36.2405 432.438 35.0264 430.927 35.0264C429.416 35.0264 428.208 36.2405 428.208 37.7582C428.208 39.2759 429.416 40.49 430.927 40.49C432.438 40.49 433.646 39.2759 433.646 37.7582Z" fill="#B0B7C7"/>
<path d="M292.345 37.7582C292.345 36.2405 291.136 35.0264 289.626 35.0264C288.115 35.0264 286.906 36.2405 286.906 37.7582C286.906 39.2759 288.115 40.49 289.626 40.49C291.136 40.49 292.345 39.2759 292.345 37.7582Z" fill="#B0B7C7"/>
<path d="M257.045 37.7582C257.045 36.2405 255.836 35.0264 254.326 35.0264C252.815 35.0264 251.606 36.2405 251.606 37.7582C251.606 39.2759 252.815 40.49 254.326 40.49C255.836 40.49 257.045 39.2759 257.045 37.7582Z" fill="#B0B7C7"/>
<path d="M239.37 37.7582C239.37 36.2405 238.161 35.0264 236.65 35.0264C235.14 35.0264 233.981 36.2405 233.981 37.7582C233.981 39.2759 235.19 40.49 236.701 40.49C238.211 40.49 239.37 39.2759 239.37 37.7582Z" fill="#B0B7C7"/>
<path d="M274.67 37.7582C274.67 36.2405 273.461 35.0264 271.95 35.0264C270.49 35.0264 269.231 36.2405 269.231 37.7582C269.231 39.2759 270.44 40.49 271.95 40.49C273.461 40.49 274.67 39.2759 274.67 37.7582Z" fill="#B0B7C7"/>
<path d="M327.645 37.7582C327.645 36.2405 326.437 35.0264 324.926 35.0264C323.415 35.0264 322.207 36.2405 322.207 37.7582C322.207 39.2759 323.415 40.49 324.926 40.49C326.437 40.49 327.645 39.2759 327.645 37.7582Z" fill="#B0B7C7"/>
<path d="M310.02 37.7582C310.02 36.2405 308.812 35.0264 307.301 35.0264C305.79 35.0264 304.582 36.2405 304.582 37.7582C304.582 39.2759 305.79 40.49 307.301 40.49C308.812 40.49 310.02 39.2759 310.02 37.7582Z" fill="#B0B7C7"/>
<path d="M221.694 37.7582C221.694 36.2405 220.486 35.0264 218.975 35.0264C217.464 35.0264 216.306 36.2405 216.306 37.7582C216.306 39.2759 217.515 40.49 219.025 40.49C220.536 40.49 221.694 39.2759 221.694 37.7582Z" fill="#B0B7C7"/>
<path d="M449.61 40.2876C449.761 40.237 449.912 40.1358 450.063 40.0346C450.214 39.9335 450.365 39.8323 450.466 39.6805C450.566 39.5287 450.717 39.4276 450.768 39.2758C450.868 39.124 450.969 38.9723 451.02 38.8205C451.07 38.6687 451.171 38.517 451.171 38.3146C451.221 37.9605 451.221 37.6064 451.171 37.2522C451.12 37.0499 451.07 36.8981 451.02 36.7464C450.969 36.5946 450.868 36.4428 450.768 36.2911C450.667 36.1393 450.566 35.9875 450.466 35.8863C450.365 35.7852 450.214 35.6334 450.063 35.5322C449.912 35.431 449.761 35.3299 449.61 35.2793C449.458 35.2287 449.257 35.1781 449.106 35.1275C448.905 35.0769 448.753 35.0769 448.552 35.0769C448.2 35.0769 447.847 35.1275 447.545 35.2793C447.243 35.431 446.941 35.6334 446.689 35.8863C446.185 36.3922 445.883 37.1005 445.883 37.8087C445.883 38.1628 445.933 38.517 446.085 38.8205C446.185 39.1746 446.387 39.4782 446.689 39.7311C446.941 39.984 447.243 40.1864 447.545 40.3382C447.847 40.4393 448.25 40.5405 448.552 40.5405C448.753 40.5405 448.905 40.5405 449.106 40.4899C449.257 40.3888 449.458 40.3382 449.61 40.2876Z" fill="#B0B7C7"/>
<path d="M202.357 54.3008C202.508 54.1996 202.659 54.149 202.811 54.0479C202.962 53.9467 203.113 53.8455 203.264 53.6938C203.364 53.5926 203.516 53.4408 203.616 53.289C203.667 53.1373 203.767 52.9855 203.818 52.8337C203.868 52.6314 203.918 52.4796 203.969 52.3278C204.019 51.9737 204.019 51.6196 203.969 51.2655C203.918 51.0631 203.868 50.9114 203.818 50.7596C203.767 50.6078 203.667 50.4055 203.566 50.2537C203.465 50.1525 203.364 50.0008 203.264 49.849C203.113 49.7478 202.962 49.6466 202.811 49.4949C202.659 49.4443 202.508 49.3431 202.357 49.2925C202.206 49.1913 202.055 49.1407 201.854 49.1407C201.703 49.0902 201.501 49.0901 201.35 49.0901C200.998 49.0901 200.645 49.1407 200.343 49.2925C199.94 49.3937 199.688 49.596 199.437 49.849C199.185 50.1019 198.983 50.4055 198.832 50.7596C198.681 51.0631 198.631 51.4172 198.631 51.7714C198.631 52.4796 198.933 53.1879 199.437 53.6938C199.688 53.9467 199.94 54.1491 200.293 54.3008C200.645 54.402 200.947 54.5032 201.35 54.5032C201.552 54.5032 201.703 54.5032 201.854 54.4526C202.055 54.402 202.206 54.3514 202.357 54.3008Z" fill="#B0B7C7"/>
<path d="M345.32 51.7714C345.32 50.2537 344.112 49.0396 342.601 49.0396C341.09 49.0396 339.882 50.2537 339.882 51.7714C339.882 53.289 341.09 54.5032 342.601 54.5032C344.112 54.5032 345.32 53.289 345.32 51.7714Z" fill="#B0B7C7"/>
<path d="M327.645 51.7714C327.645 50.2537 326.437 49.0396 324.926 49.0396C323.415 49.0396 322.207 50.2537 322.207 51.7714C322.207 53.289 323.415 54.5032 324.926 54.5032C326.437 54.5032 327.645 53.289 327.645 51.7714Z" fill="#B0B7C7"/>
<path d="M380.621 51.7714C380.621 50.2537 379.412 49.0396 377.901 49.0396C376.391 49.0396 375.182 50.2537 375.182 51.7714C375.182 53.289 376.391 54.5032 377.901 54.5032C379.412 54.5032 380.621 53.289 380.621 51.7714Z" fill="#B0B7C7"/>
<path d="M398.296 51.7714C398.296 50.2537 397.087 49.0396 395.577 49.0396C394.066 49.0396 392.857 50.2537 392.857 51.7714C392.857 53.289 394.066 54.5032 395.577 54.5032C397.087 54.5032 398.296 53.289 398.296 51.7714Z" fill="#B0B7C7"/>
<path d="M362.996 51.7714C362.996 50.2537 361.787 49.0396 360.276 49.0396C358.816 49.0396 357.557 50.2537 357.557 51.7714C357.557 53.289 358.766 54.5032 360.276 54.5032C361.787 54.5032 362.996 53.289 362.996 51.7714Z" fill="#B0B7C7"/>
<path d="M310.02 51.7714C310.02 50.2537 308.812 49.0396 307.301 49.0396C305.79 49.0396 304.582 50.2537 304.582 51.7714C304.582 53.289 305.79 54.5032 307.301 54.5032C308.812 54.5032 310.02 53.289 310.02 51.7714Z" fill="#B0B7C7"/>
<path d="M292.345 51.7714C292.345 50.2537 291.136 49.0396 289.626 49.0396C288.115 49.0396 286.906 50.2537 286.906 51.7714C286.906 53.289 288.115 54.5032 289.626 54.5032C291.136 54.5032 292.345 53.289 292.345 51.7714Z" fill="#B0B7C7"/>
<path d="M221.694 51.7714C221.694 50.2537 220.486 49.0396 218.975 49.0396C217.464 49.0396 216.306 50.2537 216.306 51.7714C216.306 53.289 217.515 54.5032 219.025 54.5032C220.536 54.5032 221.694 53.289 221.694 51.7714Z" fill="#B0B7C7"/>
<path d="M433.646 51.7714C433.646 50.2537 432.438 49.0396 430.927 49.0396C429.416 49.0396 428.208 50.2537 428.208 51.7714C428.208 53.289 429.416 54.5032 430.927 54.5032C432.438 54.5032 433.646 53.289 433.646 51.7714Z" fill="#B0B7C7"/>
<path d="M239.37 51.7714C239.37 50.2537 238.161 49.0396 236.65 49.0396C235.14 49.0396 233.981 50.2537 233.981 51.7714C233.981 53.289 235.19 54.5032 236.701 54.5032C238.211 54.5032 239.37 53.289 239.37 51.7714Z" fill="#B0B7C7"/>
<path d="M274.67 51.7714C274.67 50.2537 273.461 49.0396 271.95 49.0396C270.49 49.0396 269.231 50.2537 269.231 51.7714C269.231 53.289 270.44 54.5032 271.95 54.5032C273.461 54.5032 274.67 53.289 274.67 51.7714Z" fill="#B0B7C7"/>
<path d="M257.045 51.7714C257.045 50.2537 255.836 49.0396 254.326 49.0396C252.815 49.0396 251.606 50.2537 251.606 51.7714C251.606 53.289 252.815 54.5032 254.326 54.5032C255.836 54.5032 257.045 53.289 257.045 51.7714Z" fill="#B0B7C7"/>
<path d="M415.971 51.7714C415.971 50.2537 414.763 49.0396 413.252 49.0396C411.741 49.0396 410.533 50.2537 410.533 51.7714C410.533 53.289 411.741 54.5032 413.252 54.5032C414.763 54.5032 415.971 53.289 415.971 51.7714Z" fill="#B0B7C7"/>
<path d="M451.221 51.2655C451.17 51.0631 451.12 50.9114 451.07 50.7596C451.019 50.6078 450.919 50.4561 450.818 50.3043C450.717 50.1525 450.617 50.0008 450.516 49.8996C450.012 49.3937 449.307 49.0901 448.602 49.0901C448.25 49.0901 447.897 49.1407 447.595 49.2925C447.293 49.3937 446.991 49.596 446.739 49.849C446.487 50.1019 446.286 50.4055 446.135 50.7596C445.984 51.0631 445.933 51.4172 445.933 51.7714C445.933 52.1255 445.984 52.4796 446.135 52.8337C446.236 53.1373 446.437 53.4408 446.739 53.6938C446.991 53.9467 447.293 54.1491 447.595 54.3008C447.897 54.402 448.3 54.5032 448.602 54.5032C449.307 54.5032 450.012 54.1996 450.516 53.6938C451.12 53.0867 451.422 52.1255 451.221 51.2655Z" fill="#B0B7C7"/>
<path d="M202.357 68.3139C202.508 68.2633 202.659 68.1621 202.811 68.0609C202.962 67.9598 203.113 67.8586 203.264 67.7068C203.364 67.555 203.516 67.4539 203.616 67.3021C203.667 67.1503 203.767 66.9986 203.818 66.8468C203.868 66.695 203.918 66.4927 203.969 66.3409C204.019 65.9868 204.019 65.6327 203.969 65.2785C203.918 65.0762 203.868 64.9244 203.818 64.7726C203.767 64.6209 203.667 64.4185 203.566 64.3173C203.465 64.1656 203.364 64.0138 203.213 63.9126C203.062 63.8115 202.962 63.6597 202.811 63.6091C202.659 63.4573 202.508 63.3562 202.357 63.3056C202.206 63.255 202.055 63.1538 201.854 63.1538C201.703 63.1032 201.501 63.1032 201.35 63.1032C200.645 63.1032 199.94 63.4067 199.437 63.9126C199.185 64.115 198.983 64.4185 198.832 64.7726C198.681 65.0762 198.631 65.4303 198.631 65.7844C198.631 66.5433 198.933 67.2009 199.437 67.7068C199.94 68.2127 200.645 68.5162 201.35 68.5162C201.552 68.5162 201.703 68.5162 201.854 68.4656C202.055 68.4151 202.206 68.3645 202.357 68.3139Z" fill="#B0B7C7"/>
<path d="M327.645 65.7844C327.645 64.2668 326.437 63.0526 324.926 63.0526C323.415 63.0526 322.207 64.2668 322.207 65.7844C322.207 67.3021 323.415 68.5162 324.926 68.5162C326.437 68.5162 327.645 67.3021 327.645 65.7844Z" fill="#B0B7C7"/>
<path d="M345.32 65.7844C345.32 64.2668 344.112 63.0526 342.601 63.0526C341.09 63.0526 339.882 64.2668 339.882 65.7844C339.882 67.3021 341.09 68.5162 342.601 68.5162C344.112 68.5162 345.32 67.3021 345.32 65.7844Z" fill="#B0B7C7"/>
<path d="M380.621 65.7844C380.621 64.2668 379.412 63.0526 377.901 63.0526C376.391 63.0526 375.182 64.2668 375.182 65.7844C375.182 67.3021 376.391 68.5162 377.901 68.5162C379.412 68.5162 380.621 67.3021 380.621 65.7844Z" fill="#B0B7C7"/>
<path d="M362.996 65.7844C362.996 64.2668 361.787 63.0526 360.276 63.0526C358.816 63.0526 357.557 64.2668 357.557 65.7844C357.557 67.3021 358.766 68.5162 360.276 68.5162C361.787 68.5162 362.996 67.3021 362.996 65.7844Z" fill="#B0B7C7"/>
<path d="M433.646 65.7844C433.646 64.2668 432.438 63.0526 430.927 63.0526C429.416 63.0526 428.208 64.2668 428.208 65.7844C428.208 67.3021 429.416 68.5162 430.927 68.5162C432.438 68.5162 433.646 67.3021 433.646 65.7844Z" fill="#B0B7C7"/>
<path d="M398.296 65.7844C398.296 64.2668 397.087 63.0526 395.577 63.0526C394.066 63.0526 392.857 64.2668 392.857 65.7844C392.857 67.3021 394.066 68.5162 395.577 68.5162C397.087 68.5162 398.296 67.3021 398.296 65.7844Z" fill="#B0B7C7"/>
<path d="M415.971 65.7844C415.971 64.2668 414.763 63.0526 413.252 63.0526C411.741 63.0526 410.533 64.2668 410.533 65.7844C410.533 67.3021 411.741 68.5162 413.252 68.5162C414.763 68.5162 415.971 67.3021 415.971 65.7844Z" fill="#B0B7C7"/>
<path d="M257.045 65.7844C257.045 64.2668 255.836 63.0526 254.326 63.0526C252.815 63.0526 251.606 64.2668 251.606 65.7844C251.606 67.3021 252.815 68.5162 254.326 68.5162C255.836 68.5162 257.045 67.3021 257.045 65.7844Z" fill="#B0B7C7"/>
<path d="M310.02 65.7844C310.02 64.2668 308.812 63.0526 307.301 63.0526C305.79 63.0526 304.582 64.2668 304.582 65.7844C304.582 67.3021 305.79 68.5162 307.301 68.5162C308.812 68.5162 310.02 67.3021 310.02 65.7844Z" fill="#B0B7C7"/>
<path d="M239.37 65.7844C239.37 64.2668 238.161 63.0526 236.65 63.0526C235.14 63.0526 233.981 64.3173 233.981 65.7844C233.981 67.3021 235.19 68.5162 236.701 68.5162C238.211 68.5162 239.37 67.3021 239.37 65.7844Z" fill="#B0B7C7"/>
<path d="M292.345 65.7844C292.345 64.2668 291.136 63.0526 289.626 63.0526C288.115 63.0526 286.906 64.2668 286.906 65.7844C286.906 67.3021 288.115 68.5162 289.626 68.5162C291.136 68.5162 292.345 67.3021 292.345 65.7844Z" fill="#B0B7C7"/>
<path d="M274.67 65.7844C274.67 64.2668 273.461 63.0526 271.95 63.0526C270.49 63.0526 269.231 64.2668 269.231 65.7844C269.231 67.3021 270.44 68.5162 271.95 68.5162C273.461 68.5162 274.67 67.3021 274.67 65.7844Z" fill="#B0B7C7"/>
<path d="M221.694 65.7844C221.694 64.2668 220.486 63.0526 218.975 63.0526C217.464 63.0526 216.306 64.3173 216.306 65.7844C216.306 67.3021 217.515 68.5162 219.025 68.5162C220.536 68.5162 221.694 67.3021 221.694 65.7844Z" fill="#B0B7C7"/>
<path d="M450.818 67.3021C450.919 67.1503 451.019 66.9986 451.07 66.8468C451.12 66.695 451.221 66.4927 451.221 66.3409C451.271 65.9868 451.271 65.6327 451.221 65.2785C451.17 65.0762 451.12 64.9244 451.07 64.7726C451.019 64.6209 450.919 64.4691 450.818 64.3173C450.717 64.1656 450.617 64.0138 450.516 63.9126C450.415 63.8115 450.264 63.6597 450.113 63.5585C449.962 63.4573 449.811 63.3562 449.66 63.3056C449.509 63.255 449.307 63.1538 449.156 63.1538C448.955 63.1032 448.804 63.1032 448.602 63.1032C448.25 63.1032 447.897 63.1538 447.595 63.3056C447.293 63.4067 446.991 63.6091 446.739 63.862C446.236 64.3679 445.933 65.0762 445.933 65.7844C445.933 66.4927 446.236 67.2009 446.739 67.7068C446.991 67.9598 447.293 68.1621 447.595 68.3139C447.897 68.4656 448.3 68.5162 448.602 68.5162C449.307 68.5162 450.012 68.2127 450.516 67.7068C450.617 67.6056 450.717 67.4539 450.818 67.3021Z" fill="#B0B7C7"/>
<path d="M202.357 82.3271C202.508 82.2765 202.659 82.1753 202.811 82.0741C202.962 81.9729 203.113 81.8718 203.213 81.72C203.314 81.5682 203.465 81.4671 203.566 81.3153C203.667 81.1635 203.767 81.0117 203.818 80.86C203.868 80.7082 203.918 80.5059 203.969 80.3541C204.019 80 204.019 79.6458 203.969 79.2917C203.918 79.0894 203.868 78.9376 203.818 78.7858C203.767 78.6341 203.667 78.4823 203.566 78.3305C203.465 78.1788 203.364 78.027 203.213 77.9258C203.062 77.7741 202.962 77.6729 202.811 77.6223C202.659 77.4705 202.508 77.3693 202.357 77.3188C202.206 77.2682 202.055 77.2176 201.854 77.167C201.703 77.1164 201.501 77.1164 201.35 77.1164C200.645 77.1164 199.94 77.4199 199.437 77.9258C199.185 78.1282 198.983 78.4823 198.832 78.7858C198.681 79.0894 198.631 79.4435 198.631 79.7976C198.631 80.5564 198.933 81.2141 199.437 81.72C199.94 82.2765 200.595 82.5294 201.35 82.5294C201.552 82.5294 201.703 82.5294 201.854 82.4788C202.055 82.4282 202.206 82.4282 202.357 82.3271Z" fill="#B0B7C7"/>
<path d="M327.645 79.7976C327.645 78.2799 326.437 77.0658 324.926 77.0658C323.415 77.0658 322.207 78.2799 322.207 79.7976C322.207 81.3153 323.466 82.5294 324.976 82.5294C326.487 82.5294 327.645 81.3153 327.645 79.7976Z" fill="#B0B7C7"/>
<path d="M345.32 79.7976C345.32 78.2799 344.112 77.0658 342.601 77.0658C341.09 77.0658 339.882 78.2799 339.882 79.7976C339.882 81.3153 341.141 82.5294 342.601 82.5294C344.112 82.5294 345.32 81.3153 345.32 79.7976Z" fill="#B0B7C7"/>
<path d="M380.621 79.7976C380.621 78.2799 379.412 77.0658 377.901 77.0658C376.391 77.0658 375.182 78.2799 375.182 79.7976C375.182 81.3153 376.441 82.5294 377.952 82.5294C379.412 82.5294 380.621 81.3153 380.621 79.7976Z" fill="#B0B7C7"/>
<path d="M362.996 79.7976C362.996 78.2799 361.787 77.0658 360.276 77.0658C358.816 77.0658 357.557 78.2799 357.557 79.7976C357.557 81.3153 358.816 82.5294 360.276 82.5294C361.787 82.5294 362.996 81.3153 362.996 79.7976Z" fill="#B0B7C7"/>
<path d="M433.646 79.7976C433.646 78.2799 432.438 77.0658 430.927 77.0658C429.416 77.0658 428.208 78.2799 428.208 79.7976C428.208 81.3153 429.416 82.5294 430.927 82.5294C432.438 82.5294 433.646 81.3153 433.646 79.7976Z" fill="#B0B7C7"/>
<path d="M398.296 79.7976C398.296 78.2799 397.087 77.0658 395.577 77.0658C394.066 77.0658 392.857 78.2799 392.857 79.7976C392.857 81.3153 394.116 82.5294 395.577 82.5294C397.087 82.5294 398.296 81.3153 398.296 79.7976Z" fill="#B0B7C7"/>
<path d="M415.971 79.7976C415.971 78.2799 414.763 77.0658 413.252 77.0658C411.741 77.0658 410.533 78.2799 410.533 79.7976C410.533 81.3153 411.792 82.5294 413.252 82.5294C414.763 82.5294 415.971 81.3153 415.971 79.7976Z" fill="#B0B7C7"/>
<path d="M257.045 79.7976C257.045 78.2799 255.836 77.0658 254.326 77.0658C252.815 77.0658 251.606 78.2799 251.606 79.7976C251.606 81.3153 252.815 82.5294 254.326 82.5294C255.836 82.5294 257.045 81.3153 257.045 79.7976Z" fill="#B0B7C7"/>
<path d="M310.02 79.7976C310.02 78.2799 308.812 77.0658 307.301 77.0658C305.79 77.0658 304.582 78.2799 304.582 79.7976C304.582 81.3153 305.79 82.5294 307.301 82.5294C308.812 82.5294 310.02 81.3153 310.02 79.7976Z" fill="#B0B7C7"/>
<path d="M239.37 79.7976C239.37 78.2799 238.161 77.0658 236.65 77.0658C235.14 77.0658 233.981 78.3305 233.981 79.7976C233.981 81.2647 235.19 82.5294 236.65 82.5294C238.111 82.5294 239.37 81.3153 239.37 79.7976Z" fill="#B0B7C7"/>
<path d="M292.345 79.7976C292.345 78.2799 291.136 77.0658 289.626 77.0658C288.115 77.0658 286.906 78.2799 286.906 79.7976C286.906 81.3153 288.115 82.5294 289.626 82.5294C291.136 82.5294 292.345 81.3153 292.345 79.7976Z" fill="#B0B7C7"/>
<path d="M274.67 79.7976C274.67 78.2799 273.461 77.0658 271.95 77.0658C270.49 77.0658 269.231 78.2799 269.231 79.7976C269.231 81.3153 270.49 82.5294 271.95 82.5294C273.461 82.5294 274.67 81.3153 274.67 79.7976Z" fill="#B0B7C7"/>
<path d="M221.694 79.7976C221.694 78.2799 220.486 77.0658 218.975 77.0658C217.464 77.0658 216.306 78.3305 216.306 79.7976C216.306 81.2647 217.515 82.5294 218.975 82.5294C220.435 82.5294 221.694 81.3153 221.694 79.7976Z" fill="#B0B7C7"/>
<path d="M450.818 81.3153C450.919 81.1635 451.02 81.0117 451.07 80.86C451.12 80.7082 451.221 80.5059 451.221 80.3541C451.271 80 451.271 79.6458 451.221 79.2917C451.171 79.0894 451.12 78.9376 451.07 78.7858C451.02 78.6341 450.919 78.4823 450.818 78.3305C450.717 78.1788 450.617 78.027 450.516 77.9258C450.415 77.7741 450.264 77.6729 450.113 77.5717C449.962 77.4705 449.811 77.3693 449.66 77.3188C449.509 77.2682 449.307 77.2176 449.156 77.167C448.955 77.1164 448.804 77.1164 448.602 77.1164C448.25 77.1164 447.897 77.167 447.595 77.3188C447.243 77.4705 446.941 77.6223 446.689 77.8752C446.185 78.3811 445.883 79.0894 445.883 79.7976C445.883 80.5059 446.185 81.2141 446.689 81.72C446.941 81.9729 447.243 82.1753 447.545 82.3271C447.847 82.4788 448.25 82.5294 448.552 82.5294C449.257 82.5294 449.962 82.2259 450.466 81.72C450.617 81.6188 450.717 81.4671 450.818 81.3153Z" fill="#B0B7C7"/>
<path d="M467.285 12.2107C467.436 12.1601 467.587 12.0589 467.738 11.9577C467.889 11.8566 468.04 11.7554 468.141 11.6036C468.241 11.5024 468.393 11.3507 468.443 11.1989C468.544 11.0471 468.644 10.8954 468.695 10.7436C468.745 10.5918 468.846 10.4401 468.846 10.2377C468.896 9.88359 468.896 9.52947 468.846 9.17535C468.795 8.97299 468.745 8.82122 468.695 8.66946C468.644 8.51769 468.544 8.36593 468.443 8.21416C468.342 8.06239 468.241 7.91062 468.141 7.80944C468.04 7.65768 467.889 7.5565 467.738 7.45532C467.587 7.35415 467.436 7.25297 467.285 7.20238C467.134 7.15179 466.932 7.1012 466.781 7.05061C466.58 7.00002 466.429 7.00002 466.227 7.00002C465.875 7.00002 465.522 7.05061 465.22 7.20238C464.918 7.35415 464.616 7.5565 464.364 7.80944C464.112 8.06239 463.911 8.36592 463.76 8.72005C463.609 9.02358 463.558 9.3777 463.558 9.73182C463.558 10.4401 463.86 11.1483 464.364 11.6542C464.868 12.1601 465.573 12.4636 466.278 12.4636C466.479 12.4636 466.63 12.4636 466.831 12.413C466.932 12.3624 467.083 12.3119 467.285 12.2107Z" fill="#B0B7C7"/>
<path d="M468.896 23.2391C468.846 23.0367 468.795 22.8849 468.745 22.7332C468.695 22.5814 468.594 22.4296 468.493 22.2779C468.393 22.1261 468.292 21.9743 468.191 21.8732C467.688 21.3673 466.983 21.0637 466.278 21.0637C465.925 21.0637 465.573 21.1143 465.27 21.2661C464.968 21.4179 464.666 21.6202 464.414 21.8732C464.163 22.1261 463.961 22.4296 463.81 22.7838C463.659 23.0873 463.609 23.4414 463.609 23.7955C463.609 24.5038 463.911 25.212 464.414 25.7179C464.666 25.9709 464.968 26.1732 465.27 26.325C465.573 26.4262 465.975 26.5273 466.278 26.5273C466.983 26.5273 467.688 26.2238 468.191 25.7179C468.745 25.0097 469.047 24.0991 468.896 23.2391Z" fill="#B0B7C7"/>
<path d="M467.285 40.2876C467.436 40.237 467.587 40.1358 467.738 40.0346C467.889 39.9335 468.04 39.8323 468.141 39.6805C468.241 39.5287 468.393 39.4276 468.443 39.2758C468.544 39.124 468.644 38.9723 468.695 38.8205C468.745 38.6687 468.846 38.517 468.846 38.3146C468.896 37.9605 468.896 37.6064 468.846 37.2522C468.795 37.0499 468.745 36.8981 468.695 36.7464C468.644 36.5946 468.544 36.4428 468.443 36.2911C468.342 36.1393 468.241 35.9875 468.141 35.8863C468.04 35.7852 467.889 35.6334 467.738 35.5322C467.587 35.431 467.436 35.3299 467.285 35.2793C467.134 35.2287 466.932 35.1781 466.781 35.1275C466.58 35.0769 466.429 35.0769 466.227 35.0769C465.875 35.0769 465.522 35.1275 465.22 35.2793C464.918 35.431 464.616 35.6334 464.364 35.8863C463.86 36.3922 463.558 37.1005 463.558 37.8087C463.558 38.1628 463.609 38.517 463.76 38.8205C463.86 39.1746 464.062 39.4782 464.364 39.7311C464.616 39.984 464.918 40.1864 465.22 40.3382C465.522 40.4393 465.925 40.5405 466.227 40.5405C466.429 40.5405 466.58 40.5405 466.781 40.4899C466.932 40.3888 467.083 40.3382 467.285 40.2876Z" fill="#B0B7C7"/>
<path d="M468.896 51.2655C468.846 51.0631 468.795 50.9114 468.745 50.7596C468.695 50.6078 468.594 50.4561 468.493 50.3043C468.393 50.1525 468.292 50.0008 468.191 49.8996C467.688 49.3937 466.983 49.0901 466.278 49.0901C465.925 49.0901 465.573 49.1407 465.27 49.2925C464.968 49.3937 464.666 49.596 464.414 49.849C464.163 50.1019 463.961 50.4055 463.81 50.7596C463.659 51.0631 463.609 51.4172 463.609 51.7714C463.609 52.1255 463.659 52.4796 463.81 52.8337C463.911 53.1373 464.112 53.4408 464.414 53.6938C464.666 53.9467 464.968 54.1491 465.27 54.3008C465.573 54.402 465.975 54.5032 466.278 54.5032C466.983 54.5032 467.688 54.1996 468.191 53.6938C468.745 53.0867 469.047 52.1255 468.896 51.2655Z" fill="#B0B7C7"/>
<path d="M468.493 67.3021C468.594 67.1503 468.695 66.9986 468.745 66.8468C468.795 66.695 468.896 66.4927 468.896 66.3409C468.946 65.9868 468.946 65.6327 468.896 65.2785C468.846 65.0762 468.795 64.9244 468.745 64.7726C468.695 64.6209 468.594 64.4691 468.493 64.3173C468.393 64.1656 468.292 64.0138 468.191 63.9126C468.09 63.8115 467.939 63.6597 467.788 63.5585C467.637 63.4573 467.486 63.3562 467.335 63.3056C467.184 63.255 466.983 63.1538 466.831 63.1538C466.63 63.1032 466.479 63.1032 466.278 63.1032C465.925 63.1032 465.573 63.1538 465.27 63.3056C464.968 63.4067 464.666 63.6091 464.414 63.862C463.911 64.3679 463.609 65.0762 463.609 65.7844C463.609 66.4927 463.911 67.2009 464.414 67.7068C464.666 67.9598 464.968 68.1621 465.27 68.3139C465.573 68.4656 465.975 68.5162 466.278 68.5162C466.983 68.5162 467.688 68.2127 468.191 67.7068C468.241 67.6056 468.393 67.4539 468.493 67.3021Z" fill="#B0B7C7"/>
<path d="M468.493 81.3153C468.594 81.1635 468.695 81.0117 468.745 80.86C468.795 80.7082 468.896 80.5059 468.896 80.3541C468.947 80 468.947 79.6458 468.896 79.2917C468.846 79.0894 468.795 78.9376 468.745 78.7858C468.695 78.6341 468.594 78.4823 468.493 78.3305C468.393 78.1788 468.292 78.027 468.191 77.9258C468.09 77.7741 467.939 77.6729 467.788 77.5717C467.637 77.4705 467.486 77.3693 467.335 77.3188C467.184 77.2682 466.983 77.2176 466.832 77.167C466.63 77.1164 466.479 77.1164 466.278 77.1164C465.925 77.1164 465.573 77.167 465.27 77.3188C464.868 77.4705 464.565 77.6223 464.314 77.8752C463.81 78.3811 463.508 79.0894 463.508 79.7976C463.508 80.5059 463.81 81.2141 464.314 81.72C464.565 81.9729 464.868 82.1753 465.17 82.3271C465.522 82.4788 465.875 82.5294 466.227 82.5294C466.932 82.5294 467.637 82.2259 468.141 81.72C468.242 81.6188 468.393 81.4671 468.493 81.3153Z" fill="#B0B7C7"/>
</g>
<path d="M413.416 187.645L410.217 193.192L407.019 187.645L401.472 184.446L407.019 181.248L410.217 175.701L413.416 181.248L418.963 184.446L413.416 187.645Z" fill="#1F3374"/>
<mask id="path-98-inside-1" fill="white">
<path d="M78.6833 58.1331C78.6833 49.2965 85.8467 42.1331 94.6833 42.1331H411.628C420.465 42.1331 427.628 49.2965 427.628 58.1331V310.064H78.6833V58.1331Z"/>
</mask>
<path d="M78.6833 58.1331C78.6833 49.2965 85.8467 42.1331 94.6833 42.1331H411.628C420.465 42.1331 427.628 49.2965 427.628 58.1331V310.064H78.6833V58.1331Z" fill="#EFECDD"/>
<path d="M78.6833 58.1331C78.6833 49.2965 85.8467 42.1331 94.6833 42.1331H411.628C420.465 42.1331 427.628 49.2965 427.628 58.1331V310.064H78.6833V58.1331Z" stroke="url(#paint0_linear)" stroke-width="94" mask="url(#path-98-inside-1)"/>
<path d="M78.6833 58.1331C78.6833 49.2965 85.8467 42.1331 94.6833 42.1331H411.628C420.465 42.1331 427.628 49.2965 427.628 58.1331V310.064H78.6833V58.1331Z" stroke="#83A3E2" stroke-width="94" mask="url(#path-98-inside-1)"/>
<path d="M78.6833 58.1331C78.6833 49.2965 85.8467 42.1331 94.6833 42.1331H411.628C420.465 42.1331 427.628 49.2965 427.628 58.1331V310.064H78.6833V58.1331Z" stroke="url(#paint1_linear)" stroke-width="94" mask="url(#path-98-inside-1)"/>
<path d="M78.6833 58.1331C78.6833 49.2965 85.8467 42.1331 94.6833 42.1331H411.628C420.465 42.1331 427.628 49.2965 427.628 58.1331V69.1379H78.6833V58.1331Z" fill="#BDDCFD"/>
<path d="M78.6833 58.1331C78.6833 49.2965 85.8467 42.1331 94.6833 42.1331H411.628C420.465 42.1331 427.628 49.2965 427.628 58.1331V69.1379H78.6833V58.1331Z" fill="url(#paint2_linear)"/>
<path d="M78.6833 58.1331C78.6833 49.2965 85.8467 42.1331 94.6833 42.1331H411.628C420.465 42.1331 427.628 49.2965 427.628 58.1331V69.1379H78.6833V58.1331Z" fill="url(#paint3_linear)"/>
<rect x="84.9999" y="88" width="336" height="203" fill="white"/>
<rect opacity="0.2" x="351.5" y="42.5" width="19" height="17" rx="1.5" fill="#245DDC" stroke="#B0B7C7"/>
<rect opacity="0.2" x="370.5" y="42.5" width="19" height="17" rx="1.5" fill="#245DDC" stroke="#B0B7C7"/>
<path opacity="0.8" d="M389.5 44C389.5 43.1716 390.172 42.5 391 42.5H419C423.694 42.5 427.5 46.3056 427.5 51V58C427.5 58.8284 426.828 59.5 426 59.5H391C390.172 59.5 389.5 58.8284 389.5 58V44Z" fill="#C75450" stroke="#B0B7C7"/>
<path d="M213.131 210H178.045V203.039L194.604 185.391C196.877 182.906 198.553 180.738 199.631 178.887C200.733 177.035 201.283 175.277 201.283 173.613C201.283 171.34 200.709 169.559 199.561 168.27C198.412 166.957 196.772 166.301 194.639 166.301C192.342 166.301 190.526 167.098 189.19 168.691C187.877 170.262 187.221 172.336 187.221 174.914H177.026C177.026 171.797 177.764 168.949 179.241 166.371C180.741 163.793 182.85 161.777 185.569 160.324C188.287 158.848 191.369 158.109 194.815 158.109C200.088 158.109 204.178 159.375 207.084 161.906C210.014 164.438 211.479 168.012 211.479 172.629C211.479 175.16 210.823 177.738 209.51 180.363C208.198 182.988 205.948 186.047 202.76 189.539L191.123 201.809H213.131V210ZM253.842 188.836C253.842 195.914 252.377 201.328 249.448 205.078C246.518 208.828 242.229 210.703 236.58 210.703C231.002 210.703 226.737 208.863 223.783 205.184C220.83 201.504 219.319 196.23 219.248 189.363V179.941C219.248 172.793 220.725 167.367 223.678 163.664C226.655 159.961 230.932 158.109 236.51 158.109C242.088 158.109 246.354 159.949 249.307 163.629C252.26 167.285 253.772 172.547 253.842 179.414V188.836ZM243.682 178.5C243.682 174.258 243.096 171.176 241.924 169.254C240.776 167.309 238.971 166.336 236.51 166.336C234.119 166.336 232.35 167.262 231.201 169.113C230.076 170.941 229.479 173.812 229.408 177.727V190.172C229.408 194.344 229.971 197.449 231.096 199.488C232.244 201.504 234.073 202.512 236.58 202.512C239.065 202.512 240.858 201.539 241.959 199.594C243.061 197.648 243.635 194.672 243.682 190.664V178.5Z" fill="#BDDFFF"/>
<path d="M285.412 210H275.252V170.836L263.123 174.598V166.336L284.323 158.742H285.412V210ZM325.842 189.539C323.194 192.141 320.1 193.441 316.561 193.441C312.037 193.441 308.416 191.895 305.698 188.801C302.979 185.684 301.619 181.488 301.619 176.215C301.619 172.863 302.346 169.793 303.799 167.004C305.276 164.191 307.326 162.012 309.951 160.465C312.576 158.895 315.53 158.109 318.811 158.109C322.186 158.109 325.186 158.953 327.811 160.641C330.436 162.328 332.475 164.754 333.928 167.918C335.381 171.082 336.119 174.703 336.143 178.781V182.543C336.143 191.074 334.022 197.777 329.78 202.652C325.537 207.527 319.526 210.129 311.744 210.457L309.248 210.492V202.02L311.498 201.984C320.334 201.586 325.116 197.438 325.842 189.539ZM319.057 185.672C320.698 185.672 322.104 185.25 323.276 184.406C324.471 183.562 325.373 182.543 325.983 181.348V177.164C325.983 173.719 325.326 171.047 324.014 169.148C322.701 167.25 320.944 166.301 318.741 166.301C316.701 166.301 315.026 167.238 313.713 169.113C312.401 170.965 311.744 173.297 311.744 176.109C311.744 178.898 312.377 181.195 313.643 183C314.932 184.781 316.737 185.672 319.057 185.672Z" fill="#6C74D1"/>
<g clip-path="url(#clip1)">
<path d="M33.2085 55.7379C21.116 61.7255 16.1713 76.3911 22.1642 88.4944C28.1572 100.598 42.8183 105.555 54.9109 99.5679C67.0034 93.5802 71.9481 78.9146 65.9552 66.8113C59.9622 54.708 45.301 49.7503 33.2085 55.7379Z" fill="#FAE2D7"/>
<path d="M56.8122 62.0676C74.7602 53.1807 96.5913 60.563 105.486 78.527C114.381 96.4909 107.009 118.311 89.0615 127.198C71.1135 136.085 49.2824 128.703 40.3875 110.739C31.4927 92.7747 38.8818 70.9459 56.8122 62.0676ZM87.5051 124.055C103.716 116.028 110.371 96.2899 102.337 80.0644C94.303 63.8389 74.571 57.1664 58.3599 65.1933C42.1488 73.2202 35.5115 92.9494 43.5542 109.193C51.597 125.436 71.294 132.082 87.5051 124.055Z" fill="#F37453"/>
</g>
<path d="M103.939 29.6787L92.5082 41.1177C91.7631 42.3256 91.0892 43.5829 90.4922 44.8823L107.7 27.6613C106.402 28.2586 105.146 28.9331 103.939 29.6787Z" fill="#8FD2FF"/>
<path d="M113.195 25.677L88.5096 50.3807C88.3091 51.1307 88.132 51.8894 87.9794 52.6583L115.469 25.1479C114.701 25.2991 113.943 25.4764 113.195 25.677Z" fill="#8FD2FF"/>
<path d="M119.539 24.587L87.4203 56.7296C87.3724 57.3401 87.3404 57.9535 87.3245 58.5712L121.379 24.4911C120.762 24.5085 120.149 24.5405 119.539 24.587Z" fill="#8FD2FF"/>
<path d="M124.812 24.5732L87.4065 62.0066C87.4443 62.5415 87.4965 63.0735 87.5576 63.6025L126.407 24.7244C125.878 24.6634 125.347 24.611 124.812 24.5732Z" fill="#8FD2FF"/>
<path d="M129.427 25.2135L88.0449 66.6265C88.1436 67.1033 88.2526 67.5771 88.3717 68.0466L130.846 25.5405C130.377 25.4214 129.905 25.3123 129.427 25.2135Z" fill="#8FD2FF"/>
<path d="M133.558 26.34L89.1719 70.7588C89.3186 71.1905 89.4755 71.6164 89.6381 72.0394L134.839 26.8051C134.415 26.6437 133.988 26.4868 133.558 26.34Z" fill="#8FD2FF"/>
<path d="M137.293 27.8618L90.6912 74.4987C90.8785 74.8912 91.0717 75.2792 91.2721 75.663L138.455 28.4447C138.073 28.2426 137.686 28.0493 137.293 27.8618Z" fill="#8FD2FF"/>
<path d="M140.694 29.7207L92.5503 77.8998C92.7725 78.2573 92.9991 78.6134 93.2344 78.9623L141.755 30.4053C141.405 30.1698 141.051 29.9431 140.694 29.7207Z" fill="#8FD2FF"/>
<path d="M143.79 31.882L94.7085 80.9985C94.9627 81.3256 95.2241 81.6453 95.4899 81.9622L144.753 32.6625C144.436 32.3979 144.115 32.1363 143.79 31.882Z" fill="#8FD2FF"/>
<path d="M146.599 34.3298L97.1544 83.8112C97.4405 84.1077 97.731 84.3984 98.0273 84.6833L147.471 35.2034C147.186 34.9069 146.895 34.6162 146.599 34.3298Z" fill="#8FD2FF"/>
<path d="M149.132 37.0565L99.8791 86.3446C100.197 86.6106 100.518 86.8693 100.845 87.1237L149.909 38.0231C149.656 37.6961 149.398 37.3734 149.132 37.0565Z" fill="#8FD2FF"/>
<path d="M151.382 40.0653L102.886 88.5976C103.236 88.8316 103.59 89.0583 103.949 89.2807L152.065 41.1293C151.842 40.7703 151.616 40.4156 151.382 40.0653Z" fill="#8FD2FF"/>
<path d="M153.335 43.3706L106.19 90.5511C106.575 90.7517 106.964 90.9436 107.358 91.1296L153.915 44.5378C153.728 44.1453 153.534 43.7558 153.335 43.3706Z" fill="#8FD2FF"/>
<path d="M154.962 47.0029L109.818 92.1805C110.242 92.3418 110.669 92.4988 111.101 92.6442L155.426 48.2864C155.28 47.8547 155.125 47.4274 154.962 47.0029Z" fill="#8FD2FF"/>
<path d="M156.219 51.0057L113.819 93.4362C114.29 93.554 114.764 93.663 115.241 93.7604L156.544 52.4273C156.445 51.9505 156.336 51.4767 156.219 51.0057Z" fill="#8FD2FF"/>
<path d="M157.022 55.4622L118.273 94.24C118.803 94.301 119.336 94.349 119.872 94.3868L157.168 57.0625C157.132 56.5261 157.083 55.9927 157.022 55.4622Z" fill="#8FD2FF"/>
<path d="M157.235 60.5088L123.314 94.4552C123.934 94.4378 124.55 94.4029 125.161 94.352L157.132 62.3576C157.183 61.7457 157.218 61.1294 157.235 60.5088Z" fill="#8FD2FF"/>
<path d="M156.557 66.4476L129.25 93.7748C130.024 93.6178 130.788 93.4347 131.542 93.2283L156.011 68.7412C156.217 67.9869 156.4 67.2223 156.557 66.4476Z" fill="#8FD2FF"/>
<path d="M153.964 74.3024L137.099 91.1804C138.434 90.5554 139.722 89.8475 140.958 89.0655L151.851 78.1643C152.634 76.9288 153.34 75.6381 153.964 74.3024Z" fill="#8FD2FF"/>
<g clip-path="url(#clip2)">
<path d="M396.742 303.313C401.431 316.228 415.646 322.917 428.493 318.253C441.339 313.589 447.953 299.338 443.264 286.423C438.574 273.507 424.359 266.818 411.512 271.482C398.666 276.146 392.053 290.397 396.742 303.313Z" fill="#6C74D1"/>
<path d="M410.796 293.121C406.851 282.253 412.453 270.22 423.263 266.296C434.073 262.371 446.068 268.015 450.014 278.883C453.96 289.751 448.38 301.776 437.57 305.7C426.768 309.648 414.742 303.989 410.796 293.121ZM448.396 279.47C444.77 269.484 433.757 264.301 423.823 267.908C413.89 271.514 408.766 282.555 412.392 292.542C416.018 302.529 427.031 307.711 436.965 304.104C446.898 300.498 452.022 289.457 448.396 279.47Z" fill="black"/>
</g>
<path d="M399.9 262.379L396.702 267.926L393.503 262.379L387.956 259.181L393.503 255.982L396.702 250.435L399.9 255.982L405.447 259.181L399.9 262.379Z" fill="#FFB9B5"/>
<path d="M106.528 68.3878L103.33 73.9349L100.131 68.3878L94.5842 65.1894L100.131 61.9909L103.33 56.4438L106.528 61.9909L112.075 65.1894L106.528 68.3878Z" fill="#FFB9B5"/>
<path d="M401.653 216.28L387.235 230.709C386.295 232.233 385.445 233.818 384.692 235.457L406.398 213.735C404.76 214.489 403.175 215.34 401.653 216.28Z" fill="#FFC778"/>
<path d="M413.329 211.233L382.191 242.393C381.939 243.339 381.715 244.296 381.523 245.266L416.197 210.565C415.228 210.756 414.272 210.98 413.329 211.233Z" fill="#FFC778"/>
<path d="M421.331 209.858L380.817 250.401C380.757 251.171 380.717 251.945 380.696 252.724L423.652 209.737C422.873 209.759 422.1 209.799 421.331 209.858Z" fill="#FFC778"/>
<path d="M427.981 209.839L380.799 257.057C380.847 257.731 380.913 258.402 380.99 259.07L429.993 210.03C429.326 209.953 428.655 209.887 427.981 209.839Z" fill="#FFC778"/>
<path d="M433.803 210.648L381.605 262.885C381.73 263.486 381.867 264.084 382.017 264.676L435.593 211.06C435.001 210.91 434.406 210.773 433.803 210.648Z" fill="#FFC778"/>
<path d="M439.014 212.069L383.027 268.097C383.212 268.642 383.41 269.179 383.615 269.712L440.629 212.656C440.094 212.452 439.556 212.254 439.014 212.069Z" fill="#FFC778"/>
<path d="M443.726 213.988L384.943 272.814C385.179 273.309 385.423 273.799 385.676 274.283L445.191 214.724C444.709 214.469 444.22 214.225 443.726 213.988Z" fill="#FFC778"/>
<path d="M448.014 216.333L387.288 277.105C387.568 277.556 387.854 278.005 388.151 278.445L449.354 217.197C448.912 216.9 448.465 216.614 448.014 216.333Z" fill="#FFC778"/>
<path d="M451.92 219.06L390.01 281.013C390.331 281.426 390.661 281.829 390.996 282.229L453.135 220.044C452.735 219.71 452.331 219.38 451.92 219.06Z" fill="#FFC778"/>
<path d="M455.463 222.147L393.096 284.561C393.457 284.935 393.823 285.302 394.197 285.661L456.563 223.249C456.203 222.875 455.837 222.508 455.463 222.147Z" fill="#FFC778"/>
<path d="M458.658 225.587L396.532 287.757C396.934 288.092 397.339 288.419 397.751 288.739L459.638 226.806C459.32 226.393 458.994 225.986 458.658 225.587Z" fill="#FFC778"/>
<path d="M461.496 229.382L400.325 290.598C400.766 290.894 401.213 291.18 401.666 291.46L462.357 230.724C462.077 230.271 461.791 229.823 461.496 229.382Z" fill="#FFC778"/>
<path d="M463.96 233.551L404.493 293.063C404.978 293.316 405.469 293.558 405.966 293.792L464.691 235.023C464.455 234.528 464.211 234.037 463.96 233.551Z" fill="#FFC778"/>
<path d="M466.012 238.132L409.069 295.118C409.604 295.321 410.143 295.519 410.687 295.703L466.597 239.751C466.413 239.207 466.217 238.668 466.012 238.132Z" fill="#FFC778"/>
<path d="M467.597 243.182L414.116 296.702C414.71 296.85 415.307 296.988 415.91 297.111L468.007 244.975C467.883 244.373 467.745 243.776 467.597 243.182Z" fill="#FFC778"/>
<path d="M468.61 248.803L419.733 297.716C420.402 297.793 421.074 297.853 421.75 297.901L468.795 250.821C468.749 250.145 468.687 249.472 468.61 248.803Z" fill="#FFC778"/>
<path d="M468.879 255.168L426.092 297.987C426.875 297.965 427.651 297.921 428.423 297.857L468.749 257.5C468.813 256.728 468.857 255.951 468.879 255.168Z" fill="#FFC778"/>
<path d="M468.024 262.659L433.58 297.129C434.556 296.931 435.52 296.7 436.471 296.439L467.335 265.552C467.595 264.601 467.826 263.636 468.024 262.659Z" fill="#FFC778"/>
<path d="M464.754 272.567L443.48 293.856C445.164 293.068 446.789 292.175 448.348 291.189L462.088 277.438C463.075 275.88 463.966 274.252 464.754 272.567Z" fill="#FFC778"/>
</g>
<defs>
<filter id="filter0_d" x="0" y="0" width="479.947" height="341.698" filterUnits="userSpaceOnUse" color-interpolation-filters="sRGB">
<feFlood flood-opacity="0" result="BackgroundImageFix"/>
<feColorMatrix in="SourceAlpha" type="matrix" values="0 0 0 0 0 0 0 0 0 0 0 0 0 0 0 0 0 0 127 0"/>
<feOffset dy="4"/>
<feGaussianBlur stdDeviation="5.5"/>
<feColorMatrix type="matrix" values="0 0 0 0 0 0 0 0 0 0 0 0 0 0 0 0 0 0 0.25 0"/>
<feBlend mode="normal" in2="BackgroundImageFix" result="effect1_dropShadow"/>
<feBlend mode="normal" in="SourceGraphic" in2="effect1_dropShadow" result="shape"/>
</filter>
<linearGradient id="paint0_linear" x1="253.156" y1="42.1331" x2="253.156" y2="310.064" gradientUnits="userSpaceOnUse">
<stop stop-color="#8FD2FF"/>
<stop offset="1" stop-color="white" stop-opacity="0"/>
</linearGradient>
<linearGradient id="paint1_linear" x1="253.156" y1="42.1331" x2="253.156" y2="310.064" gradientUnits="userSpaceOnUse">
<stop stop-color="white"/>
<stop offset="1" stop-color="white" stop-opacity="0"/>
</linearGradient>
<linearGradient id="paint2_linear" x1="253.156" y1="42.1331" x2="253.156" y2="69.1379" gradientUnits="userSpaceOnUse">
<stop stop-color="white"/>
<stop offset="1" stop-color="white" stop-opacity="0"/>
</linearGradient>
<linearGradient id="paint3_linear" x1="253.156" y1="42.1331" x2="253.156" y2="69.1379" gradientUnits="userSpaceOnUse">
<stop stop-color="#BDDFFF"/>
<stop offset="1" stop-color="white" stop-opacity="0"/>
</linearGradient>
<clipPath id="clip0">
<rect width="75.5294" height="270.316" fill="white" transform="translate(198.631 82.5294) rotate(-90)"/>
</clipPath>
<clipPath id="clip1">
<rect width="79.0927" height="102.305" fill="white" transform="translate(127.276 122.533) rotate(153.658)"/>
</clipPath>
<clipPath id="clip2">
<rect width="50.6231" height="58.4112" fill="white" transform="translate(442.861 259.181) rotate(70.0462)"/>
</clipPath>
</defs>
</svg>
