<svg width="480" height="348" viewBox="0 0 480 348" fill="none" xmlns="http://www.w3.org/2000/svg">
<g filter="url(#filter0_d)">
<g opacity="0.5" clip-path="url(#clip0)">
<path d="M202.357 12.2106C202.508 12.16 202.659 12.0589 202.811 11.9577C202.962 11.8565 203.113 11.7553 203.213 11.6036C203.314 11.5024 203.465 11.3506 203.566 11.1988C203.667 11.0471 203.767 10.8953 203.818 10.7435C203.868 10.5918 203.918 10.44 203.969 10.2377C204.019 9.88353 204.019 9.52941 203.969 9.17529C203.918 8.97293 203.868 8.82116 203.818 8.66939C203.767 8.51763 203.667 8.36587 203.566 8.2141C203.465 8.06233 203.364 7.91056 203.213 7.80938C203.062 7.65762 202.962 7.55644 202.811 7.45526C202.659 7.35408 202.508 7.25291 202.357 7.20232C202.206 7.15173 202.055 7.10114 201.854 7.05055C201.703 6.99996 201.501 6.99996 201.35 6.99996C200.998 6.99996 200.645 7.05055 200.343 7.20232C199.991 7.35408 199.688 7.55644 199.437 7.80938C198.933 8.31527 198.631 8.97293 198.631 9.73176C198.631 10.0859 198.681 10.44 198.832 10.7435C198.983 11.0471 199.185 11.4012 199.437 11.6541C199.94 12.16 200.645 12.4636 201.35 12.4636C201.552 12.4636 201.703 12.4636 201.854 12.413C202.055 12.3624 202.206 12.3118 202.357 12.2106Z" fill="#B0B7C7"/>
<path d="M362.996 9.73176C362.996 8.2141 361.787 6.99996 360.276 6.99996C358.816 6.99996 357.557 8.2141 357.557 9.73176C357.557 11.2494 358.766 12.4636 360.276 12.4636C361.787 12.413 362.996 11.1988 362.996 9.73176Z" fill="#B0B7C7"/>
<path d="M380.621 9.73176C380.621 8.2141 379.412 6.99996 377.901 6.99996C376.391 6.99996 375.182 8.2141 375.182 9.73176C375.182 11.2494 376.391 12.4636 377.901 12.4636C379.412 12.413 380.621 11.1988 380.621 9.73176Z" fill="#B0B7C7"/>
<path d="M345.32 9.73176C345.32 8.2141 344.112 6.99996 342.601 6.99996C341.09 6.99996 339.882 8.2141 339.882 9.73176C339.882 11.2494 341.09 12.4636 342.601 12.4636C344.112 12.413 345.32 11.1988 345.32 9.73176Z" fill="#B0B7C7"/>
<path d="M415.971 9.73176C415.971 8.2141 414.763 6.99996 413.252 6.99996C411.741 6.99996 410.533 8.2141 410.533 9.73176C410.533 11.2494 411.741 12.4636 413.252 12.4636C414.763 12.413 415.971 11.1988 415.971 9.73176Z" fill="#B0B7C7"/>
<path d="M398.296 9.73176C398.296 8.2141 397.087 6.99996 395.577 6.99996C394.066 6.99996 392.857 8.2141 392.857 9.73176C392.857 11.2494 394.066 12.4636 395.577 12.4636C397.087 12.413 398.296 11.1988 398.296 9.73176Z" fill="#B0B7C7"/>
<path d="M433.646 9.73176C433.646 8.2141 432.438 6.99996 430.927 6.99996C429.416 6.99996 428.208 8.2141 428.208 9.73176C428.208 11.2494 429.416 12.4636 430.927 12.4636C432.438 12.413 433.646 11.1988 433.646 9.73176Z" fill="#B0B7C7"/>
<path d="M327.645 9.73176C327.645 8.2141 326.437 6.99996 324.926 6.99996C323.415 6.99996 322.207 8.2141 322.207 9.73176C322.207 11.2494 323.415 12.4636 324.926 12.4636C326.437 12.4636 327.645 11.1988 327.645 9.73176Z" fill="#B0B7C7"/>
<path d="M257.045 9.73176C257.045 8.2141 255.836 6.99996 254.326 6.99996C252.815 6.99996 251.606 8.2141 251.606 9.73176C251.606 11.2494 252.815 12.4636 254.326 12.4636C255.836 12.413 257.045 11.1988 257.045 9.73176Z" fill="#B0B7C7"/>
<path d="M239.37 9.73176C239.37 8.2141 238.161 6.99996 236.65 6.99996C235.14 6.99996 233.931 8.2141 233.931 9.73176C233.931 11.2494 235.14 12.4636 236.65 12.4636C238.161 12.4636 239.37 11.1988 239.37 9.73176Z" fill="#B0B7C7"/>
<path d="M310.02 9.73176C310.02 8.2141 308.812 6.99996 307.301 6.99996C305.79 6.99996 304.582 8.2141 304.582 9.73176C304.582 11.2494 305.79 12.4636 307.301 12.4636C308.812 12.413 310.02 11.1988 310.02 9.73176Z" fill="#B0B7C7"/>
<path d="M221.694 9.73176C221.694 8.2141 220.486 6.99996 218.975 6.99996C217.464 6.99996 216.256 8.2141 216.256 9.73176C216.256 11.2494 217.464 12.4636 218.975 12.4636C220.486 12.4636 221.694 11.1988 221.694 9.73176Z" fill="#B0B7C7"/>
<path d="M292.345 9.73176C292.345 8.2141 291.136 6.99996 289.626 6.99996C288.115 6.99996 286.906 8.2141 286.906 9.73176C286.906 11.2494 288.115 12.4636 289.626 12.4636C291.136 12.4636 292.345 11.1988 292.345 9.73176Z" fill="#B0B7C7"/>
<path d="M274.67 9.73176C274.67 8.2141 273.461 6.99996 271.95 6.99996C270.49 6.99996 269.231 8.2141 269.231 9.73176C269.231 11.2494 270.44 12.4636 271.95 12.4636C273.461 12.413 274.67 11.1988 274.67 9.73176Z" fill="#B0B7C7"/>
<path d="M449.609 12.2106C449.761 12.16 449.912 12.0589 450.063 11.9577C450.214 11.8565 450.365 11.7553 450.466 11.6036C450.566 11.5024 450.717 11.3506 450.768 11.1988C450.868 11.0471 450.969 10.8953 451.019 10.7435C451.07 10.5918 451.171 10.44 451.171 10.2377C451.221 9.88353 451.221 9.52941 451.171 9.17529C451.12 8.97293 451.07 8.82116 451.019 8.66939C450.969 8.51763 450.868 8.36587 450.768 8.2141C450.667 8.06233 450.566 7.91056 450.466 7.80938C450.365 7.65762 450.214 7.55644 450.063 7.45526C449.912 7.35408 449.761 7.25291 449.609 7.20232C449.458 7.15173 449.257 7.10114 449.106 7.05055C448.904 6.99996 448.753 6.99996 448.552 6.99996C448.199 6.99996 447.847 7.05055 447.545 7.20232C447.243 7.35408 446.941 7.55644 446.689 7.80938C446.437 8.06233 446.236 8.36586 446.084 8.71999C445.933 9.02352 445.883 9.37764 445.883 9.73176C445.883 10.44 446.185 11.1483 446.689 11.6541C447.192 12.16 447.897 12.4636 448.602 12.4636C448.804 12.4636 448.955 12.4636 449.156 12.413C449.257 12.3624 449.458 12.3118 449.609 12.2106Z" fill="#B0B7C7"/>
<path d="M202.357 26.2744C202.508 26.2238 202.659 26.1226 202.811 26.0214C202.962 25.9203 203.113 25.8191 203.213 25.6673C203.314 25.5661 203.465 25.4144 203.566 25.2626C203.667 25.1108 203.767 24.9591 203.818 24.8073C203.868 24.6555 203.918 24.5038 203.969 24.3014C204.019 23.9473 204.019 23.5932 203.969 23.239C203.918 23.0367 203.868 22.8849 203.818 22.7332C203.767 22.5814 203.667 22.4296 203.566 22.2779C203.465 22.1261 203.364 21.9743 203.213 21.8731C203.062 21.772 202.962 21.6202 202.811 21.519C202.659 21.4178 202.508 21.3167 202.357 21.2661C202.206 21.2155 202.055 21.1649 201.854 21.1143C201.703 21.0637 201.501 21.0637 201.35 21.0637C200.998 21.0637 200.645 21.1143 200.343 21.2661C199.94 21.3673 199.688 21.5696 199.437 21.8226C198.933 22.3284 198.631 23.0367 198.631 23.7449C198.631 24.0991 198.681 24.4532 198.832 24.7567C198.983 25.1108 199.185 25.4144 199.437 25.6673C199.94 26.1732 200.645 26.4767 201.35 26.4767C201.552 26.4767 201.703 26.4767 201.854 26.4262C202.055 26.3756 202.206 26.325 202.357 26.2744Z" fill="#B0B7C7"/>
<path d="M398.296 23.7449C398.296 22.2273 397.087 21.0131 395.577 21.0131C394.066 21.0131 392.857 22.2273 392.857 23.7449C392.857 25.2626 394.066 26.4767 395.577 26.4767C397.087 26.4767 398.296 25.2626 398.296 23.7449Z" fill="#B0B7C7"/>
<path d="M362.996 23.7449C362.996 22.2273 361.787 21.0131 360.276 21.0131C358.816 21.0131 357.557 22.2273 357.557 23.7449C357.557 25.2626 358.766 26.4767 360.276 26.4767C361.787 26.4767 362.996 25.2626 362.996 23.7449Z" fill="#B0B7C7"/>
<path d="M380.621 23.7449C380.621 22.2273 379.412 21.0131 377.901 21.0131C376.391 21.0131 375.182 22.2273 375.182 23.7449C375.182 25.2626 376.391 26.4767 377.901 26.4767C379.412 26.4767 380.621 25.2626 380.621 23.7449Z" fill="#B0B7C7"/>
<path d="M415.971 23.7449C415.971 22.2273 414.763 21.0131 413.252 21.0131C411.741 21.0131 410.533 22.2273 410.533 23.7449C410.533 25.2626 411.741 26.4767 413.252 26.4767C414.763 26.4767 415.971 25.2626 415.971 23.7449Z" fill="#B0B7C7"/>
<path d="M345.32 23.7449C345.32 22.2273 344.112 21.0131 342.601 21.0131C341.09 21.0131 339.882 22.2273 339.882 23.7449C339.882 25.2626 341.09 26.4767 342.601 26.4767C344.112 26.4767 345.32 25.2626 345.32 23.7449Z" fill="#B0B7C7"/>
<path d="M433.646 23.7449C433.646 22.2273 432.438 21.0131 430.927 21.0131C429.416 21.0131 428.208 22.2273 428.208 23.7449C428.208 25.2626 429.416 26.4767 430.927 26.4767C432.438 26.4767 433.646 25.2626 433.646 23.7449Z" fill="#B0B7C7"/>
<path d="M221.694 23.7449C221.694 22.2273 220.486 21.0131 218.975 21.0131C217.464 21.0131 216.256 22.2273 216.256 23.7449C216.256 25.2626 217.464 26.4767 218.975 26.4767C220.486 26.4767 221.694 25.2626 221.694 23.7449Z" fill="#B0B7C7"/>
<path d="M257.045 23.7449C257.045 22.2273 255.836 21.0131 254.326 21.0131C252.815 21.0131 251.606 22.2273 251.606 23.7449C251.606 25.2626 252.815 26.4767 254.326 26.4767C255.836 26.4767 257.045 25.2626 257.045 23.7449Z" fill="#B0B7C7"/>
<path d="M274.67 23.7449C274.67 22.2273 273.461 21.0131 271.95 21.0131C270.49 21.0131 269.231 22.2273 269.231 23.7449C269.231 25.2626 270.44 26.4767 271.95 26.4767C273.461 26.4767 274.67 25.2626 274.67 23.7449Z" fill="#B0B7C7"/>
<path d="M239.37 23.7449C239.37 22.2273 238.161 21.0131 236.65 21.0131C235.14 21.0131 233.931 22.2273 233.931 23.7449C233.931 25.2626 235.14 26.4767 236.65 26.4767C238.161 26.4767 239.37 25.2626 239.37 23.7449Z" fill="#B0B7C7"/>
<path d="M327.645 23.7449C327.645 22.2273 326.437 21.0131 324.926 21.0131C323.415 21.0131 322.207 22.2273 322.207 23.7449C322.207 25.2626 323.415 26.4767 324.926 26.4767C326.437 26.4767 327.645 25.2626 327.645 23.7449Z" fill="#B0B7C7"/>
<path d="M310.02 23.7449C310.02 22.2273 308.812 21.0131 307.301 21.0131C305.79 21.0131 304.582 22.2273 304.582 23.7449C304.582 25.2626 305.79 26.4767 307.301 26.4767C308.812 26.4767 310.02 25.2626 310.02 23.7449Z" fill="#B0B7C7"/>
<path d="M292.345 23.7449C292.345 22.2273 291.136 21.0131 289.626 21.0131C288.115 21.0131 286.906 22.2273 286.906 23.7449C286.906 25.2626 288.115 26.4767 289.626 26.4767C291.136 26.4767 292.345 25.2626 292.345 23.7449Z" fill="#B0B7C7"/>
<path d="M451.221 23.239C451.17 23.0366 451.12 22.8849 451.07 22.7331C451.019 22.5813 450.919 22.4296 450.818 22.2778C450.717 22.126 450.617 21.9743 450.516 21.8731C450.012 21.3672 449.307 21.0637 448.602 21.0637C448.25 21.0637 447.897 21.1143 447.595 21.266C447.293 21.4178 446.991 21.6201 446.739 21.8731C446.487 22.126 446.286 22.4296 446.135 22.7837C445.984 23.0872 445.933 23.4414 445.933 23.7955C445.933 24.5037 446.235 25.212 446.739 25.7179C446.991 25.9708 447.293 26.1732 447.595 26.3249C447.897 26.4261 448.3 26.5273 448.602 26.5273C449.307 26.5273 450.012 26.2237 450.516 25.7179C451.12 25.0096 451.422 24.099 451.221 23.239Z" fill="#B0B7C7"/>
<path d="M202.357 40.2876C202.508 40.1864 202.659 40.1358 202.811 40.0346C202.962 39.9335 203.113 39.8323 203.213 39.6805C203.364 39.5287 203.465 39.4276 203.566 39.2758C203.667 39.124 203.767 38.9723 203.818 38.7699C203.868 38.6181 203.918 38.4664 203.969 38.264C204.019 37.9099 204.019 37.5558 203.969 37.2016C203.918 36.9993 203.868 36.8475 203.818 36.6958C203.767 36.544 203.667 36.3922 203.566 36.2405C203.465 36.0887 203.364 35.9875 203.264 35.8357C203.113 35.7346 202.962 35.5828 202.811 35.4816C202.659 35.431 202.508 35.3299 202.357 35.2793C202.206 35.2287 202.055 35.1781 201.854 35.1275C201.703 35.0769 201.501 35.0769 201.35 35.0769C200.998 35.0769 200.645 35.1275 200.343 35.2793C199.94 35.3804 199.688 35.5828 199.437 35.8357C198.933 36.3416 198.631 37.0499 198.631 37.7581C198.631 38.1122 198.681 38.4664 198.832 38.7699C198.983 39.124 199.185 39.4276 199.437 39.6805C199.94 40.1864 200.645 40.4899 201.35 40.4899C201.552 40.4899 201.703 40.4899 201.854 40.4393C202.055 40.3888 202.206 40.3382 202.357 40.2876Z" fill="#B0B7C7"/>
<path d="M380.621 37.7581C380.621 36.2405 379.412 35.0263 377.901 35.0263C376.391 35.0263 375.182 36.2405 375.182 37.7581C375.182 39.2758 376.391 40.4899 377.901 40.4899C379.412 40.4899 380.621 39.2758 380.621 37.7581Z" fill="#B0B7C7"/>
<path d="M362.996 37.7581C362.996 36.2405 361.787 35.0263 360.276 35.0263C358.816 35.0263 357.557 36.2405 357.557 37.7581C357.557 39.2758 358.766 40.4899 360.276 40.4899C361.787 40.4899 362.996 39.2758 362.996 37.7581Z" fill="#B0B7C7"/>
<path d="M398.296 37.7581C398.296 36.2405 397.087 35.0263 395.577 35.0263C394.066 35.0263 392.857 36.2405 392.857 37.7581C392.857 39.2758 394.066 40.4899 395.577 40.4899C397.087 40.4899 398.296 39.2758 398.296 37.7581Z" fill="#B0B7C7"/>
<path d="M345.32 37.7581C345.32 36.2405 344.112 35.0263 342.601 35.0263C341.09 35.0263 339.882 36.2405 339.882 37.7581C339.882 39.2758 341.09 40.4899 342.601 40.4899C344.112 40.4899 345.32 39.2758 345.32 37.7581Z" fill="#B0B7C7"/>
<path d="M415.971 37.7581C415.971 36.2405 414.763 35.0263 413.252 35.0263C411.741 35.0263 410.533 36.2405 410.533 37.7581C410.533 39.2758 411.741 40.4899 413.252 40.4899C414.763 40.4899 415.971 39.2758 415.971 37.7581Z" fill="#B0B7C7"/>
<path d="M433.646 37.7581C433.646 36.2405 432.438 35.0263 430.927 35.0263C429.416 35.0263 428.208 36.2405 428.208 37.7581C428.208 39.2758 429.416 40.4899 430.927 40.4899C432.438 40.4899 433.646 39.2758 433.646 37.7581Z" fill="#B0B7C7"/>
<path d="M292.345 37.7581C292.345 36.2405 291.136 35.0263 289.626 35.0263C288.115 35.0263 286.906 36.2405 286.906 37.7581C286.906 39.2758 288.115 40.4899 289.626 40.4899C291.136 40.4899 292.345 39.2758 292.345 37.7581Z" fill="#B0B7C7"/>
<path d="M257.045 37.7581C257.045 36.2405 255.836 35.0263 254.326 35.0263C252.815 35.0263 251.606 36.2405 251.606 37.7581C251.606 39.2758 252.815 40.4899 254.326 40.4899C255.836 40.4899 257.045 39.2758 257.045 37.7581Z" fill="#B0B7C7"/>
<path d="M239.37 37.7581C239.37 36.2405 238.161 35.0263 236.65 35.0263C235.14 35.0263 233.981 36.2405 233.981 37.7581C233.981 39.2758 235.19 40.4899 236.701 40.4899C238.211 40.4899 239.37 39.2758 239.37 37.7581Z" fill="#B0B7C7"/>
<path d="M274.67 37.7581C274.67 36.2405 273.461 35.0263 271.95 35.0263C270.49 35.0263 269.231 36.2405 269.231 37.7581C269.231 39.2758 270.44 40.4899 271.95 40.4899C273.461 40.4899 274.67 39.2758 274.67 37.7581Z" fill="#B0B7C7"/>
<path d="M327.645 37.7581C327.645 36.2405 326.437 35.0263 324.926 35.0263C323.415 35.0263 322.207 36.2405 322.207 37.7581C322.207 39.2758 323.415 40.4899 324.926 40.4899C326.437 40.4899 327.645 39.2758 327.645 37.7581Z" fill="#B0B7C7"/>
<path d="M310.02 37.7581C310.02 36.2405 308.812 35.0263 307.301 35.0263C305.79 35.0263 304.582 36.2405 304.582 37.7581C304.582 39.2758 305.79 40.4899 307.301 40.4899C308.812 40.4899 310.02 39.2758 310.02 37.7581Z" fill="#B0B7C7"/>
<path d="M221.694 37.7581C221.694 36.2405 220.486 35.0263 218.975 35.0263C217.464 35.0263 216.306 36.2405 216.306 37.7581C216.306 39.2758 217.515 40.4899 219.025 40.4899C220.536 40.4899 221.694 39.2758 221.694 37.7581Z" fill="#B0B7C7"/>
<path d="M449.609 40.2875C449.761 40.2369 449.912 40.1358 450.063 40.0346C450.214 39.9334 450.365 39.8322 450.466 39.6805C450.566 39.5287 450.717 39.4275 450.768 39.2757C450.868 39.124 450.969 38.9722 451.019 38.8204C451.07 38.6687 451.171 38.5169 451.171 38.3146C451.221 37.9604 451.221 37.6063 451.171 37.2522C451.12 37.0498 451.07 36.8981 451.019 36.7463C450.969 36.5945 450.868 36.4428 450.768 36.291C450.667 36.1392 450.566 35.9875 450.466 35.8863C450.365 35.7851 450.214 35.6333 450.063 35.5322C449.912 35.431 449.761 35.3298 449.609 35.2792C449.458 35.2286 449.257 35.178 449.106 35.1274C448.904 35.0769 448.753 35.0769 448.552 35.0769C448.199 35.0769 447.847 35.1274 447.545 35.2792C447.243 35.431 446.941 35.6333 446.689 35.8863C446.185 36.3922 445.883 37.1004 445.883 37.8087C445.883 38.1628 445.933 38.5169 446.084 38.8204C446.185 39.1746 446.387 39.4781 446.689 39.731C446.941 39.984 447.243 40.1863 447.545 40.3381C447.847 40.4393 448.25 40.5405 448.552 40.5405C448.753 40.5405 448.904 40.5405 449.106 40.4899C449.257 40.3887 449.458 40.3381 449.609 40.2875Z" fill="#B0B7C7"/>
<path d="M202.357 54.3007C202.508 54.1995 202.659 54.1489 202.811 54.0477C202.962 53.9466 203.113 53.8454 203.264 53.6936C203.364 53.5925 203.516 53.4407 203.616 53.2889C203.667 53.1371 203.767 52.9854 203.818 52.8336C203.868 52.6313 203.918 52.4795 203.969 52.3277C204.019 51.9736 204.019 51.6195 203.969 51.2654C203.918 51.063 203.868 50.9112 203.818 50.7595C203.767 50.6077 203.667 50.4053 203.566 50.2536C203.465 50.1524 203.364 50.0006 203.264 49.8489C203.113 49.7477 202.962 49.6465 202.811 49.4947C202.659 49.4441 202.508 49.343 202.357 49.2924C202.206 49.1912 202.055 49.1406 201.854 49.1406C201.703 49.09 201.501 49.09 201.35 49.09C200.998 49.09 200.645 49.1406 200.343 49.2924C199.94 49.3936 199.688 49.5959 199.437 49.8489C199.185 50.1018 198.983 50.4053 198.832 50.7595C198.681 51.063 198.631 51.4171 198.631 51.7712C198.631 52.4795 198.933 53.1877 199.437 53.6936C199.688 53.9466 199.94 54.1489 200.293 54.3007C200.645 54.4019 200.947 54.5031 201.35 54.5031C201.552 54.5031 201.703 54.5031 201.854 54.4525C202.055 54.4019 202.206 54.3513 202.357 54.3007Z" fill="#B0B7C7"/>
<path d="M345.32 51.7712C345.32 50.2536 344.112 49.0394 342.601 49.0394C341.09 49.0394 339.882 50.2536 339.882 51.7712C339.882 53.2889 341.09 54.5031 342.601 54.5031C344.112 54.5031 345.32 53.2889 345.32 51.7712Z" fill="#B0B7C7"/>
<path d="M327.645 51.7712C327.645 50.2536 326.437 49.0394 324.926 49.0394C323.415 49.0394 322.207 50.2536 322.207 51.7712C322.207 53.2889 323.415 54.5031 324.926 54.5031C326.437 54.5031 327.645 53.2889 327.645 51.7712Z" fill="#B0B7C7"/>
<path d="M380.621 51.7712C380.621 50.2536 379.412 49.0394 377.901 49.0394C376.391 49.0394 375.182 50.2536 375.182 51.7712C375.182 53.2889 376.391 54.5031 377.901 54.5031C379.412 54.5031 380.621 53.2889 380.621 51.7712Z" fill="#B0B7C7"/>
<path d="M398.296 51.7712C398.296 50.2536 397.087 49.0394 395.577 49.0394C394.066 49.0394 392.857 50.2536 392.857 51.7712C392.857 53.2889 394.066 54.5031 395.577 54.5031C397.087 54.5031 398.296 53.2889 398.296 51.7712Z" fill="#B0B7C7"/>
<path d="M362.996 51.7712C362.996 50.2536 361.787 49.0394 360.276 49.0394C358.816 49.0394 357.557 50.2536 357.557 51.7712C357.557 53.2889 358.766 54.5031 360.276 54.5031C361.787 54.5031 362.996 53.2889 362.996 51.7712Z" fill="#B0B7C7"/>
<path d="M310.02 51.7712C310.02 50.2536 308.812 49.0394 307.301 49.0394C305.79 49.0394 304.582 50.2536 304.582 51.7712C304.582 53.2889 305.79 54.5031 307.301 54.5031C308.812 54.5031 310.02 53.2889 310.02 51.7712Z" fill="#B0B7C7"/>
<path d="M292.345 51.7712C292.345 50.2536 291.136 49.0394 289.626 49.0394C288.115 49.0394 286.906 50.2536 286.906 51.7712C286.906 53.2889 288.115 54.5031 289.626 54.5031C291.136 54.5031 292.345 53.2889 292.345 51.7712Z" fill="#B0B7C7"/>
<path d="M221.694 51.7712C221.694 50.2536 220.486 49.0394 218.975 49.0394C217.464 49.0394 216.306 50.2536 216.306 51.7712C216.306 53.2889 217.515 54.5031 219.025 54.5031C220.536 54.5031 221.694 53.2889 221.694 51.7712Z" fill="#B0B7C7"/>
<path d="M433.646 51.7712C433.646 50.2536 432.438 49.0394 430.927 49.0394C429.416 49.0394 428.208 50.2536 428.208 51.7712C428.208 53.2889 429.416 54.5031 430.927 54.5031C432.438 54.5031 433.646 53.2889 433.646 51.7712Z" fill="#B0B7C7"/>
<path d="M239.37 51.7712C239.37 50.2536 238.161 49.0394 236.65 49.0394C235.14 49.0394 233.981 50.2536 233.981 51.7712C233.981 53.2889 235.19 54.5031 236.701 54.5031C238.211 54.5031 239.37 53.2889 239.37 51.7712Z" fill="#B0B7C7"/>
<path d="M274.67 51.7712C274.67 50.2536 273.461 49.0394 271.95 49.0394C270.49 49.0394 269.231 50.2536 269.231 51.7712C269.231 53.2889 270.44 54.5031 271.95 54.5031C273.461 54.5031 274.67 53.2889 274.67 51.7712Z" fill="#B0B7C7"/>
<path d="M257.045 51.7712C257.045 50.2536 255.836 49.0394 254.326 49.0394C252.815 49.0394 251.606 50.2536 251.606 51.7712C251.606 53.2889 252.815 54.5031 254.326 54.5031C255.836 54.5031 257.045 53.2889 257.045 51.7712Z" fill="#B0B7C7"/>
<path d="M415.971 51.7712C415.971 50.2536 414.763 49.0394 413.252 49.0394C411.741 49.0394 410.533 50.2536 410.533 51.7712C410.533 53.2889 411.741 54.5031 413.252 54.5031C414.763 54.5031 415.971 53.2889 415.971 51.7712Z" fill="#B0B7C7"/>
<path d="M451.221 51.2654C451.17 51.063 451.12 50.9112 451.07 50.7595C451.019 50.6077 450.919 50.4559 450.818 50.3042C450.717 50.1524 450.617 50.0006 450.516 49.8995C450.012 49.3936 449.307 49.09 448.602 49.09C448.25 49.09 447.897 49.1406 447.595 49.2924C447.293 49.3936 446.991 49.5959 446.739 49.8489C446.487 50.1018 446.286 50.4053 446.135 50.7595C445.984 51.063 445.933 51.4171 445.933 51.7712C445.933 52.1254 445.984 52.4795 446.135 52.8336C446.235 53.1371 446.437 53.4407 446.739 53.6936C446.991 53.9466 447.293 54.1489 447.595 54.3007C447.897 54.4019 448.3 54.5031 448.602 54.5031C449.307 54.5031 450.012 54.1995 450.516 53.6936C451.12 53.0866 451.422 52.1254 451.221 51.2654Z" fill="#B0B7C7"/>
<path d="M202.357 68.3138C202.508 68.2632 202.659 68.1621 202.811 68.0609C202.962 67.9597 203.113 67.8585 203.264 67.7067C203.364 67.555 203.516 67.4538 203.616 67.302C203.667 67.1503 203.767 66.9985 203.818 66.8467C203.868 66.695 203.918 66.4926 203.969 66.3408C204.019 65.9867 204.019 65.6326 203.969 65.2785C203.918 65.0761 203.868 64.9244 203.818 64.7726C203.767 64.6208 203.667 64.4185 203.566 64.3173C203.465 64.1655 203.364 64.0138 203.213 63.9126C203.062 63.8114 202.962 63.6596 202.811 63.609C202.659 63.4573 202.508 63.3561 202.357 63.3055C202.206 63.2549 202.055 63.1537 201.854 63.1537C201.703 63.1032 201.501 63.1032 201.35 63.1032C200.645 63.1032 199.94 63.4067 199.437 63.9126C199.185 64.1149 198.983 64.4185 198.832 64.7726C198.681 65.0761 198.631 65.4302 198.631 65.7844C198.631 66.5432 198.933 67.2009 199.437 67.7067C199.94 68.2126 200.645 68.5162 201.35 68.5162C201.552 68.5162 201.703 68.5162 201.854 68.4656C202.055 68.415 202.206 68.3644 202.357 68.3138Z" fill="#B0B7C7"/>
<path d="M327.645 65.7844C327.645 64.2667 326.437 63.0526 324.926 63.0526C323.415 63.0526 322.207 64.2667 322.207 65.7844C322.207 67.302 323.415 68.5162 324.926 68.5162C326.437 68.5162 327.645 67.302 327.645 65.7844Z" fill="#B0B7C7"/>
<path d="M345.32 65.7844C345.32 64.2667 344.112 63.0526 342.601 63.0526C341.09 63.0526 339.882 64.2667 339.882 65.7844C339.882 67.302 341.09 68.5162 342.601 68.5162C344.112 68.5162 345.32 67.302 345.32 65.7844Z" fill="#B0B7C7"/>
<path d="M380.621 65.7844C380.621 64.2667 379.412 63.0526 377.901 63.0526C376.391 63.0526 375.182 64.2667 375.182 65.7844C375.182 67.302 376.391 68.5162 377.901 68.5162C379.412 68.5162 380.621 67.302 380.621 65.7844Z" fill="#B0B7C7"/>
<path d="M362.996 65.7844C362.996 64.2667 361.787 63.0526 360.276 63.0526C358.816 63.0526 357.557 64.2667 357.557 65.7844C357.557 67.302 358.766 68.5162 360.276 68.5162C361.787 68.5162 362.996 67.302 362.996 65.7844Z" fill="#B0B7C7"/>
<path d="M433.646 65.7844C433.646 64.2667 432.438 63.0526 430.927 63.0526C429.416 63.0526 428.208 64.2667 428.208 65.7844C428.208 67.302 429.416 68.5162 430.927 68.5162C432.438 68.5162 433.646 67.302 433.646 65.7844Z" fill="#B0B7C7"/>
<path d="M398.296 65.7844C398.296 64.2667 397.087 63.0526 395.577 63.0526C394.066 63.0526 392.857 64.2667 392.857 65.7844C392.857 67.302 394.066 68.5162 395.577 68.5162C397.087 68.5162 398.296 67.302 398.296 65.7844Z" fill="#B0B7C7"/>
<path d="M415.971 65.7844C415.971 64.2667 414.763 63.0526 413.252 63.0526C411.741 63.0526 410.533 64.2667 410.533 65.7844C410.533 67.302 411.741 68.5162 413.252 68.5162C414.763 68.5162 415.971 67.302 415.971 65.7844Z" fill="#B0B7C7"/>
<path d="M257.045 65.7844C257.045 64.2667 255.836 63.0526 254.326 63.0526C252.815 63.0526 251.606 64.2667 251.606 65.7844C251.606 67.302 252.815 68.5162 254.326 68.5162C255.836 68.5162 257.045 67.302 257.045 65.7844Z" fill="#B0B7C7"/>
<path d="M310.02 65.7844C310.02 64.2667 308.812 63.0526 307.301 63.0526C305.79 63.0526 304.582 64.2667 304.582 65.7844C304.582 67.302 305.79 68.5162 307.301 68.5162C308.812 68.5162 310.02 67.302 310.02 65.7844Z" fill="#B0B7C7"/>
<path d="M239.37 65.7844C239.37 64.2667 238.161 63.0526 236.65 63.0526C235.14 63.0526 233.981 64.3173 233.981 65.7844C233.981 67.302 235.19 68.5162 236.701 68.5162C238.211 68.5162 239.37 67.302 239.37 65.7844Z" fill="#B0B7C7"/>
<path d="M292.345 65.7844C292.345 64.2667 291.136 63.0526 289.626 63.0526C288.115 63.0526 286.906 64.2667 286.906 65.7844C286.906 67.302 288.115 68.5162 289.626 68.5162C291.136 68.5162 292.345 67.302 292.345 65.7844Z" fill="#B0B7C7"/>
<path d="M274.67 65.7844C274.67 64.2667 273.461 63.0526 271.95 63.0526C270.49 63.0526 269.231 64.2667 269.231 65.7844C269.231 67.302 270.44 68.5162 271.95 68.5162C273.461 68.5162 274.67 67.302 274.67 65.7844Z" fill="#B0B7C7"/>
<path d="M221.694 65.7844C221.694 64.2667 220.486 63.0526 218.975 63.0526C217.464 63.0526 216.306 64.3173 216.306 65.7844C216.306 67.302 217.515 68.5162 219.025 68.5162C220.536 68.5162 221.694 67.302 221.694 65.7844Z" fill="#B0B7C7"/>
<path d="M450.818 67.302C450.919 67.1503 451.019 66.9985 451.07 66.8467C451.12 66.695 451.221 66.4926 451.221 66.3408C451.271 65.9867 451.271 65.6326 451.221 65.2785C451.17 65.0761 451.12 64.9244 451.07 64.7726C451.019 64.6208 450.919 64.4691 450.818 64.3173C450.717 64.1655 450.617 64.0138 450.516 63.9126C450.415 63.8114 450.264 63.6596 450.113 63.5585C449.962 63.4573 449.811 63.3561 449.66 63.3055C449.509 63.2549 449.307 63.1537 449.156 63.1537C448.955 63.1032 448.804 63.1032 448.602 63.1032C448.25 63.1032 447.897 63.1537 447.595 63.3055C447.293 63.4067 446.991 63.609 446.739 63.862C446.235 64.3679 445.933 65.0761 445.933 65.7844C445.933 66.4926 446.235 67.2009 446.739 67.7067C446.991 67.9597 447.293 68.1621 447.595 68.3138C447.897 68.4656 448.3 68.5162 448.602 68.5162C449.307 68.5162 450.012 68.2126 450.516 67.7067C450.617 67.6056 450.717 67.4538 450.818 67.302Z" fill="#B0B7C7"/>
<path d="M202.357 82.327C202.508 82.2764 202.659 82.1752 202.811 82.0741C202.962 81.9729 203.113 81.8717 203.213 81.7199C203.314 81.5682 203.465 81.467 203.566 81.3152C203.667 81.1635 203.767 81.0117 203.818 80.8599C203.868 80.7082 203.918 80.5058 203.969 80.354C204.019 79.9999 204.019 79.6458 203.969 79.2917C203.918 79.0893 203.868 78.9375 203.818 78.7858C203.767 78.634 203.667 78.4822 203.566 78.3305C203.465 78.1787 203.364 78.0269 203.213 77.9258C203.062 77.774 202.962 77.6728 202.811 77.6222C202.659 77.4705 202.508 77.3693 202.357 77.3187C202.206 77.2681 202.055 77.2175 201.854 77.1669C201.703 77.1163 201.501 77.1163 201.35 77.1163C200.645 77.1163 199.94 77.4199 199.437 77.9258C199.185 78.1281 198.983 78.4822 198.832 78.7858C198.681 79.0893 198.631 79.4434 198.631 79.7976C198.631 80.5564 198.933 81.214 199.437 81.7199C199.94 82.2764 200.595 82.5294 201.35 82.5294C201.552 82.5294 201.703 82.5294 201.854 82.4788C202.055 82.4282 202.206 82.4282 202.357 82.327Z" fill="#B0B7C7"/>
<path d="M327.645 79.7976C327.645 78.2799 326.437 77.0657 324.926 77.0657C323.415 77.0657 322.207 78.2799 322.207 79.7976C322.207 81.3152 323.466 82.5294 324.976 82.5294C326.487 82.5294 327.645 81.3152 327.645 79.7976Z" fill="#B0B7C7"/>
<path d="M345.32 79.7976C345.32 78.2799 344.112 77.0657 342.601 77.0657C341.09 77.0657 339.882 78.2799 339.882 79.7976C339.882 81.3152 341.141 82.5294 342.601 82.5294C344.112 82.5294 345.32 81.3152 345.32 79.7976Z" fill="#B0B7C7"/>
<path d="M380.621 79.7976C380.621 78.2799 379.412 77.0657 377.901 77.0657C376.391 77.0657 375.182 78.2799 375.182 79.7976C375.182 81.3152 376.441 82.5294 377.952 82.5294C379.412 82.5294 380.621 81.3152 380.621 79.7976Z" fill="#B0B7C7"/>
<path d="M362.996 79.7976C362.996 78.2799 361.787 77.0657 360.276 77.0657C358.816 77.0657 357.557 78.2799 357.557 79.7976C357.557 81.3152 358.816 82.5294 360.276 82.5294C361.787 82.5294 362.996 81.3152 362.996 79.7976Z" fill="#B0B7C7"/>
<path d="M433.646 79.7976C433.646 78.2799 432.438 77.0657 430.927 77.0657C429.416 77.0657 428.208 78.2799 428.208 79.7976C428.208 81.3152 429.416 82.5294 430.927 82.5294C432.438 82.5294 433.646 81.3152 433.646 79.7976Z" fill="#B0B7C7"/>
<path d="M398.296 79.7976C398.296 78.2799 397.087 77.0657 395.577 77.0657C394.066 77.0657 392.857 78.2799 392.857 79.7976C392.857 81.3152 394.116 82.5294 395.577 82.5294C397.087 82.5294 398.296 81.3152 398.296 79.7976Z" fill="#B0B7C7"/>
<path d="M415.971 79.7976C415.971 78.2799 414.763 77.0657 413.252 77.0657C411.741 77.0657 410.533 78.2799 410.533 79.7976C410.533 81.3152 411.792 82.5294 413.252 82.5294C414.763 82.5294 415.971 81.3152 415.971 79.7976Z" fill="#B0B7C7"/>
<path d="M257.045 79.7976C257.045 78.2799 255.836 77.0657 254.326 77.0657C252.815 77.0657 251.606 78.2799 251.606 79.7976C251.606 81.3152 252.815 82.5294 254.326 82.5294C255.836 82.5294 257.045 81.3152 257.045 79.7976Z" fill="#B0B7C7"/>
<path d="M310.02 79.7976C310.02 78.2799 308.812 77.0657 307.301 77.0657C305.79 77.0657 304.582 78.2799 304.582 79.7976C304.582 81.3152 305.79 82.5294 307.301 82.5294C308.812 82.5294 310.02 81.3152 310.02 79.7976Z" fill="#B0B7C7"/>
<path d="M239.37 79.7976C239.37 78.2799 238.161 77.0657 236.65 77.0657C235.14 77.0657 233.981 78.3305 233.981 79.7976C233.981 81.2646 235.19 82.5294 236.65 82.5294C238.111 82.5294 239.37 81.3152 239.37 79.7976Z" fill="#B0B7C7"/>
<path d="M292.345 79.7976C292.345 78.2799 291.136 77.0657 289.626 77.0657C288.115 77.0657 286.906 78.2799 286.906 79.7976C286.906 81.3152 288.115 82.5294 289.626 82.5294C291.136 82.5294 292.345 81.3152 292.345 79.7976Z" fill="#B0B7C7"/>
<path d="M274.67 79.7976C274.67 78.2799 273.461 77.0657 271.95 77.0657C270.49 77.0657 269.231 78.2799 269.231 79.7976C269.231 81.3152 270.49 82.5294 271.95 82.5294C273.461 82.5294 274.67 81.3152 274.67 79.7976Z" fill="#B0B7C7"/>
<path d="M221.694 79.7976C221.694 78.2799 220.486 77.0657 218.975 77.0657C217.464 77.0657 216.306 78.3305 216.306 79.7976C216.306 81.2646 217.515 82.5294 218.975 82.5294C220.435 82.5294 221.694 81.3152 221.694 79.7976Z" fill="#B0B7C7"/>
<path d="M450.818 81.3152C450.919 81.1635 451.019 81.0117 451.07 80.8599C451.12 80.7082 451.221 80.5058 451.221 80.354C451.271 79.9999 451.271 79.6458 451.221 79.2917C451.171 79.0893 451.12 78.9375 451.07 78.7858C451.019 78.634 450.919 78.4822 450.818 78.3305C450.717 78.1787 450.617 78.0269 450.516 77.9258C450.415 77.774 450.264 77.6728 450.113 77.5716C449.962 77.4705 449.811 77.3693 449.66 77.3187C449.509 77.2681 449.307 77.2175 449.156 77.1669C448.955 77.1163 448.804 77.1163 448.602 77.1163C448.25 77.1163 447.897 77.1669 447.595 77.3187C447.243 77.4705 446.941 77.6222 446.689 77.8752C446.185 78.3811 445.883 79.0893 445.883 79.7976C445.883 80.5058 446.185 81.214 446.689 81.7199C446.941 81.9729 447.243 82.1752 447.545 82.327C447.847 82.4788 448.25 82.5294 448.552 82.5294C449.257 82.5294 449.962 82.2258 450.466 81.7199C450.617 81.6188 450.717 81.467 450.818 81.3152Z" fill="#B0B7C7"/>
<path d="M467.285 12.2106C467.436 12.16 467.587 12.0589 467.738 11.9577C467.889 11.8565 468.04 11.7553 468.141 11.6036C468.241 11.5024 468.393 11.3506 468.443 11.1988C468.544 11.0471 468.644 10.8953 468.695 10.7435C468.745 10.5918 468.846 10.44 468.846 10.2377C468.896 9.88353 468.896 9.52941 468.846 9.17529C468.795 8.97293 468.745 8.82116 468.695 8.66939C468.644 8.51763 468.544 8.36587 468.443 8.2141C468.342 8.06233 468.241 7.91056 468.141 7.80938C468.04 7.65762 467.889 7.55644 467.738 7.45526C467.587 7.35408 467.436 7.25291 467.285 7.20232C467.134 7.15173 466.932 7.10114 466.781 7.05055C466.58 6.99996 466.429 6.99996 466.227 6.99996C465.875 6.99996 465.522 7.05055 465.22 7.20232C464.918 7.35408 464.616 7.55644 464.364 7.80938C464.112 8.06233 463.911 8.36586 463.76 8.71999C463.609 9.02352 463.558 9.37764 463.558 9.73176C463.558 10.44 463.86 11.1483 464.364 11.6541C464.868 12.16 465.573 12.4636 466.278 12.4636C466.479 12.4636 466.63 12.4636 466.831 12.413C466.932 12.3624 467.083 12.3118 467.285 12.2106Z" fill="#B0B7C7"/>
<path d="M468.896 23.239C468.846 23.0366 468.795 22.8849 468.745 22.7331C468.695 22.5813 468.594 22.4296 468.493 22.2778C468.393 22.126 468.292 21.9743 468.191 21.8731C467.688 21.3672 466.983 21.0637 466.278 21.0637C465.925 21.0637 465.573 21.1143 465.27 21.266C464.968 21.4178 464.666 21.6201 464.414 21.8731C464.163 22.126 463.961 22.4296 463.81 22.7837C463.659 23.0872 463.609 23.4414 463.609 23.7955C463.609 24.5037 463.911 25.212 464.414 25.7179C464.666 25.9708 464.968 26.1732 465.27 26.3249C465.573 26.4261 465.975 26.5273 466.278 26.5273C466.983 26.5273 467.688 26.2237 468.191 25.7179C468.745 25.0096 469.047 24.099 468.896 23.239Z" fill="#B0B7C7"/>
<path d="M467.285 40.2875C467.436 40.2369 467.587 40.1358 467.738 40.0346C467.889 39.9334 468.04 39.8322 468.141 39.6805C468.241 39.5287 468.393 39.4275 468.443 39.2757C468.544 39.124 468.644 38.9722 468.695 38.8204C468.745 38.6687 468.846 38.5169 468.846 38.3146C468.896 37.9604 468.896 37.6063 468.846 37.2522C468.795 37.0498 468.745 36.8981 468.695 36.7463C468.644 36.5945 468.544 36.4428 468.443 36.291C468.342 36.1392 468.241 35.9875 468.141 35.8863C468.04 35.7851 467.889 35.6333 467.738 35.5322C467.587 35.431 467.436 35.3298 467.285 35.2792C467.134 35.2286 466.932 35.178 466.781 35.1274C466.58 35.0769 466.429 35.0769 466.227 35.0769C465.875 35.0769 465.522 35.1274 465.22 35.2792C464.918 35.431 464.616 35.6333 464.364 35.8863C463.86 36.3922 463.558 37.1004 463.558 37.8087C463.558 38.1628 463.609 38.5169 463.76 38.8204C463.86 39.1746 464.062 39.4781 464.364 39.731C464.616 39.984 464.918 40.1863 465.22 40.3381C465.522 40.4393 465.925 40.5405 466.227 40.5405C466.429 40.5405 466.58 40.5405 466.781 40.4899C466.932 40.3887 467.083 40.3381 467.285 40.2875Z" fill="#B0B7C7"/>
<path d="M468.896 51.2654C468.846 51.063 468.795 50.9112 468.745 50.7595C468.695 50.6077 468.594 50.4559 468.493 50.3042C468.393 50.1524 468.292 50.0006 468.191 49.8995C467.688 49.3936 466.983 49.09 466.278 49.09C465.925 49.09 465.573 49.1406 465.27 49.2924C464.968 49.3936 464.666 49.5959 464.414 49.8489C464.163 50.1018 463.961 50.4053 463.81 50.7595C463.659 51.063 463.609 51.4171 463.609 51.7712C463.609 52.1254 463.659 52.4795 463.81 52.8336C463.911 53.1371 464.112 53.4407 464.414 53.6936C464.666 53.9466 464.968 54.1489 465.27 54.3007C465.573 54.4019 465.975 54.5031 466.278 54.5031C466.983 54.5031 467.688 54.1995 468.191 53.6936C468.745 53.0866 469.047 52.1254 468.896 51.2654Z" fill="#B0B7C7"/>
<path d="M468.493 67.302C468.594 67.1503 468.695 66.9985 468.745 66.8467C468.795 66.695 468.896 66.4926 468.896 66.3408C468.946 65.9867 468.946 65.6326 468.896 65.2785C468.846 65.0761 468.795 64.9244 468.745 64.7726C468.695 64.6208 468.594 64.4691 468.493 64.3173C468.393 64.1655 468.292 64.0138 468.191 63.9126C468.09 63.8114 467.939 63.6596 467.788 63.5585C467.637 63.4573 467.486 63.3561 467.335 63.3055C467.184 63.2549 466.983 63.1537 466.831 63.1537C466.63 63.1032 466.479 63.1032 466.278 63.1032C465.925 63.1032 465.573 63.1537 465.27 63.3055C464.968 63.4067 464.666 63.609 464.414 63.862C463.911 64.3679 463.609 65.0761 463.609 65.7844C463.609 66.4926 463.911 67.2009 464.414 67.7067C464.666 67.9597 464.968 68.1621 465.27 68.3138C465.573 68.4656 465.975 68.5162 466.278 68.5162C466.983 68.5162 467.688 68.2126 468.191 67.7067C468.241 67.6056 468.393 67.4538 468.493 67.302Z" fill="#B0B7C7"/>
<path d="M468.493 81.3152C468.594 81.1635 468.695 81.0117 468.745 80.8599C468.795 80.7082 468.896 80.5058 468.896 80.354C468.946 79.9999 468.946 79.6458 468.896 79.2917C468.846 79.0893 468.795 78.9375 468.745 78.7858C468.695 78.634 468.594 78.4822 468.493 78.3305C468.393 78.1787 468.292 78.0269 468.191 77.9258C468.09 77.774 467.939 77.6728 467.788 77.5716C467.637 77.4705 467.486 77.3693 467.335 77.3187C467.184 77.2681 466.983 77.2175 466.831 77.1669C466.63 77.1163 466.479 77.1163 466.278 77.1163C465.925 77.1163 465.573 77.1669 465.27 77.3187C464.868 77.4705 464.565 77.6222 464.314 77.8752C463.81 78.3811 463.508 79.0893 463.508 79.7976C463.508 80.5058 463.81 81.214 464.314 81.7199C464.565 81.9729 464.868 82.1752 465.17 82.327C465.522 82.4788 465.875 82.5294 466.227 82.5294C466.932 82.5294 467.637 82.2258 468.141 81.7199C468.242 81.6188 468.393 81.467 468.493 81.3152Z" fill="#B0B7C7"/>
</g>
<path d="M413.416 187.645L410.217 193.192L407.019 187.645L401.472 184.446L407.019 181.248L410.217 175.701L413.416 181.248L418.963 184.446L413.416 187.645Z" fill="#1F3374"/>
<rect x="79.1833" y="42.6331" width="347.945" height="266.93" fill="white" stroke="#AFAFAF"/>
<rect width="335" height="56" transform="matrix(1 0 0 -1 84.9999 132)" fill="#F5F6F7"/>
<rect width="7" height="154" transform="matrix(1 0 0 -1 413 291)" fill="#F5F6F7"/>
<rect width="7" height="68" transform="matrix(1 0 0 -1 413 212)" fill="#DCDCDC"/>
<rect x="358" y="55.0001" width="18" height="9" fill="#F5F6F7"/>
<rect x="380" y="55" width="18" height="9" fill="#F5F6F7"/>
<rect x="402" y="55" width="18" height="9" fill="#F5F6F7"/>
<g clip-path="url(#clip1)">
<path d="M33.2085 55.738C21.1159 61.7256 16.1712 76.3912 22.1642 88.4945C28.1571 100.598 42.8183 105.556 54.9109 99.568C67.0034 93.5804 71.9481 78.9148 65.9552 66.8114C59.9622 54.7081 45.301 49.7504 33.2085 55.738Z" fill="#FAE2D7"/>
<path d="M56.8122 62.0677C74.7602 53.1807 96.5913 60.563 105.486 78.527C114.381 96.491 107.009 118.311 89.0615 127.198C71.1135 136.085 49.2824 128.703 40.3875 110.739C31.4927 92.7747 38.8818 70.9459 56.8122 62.0677ZM87.5051 124.055C103.716 116.028 110.371 96.29 102.337 80.0645C94.3029 63.8389 74.571 57.1665 58.3599 65.1934C42.1488 73.2203 35.5115 92.9495 43.5542 109.193C51.597 125.436 71.294 132.082 87.5051 124.055Z" fill="#F37453"/>
</g>
<path d="M103.939 29.6786L92.5082 41.1177C91.7631 42.3255 91.0892 43.5828 90.4922 44.8822L107.7 27.6612C106.402 28.2586 105.146 28.933 103.939 29.6786Z" fill="#8FD2FF"/>
<path d="M113.195 25.6771L88.5096 50.3807C88.3091 51.1307 88.1319 51.8894 87.9794 52.6583L115.469 25.148C114.701 25.2992 113.943 25.4765 113.195 25.6771Z" fill="#8FD2FF"/>
<path d="M119.539 24.587L87.4203 56.7296C87.3724 57.3401 87.3404 57.9535 87.3245 58.5712L121.379 24.4911C120.762 24.5085 120.149 24.5405 119.539 24.587Z" fill="#8FD2FF"/>
<path d="M124.812 24.5732L87.4065 62.0066C87.4443 62.5415 87.4965 63.0735 87.5576 63.6025L126.407 24.7244C125.878 24.6634 125.347 24.611 124.812 24.5732Z" fill="#8FD2FF"/>
<path d="M129.427 25.2134L88.0449 66.6265C88.1436 67.1032 88.2526 67.5771 88.3717 68.0465L130.846 25.5405C130.377 25.4213 129.905 25.3123 129.427 25.2134Z" fill="#8FD2FF"/>
<path d="M133.558 26.3399L89.1719 70.7588C89.3186 71.1904 89.4755 71.6163 89.6381 72.0393L134.839 26.805C134.415 26.6437 133.988 26.4867 133.558 26.3399Z" fill="#8FD2FF"/>
<path d="M137.293 27.8618L90.6912 74.4987C90.8785 74.8912 91.0717 75.2792 91.2721 75.663L138.455 28.4447C138.073 28.2426 137.686 28.0493 137.293 27.8618Z" fill="#8FD2FF"/>
<path d="M140.694 29.7207L92.5503 77.8998C92.7725 78.2573 92.9991 78.6134 93.2344 78.9623L141.755 30.4053C141.405 30.1698 141.051 29.9431 140.694 29.7207Z" fill="#8FD2FF"/>
<path d="M143.79 31.882L94.7085 80.9986C94.9627 81.3256 95.2241 81.6454 95.4899 81.9622L144.753 32.6625C144.436 32.398 144.115 32.1364 143.79 31.882Z" fill="#8FD2FF"/>
<path d="M146.599 34.3298L97.1544 83.8112C97.4405 84.1077 97.731 84.3984 98.0273 84.6833L147.471 35.2033C147.186 34.9068 146.895 34.6161 146.599 34.3298Z" fill="#8FD2FF"/>
<path d="M149.132 37.0565L99.8791 86.3446C100.197 86.6106 100.518 86.8693 100.845 87.1237L149.909 38.0231C149.656 37.6961 149.398 37.3734 149.132 37.0565Z" fill="#8FD2FF"/>
<path d="M151.382 40.0654L102.886 88.5976C103.236 88.8316 103.59 89.0584 103.949 89.2808L152.065 41.1293C151.842 40.7703 151.616 40.4157 151.382 40.0654Z" fill="#8FD2FF"/>
<path d="M153.335 43.3705L106.19 90.5511C106.575 90.7516 106.964 90.9435 107.358 91.1295L153.915 44.5377C153.728 44.1453 153.534 43.7557 153.335 43.3705Z" fill="#8FD2FF"/>
<path d="M154.962 47.0029L109.818 92.1805C110.242 92.3418 110.669 92.4988 111.101 92.6442L155.426 48.2864C155.28 47.8547 155.125 47.4274 154.962 47.0029Z" fill="#8FD2FF"/>
<path d="M156.219 51.0058L113.819 93.4363C114.29 93.554 114.764 93.663 115.241 93.7604L156.544 52.4273C156.445 51.9506 156.336 51.4767 156.219 51.0058Z" fill="#8FD2FF"/>
<path d="M157.022 55.4622L118.273 94.24C118.803 94.301 119.336 94.349 119.872 94.3868L157.168 57.0625C157.132 56.5261 157.083 55.9927 157.022 55.4622Z" fill="#8FD2FF"/>
<path d="M157.235 60.5087L123.314 94.4551C123.934 94.4377 124.55 94.4028 125.161 94.3519L157.132 62.3576C157.183 61.7456 157.218 61.1294 157.235 60.5087Z" fill="#8FD2FF"/>
<path d="M156.557 66.4477L129.25 93.7749C130.024 93.6179 130.788 93.4348 131.542 93.2284L156.011 68.7413C156.217 67.9869 156.4 67.2224 156.557 66.4477Z" fill="#8FD2FF"/>
<path d="M153.964 74.3024L137.099 91.1804C138.434 90.5554 139.722 89.8475 140.958 89.0655L151.851 78.1643C152.634 76.9288 153.34 75.6381 153.964 74.3024Z" fill="#8FD2FF"/>
<g clip-path="url(#clip2)">
<path d="M396.742 303.313C401.431 316.228 415.646 322.917 428.493 318.253C441.339 313.589 447.952 299.338 443.263 286.423C438.574 273.507 424.359 266.818 411.512 271.482C398.666 276.146 392.053 290.397 396.742 303.313Z" fill="#6C74D1"/>
<path d="M410.796 293.121C406.851 282.253 412.453 270.22 423.263 266.296C434.073 262.371 446.068 268.015 450.014 278.883C453.96 289.751 448.38 301.776 437.569 305.7C426.768 309.648 414.742 303.989 410.796 293.121ZM448.396 279.47C444.77 269.484 433.757 264.301 423.823 267.908C413.89 271.514 408.766 282.555 412.392 292.542C416.018 302.529 427.031 307.711 436.965 304.104C446.898 300.498 452.022 289.457 448.396 279.47Z" fill="black"/>
</g>
<path d="M399.9 262.379L396.702 267.926L393.503 262.379L387.956 259.181L393.503 255.982L396.702 250.435L399.9 255.982L405.447 259.181L399.9 262.379Z" fill="#FFB9B5"/>
<path d="M106.528 68.3879L103.33 73.9349L100.131 68.3879L94.5842 65.1894L100.131 61.9909L103.33 56.4439L106.528 61.9909L112.075 65.1894L106.528 68.3879Z" fill="#FFB9B5"/>
<path d="M401.653 216.28L387.235 230.709C386.295 232.233 385.445 233.818 384.692 235.457L406.398 213.735C404.76 214.489 403.175 215.34 401.653 216.28Z" fill="#FFC778"/>
<path d="M413.329 211.233L382.191 242.393C381.939 243.339 381.715 244.296 381.523 245.266L416.197 210.565C415.228 210.756 414.272 210.98 413.329 211.233Z" fill="#FFC778"/>
<path d="M421.331 209.858L380.817 250.401C380.757 251.171 380.717 251.945 380.696 252.724L423.652 209.737C422.873 209.759 422.1 209.799 421.331 209.858Z" fill="#FFC778"/>
<path d="M427.981 209.839L380.799 257.057C380.847 257.731 380.913 258.402 380.989 259.07L429.993 210.03C429.326 209.953 428.655 209.887 427.981 209.839Z" fill="#FFC778"/>
<path d="M433.803 210.648L381.605 262.885C381.73 263.486 381.867 264.084 382.017 264.676L435.593 211.06C435.001 210.91 434.406 210.773 433.803 210.648Z" fill="#FFC778"/>
<path d="M439.013 212.069L383.027 268.097C383.212 268.642 383.41 269.179 383.615 269.712L440.629 212.656C440.094 212.452 439.556 212.254 439.013 212.069Z" fill="#FFC778"/>
<path d="M443.726 213.988L384.943 272.814C385.179 273.309 385.423 273.799 385.676 274.283L445.191 214.724C444.709 214.469 444.22 214.225 443.726 213.988Z" fill="#FFC778"/>
<path d="M448.014 216.333L387.288 277.105C387.568 277.556 387.854 278.005 388.151 278.445L449.353 217.197C448.912 216.9 448.465 216.614 448.014 216.333Z" fill="#FFC778"/>
<path d="M451.92 219.06L390.01 281.013C390.331 281.426 390.661 281.829 390.996 282.229L453.135 220.044C452.735 219.71 452.33 219.38 451.92 219.06Z" fill="#FFC778"/>
<path d="M455.463 222.147L393.096 284.561C393.456 284.935 393.823 285.302 394.197 285.661L456.563 223.249C456.203 222.875 455.837 222.508 455.463 222.147Z" fill="#FFC778"/>
<path d="M458.658 225.587L396.532 287.757C396.934 288.092 397.339 288.419 397.751 288.739L459.638 226.806C459.32 226.393 458.994 225.986 458.658 225.587Z" fill="#FFC778"/>
<path d="M461.496 229.382L400.325 290.598C400.766 290.894 401.213 291.18 401.666 291.46L462.357 230.724C462.077 230.271 461.791 229.823 461.496 229.382Z" fill="#FFC778"/>
<path d="M463.96 233.551L404.493 293.063C404.978 293.316 405.469 293.558 405.966 293.792L464.691 235.023C464.455 234.528 464.211 234.037 463.96 233.551Z" fill="#FFC778"/>
<path d="M466.012 238.132L409.069 295.118C409.604 295.321 410.143 295.519 410.687 295.703L466.597 239.751C466.413 239.207 466.217 238.668 466.012 238.132Z" fill="#FFC778"/>
<path d="M467.597 243.182L414.116 296.702C414.71 296.85 415.307 296.988 415.91 297.111L468.007 244.975C467.883 244.373 467.745 243.776 467.597 243.182Z" fill="#FFC778"/>
<path d="M468.61 248.803L419.733 297.716C420.402 297.793 421.074 297.853 421.75 297.901L468.795 250.821C468.749 250.145 468.687 249.472 468.61 248.803Z" fill="#FFC778"/>
<path d="M468.879 255.168L426.092 297.987C426.875 297.965 427.651 297.921 428.423 297.857L468.749 257.5C468.813 256.728 468.857 255.951 468.879 255.168Z" fill="#FFC778"/>
<path d="M468.024 262.659L433.58 297.129C434.556 296.931 435.52 296.7 436.471 296.439L467.335 265.552C467.595 264.601 467.826 263.636 468.024 262.659Z" fill="#FFC778"/>
<path d="M464.753 272.567L443.48 293.856C445.164 293.068 446.789 292.175 448.348 291.189L462.088 277.438C463.075 275.88 463.966 274.252 464.753 272.567Z" fill="#FFC778"/>
</g>
<path d="M213.879 145H178.793V138.039L195.352 120.391C197.625 117.906 199.301 115.738 200.379 113.887C201.48 112.035 202.031 110.277 202.031 108.613C202.031 106.34 201.457 104.559 200.309 103.27C199.16 101.957 197.52 101.301 195.387 101.301C193.09 101.301 191.273 102.098 189.938 103.691C188.625 105.262 187.969 107.336 187.969 109.914H177.773C177.773 106.797 178.512 103.949 179.988 101.371C181.488 98.793 183.598 96.7773 186.316 95.3242C189.035 93.8477 192.117 93.1094 195.562 93.1094C200.836 93.1094 204.926 94.375 207.832 96.9062C210.762 99.4375 212.227 103.012 212.227 107.629C212.227 110.16 211.57 112.738 210.258 115.363C208.945 117.988 206.695 121.047 203.508 124.539L191.871 136.809H213.879V145ZM254.59 123.836C254.59 130.914 253.125 136.328 250.195 140.078C247.266 143.828 242.977 145.703 237.328 145.703C231.75 145.703 227.484 143.863 224.531 140.184C221.578 136.504 220.066 131.23 219.996 124.363V114.941C219.996 107.793 221.473 102.367 224.426 98.6641C227.402 94.9609 231.68 93.1094 237.258 93.1094C242.836 93.1094 247.102 94.9492 250.055 98.6289C253.008 102.285 254.52 107.547 254.59 114.414V123.836ZM244.43 113.5C244.43 109.258 243.844 106.176 242.672 104.254C241.523 102.309 239.719 101.336 237.258 101.336C234.867 101.336 233.098 102.262 231.949 104.113C230.824 105.941 230.227 108.812 230.156 112.727V125.172C230.156 129.344 230.719 132.449 231.844 134.488C232.992 136.504 234.82 137.512 237.328 137.512C239.812 137.512 241.605 136.539 242.707 134.594C243.809 132.648 244.383 129.672 244.43 125.664V113.5Z" fill="#BDDFFF"/>
<path d="M286.16 145H276V105.836L263.871 109.598V101.336L285.07 93.7422H286.16V145ZM326.59 124.539C323.941 127.141 320.848 128.441 317.309 128.441C312.785 128.441 309.164 126.895 306.445 123.801C303.727 120.684 302.367 116.488 302.367 111.215C302.367 107.863 303.094 104.793 304.547 102.004C306.023 99.1914 308.074 97.0117 310.699 95.4648C313.324 93.8945 316.277 93.1094 319.559 93.1094C322.934 93.1094 325.934 93.9531 328.559 95.6406C331.184 97.3281 333.223 99.7539 334.676 102.918C336.129 106.082 336.867 109.703 336.891 113.781V117.543C336.891 126.074 334.77 132.777 330.527 137.652C326.285 142.527 320.273 145.129 312.492 145.457L309.996 145.492V137.02L312.246 136.984C321.082 136.586 325.863 132.438 326.59 124.539ZM319.805 120.672C321.445 120.672 322.852 120.25 324.023 119.406C325.219 118.562 326.121 117.543 326.73 116.348V112.164C326.73 108.719 326.074 106.047 324.762 104.148C323.449 102.25 321.691 101.301 319.488 101.301C317.449 101.301 315.773 102.238 314.461 104.113C313.148 105.965 312.492 108.297 312.492 111.109C312.492 113.898 313.125 116.195 314.391 118C315.68 119.781 317.484 120.672 319.805 120.672Z" fill="#6C74D1"/>
<path d="M260.742 172.57H250.289V201H243.258V172.57H232.945V166.875H260.742V172.57ZM258.398 188.086C258.398 185.57 258.883 183.328 259.852 181.359C260.82 179.391 262.211 177.867 264.023 176.789C265.852 175.711 267.969 175.172 270.375 175.172C273.797 175.172 276.586 176.219 278.742 178.312C280.914 180.406 282.125 183.25 282.375 186.844L282.422 188.578C282.422 192.469 281.336 195.594 279.164 197.953C276.992 200.297 274.078 201.469 270.422 201.469C266.766 201.469 263.844 200.297 261.656 197.953C259.484 195.609 258.398 192.422 258.398 188.391V188.086ZM265.172 188.578C265.172 190.984 265.625 192.828 266.531 194.109C267.438 195.375 268.734 196.008 270.422 196.008C272.062 196.008 273.344 195.383 274.266 194.133C275.188 192.867 275.648 190.852 275.648 188.086C275.648 185.727 275.188 183.898 274.266 182.602C273.344 181.305 272.047 180.656 270.375 180.656C268.719 180.656 267.438 181.305 266.531 182.602C265.625 183.883 265.172 185.875 265.172 188.578Z" fill="#F37453"/>
<path d="M213.879 285H178.793V278.039L195.352 260.391C197.625 257.906 199.301 255.738 200.379 253.887C201.48 252.035 202.031 250.277 202.031 248.613C202.031 246.34 201.457 244.559 200.309 243.27C199.16 241.957 197.52 241.301 195.387 241.301C193.09 241.301 191.273 242.098 189.938 243.691C188.625 245.262 187.969 247.336 187.969 249.914H177.773C177.773 246.797 178.512 243.949 179.988 241.371C181.488 238.793 183.598 236.777 186.316 235.324C189.035 233.848 192.117 233.109 195.562 233.109C200.836 233.109 204.926 234.375 207.832 236.906C210.762 239.438 212.227 243.012 212.227 247.629C212.227 250.16 211.57 252.738 210.258 255.363C208.945 257.988 206.695 261.047 203.508 264.539L191.871 276.809H213.879V285ZM254.59 263.836C254.59 270.914 253.125 276.328 250.195 280.078C247.266 283.828 242.977 285.703 237.328 285.703C231.75 285.703 227.484 283.863 224.531 280.184C221.578 276.504 220.066 271.23 219.996 264.363V254.941C219.996 247.793 221.473 242.367 224.426 238.664C227.402 234.961 231.68 233.109 237.258 233.109C242.836 233.109 247.102 234.949 250.055 238.629C253.008 242.285 254.52 247.547 254.59 254.414V263.836ZM244.43 253.5C244.43 249.258 243.844 246.176 242.672 244.254C241.523 242.309 239.719 241.336 237.258 241.336C234.867 241.336 233.098 242.262 231.949 244.113C230.824 245.941 230.227 248.812 230.156 252.727V265.172C230.156 269.344 230.719 272.449 231.844 274.488C232.992 276.504 234.82 277.512 237.328 277.512C239.812 277.512 241.605 276.539 242.707 274.594C243.809 272.648 244.383 269.672 244.43 265.664V253.5Z" fill="#FFC77F"/>
<path d="M296.566 285H261.48V278.039L278.039 260.391C280.312 257.906 281.988 255.738 283.066 253.887C284.168 252.035 284.719 250.277 284.719 248.613C284.719 246.34 284.145 244.559 282.996 243.27C281.848 241.957 280.207 241.301 278.074 241.301C275.777 241.301 273.961 242.098 272.625 243.691C271.312 245.262 270.656 247.336 270.656 249.914H260.461C260.461 246.797 261.199 243.949 262.676 241.371C264.176 238.793 266.285 236.777 269.004 235.324C271.723 233.848 274.805 233.109 278.25 233.109C283.523 233.109 287.613 234.375 290.52 236.906C293.449 239.438 294.914 243.012 294.914 247.629C294.914 250.16 294.258 252.738 292.945 255.363C291.633 257.988 289.383 261.047 286.195 264.539L274.559 276.809H296.566V285ZM337.277 263.836C337.277 270.914 335.812 276.328 332.883 280.078C329.953 283.828 325.664 285.703 320.016 285.703C314.438 285.703 310.172 283.863 307.219 280.184C304.266 276.504 302.754 271.23 302.684 264.363V254.941C302.684 247.793 304.16 242.367 307.113 238.664C310.09 234.961 314.367 233.109 319.945 233.109C325.523 233.109 329.789 234.949 332.742 238.629C335.695 242.285 337.207 247.547 337.277 254.414V263.836ZM327.117 253.5C327.117 249.258 326.531 246.176 325.359 244.254C324.211 242.309 322.406 241.336 319.945 241.336C317.555 241.336 315.785 242.262 314.637 244.113C313.512 245.941 312.914 248.812 312.844 252.727V265.172C312.844 269.344 313.406 272.449 314.531 274.488C315.68 276.504 317.508 277.512 320.016 277.512C322.5 277.512 324.293 276.539 325.395 274.594C326.496 272.648 327.07 269.672 327.117 265.664V253.5Z" fill="#1F3374"/>
<defs>
<filter id="filter0_d" x="0" y="0" width="479.947" height="341.698" filterUnits="userSpaceOnUse" color-interpolation-filters="sRGB">
<feFlood flood-opacity="0" result="BackgroundImageFix"/>
<feColorMatrix in="SourceAlpha" type="matrix" values="0 0 0 0 0 0 0 0 0 0 0 0 0 0 0 0 0 0 127 0"/>
<feOffset dy="4"/>
<feGaussianBlur stdDeviation="5.5"/>
<feColorMatrix type="matrix" values="0 0 0 0 0 0 0 0 0 0 0 0 0 0 0 0 0 0 0.25 0"/>
<feBlend mode="normal" in2="BackgroundImageFix" result="effect1_dropShadow"/>
<feBlend mode="normal" in="SourceGraphic" in2="effect1_dropShadow" result="shape"/>
</filter>
<clipPath id="clip0">
<rect width="75.5294" height="270.316" fill="white" transform="translate(198.631 82.5294) rotate(-90)"/>
</clipPath>
<clipPath id="clip1">
<rect width="79.0927" height="102.305" fill="white" transform="translate(127.276 122.533) rotate(153.658)"/>
</clipPath>
<clipPath id="clip2">
<rect width="50.6231" height="58.4112" fill="white" transform="translate(442.861 259.181) rotate(70.0462)"/>
</clipPath>
</defs>
</svg>
