<svg width="95" height="340" viewBox="0 0 95 340" fill="none" xmlns="http://www.w3.org/2000/svg">
<path d="M88.4461 4.68703C88.5097 4.87705 88.637 5.06706 88.7642 5.25708C88.8915 5.44709 89.0188 5.63711 89.2096 5.76379C89.3369 5.89046 89.5278 6.08048 89.7187 6.20715C89.9096 6.33383 90.1005 6.46051 90.2914 6.52384C90.4822 6.58718 90.6731 6.65052 90.9277 6.71386C91.3731 6.7772 91.8185 6.7772 92.2639 6.71386C92.5184 6.65052 92.7093 6.58718 92.9002 6.52384C93.0911 6.46051 93.282 6.33383 93.4729 6.20715C93.6638 6.08048 93.8546 5.9538 93.9819 5.76379C94.1728 5.57377 94.3001 5.44709 94.4273 5.25708C94.5546 5.06706 94.6818 4.87705 94.7455 4.68703C94.8091 4.49702 94.8727 4.307 94.9364 4.05365C95 3.86364 95 3.61028 95 3.42027C95 2.9769 94.9364 2.53353 94.7455 2.1535C94.5546 1.71013 94.3001 1.3301 93.9819 1.01341C93.3456 0.38003 92.5184 0 91.564 0C91.1185 0 90.6731 0.0633383 90.2914 0.253353C89.9096 0.443368 89.4642 0.696721 89.146 1.01341C88.5097 1.6468 88.1279 2.53353 88.1279 3.42027C88.1279 3.67362 88.1279 3.86364 88.1916 4.05365C88.2552 4.307 88.3188 4.49702 88.4461 4.68703Z" fill="#FFC77F"/>
<path d="M91.564 206.736C93.4729 206.736 95 205.216 95 203.316C95 201.479 93.4729 199.896 91.564 199.896C89.6551 199.896 88.1279 201.416 88.1279 203.316C88.1916 205.216 89.7187 206.736 91.564 206.736Z" fill="#FFC77F"/>
<path d="M91.564 228.905C93.4729 228.905 95 227.384 95 225.484C95 223.584 93.4729 222.064 91.564 222.064C89.6551 222.064 88.1279 223.584 88.1279 225.484C88.1916 227.384 89.7187 228.905 91.564 228.905Z" fill="#FFC77F"/>
<path d="M91.564 184.504C93.4729 184.504 95 182.984 95 181.084C95 179.184 93.4729 177.664 91.564 177.664C89.6551 177.664 88.1279 179.184 88.1279 181.084C88.1916 182.984 89.7187 184.504 91.564 184.504Z" fill="#FFC77F"/>
<path d="M91.564 273.368C93.4729 273.368 95 271.848 95 269.948C95 268.048 93.4729 266.528 91.564 266.528C89.6551 266.528 88.1279 268.048 88.1279 269.948C88.1916 271.848 89.7187 273.368 91.564 273.368Z" fill="#FFC77F"/>
<path d="M91.564 251.136C93.4729 251.136 95 249.616 95 247.716C95 245.816 93.4729 244.296 91.564 244.296C89.6551 244.296 88.1279 245.816 88.1279 247.716C88.1916 249.616 89.7187 251.136 91.564 251.136Z" fill="#FFC77F"/>
<path d="M91.564 295.6C93.4729 295.6 95 294.08 95 292.18C95 290.279 93.4729 288.759 91.564 288.759C89.6551 288.759 88.1279 290.279 88.1279 292.18C88.1916 294.08 89.7187 295.6 91.564 295.6Z" fill="#FFC77F"/>
<path d="M91.564 162.273C93.4729 162.273 95 160.753 95 158.852C95 156.952 93.4729 155.432 91.564 155.432C89.6551 155.432 88.1279 156.952 88.1279 158.852C88.1279 160.753 89.7187 162.273 91.564 162.273Z" fill="#FFC77F"/>
<path d="M91.564 73.4724C93.4729 73.4724 95 71.9522 95 70.0521C95 68.152 93.4729 66.6318 91.564 66.6318C89.6551 66.6318 88.1279 68.152 88.1279 70.0521C88.1916 71.9522 89.7187 73.4724 91.564 73.4724Z" fill="#FFC77F"/>
<path d="M91.564 51.2407C93.4729 51.2407 95 49.7206 95 47.8205C95 45.9203 93.4729 44.4002 91.564 44.4002C89.6551 44.4002 88.1279 45.9203 88.1279 47.8205C88.1279 49.7206 89.7187 51.2407 91.564 51.2407Z" fill="#FFC77F"/>
<path d="M91.564 140.104C93.4729 140.104 95 138.584 95 136.684C95 134.784 93.4729 133.264 91.564 133.264C89.6551 133.264 88.1279 134.784 88.1279 136.684C88.1916 138.584 89.7187 140.104 91.564 140.104Z" fill="#FFC77F"/>
<path d="M91.564 29.0089C93.4729 29.0089 95 27.4888 95 25.5887C95 23.6885 93.4729 22.1684 91.564 22.1684C89.6551 22.1684 88.1279 23.6885 88.1279 25.5887C88.1279 27.4888 89.7187 29.0089 91.564 29.0089Z" fill="#FFC77F"/>
<path d="M91.564 117.873C93.4729 117.873 95 116.352 95 114.452C95 112.552 93.4729 111.032 91.564 111.032C89.6551 111.032 88.1279 112.552 88.1279 114.452C88.1279 116.352 89.7187 117.873 91.564 117.873Z" fill="#FFC77F"/>
<path d="M91.564 95.6408C93.4729 95.6408 95 94.1207 95 92.2205C95 90.3837 93.4729 88.8002 91.564 88.8002C89.6551 88.8002 88.1279 90.3204 88.1279 92.2205C88.1916 94.1207 89.7187 95.6408 91.564 95.6408Z" fill="#FFC77F"/>
<path d="M88.4461 315.678C88.5097 315.868 88.637 316.058 88.7642 316.248C88.8915 316.438 89.0188 316.628 89.2096 316.755C89.3369 316.882 89.5278 317.072 89.7187 317.135C89.9096 317.262 90.1005 317.388 90.2914 317.452C90.4822 317.515 90.6731 317.642 90.9277 317.642C91.3731 317.705 91.8185 317.705 92.2639 317.642C92.5184 317.578 92.7093 317.515 92.9002 317.452C93.0911 317.388 93.282 317.262 93.4729 317.135C93.6638 317.008 93.8546 316.882 93.9819 316.755C94.1728 316.628 94.3001 316.438 94.4273 316.248C94.5546 316.058 94.6818 315.868 94.7455 315.678C94.8091 315.488 94.8727 315.235 94.9364 315.045C95 314.791 95 314.601 95 314.348C95 313.905 94.9364 313.461 94.7455 313.081C94.5546 312.701 94.3001 312.321 93.9819 312.005C93.6638 311.688 93.282 311.434 92.8366 311.244C92.4548 311.054 92.0094 310.991 91.564 310.991C90.6731 310.991 89.7823 311.371 89.146 312.005C88.5097 312.638 88.1279 313.525 88.1279 314.411C88.1279 314.665 88.1279 314.855 88.1916 315.108C88.2552 315.235 88.3188 315.488 88.4461 315.678Z" fill="#FFC77F"/>
<path d="M70.7569 4.68703C70.8205 4.87705 70.9478 5.06706 71.0751 5.25708C71.2023 5.44709 71.3296 5.63711 71.5205 5.76379C71.6477 5.89046 71.8386 6.08048 72.0295 6.20715C72.2204 6.33383 72.4113 6.46051 72.6022 6.52384C72.7931 6.58718 72.984 6.65052 73.2385 6.71386C73.6839 6.7772 74.1293 6.7772 74.5747 6.71386C74.8292 6.65052 75.0201 6.58718 75.211 6.52384C75.4019 6.46051 75.5928 6.33383 75.7837 6.20715C75.9746 6.08048 76.1655 5.9538 76.2927 5.76379C76.42 5.57377 76.6109 5.44709 76.7381 5.25708C76.8654 5.06706 76.9927 4.87705 77.0563 4.68703C77.1199 4.49702 77.1836 4.307 77.2472 4.05365C77.3108 3.86364 77.3108 3.61028 77.3108 3.42027C77.3108 2.9769 77.2472 2.53353 77.0563 2.1535C76.929 1.6468 76.6745 1.3301 76.3564 1.01341C75.7201 0.38003 74.8292 0 73.9384 0C73.493 0 73.0476 0.0633383 72.6658 0.253353C72.2204 0.443368 71.8386 0.696721 71.5205 1.01341C70.8842 1.6468 70.5024 2.53353 70.5024 3.42027C70.5024 3.67362 70.5024 3.86364 70.566 4.05365C70.6296 4.307 70.6933 4.49702 70.7569 4.68703Z" fill="#FFC77F"/>
<path d="M73.9384 251.136C75.8473 251.136 77.3744 249.616 77.3744 247.716C77.3744 245.816 75.8473 244.296 73.9384 244.296C72.0295 244.296 70.5024 245.816 70.5024 247.716C70.5024 249.616 72.0295 251.136 73.9384 251.136Z" fill="#FFC77F"/>
<path d="M73.9384 206.736C75.8473 206.736 77.3744 205.216 77.3744 203.316C77.3744 201.479 75.8473 199.896 73.9384 199.896C72.0295 199.896 70.5024 201.416 70.5024 203.316C70.5024 205.216 72.0295 206.736 73.9384 206.736Z" fill="#FFC77F"/>
<path d="M73.9384 228.905C75.8473 228.905 77.3744 227.384 77.3744 225.484C77.3744 223.584 75.8473 222.064 73.9384 222.064C72.0295 222.064 70.5024 223.584 70.5024 225.484C70.5024 227.384 72.0295 228.905 73.9384 228.905Z" fill="#FFC77F"/>
<path d="M73.9384 273.368C75.8473 273.368 77.3744 271.848 77.3744 269.948C77.3744 268.048 75.8473 266.528 73.9384 266.528C72.0295 266.528 70.5024 268.048 70.5024 269.948C70.5024 271.848 72.0295 273.368 73.9384 273.368Z" fill="#FFC77F"/>
<path d="M73.9384 184.504C75.8473 184.504 77.3744 182.984 77.3744 181.084C77.3744 179.184 75.8473 177.664 73.9384 177.664C72.0295 177.664 70.5024 179.184 70.5024 181.084C70.5024 182.984 72.0295 184.504 73.9384 184.504Z" fill="#FFC77F"/>
<path d="M73.9384 295.6C75.8473 295.6 77.3744 294.08 77.3744 292.18C77.3744 290.279 75.8473 288.759 73.9384 288.759C72.0295 288.759 70.5024 290.279 70.5024 292.18C70.5024 294.08 72.0295 295.6 73.9384 295.6Z" fill="#FFC77F"/>
<path d="M73.9384 29.0089C75.8473 29.0089 77.3744 27.4888 77.3744 25.5887C77.3744 23.6885 75.8473 22.1684 73.9384 22.1684C72.0295 22.1684 70.5024 23.6885 70.5024 25.5887C70.5024 27.4888 72.0295 29.0089 73.9384 29.0089Z" fill="#FFC77F"/>
<path d="M73.9384 73.4724C75.8473 73.4724 77.3744 71.9522 77.3744 70.0521C77.3744 68.152 75.8473 66.6318 73.9384 66.6318C72.0295 66.6318 70.5024 68.152 70.5024 70.0521C70.5024 71.9522 72.0295 73.4724 73.9384 73.4724Z" fill="#FFC77F"/>
<path d="M73.9384 95.6408C75.8473 95.6408 77.3744 94.1207 77.3744 92.2205C77.3744 90.3837 75.8473 88.8002 73.9384 88.8002C72.0295 88.8002 70.5024 90.3204 70.5024 92.2205C70.5024 94.1207 72.0295 95.6408 73.9384 95.6408Z" fill="#FFC77F"/>
<path d="M73.9384 51.2407C75.8473 51.2407 77.3744 49.7206 77.3744 47.8205C77.3744 45.9203 75.8473 44.4002 73.9384 44.4002C72.0295 44.4002 70.5024 45.9203 70.5024 47.8205C70.5024 49.7206 72.0295 51.2407 73.9384 51.2407Z" fill="#FFC77F"/>
<path d="M73.9384 162.273C75.8473 162.273 77.3744 160.753 77.3744 158.852C77.3744 156.952 75.8473 155.432 73.9384 155.432C72.0295 155.432 70.5024 156.952 70.5024 158.852C70.5024 160.753 72.0295 162.273 73.9384 162.273Z" fill="#FFC77F"/>
<path d="M73.9384 140.104C75.8473 140.104 77.3744 138.584 77.3744 136.684C77.3744 134.784 75.8473 133.264 73.9384 133.264C72.0295 133.264 70.5024 134.784 70.5024 136.684C70.5024 138.584 72.0295 140.104 73.9384 140.104Z" fill="#FFC77F"/>
<path d="M73.9384 117.873C75.8473 117.873 77.3744 116.352 77.3744 114.452C77.3744 112.552 75.8473 111.032 73.9384 111.032C72.0295 111.032 70.5024 112.552 70.5024 114.452C70.5024 116.352 72.0295 117.873 73.9384 117.873Z" fill="#FFC77F"/>
<path d="M74.5747 317.705C74.8292 317.642 75.0201 317.578 75.211 317.515C75.4019 317.452 75.5928 317.325 75.7837 317.198C75.9746 317.071 76.1654 316.945 76.2927 316.818C76.929 316.185 77.3108 315.298 77.3108 314.411C77.3108 313.968 77.2472 313.525 77.0563 313.144C76.8654 312.764 76.6109 312.384 76.2927 312.068C75.9746 311.751 75.5928 311.498 75.1474 311.308C74.7656 311.118 74.3202 311.054 73.8748 311.054C72.9839 311.054 72.0931 311.434 71.4568 312.068C71.1387 312.384 70.8841 312.764 70.6932 313.144C70.566 313.525 70.4387 314.031 70.4387 314.411C70.4387 315.298 70.8205 316.185 71.4568 316.818C72.3476 317.578 73.493 317.958 74.5747 317.705Z" fill="#FFC77F"/>
<path d="M53.1313 4.68703C53.2586 4.87705 53.3222 5.06706 53.4494 5.25708C53.5767 5.44709 53.704 5.63711 53.8949 5.76379C54.0857 5.9538 54.213 6.08048 54.4039 6.20715C54.5948 6.33383 54.7857 6.46051 55.0402 6.52384C55.2311 6.58718 55.422 6.65052 55.6765 6.71386C56.1219 6.7772 56.5673 6.7772 57.0127 6.71386C57.2673 6.65052 57.4581 6.58718 57.649 6.52384C57.8399 6.46051 58.0308 6.33383 58.2217 6.20715C58.4126 6.08048 58.5399 5.9538 58.7307 5.82712C58.858 5.63711 59.0489 5.44709 59.1762 5.25708C59.2398 5.06706 59.3671 4.87705 59.4307 4.68703C59.4943 4.49702 59.5579 4.307 59.6216 4.05365C59.6852 3.86364 59.6852 3.61028 59.6852 3.42027C59.6852 2.9769 59.6216 2.53353 59.4307 2.1535C59.3034 1.6468 59.0489 1.3301 58.7307 1.01341C58.0944 0.38003 57.2036 0 56.3128 0C55.8674 0 55.422 0.0633383 55.0402 0.253353C54.5948 0.443368 54.213 0.696721 53.8949 1.01341C53.2586 1.6468 52.8768 2.53353 52.8768 3.42027C52.8768 3.67362 52.8768 3.86364 52.9404 4.05365C53.004 4.307 53.0677 4.49702 53.1313 4.68703Z" fill="#FFC77F"/>
<path d="M56.3128 228.905C58.2217 228.905 59.7488 227.384 59.7488 225.484C59.7488 223.584 58.2217 222.064 56.3128 222.064C54.4039 222.064 52.8768 223.584 52.8768 225.484C52.8768 227.384 54.4039 228.905 56.3128 228.905Z" fill="#FFC77F"/>
<path d="M56.3128 206.736C58.2217 206.736 59.7488 205.216 59.7488 203.316C59.7488 201.479 58.2217 199.896 56.3128 199.896C54.4039 199.896 52.8768 201.416 52.8768 203.316C52.8768 205.216 54.4039 206.736 56.3128 206.736Z" fill="#FFC77F"/>
<path d="M56.3128 251.136C58.2217 251.136 59.7488 249.616 59.7488 247.716C59.7488 245.816 58.2217 244.296 56.3128 244.296C54.4039 244.296 52.8768 245.816 52.8768 247.716C52.8768 249.616 54.4039 251.136 56.3128 251.136Z" fill="#FFC77F"/>
<path d="M56.3128 184.504C58.2217 184.504 59.7488 182.984 59.7488 181.084C59.7488 179.184 58.2217 177.664 56.3128 177.664C54.4039 177.664 52.8768 179.184 52.8768 181.084C52.8768 182.984 54.4039 184.504 56.3128 184.504Z" fill="#FFC77F"/>
<path d="M56.3128 273.368C58.2217 273.368 59.7488 271.848 59.7488 269.948C59.7488 268.048 58.2217 266.528 56.3128 266.528C54.4039 266.528 52.8768 268.048 52.8768 269.948C52.8768 271.848 54.4039 273.368 56.3128 273.368Z" fill="#FFC77F"/>
<path d="M56.3128 295.6C58.2217 295.6 59.7488 294.08 59.7488 292.18C59.7488 290.279 58.2217 288.759 56.3128 288.759C54.4039 288.759 52.8768 290.279 52.8768 292.18C52.8768 294.08 54.4039 295.6 56.3128 295.6Z" fill="#FFC77F"/>
<path d="M56.3128 117.873C58.2217 117.873 59.7488 116.352 59.7488 114.452C59.7488 112.552 58.2217 111.032 56.3128 111.032C54.4039 111.032 52.8768 112.552 52.8768 114.452C52.8768 116.352 54.4039 117.873 56.3128 117.873Z" fill="#FFC77F"/>
<path d="M56.3128 73.4724C58.2217 73.4724 59.7488 71.9522 59.7488 70.0521C59.7488 68.152 58.2217 66.6318 56.3128 66.6318C54.4039 66.6318 52.8768 68.152 52.8768 70.0521C52.8768 71.9522 54.4039 73.4724 56.3128 73.4724Z" fill="#FFC77F"/>
<path d="M56.3128 51.2406C58.2217 51.2406 59.7488 49.7205 59.7488 47.8204C59.7488 45.9202 58.2217 44.4634 56.3128 44.4634C54.4039 44.4634 52.8768 45.9836 52.8768 47.8837C52.8768 49.7839 54.4039 51.2406 56.3128 51.2406Z" fill="#FFC77F"/>
<path d="M56.3128 95.6408C58.2217 95.6408 59.7488 94.1207 59.7488 92.2205C59.7488 90.3837 58.2217 88.8002 56.3128 88.8002C54.4039 88.8002 52.8768 90.3204 52.8768 92.2205C52.8768 94.1207 54.4039 95.6408 56.3128 95.6408Z" fill="#FFC77F"/>
<path d="M56.3128 162.273C58.2217 162.273 59.7488 160.753 59.7488 158.852C59.7488 156.952 58.2217 155.432 56.3128 155.432C54.4039 155.432 52.8768 156.952 52.8768 158.852C52.8768 160.753 54.4039 162.273 56.3128 162.273Z" fill="#FFC77F"/>
<path d="M56.3128 140.104C58.2217 140.104 59.7488 138.584 59.7488 136.684C59.7488 134.784 58.2217 133.264 56.3128 133.264C54.4039 133.264 52.8768 134.784 52.8768 136.684C52.8768 138.584 54.4039 140.104 56.3128 140.104Z" fill="#FFC77F"/>
<path d="M56.3128 29.009C58.2217 29.009 59.7488 27.4889 59.7488 25.5887C59.7488 23.6886 58.2217 22.2318 56.3128 22.2318C54.4039 22.2318 52.8768 23.7519 52.8768 25.6521C52.8768 27.5522 54.4039 29.009 56.3128 29.009Z" fill="#FFC77F"/>
<path d="M53.1313 315.678C53.195 315.868 53.3222 316.058 53.4495 316.248C53.5767 316.438 53.704 316.628 53.8949 316.755C54.0858 316.882 54.213 317.072 54.4039 317.135C54.5948 317.262 54.7857 317.388 54.9766 317.452C55.1675 317.515 55.3584 317.642 55.6129 317.642C56.0583 317.705 56.5037 317.705 56.9491 317.642C57.2037 317.578 57.3945 317.515 57.5854 317.452C57.7763 317.388 57.9672 317.262 58.1581 317.135C58.349 317.008 58.5399 316.882 58.6672 316.755C58.7944 316.628 58.9853 316.438 59.1126 316.248C59.2398 316.058 59.3671 315.868 59.4307 315.678C59.4943 315.488 59.558 315.235 59.6216 315.045C59.6852 314.791 59.6852 314.601 59.6852 314.348C59.6852 313.905 59.6216 313.461 59.4307 313.081C59.2398 312.701 58.9853 312.321 58.6672 312.005C58.0309 311.371 57.14 310.991 56.2492 310.991C55.8038 310.991 55.3584 311.054 54.9766 311.244C54.5312 311.371 54.1494 311.624 53.8313 312.005C53.5131 312.321 53.2586 312.701 53.0677 313.081C52.9404 313.461 52.8132 313.968 52.8132 314.348C52.8132 314.601 52.8132 314.791 52.8768 315.045C53.0041 315.235 53.0677 315.488 53.1313 315.678Z" fill="#FFC77F"/>
<path d="M35.5057 4.68703C35.6329 4.87705 35.6966 5.06706 35.8238 5.25708C35.9511 5.44709 36.0784 5.63711 36.2692 5.82712C36.3965 5.9538 36.5874 6.14382 36.7783 6.27049C36.9692 6.33383 37.1601 6.46051 37.351 6.52384C37.6055 6.58718 37.7964 6.65052 37.9873 6.71386C38.4327 6.7772 38.8781 6.7772 39.3235 6.71386C39.578 6.65052 39.7689 6.58718 39.9598 6.52384C40.1507 6.46051 40.4052 6.33383 40.5961 6.20715C40.7234 6.08048 40.9143 5.9538 41.1051 5.82712C41.2324 5.63711 41.3597 5.44709 41.5506 5.25708C41.6142 5.06706 41.7414 4.87705 41.8051 4.68703C41.9323 4.49702 41.996 4.307 41.996 4.05365C42.0596 3.86364 42.0596 3.61028 42.0596 3.42027C42.0596 2.9769 41.996 2.53353 41.8051 2.1535C41.6778 1.6468 41.4233 1.3301 41.1051 1.01341C40.787 0.696721 40.4052 0.443368 39.9598 0.253353C39.578 0.0633383 39.1326 0 38.6872 0C37.7964 0 36.9055 0.38003 36.2692 1.01341C35.9511 1.3301 35.6966 1.6468 35.5057 2.09016C35.3784 2.53353 35.2512 2.91356 35.2512 3.42027C35.2512 3.67362 35.2512 3.86364 35.3148 4.05365C35.3784 4.307 35.4421 4.49702 35.5057 4.68703Z" fill="#FFC77F"/>
<path d="M38.6872 184.504C40.5961 184.504 42.1232 182.984 42.1232 181.084C42.1232 179.184 40.5961 177.664 38.6872 177.664C36.7783 177.664 35.2512 179.184 35.2512 181.084C35.2512 182.984 36.7783 184.504 38.6872 184.504Z" fill="#FFC77F"/>
<path d="M38.6872 162.273C40.5961 162.273 42.1232 160.753 42.1232 158.852C42.1232 156.952 40.5961 155.432 38.6872 155.432C36.7783 155.432 35.2512 156.952 35.2512 158.852C35.2512 160.753 36.7783 162.273 38.6872 162.273Z" fill="#FFC77F"/>
<path d="M38.6872 228.905C40.5961 228.905 42.1232 227.384 42.1232 225.484C42.1232 223.584 40.5961 222.064 38.6872 222.064C36.7783 222.064 35.2512 223.584 35.2512 225.484C35.2512 227.384 36.7783 228.905 38.6872 228.905Z" fill="#FFC77F"/>
<path d="M38.6872 251.136C40.5961 251.136 42.1232 249.616 42.1232 247.716C42.1232 245.816 40.5961 244.296 38.6872 244.296C36.7783 244.296 35.2512 245.816 35.2512 247.716C35.2512 249.616 36.7783 251.136 38.6872 251.136Z" fill="#FFC77F"/>
<path d="M38.6872 206.736C40.5961 206.736 42.1232 205.216 42.1232 203.316C42.1232 201.479 40.5961 199.896 38.6872 199.896C36.7783 199.896 35.2512 201.416 35.2512 203.316C35.2512 205.216 36.7783 206.736 38.6872 206.736Z" fill="#FFC77F"/>
<path d="M38.6872 140.104C40.5961 140.104 42.1232 138.584 42.1232 136.684C42.1232 134.784 40.5961 133.264 38.6872 133.264C36.7783 133.264 35.2512 134.784 35.2512 136.684C35.2512 138.584 36.7783 140.104 38.6872 140.104Z" fill="#FFC77F"/>
<path d="M38.6872 117.873C40.5961 117.873 42.1232 116.352 42.1232 114.452C42.1232 112.552 40.5961 111.032 38.6872 111.032C36.7783 111.032 35.2512 112.552 35.2512 114.452C35.2512 116.352 36.7783 117.873 38.6872 117.873Z" fill="#FFC77F"/>
<path d="M38.6872 29.009C40.5961 29.009 42.1232 27.4889 42.1232 25.5887C42.1232 23.6886 40.5961 22.2318 38.6872 22.2318C36.7783 22.2318 35.2512 23.7519 35.2512 25.6521C35.2512 27.5522 36.7783 29.009 38.6872 29.009Z" fill="#FFC77F"/>
<path d="M38.6872 295.6C40.5961 295.6 42.1232 294.08 42.1232 292.18C42.1232 290.279 40.5961 288.759 38.6872 288.759C36.7783 288.759 35.2512 290.279 35.2512 292.18C35.2512 294.08 36.7783 295.6 38.6872 295.6Z" fill="#FFC77F"/>
<path d="M38.6872 51.2406C40.5961 51.2406 42.1232 49.7205 42.1232 47.8204C42.1232 45.9202 40.5961 44.4634 38.6872 44.4634C36.7783 44.4634 35.2512 45.9836 35.2512 47.8837C35.2512 49.7839 36.7783 51.2406 38.6872 51.2406Z" fill="#FFC77F"/>
<path d="M38.6872 95.6408C40.5961 95.6408 42.1232 94.1207 42.1232 92.2205C42.1232 90.3837 40.5961 88.8002 38.6872 88.8002C36.7783 88.8002 35.2512 90.3204 35.2512 92.2205C35.2512 94.1207 36.7783 95.6408 38.6872 95.6408Z" fill="#FFC77F"/>
<path d="M38.6872 73.4724C40.5961 73.4724 42.1232 71.9522 42.1232 70.0521C42.1232 68.152 40.5961 66.6318 38.6872 66.6318C36.7783 66.6318 35.2512 68.152 35.2512 70.0521C35.2512 71.9522 36.7783 73.4724 38.6872 73.4724Z" fill="#FFC77F"/>
<path d="M38.6872 273.368C40.5961 273.368 42.1232 271.848 42.1232 269.948C42.1232 268.048 40.5961 266.528 38.6872 266.528C36.7783 266.528 35.2512 268.048 35.2512 269.948C35.2512 271.848 36.7783 273.368 38.6872 273.368Z" fill="#FFC77F"/>
<path d="M39.3235 317.705C39.578 317.642 39.7689 317.578 39.9598 317.515C40.1507 317.452 40.3416 317.325 40.5325 317.198C40.7234 317.071 40.9143 316.945 41.0415 316.818C41.6778 316.185 42.0596 315.298 42.0596 314.411C42.0596 313.968 41.996 313.525 41.8051 313.144C41.6778 312.764 41.4233 312.384 41.1051 312.068C40.787 311.751 40.4052 311.498 39.9598 311.308C39.578 311.118 39.1326 311.054 38.6872 311.054C38.2418 311.054 37.7964 311.118 37.351 311.308C36.9692 311.434 36.5874 311.688 36.2692 312.068C35.9511 312.384 35.6966 312.764 35.5057 313.144C35.3784 313.525 35.2512 314.031 35.2512 314.411C35.2512 315.298 35.6329 316.185 36.2692 316.818C37.0328 317.578 38.2418 317.958 39.3235 317.705Z" fill="#FFC77F"/>
<path d="M17.8801 4.68703C17.9438 4.87705 18.071 5.06706 18.1983 5.25708C18.3255 5.44709 18.4528 5.63711 18.6437 5.82712C18.8346 5.9538 18.9618 6.14382 19.1527 6.27049C19.3436 6.33383 19.5345 6.46051 19.7254 6.52384C19.9163 6.58718 20.1708 6.65052 20.3617 6.71386C20.8071 6.7772 21.2525 6.7772 21.6979 6.71386C21.9525 6.65052 22.1434 6.58718 22.3343 6.52384C22.5251 6.46051 22.7797 6.33383 22.9069 6.20715C23.0978 6.08048 23.2887 5.9538 23.416 5.76379C23.5432 5.57377 23.7341 5.44709 23.7977 5.25708C23.9886 5.06706 24.1159 4.87705 24.1795 4.68703C24.2432 4.49702 24.3704 4.307 24.3704 4.05365C24.434 3.86364 24.434 3.61028 24.434 3.42027C24.434 2.53353 24.0523 1.6468 23.416 1.01341C23.1614 0.696721 22.7797 0.443368 22.3343 0.253353C21.9525 0.0633383 21.5071 0 21.0616 0C20.1072 0 19.28 0.38003 18.6437 1.01341C18.0074 1.6468 17.6256 2.53353 17.6256 3.42027C17.6256 3.67362 17.6256 3.86364 17.6892 4.05365C17.7529 4.307 17.8165 4.49702 17.8801 4.68703Z" fill="#FFC77F"/>
<path d="M21.0616 162.273C22.9706 162.273 24.4977 160.753 24.4977 158.852C24.4977 156.952 22.9706 155.432 21.0616 155.432C19.1527 155.432 17.6256 156.952 17.6256 158.852C17.6256 160.753 19.1527 162.273 21.0616 162.273Z" fill="#FFC77F"/>
<path d="M21.0616 184.504C22.9706 184.504 24.4977 182.984 24.4977 181.084C24.4977 179.184 22.9706 177.664 21.0616 177.664C19.1527 177.664 17.6256 179.184 17.6256 181.084C17.6256 182.984 19.1527 184.504 21.0616 184.504Z" fill="#FFC77F"/>
<path d="M21.0616 228.905C22.9706 228.905 24.4977 227.384 24.4977 225.484C24.4977 223.584 22.9706 222.064 21.0616 222.064C19.1527 222.064 17.6256 223.584 17.6256 225.484C17.6256 227.384 19.1527 228.905 21.0616 228.905Z" fill="#FFC77F"/>
<path d="M21.0616 206.736C22.9706 206.736 24.4977 205.216 24.4977 203.316C24.4977 201.479 22.9706 199.896 21.0616 199.896C19.1527 199.896 17.6256 201.416 17.6256 203.316C17.6256 205.216 19.1527 206.736 21.0616 206.736Z" fill="#FFC77F"/>
<path d="M21.0616 295.6C22.9706 295.6 24.4977 294.08 24.4977 292.18C24.4977 290.279 22.9706 288.759 21.0616 288.759C19.1527 288.759 17.6256 290.279 17.6256 292.18C17.6256 294.08 19.1527 295.6 21.0616 295.6Z" fill="#FFC77F"/>
<path d="M21.0616 251.136C22.9706 251.136 24.4977 249.616 24.4977 247.716C24.4977 245.816 22.9706 244.296 21.0616 244.296C19.1527 244.296 17.6256 245.816 17.6256 247.716C17.6256 249.616 19.1527 251.136 21.0616 251.136Z" fill="#FFC77F"/>
<path d="M21.0616 273.368C22.9706 273.368 24.4977 271.848 24.4977 269.948C24.4977 268.048 22.9706 266.528 21.0616 266.528C19.1527 266.528 17.6256 268.048 17.6256 269.948C17.6256 271.848 19.1527 273.368 21.0616 273.368Z" fill="#FFC77F"/>
<path d="M21.0616 73.4724C22.9706 73.4724 24.4977 71.9522 24.4977 70.0521C24.4977 68.152 22.9706 66.6318 21.0616 66.6318C19.1527 66.6318 17.6256 68.152 17.6256 70.0521C17.6256 71.9522 19.1527 73.4724 21.0616 73.4724Z" fill="#FFC77F"/>
<path d="M21.0616 140.104C22.9706 140.104 24.4977 138.584 24.4977 136.684C24.4977 134.784 22.9706 133.264 21.0616 133.264C19.1527 133.264 17.6256 134.784 17.6256 136.684C17.6256 138.584 19.1527 140.104 21.0616 140.104Z" fill="#FFC77F"/>
<path d="M21.0616 51.2406C22.9706 51.2406 24.4977 49.7205 24.4977 47.8204C24.4977 45.9202 22.9069 44.4634 21.0616 44.4634C19.1527 44.4634 17.6256 45.9836 17.6256 47.8837C17.6256 49.7839 19.1527 51.2406 21.0616 51.2406Z" fill="#FFC77F"/>
<path d="M21.0616 117.873C22.9706 117.873 24.4977 116.352 24.4977 114.452C24.4977 112.552 22.9706 111.032 21.0616 111.032C19.1527 111.032 17.6256 112.552 17.6256 114.452C17.6256 116.352 19.1527 117.873 21.0616 117.873Z" fill="#FFC77F"/>
<path d="M21.0616 95.6408C22.9706 95.6408 24.4977 94.1207 24.4977 92.2205C24.4977 90.3837 22.9706 88.8002 21.0616 88.8002C19.1527 88.8002 17.6256 90.3204 17.6256 92.2205C17.6256 94.1207 19.1527 95.6408 21.0616 95.6408Z" fill="#FFC77F"/>
<path d="M21.0616 29.009C22.9706 29.009 24.4977 27.4889 24.4977 25.5887C24.4977 23.6886 22.9069 22.2318 21.0616 22.2318C19.1527 22.2318 17.6256 23.7519 17.6256 25.6521C17.6256 27.5522 19.1527 29.009 21.0616 29.009Z" fill="#FFC77F"/>
<path d="M19.1527 317.198C19.3436 317.325 19.5345 317.452 19.7254 317.515C19.9163 317.578 20.1708 317.705 20.3617 317.705C20.8071 317.768 21.2525 317.768 21.6979 317.705C21.9525 317.642 22.1434 317.578 22.3343 317.515C22.5251 317.452 22.716 317.325 22.9069 317.198C23.0978 317.071 23.2887 316.945 23.416 316.818C23.5432 316.691 23.7341 316.501 23.8614 316.311C23.9886 316.121 24.1159 315.931 24.1795 315.741C24.2432 315.551 24.3704 315.298 24.3704 315.108C24.434 314.855 24.434 314.665 24.434 314.411C24.434 313.968 24.3704 313.525 24.1795 313.144C24.0523 312.764 23.7977 312.384 23.4796 312.068C22.8433 311.434 21.9525 311.054 21.0616 311.054C20.1708 311.054 19.28 311.434 18.6437 312.068C18.3255 312.384 18.071 312.764 17.8801 313.144C17.6892 313.525 17.6256 314.031 17.6256 314.411C17.6256 315.298 18.0074 316.185 18.6437 316.818C18.771 316.945 18.9618 317.071 19.1527 317.198Z" fill="#FFC77F"/>
<path d="M0.254521 4.68703C0.318151 4.87705 0.445412 5.06706 0.572672 5.25708C0.699933 5.44709 0.827194 5.63711 1.01808 5.76379C1.20898 5.89046 1.33624 6.08048 1.52713 6.20715C1.71802 6.33383 1.90891 6.46051 2.0998 6.52384C2.29069 6.58718 2.54521 6.65052 2.7361 6.71386C3.18151 6.7772 3.62693 6.7772 4.07234 6.71386C4.32686 6.65052 4.51775 6.58718 4.70864 6.52384C4.89953 6.46051 5.09042 6.33383 5.28131 6.20715C5.4722 6.08048 5.66309 5.9538 5.79035 5.76379C5.98125 5.57377 6.10851 5.44709 6.17214 5.25708C6.36303 5.06706 6.49029 4.87705 6.55392 4.68703C6.61755 4.49702 6.68118 4.307 6.74481 4.05365C6.80844 3.86364 6.80844 3.61028 6.80844 3.42027C6.80844 2.53353 6.42666 1.6468 5.79035 1.01341C5.53583 0.696721 5.09042 0.443368 4.70864 0.253353C4.32686 0.0633383 3.88145 0 3.43603 0C2.48158 0 1.65439 0.38003 1.01808 1.01341C0.318151 1.6468 0 2.47019 0 3.42027C0 3.67362 0 3.86364 0.0636303 4.05365C0.127261 4.307 0.127261 4.49702 0.254521 4.68703Z" fill="#FFC77F"/>
<path d="M3.43604 162.273C5.34494 162.273 6.87207 160.753 6.87207 158.852C6.87207 156.952 5.34494 155.432 3.43604 155.432C1.52713 155.432 0 157.016 0 158.916C0 160.816 1.52713 162.273 3.43604 162.273Z" fill="#FFC77F"/>
<path d="M3.43604 184.504C5.34494 184.504 6.87207 182.984 6.87207 181.084C6.87207 179.184 5.34494 177.664 3.43604 177.664C1.52713 177.664 0 179.247 0 181.084C0 182.984 1.52713 184.504 3.43604 184.504Z" fill="#FFC77F"/>
<path d="M3.43604 228.905C5.34494 228.905 6.87207 227.384 6.87207 225.484C6.87207 223.584 5.34494 222.064 3.43604 222.064C1.52713 222.064 0 223.648 0 225.548C0 227.384 1.52713 228.905 3.43604 228.905Z" fill="#FFC77F"/>
<path d="M3.43604 206.736C5.34494 206.736 6.87207 205.216 6.87207 203.316C6.87207 201.479 5.34494 199.896 3.43604 199.896C1.52713 199.896 0 201.479 0 203.316C0 205.216 1.52713 206.736 3.43604 206.736Z" fill="#FFC77F"/>
<path d="M3.43604 295.6C5.34494 295.6 6.87207 294.08 6.87207 292.18C6.87207 290.279 5.34494 288.759 3.43604 288.759C1.52713 288.759 0 290.279 0 292.18C0 294.08 1.52713 295.6 3.43604 295.6Z" fill="#FFC77F"/>
<path d="M3.43604 251.136C5.34494 251.136 6.87207 249.616 6.87207 247.716C6.87207 245.816 5.34494 244.296 3.43604 244.296C1.52713 244.296 0 245.879 0 247.716C0 249.616 1.52713 251.136 3.43604 251.136Z" fill="#FFC77F"/>
<path d="M3.43604 273.368C5.34494 273.368 6.87207 271.848 6.87207 269.948C6.87207 268.048 5.34494 266.528 3.43604 266.528C1.52713 266.528 0 268.111 0 269.948C0 271.848 1.52713 273.368 3.43604 273.368Z" fill="#FFC77F"/>
<path d="M3.43604 73.4724C5.34494 73.4724 6.87207 71.9522 6.87207 70.0521C6.87207 68.152 5.34494 66.6318 3.43604 66.6318C1.52713 66.6318 0 68.152 0 70.0521C0 71.9522 1.52713 73.4724 3.43604 73.4724Z" fill="#FFC77F"/>
<path d="M3.43604 140.104C5.34494 140.104 6.87207 138.584 6.87207 136.684C6.87207 134.784 5.34494 133.264 3.43604 133.264C1.52713 133.264 0 134.784 0 136.684C0 138.584 1.52713 140.104 3.43604 140.104Z" fill="#FFC77F"/>
<path d="M3.43604 51.2406C5.34494 51.2406 6.87207 49.7205 6.87207 47.8204C6.87207 45.9202 5.28131 44.4634 3.43604 44.4634C1.59076 44.4634 0 45.9836 0 47.8204C0 49.6572 1.52713 51.2406 3.43604 51.2406Z" fill="#FFC77F"/>
<path d="M3.43604 117.873C5.34494 117.873 6.87207 116.352 6.87207 114.452C6.87207 112.552 5.34494 111.032 3.43604 111.032C1.52713 111.032 0 112.552 0 114.452C0 116.352 1.52713 117.873 3.43604 117.873Z" fill="#FFC77F"/>
<path d="M3.43604 95.6408C5.34494 95.6408 6.87207 94.1207 6.87207 92.2205C6.87207 90.3837 5.34494 88.8002 3.43604 88.8002C1.52713 88.8002 0 90.3837 0 92.2205C0 94.1207 1.52713 95.6408 3.43604 95.6408Z" fill="#FFC77F"/>
<path d="M3.43604 29.009C5.34494 29.009 6.87207 27.4889 6.87207 25.5887C6.87207 23.6886 5.28131 22.2318 3.43604 22.2318C1.59076 22.2318 0 23.7519 0 25.5887C0 27.4256 1.52713 29.009 3.43604 29.009Z" fill="#FFC77F"/>
<path d="M1.52713 317.198C1.71802 317.325 1.90891 317.452 2.0998 317.515C2.29069 317.578 2.54521 317.705 2.7361 317.705C3.18151 317.768 3.62693 317.768 4.07234 317.705C4.32686 317.642 4.51775 317.578 4.70864 317.515C4.89953 317.452 5.09042 317.325 5.28131 317.198C5.4722 317.072 5.66309 316.945 5.79035 316.818C5.98125 316.692 6.10851 316.502 6.23577 316.312C6.36303 316.122 6.49029 315.931 6.55392 315.741C6.61755 315.551 6.68118 315.298 6.74481 315.108C6.80844 314.855 6.80844 314.665 6.80844 314.411C6.80844 313.968 6.74481 313.525 6.55392 313.145C6.36303 312.701 6.17214 312.321 5.85399 312.005C5.21768 311.371 4.32686 310.991 3.43603 310.991C2.54521 310.991 1.65439 311.371 1.01808 312.005C0.699933 312.321 0.445412 312.701 0.254521 313.081C0.0636303 313.461 0 313.968 0 314.348C0 315.235 0.381782 316.121 1.01808 316.755C1.14534 316.945 1.33624 317.072 1.52713 317.198Z" fill="#FFC77F"/>
<path d="M88.4461 337.91C88.5097 338.1 88.637 338.29 88.7642 338.48C88.8915 338.67 89.0188 338.86 89.2096 338.987C89.3369 339.113 89.5278 339.303 89.7187 339.367C89.9096 339.493 90.1005 339.62 90.2914 339.683C90.4822 339.747 90.6731 339.873 90.9277 339.873C91.3731 339.937 91.8185 339.937 92.2639 339.873C92.5184 339.81 92.7093 339.747 92.9002 339.683C93.0911 339.62 93.282 339.493 93.4729 339.367C93.6638 339.24 93.8546 339.113 93.9819 338.987C94.1728 338.86 94.3001 338.67 94.4273 338.48C94.5546 338.29 94.6818 338.1 94.7455 337.91C94.8091 337.72 94.8727 337.466 94.9364 337.276C95 337.023 95 336.833 95 336.58C95 336.136 94.9364 335.693 94.7455 335.313C94.5546 334.933 94.3001 334.553 93.9819 334.236C93.6638 333.919 93.282 333.666 92.8366 333.476C92.4548 333.286 92.0094 333.223 91.564 333.223C90.6731 333.223 89.7823 333.603 89.146 334.236C88.5097 334.87 88.1279 335.756 88.1279 336.643C88.1279 336.896 88.1279 337.086 88.1916 337.34C88.2552 337.466 88.3188 337.656 88.4461 337.91Z" fill="#FFC77F"/>
<path d="M74.5747 339.937C74.8292 339.873 75.0201 339.81 75.211 339.747C75.4019 339.683 75.5928 339.557 75.7837 339.43C75.9746 339.303 76.1654 339.177 76.2927 339.05C76.929 338.417 77.3108 337.53 77.3108 336.643C77.3108 336.2 77.2472 335.756 77.0563 335.376C76.8654 334.996 76.6109 334.616 76.2927 334.3C75.9746 333.983 75.5928 333.729 75.1474 333.539C74.7656 333.349 74.3202 333.286 73.8748 333.286C72.9839 333.286 72.0931 333.666 71.4568 334.3C71.1387 334.616 70.8841 334.996 70.6932 335.376C70.566 335.756 70.4387 336.263 70.4387 336.643C70.4387 337.53 70.8205 338.417 71.4568 339.05C72.3476 339.747 73.493 340.127 74.5747 339.937Z" fill="#FFC77F"/>
<path d="M53.1313 337.91C53.195 338.1 53.3222 338.29 53.4495 338.48C53.5767 338.67 53.704 338.86 53.8949 338.987C54.0858 339.113 54.213 339.303 54.4039 339.367C54.5948 339.493 54.7857 339.62 54.9766 339.683C55.1675 339.747 55.3584 339.873 55.6129 339.873C56.0583 339.937 56.5037 339.937 56.9491 339.873C57.2037 339.81 57.3945 339.747 57.5854 339.683C57.7763 339.62 57.9672 339.493 58.1581 339.367C58.349 339.24 58.5399 339.113 58.6672 338.987C58.7944 338.86 58.9853 338.67 59.1126 338.48C59.2398 338.29 59.3671 338.1 59.4307 337.91C59.4943 337.72 59.558 337.466 59.6216 337.276C59.6852 337.023 59.6852 336.833 59.6852 336.58C59.6852 336.136 59.6216 335.693 59.4307 335.313C59.2398 334.933 58.9853 334.553 58.6672 334.236C58.0309 333.603 57.14 333.223 56.2492 333.223C55.8038 333.223 55.3584 333.286 54.9766 333.476C54.5312 333.603 54.1494 333.856 53.8313 334.236C53.5131 334.553 53.2586 334.933 53.0677 335.313C52.9404 335.693 52.8132 336.2 52.8132 336.58C52.8132 336.833 52.8132 337.023 52.8768 337.276C53.0041 337.466 53.0677 337.656 53.1313 337.91Z" fill="#FFC77F"/>
<path d="M39.3235 339.937C39.578 339.873 39.7689 339.81 39.9598 339.747C40.1507 339.683 40.3416 339.557 40.5325 339.43C40.7234 339.303 40.9143 339.177 41.0415 339.05C41.6778 338.417 42.0596 337.53 42.0596 336.643C42.0596 336.2 41.996 335.756 41.8051 335.376C41.6778 334.996 41.4233 334.616 41.1051 334.3C40.787 333.983 40.4052 333.729 39.9598 333.539C39.578 333.349 39.1326 333.286 38.6872 333.286C38.2418 333.286 37.7964 333.349 37.351 333.539C36.9692 333.666 36.5874 333.919 36.2692 334.3C35.9511 334.616 35.6966 334.996 35.5057 335.376C35.3784 335.756 35.2512 336.263 35.2512 336.643C35.2512 337.53 35.6329 338.417 36.2692 339.05C37.0328 339.747 38.2418 340.127 39.3235 339.937Z" fill="#FFC77F"/>
<path d="M19.1527 339.43C19.3436 339.557 19.5345 339.683 19.7254 339.747C19.9163 339.81 20.1708 339.937 20.3617 339.937C20.8071 340 21.2525 340 21.6979 339.937C21.9525 339.873 22.1434 339.81 22.3343 339.747C22.5251 339.683 22.716 339.557 22.9069 339.43C23.0978 339.303 23.2887 339.177 23.416 339.05C23.5432 338.923 23.7341 338.733 23.8614 338.543C23.9886 338.353 24.1159 338.163 24.1795 337.973C24.2432 337.783 24.3704 337.53 24.3704 337.34C24.434 337.086 24.434 336.896 24.434 336.643C24.434 336.2 24.3704 335.756 24.1795 335.376C24.0523 334.996 23.7977 334.616 23.4796 334.3C22.8433 333.666 21.9525 333.286 21.0616 333.286C20.1708 333.286 19.28 333.666 18.6437 334.3C18.3255 334.616 18.071 334.996 17.8801 335.376C17.6892 335.756 17.6256 336.263 17.6256 336.643C17.6256 337.53 18.0074 338.417 18.6437 339.05C18.771 339.113 18.9618 339.303 19.1527 339.43Z" fill="#FFC77F"/>
<path d="M1.52713 339.43C1.71802 339.557 1.90891 339.683 2.0998 339.747C2.29069 339.81 2.54521 339.937 2.7361 339.937C3.18151 340 3.62693 340 4.07234 339.937C4.32686 339.873 4.51775 339.81 4.70864 339.747C4.89953 339.683 5.09042 339.557 5.28131 339.43C5.4722 339.303 5.66309 339.177 5.79035 339.05C5.98125 338.923 6.10851 338.733 6.23577 338.543C6.36303 338.353 6.49029 338.163 6.55392 337.973C6.61755 337.783 6.68118 337.53 6.74481 337.34C6.80844 337.086 6.80844 336.896 6.80844 336.643C6.80844 336.2 6.74481 335.756 6.55392 335.376C6.36303 334.87 6.17214 334.49 5.85399 334.173C5.21768 333.54 4.32686 333.159 3.43603 333.159C2.54521 333.159 1.65439 333.54 1.01808 334.173C0.699933 334.49 0.445412 334.87 0.254521 335.25C0.0636303 335.693 0 336.136 0 336.58C0 337.466 0.381782 338.353 1.01808 338.987C1.14534 339.113 1.33624 339.303 1.52713 339.43Z" fill="#FFC77F"/>
</svg>
