<svg width="95" height="173" viewBox="0 0 95 173" fill="none" xmlns="http://www.w3.org/2000/svg">
<path d="M91.564 39.7362C93.4729 39.7362 95 38.2161 95 36.3159C95 34.4791 93.4729 32.8957 91.564 32.8957C89.6551 32.8957 88.128 34.4158 88.128 36.3159C88.1916 38.2161 89.7187 39.7362 91.564 39.7362Z" fill="#FFC77F"/>
<path d="M91.564 61.9046C93.4729 61.9046 95 60.3845 95 58.4843C95 56.5842 93.4729 55.0641 91.564 55.0641C89.6551 55.0641 88.128 56.5842 88.128 58.4843C88.1916 60.3845 89.7187 61.9046 91.564 61.9046Z" fill="#FFC77F"/>
<path d="M91.564 17.5044C93.4729 17.5044 95 15.9843 95 14.0842C95 12.184 93.4729 10.6639 91.564 10.6639C89.6551 10.6639 88.128 12.184 88.128 14.0842C88.1916 15.9843 89.7187 17.5044 91.564 17.5044Z" fill="#FFC77F"/>
<path d="M91.564 106.368C93.4729 106.368 95 104.848 95 102.948C95 101.048 93.4729 99.5276 91.564 99.5276C89.6551 99.5276 88.128 101.048 88.128 102.948C88.1916 104.848 89.7187 106.368 91.564 106.368Z" fill="#FFC77F"/>
<path d="M91.564 84.1364C93.4729 84.1364 95 82.6163 95 80.7161C95 78.816 93.4729 77.2959 91.564 77.2959C89.6551 77.2959 88.128 78.816 88.128 80.7161C88.1916 82.6163 89.7187 84.1364 91.564 84.1364Z" fill="#FFC77F"/>
<path d="M91.564 128.6C93.4729 128.6 95 127.08 95 125.18C95 123.279 93.4729 121.759 91.564 121.759C89.6551 121.759 88.128 123.279 88.128 125.18C88.1916 127.08 89.7187 128.6 91.564 128.6Z" fill="#FFC77F"/>
<path d="M88.4461 148.678C88.5097 148.868 88.637 149.058 88.7643 149.248C88.8915 149.438 89.0188 149.628 89.2097 149.755C89.3369 149.882 89.5278 150.072 89.7187 150.135C89.9096 150.262 90.1005 150.388 90.2914 150.452C90.4823 150.515 90.6732 150.642 90.9277 150.642C91.3731 150.705 91.8185 150.705 92.2639 150.642C92.5184 150.578 92.7093 150.515 92.9002 150.452C93.0911 150.388 93.282 150.262 93.4729 150.135C93.6638 150.008 93.8547 149.882 93.9819 149.755C94.1728 149.628 94.3001 149.438 94.4274 149.248C94.5546 149.058 94.6819 148.868 94.7455 148.678C94.8091 148.488 94.8728 148.235 94.9364 148.045C95 147.791 95 147.601 95 147.348C95 146.905 94.9364 146.461 94.7455 146.081C94.5546 145.701 94.3001 145.321 93.9819 145.005C93.6638 144.688 93.282 144.434 92.8366 144.244C92.4548 144.054 92.0094 143.991 91.564 143.991C90.6732 143.991 89.7823 144.371 89.146 145.005C88.5097 145.638 88.128 146.525 88.128 147.411C88.128 147.665 88.128 147.855 88.1916 148.108C88.2552 148.235 88.3188 148.488 88.4461 148.678Z" fill="#FFC77F"/>
<path d="M73.9384 84.1364C75.8473 84.1364 77.3744 82.6163 77.3744 80.7161C77.3744 78.816 75.8473 77.2959 73.9384 77.2959C72.0295 77.2959 70.5023 78.816 70.5023 80.7161C70.5023 82.6163 72.0295 84.1364 73.9384 84.1364Z" fill="#FFC77F"/>
<path d="M73.9384 39.7362C75.8473 39.7362 77.3744 38.2161 77.3744 36.3159C77.3744 34.4791 75.8473 32.8957 73.9384 32.8957C72.0295 32.8957 70.5023 34.4158 70.5023 36.3159C70.5023 38.2161 72.0295 39.7362 73.9384 39.7362Z" fill="#FFC77F"/>
<path d="M73.9384 61.9046C75.8473 61.9046 77.3744 60.3845 77.3744 58.4843C77.3744 56.5842 75.8473 55.0641 73.9384 55.0641C72.0295 55.0641 70.5023 56.5842 70.5023 58.4843C70.5023 60.3845 72.0295 61.9046 73.9384 61.9046Z" fill="#FFC77F"/>
<path d="M73.9384 106.368C75.8473 106.368 77.3744 104.848 77.3744 102.948C77.3744 101.048 75.8473 99.5276 73.9384 99.5276C72.0295 99.5276 70.5023 101.048 70.5023 102.948C70.5023 104.848 72.0295 106.368 73.9384 106.368Z" fill="#FFC77F"/>
<path d="M73.9384 17.5044C75.8473 17.5044 77.3744 15.9843 77.3744 14.0842C77.3744 12.184 75.8473 10.6639 73.9384 10.6639C72.0295 10.6639 70.5023 12.184 70.5023 14.0842C70.5023 15.9843 72.0295 17.5044 73.9384 17.5044Z" fill="#FFC77F"/>
<path d="M73.9384 128.6C75.8473 128.6 77.3744 127.08 77.3744 125.18C77.3744 123.279 75.8473 121.759 73.9384 121.759C72.0295 121.759 70.5023 123.279 70.5023 125.18C70.5023 127.08 72.0295 128.6 73.9384 128.6Z" fill="#FFC77F"/>
<path d="M74.5747 150.705C74.8292 150.642 75.0201 150.578 75.211 150.515C75.4019 150.452 75.5928 150.325 75.7837 150.198C75.9746 150.071 76.1655 149.945 76.2927 149.818C76.929 149.185 77.3108 148.298 77.3108 147.411C77.3108 146.968 77.2472 146.525 77.0563 146.144C76.8654 145.764 76.6109 145.384 76.2927 145.068C75.9746 144.751 75.5928 144.498 75.1474 144.308C74.7656 144.118 74.3202 144.054 73.8748 144.054C72.984 144.054 72.0931 144.434 71.4568 145.068C71.1387 145.384 70.8842 145.764 70.6933 146.144C70.566 146.525 70.4388 147.031 70.4388 147.411C70.4388 148.298 70.8205 149.185 71.4568 149.818C72.3477 150.578 73.493 150.958 74.5747 150.705Z" fill="#FFC77F"/>
<path d="M56.3128 61.9046C58.2217 61.9046 59.7488 60.3845 59.7488 58.4843C59.7488 56.5842 58.2217 55.0641 56.3128 55.0641C54.4039 55.0641 52.8767 56.5842 52.8767 58.4843C52.8767 60.3845 54.4039 61.9046 56.3128 61.9046Z" fill="#FFC77F"/>
<path d="M56.3128 39.7362C58.2217 39.7362 59.7488 38.2161 59.7488 36.3159C59.7488 34.4791 58.2217 32.8957 56.3128 32.8957C54.4039 32.8957 52.8767 34.4158 52.8767 36.3159C52.8767 38.2161 54.4039 39.7362 56.3128 39.7362Z" fill="#FFC77F"/>
<path d="M56.3128 84.1364C58.2217 84.1364 59.7488 82.6163 59.7488 80.7161C59.7488 78.816 58.2217 77.2959 56.3128 77.2959C54.4039 77.2959 52.8767 78.816 52.8767 80.7161C52.8767 82.6163 54.4039 84.1364 56.3128 84.1364Z" fill="#FFC77F"/>
<path d="M56.3128 17.5044C58.2217 17.5044 59.7488 15.9843 59.7488 14.0842C59.7488 12.184 58.2217 10.6639 56.3128 10.6639C54.4039 10.6639 52.8767 12.184 52.8767 14.0842C52.8767 15.9843 54.4039 17.5044 56.3128 17.5044Z" fill="#FFC77F"/>
<path d="M56.3128 106.368C58.2217 106.368 59.7488 104.848 59.7488 102.948C59.7488 101.048 58.2217 99.5276 56.3128 99.5276C54.4039 99.5276 52.8767 101.048 52.8767 102.948C52.8767 104.848 54.4039 106.368 56.3128 106.368Z" fill="#FFC77F"/>
<path d="M56.3128 128.6C58.2217 128.6 59.7488 127.08 59.7488 125.18C59.7488 123.279 58.2217 121.759 56.3128 121.759C54.4039 121.759 52.8767 123.279 52.8767 125.18C52.8767 127.08 54.4039 128.6 56.3128 128.6Z" fill="#FFC77F"/>
<path d="M53.1313 148.678C53.1949 148.868 53.3222 149.058 53.4494 149.248C53.5767 149.438 53.704 149.628 53.8949 149.755C54.0857 149.882 54.213 150.072 54.4039 150.135C54.5948 150.262 54.7857 150.388 54.9766 150.452C55.1675 150.515 55.3583 150.642 55.6129 150.642C56.0583 150.705 56.5037 150.705 56.9491 150.642C57.2036 150.578 57.3945 150.515 57.5854 150.452C57.7763 150.388 57.9672 150.262 58.1581 150.135C58.349 150.008 58.5399 149.882 58.6671 149.755C58.7944 149.628 58.9853 149.438 59.1125 149.248C59.2398 149.058 59.3671 148.868 59.4307 148.678C59.4943 148.488 59.5579 148.235 59.6216 148.045C59.6852 147.791 59.6852 147.601 59.6852 147.348C59.6852 146.905 59.6216 146.461 59.4307 146.081C59.2398 145.701 58.9853 145.321 58.6671 145.005C58.0308 144.371 57.14 143.991 56.2492 143.991C55.8038 143.991 55.3584 144.054 54.9766 144.244C54.5312 144.371 54.1494 144.624 53.8312 145.005C53.5131 145.321 53.2586 145.701 53.0677 146.081C52.9404 146.461 52.8131 146.968 52.8131 147.348C52.8131 147.601 52.8131 147.791 52.8768 148.045C53.004 148.235 53.0677 148.488 53.1313 148.678Z" fill="#FFC77F"/>
<path d="M38.6872 17.5044C40.5961 17.5044 42.1232 15.9843 42.1232 14.0842C42.1232 12.184 40.5961 10.6639 38.6872 10.6639C36.7783 10.6639 35.2511 12.184 35.2511 14.0842C35.2511 15.9843 36.7783 17.5044 38.6872 17.5044Z" fill="#FFC77F"/>
<path d="M38.6872 61.9046C40.5961 61.9046 42.1232 60.3845 42.1232 58.4843C42.1232 56.5842 40.5961 55.0641 38.6872 55.0641C36.7783 55.0641 35.2511 56.5842 35.2511 58.4843C35.2511 60.3845 36.7783 61.9046 38.6872 61.9046Z" fill="#FFC77F"/>
<path d="M38.6872 84.1364C40.5961 84.1364 42.1232 82.6163 42.1232 80.7161C42.1232 78.816 40.5961 77.2959 38.6872 77.2959C36.7783 77.2959 35.2511 78.816 35.2511 80.7161C35.2511 82.6163 36.7783 84.1364 38.6872 84.1364Z" fill="#FFC77F"/>
<path d="M38.6872 39.7362C40.5961 39.7362 42.1232 38.2161 42.1232 36.3159C42.1232 34.4791 40.5961 32.8957 38.6872 32.8957C36.7783 32.8957 35.2511 34.4158 35.2511 36.3159C35.2511 38.2161 36.7783 39.7362 38.6872 39.7362Z" fill="#FFC77F"/>
<path d="M38.6872 128.6C40.5961 128.6 42.1232 127.08 42.1232 125.18C42.1232 123.279 40.5961 121.759 38.6872 121.759C36.7783 121.759 35.2511 123.279 35.2511 125.18C35.2511 127.08 36.7783 128.6 38.6872 128.6Z" fill="#FFC77F"/>
<path d="M38.6872 106.368C40.5961 106.368 42.1232 104.848 42.1232 102.948C42.1232 101.048 40.5961 99.5276 38.6872 99.5276C36.7783 99.5276 35.2511 101.048 35.2511 102.948C35.2511 104.848 36.7783 106.368 38.6872 106.368Z" fill="#FFC77F"/>
<path d="M39.3235 150.705C39.578 150.642 39.7689 150.578 39.9598 150.515C40.1507 150.452 40.3416 150.325 40.5324 150.198C40.7233 150.071 40.9142 149.945 41.0415 149.818C41.6778 149.185 42.0596 148.298 42.0596 147.411C42.0596 146.968 41.9959 146.525 41.805 146.144C41.6778 145.764 41.4233 145.384 41.1051 145.068C40.787 144.751 40.4052 144.498 39.9598 144.308C39.578 144.118 39.1326 144.054 38.6872 144.054C38.2418 144.054 37.7963 144.118 37.3509 144.308C36.9691 144.434 36.5874 144.688 36.2692 145.068C35.9511 145.384 35.6965 145.764 35.5057 146.144C35.3784 146.525 35.2511 147.031 35.2511 147.411C35.2511 148.298 35.6329 149.185 36.2692 149.818C37.0328 150.578 38.2418 150.958 39.3235 150.705Z" fill="#FFC77F"/>
<path d="M21.0616 17.5044C22.9706 17.5044 24.4977 15.9843 24.4977 14.0842C24.4977 12.184 22.9706 10.6639 21.0616 10.6639C19.1527 10.6639 17.6256 12.184 17.6256 14.0842C17.6256 15.9843 19.1527 17.5044 21.0616 17.5044Z" fill="#FFC77F"/>
<path d="M21.0616 61.9046C22.9706 61.9046 24.4977 60.3845 24.4977 58.4843C24.4977 56.5842 22.9706 55.0641 21.0616 55.0641C19.1527 55.0641 17.6256 56.5842 17.6256 58.4843C17.6256 60.3845 19.1527 61.9046 21.0616 61.9046Z" fill="#FFC77F"/>
<path d="M21.0616 39.7362C22.9706 39.7362 24.4977 38.2161 24.4977 36.3159C24.4977 34.4791 22.9706 32.8957 21.0616 32.8957C19.1527 32.8957 17.6256 34.4158 17.6256 36.3159C17.6256 38.2161 19.1527 39.7362 21.0616 39.7362Z" fill="#FFC77F"/>
<path d="M21.0616 128.6C22.9706 128.6 24.4977 127.08 24.4977 125.18C24.4977 123.279 22.9706 121.759 21.0616 121.759C19.1527 121.759 17.6256 123.279 17.6256 125.18C17.6256 127.08 19.1527 128.6 21.0616 128.6Z" fill="#FFC77F"/>
<path d="M21.0616 84.1364C22.9706 84.1364 24.4977 82.6163 24.4977 80.7161C24.4977 78.816 22.9706 77.2959 21.0616 77.2959C19.1527 77.2959 17.6256 78.816 17.6256 80.7161C17.6256 82.6163 19.1527 84.1364 21.0616 84.1364Z" fill="#FFC77F"/>
<path d="M21.0616 106.368C22.9706 106.368 24.4977 104.848 24.4977 102.948C24.4977 101.048 22.9706 99.5276 21.0616 99.5276C19.1527 99.5276 17.6256 101.048 17.6256 102.948C17.6256 104.848 19.1527 106.368 21.0616 106.368Z" fill="#FFC77F"/>
<path d="M19.1527 150.198C19.3436 150.325 19.5345 150.451 19.7254 150.515C19.9163 150.578 20.1708 150.705 20.3617 150.705C20.8071 150.768 21.2525 150.768 21.6979 150.705C21.9525 150.642 22.1434 150.578 22.3343 150.515C22.5251 150.451 22.716 150.325 22.9069 150.198C23.0978 150.071 23.2887 149.945 23.416 149.818C23.5432 149.691 23.7341 149.501 23.8614 149.311C23.9886 149.121 24.1159 148.931 24.1795 148.741C24.2432 148.551 24.3704 148.298 24.3704 148.108C24.434 147.855 24.434 147.665 24.434 147.411C24.434 146.968 24.3704 146.525 24.1795 146.144C24.0523 145.764 23.7977 145.384 23.4796 145.068C22.8433 144.434 21.9525 144.054 21.0616 144.054C20.1708 144.054 19.28 144.434 18.6437 145.068C18.3255 145.384 18.071 145.764 17.8801 146.144C17.6892 146.525 17.6256 147.031 17.6256 147.411C17.6256 148.298 18.0074 149.185 18.6437 149.818C18.771 149.945 18.9618 150.071 19.1527 150.198Z" fill="#FFC77F"/>
<path d="M3.43603 17.5044C5.34494 17.5044 6.87207 15.9843 6.87207 14.0842C6.87207 12.184 5.34494 10.6639 3.43603 10.6639C1.52713 10.6639 0 12.2473 0 14.0842C0 15.9843 1.52713 17.5044 3.43603 17.5044Z" fill="#FFC77F"/>
<path d="M3.43603 61.9046C5.34494 61.9046 6.87207 60.3845 6.87207 58.4843C6.87207 56.5842 5.34494 55.0641 3.43603 55.0641C1.52713 55.0641 0 56.6475 0 58.5477C0 60.3845 1.52713 61.9046 3.43603 61.9046Z" fill="#FFC77F"/>
<path d="M3.43603 39.7362C5.34494 39.7362 6.87207 38.2161 6.87207 36.3159C6.87207 34.4791 5.34494 32.8957 3.43603 32.8957C1.52713 32.8957 0 34.4791 0 36.3159C0 38.2161 1.52713 39.7362 3.43603 39.7362Z" fill="#FFC77F"/>
<path d="M3.43603 128.6C5.34494 128.6 6.87207 127.08 6.87207 125.18C6.87207 123.279 5.34494 121.759 3.43603 121.759C1.52713 121.759 0 123.279 0 125.18C0 127.08 1.52713 128.6 3.43603 128.6Z" fill="#FFC77F"/>
<path d="M3.43603 84.1364C5.34494 84.1364 6.87207 82.6163 6.87207 80.7161C6.87207 78.816 5.34494 77.2959 3.43603 77.2959C1.52713 77.2959 0 78.8793 0 80.7161C0 82.6163 1.52713 84.1364 3.43603 84.1364Z" fill="#FFC77F"/>
<path d="M3.43603 106.368C5.34494 106.368 6.87207 104.848 6.87207 102.948C6.87207 101.048 5.34494 99.5276 3.43603 99.5276C1.52713 99.5276 0 101.111 0 102.948C0 104.848 1.52713 106.368 3.43603 106.368Z" fill="#FFC77F"/>
<path d="M1.52713 150.198C1.71802 150.325 1.90891 150.452 2.0998 150.515C2.29069 150.578 2.54521 150.705 2.7361 150.705C3.18151 150.768 3.62693 150.768 4.07234 150.705C4.32686 150.642 4.51775 150.578 4.70864 150.515C4.89953 150.452 5.09042 150.325 5.28131 150.198C5.4722 150.072 5.66309 149.945 5.79035 149.818C5.98125 149.692 6.10851 149.502 6.23577 149.312C6.36303 149.122 6.49029 148.931 6.55392 148.741C6.61755 148.551 6.68118 148.298 6.74481 148.108C6.80844 147.855 6.80844 147.665 6.80844 147.411C6.80844 146.968 6.74481 146.525 6.55392 146.145C6.36303 145.701 6.17214 145.321 5.85398 145.005C5.21768 144.371 4.32686 143.991 3.43603 143.991C2.54521 143.991 1.65439 144.371 1.01808 145.005C0.699933 145.321 0.445412 145.701 0.254521 146.081C0.0636303 146.461 0 146.968 0 147.348C0 148.235 0.381782 149.121 1.01808 149.755C1.14534 149.945 1.33624 150.072 1.52713 150.198Z" fill="#FFC77F"/>
<path d="M88.4461 170.91C88.5097 171.1 88.637 171.29 88.7643 171.48C88.8915 171.67 89.0188 171.86 89.2097 171.987C89.3369 172.113 89.5278 172.303 89.7187 172.367C89.9096 172.493 90.1005 172.62 90.2914 172.683C90.4823 172.747 90.6732 172.873 90.9277 172.873C91.3731 172.937 91.8185 172.937 92.2639 172.873C92.5184 172.81 92.7093 172.747 92.9002 172.683C93.0911 172.62 93.282 172.493 93.4729 172.367C93.6638 172.24 93.8547 172.113 93.9819 171.987C94.1728 171.86 94.3001 171.67 94.4274 171.48C94.5546 171.29 94.6819 171.1 94.7455 170.91C94.8091 170.72 94.8728 170.466 94.9364 170.276C95 170.023 95 169.833 95 169.58C95 169.136 94.9364 168.693 94.7455 168.313C94.5546 167.933 94.3001 167.553 93.9819 167.236C93.6638 166.919 93.282 166.666 92.8366 166.476C92.4548 166.286 92.0094 166.223 91.564 166.223C90.6732 166.223 89.7823 166.603 89.146 167.236C88.5097 167.87 88.128 168.756 88.128 169.643C88.128 169.896 88.128 170.086 88.1916 170.34C88.2552 170.466 88.3188 170.656 88.4461 170.91Z" fill="#FFC77F"/>
<path d="M74.5747 172.937C74.8292 172.873 75.0201 172.81 75.211 172.747C75.4019 172.683 75.5928 172.557 75.7837 172.43C75.9746 172.303 76.1655 172.177 76.2927 172.05C76.929 171.417 77.3108 170.53 77.3108 169.643C77.3108 169.2 77.2472 168.756 77.0563 168.376C76.8654 167.996 76.6109 167.616 76.2927 167.3C75.9746 166.983 75.5928 166.729 75.1474 166.539C74.7656 166.349 74.3202 166.286 73.8748 166.286C72.984 166.286 72.0931 166.666 71.4568 167.3C71.1387 167.616 70.8842 167.996 70.6933 168.376C70.566 168.756 70.4388 169.263 70.4388 169.643C70.4388 170.53 70.8205 171.417 71.4568 172.05C72.3477 172.747 73.493 173.127 74.5747 172.937Z" fill="#FFC77F"/>
<path d="M53.1313 170.91C53.1949 171.1 53.3222 171.29 53.4494 171.48C53.5767 171.67 53.704 171.86 53.8949 171.987C54.0857 172.113 54.213 172.303 54.4039 172.367C54.5948 172.493 54.7857 172.62 54.9766 172.683C55.1675 172.747 55.3583 172.873 55.6129 172.873C56.0583 172.937 56.5037 172.937 56.9491 172.873C57.2036 172.81 57.3945 172.747 57.5854 172.683C57.7763 172.62 57.9672 172.493 58.1581 172.367C58.349 172.24 58.5399 172.113 58.6671 171.987C58.7944 171.86 58.9853 171.67 59.1125 171.48C59.2398 171.29 59.3671 171.1 59.4307 170.91C59.4943 170.72 59.5579 170.466 59.6216 170.276C59.6852 170.023 59.6852 169.833 59.6852 169.58C59.6852 169.136 59.6216 168.693 59.4307 168.313C59.2398 167.933 58.9853 167.553 58.6671 167.236C58.0308 166.603 57.14 166.223 56.2492 166.223C55.8038 166.223 55.3584 166.286 54.9766 166.476C54.5312 166.603 54.1494 166.856 53.8312 167.236C53.5131 167.553 53.2586 167.933 53.0677 168.313C52.9404 168.693 52.8131 169.2 52.8131 169.58C52.8131 169.833 52.8131 170.023 52.8768 170.276C53.004 170.466 53.0677 170.656 53.1313 170.91Z" fill="#FFC77F"/>
<path d="M39.3235 172.937C39.578 172.873 39.7689 172.81 39.9598 172.747C40.1507 172.683 40.3416 172.557 40.5324 172.43C40.7233 172.303 40.9142 172.177 41.0415 172.05C41.6778 171.417 42.0596 170.53 42.0596 169.643C42.0596 169.2 41.9959 168.756 41.805 168.376C41.6778 167.996 41.4233 167.616 41.1051 167.3C40.787 166.983 40.4052 166.729 39.9598 166.539C39.578 166.349 39.1326 166.286 38.6872 166.286C38.2418 166.286 37.7963 166.349 37.3509 166.539C36.9691 166.666 36.5874 166.919 36.2692 167.3C35.9511 167.616 35.6965 167.996 35.5057 168.376C35.3784 168.756 35.2511 169.263 35.2511 169.643C35.2511 170.53 35.6329 171.417 36.2692 172.05C37.0328 172.747 38.2418 173.127 39.3235 172.937Z" fill="#FFC77F"/>
<path d="M19.1527 172.43C19.3436 172.557 19.5345 172.683 19.7254 172.747C19.9163 172.81 20.1708 172.937 20.3617 172.937C20.8071 173 21.2525 173 21.6979 172.937C21.9525 172.873 22.1434 172.81 22.3343 172.747C22.5251 172.683 22.716 172.557 22.9069 172.43C23.0978 172.303 23.2887 172.177 23.416 172.05C23.5432 171.923 23.7341 171.733 23.8614 171.543C23.9886 171.353 24.1159 171.163 24.1795 170.973C24.2432 170.783 24.3704 170.53 24.3704 170.34C24.434 170.086 24.434 169.896 24.434 169.643C24.434 169.2 24.3704 168.756 24.1795 168.376C24.0523 167.996 23.7977 167.616 23.4796 167.3C22.8433 166.666 21.9525 166.286 21.0616 166.286C20.1708 166.286 19.28 166.666 18.6437 167.3C18.3255 167.616 18.071 167.996 17.8801 168.376C17.6892 168.756 17.6256 169.263 17.6256 169.643C17.6256 170.53 18.0074 171.417 18.6437 172.05C18.771 172.113 18.9618 172.303 19.1527 172.43Z" fill="#FFC77F"/>
<path d="M1.52713 172.43C1.71802 172.557 1.90891 172.683 2.0998 172.747C2.29069 172.81 2.54521 172.937 2.7361 172.937C3.18151 173 3.62693 173 4.07234 172.937C4.32686 172.873 4.51775 172.81 4.70864 172.747C4.89953 172.683 5.09042 172.557 5.28131 172.43C5.4722 172.303 5.66309 172.177 5.79035 172.05C5.98125 171.923 6.10851 171.733 6.23577 171.543C6.36303 171.353 6.49029 171.163 6.55392 170.973C6.61755 170.783 6.68118 170.53 6.74481 170.34C6.80844 170.086 6.80844 169.896 6.80844 169.643C6.80844 169.2 6.74481 168.756 6.55392 168.376C6.36303 167.87 6.17214 167.49 5.85398 167.173C5.21768 166.54 4.32686 166.159 3.43603 166.159C2.54521 166.159 1.65439 166.54 1.01808 167.173C0.699933 167.49 0.445412 167.87 0.254521 168.25C0.0636303 168.693 0 169.136 0 169.58C0 170.466 0.381782 171.353 1.01808 171.987C1.14534 172.113 1.33624 172.303 1.52713 172.43Z" fill="#FFC77F"/>
</svg>
