<svg width="340" height="95" viewBox="0 0 340 95" fill="none" xmlns="http://www.w3.org/2000/svg">
<path d="M4.68703 6.55389C4.87705 6.49026 5.06706 6.363 5.25708 6.23574C5.44709 6.10848 5.63711 5.98122 5.76379 5.79033C5.89046 5.66307 6.08048 5.47218 6.20715 5.28128C6.33383 5.09039 6.46051 4.89951 6.52384 4.70862C6.58718 4.51773 6.65052 4.32683 6.71386 4.07231C6.7772 3.6269 6.7772 3.18149 6.71386 2.73608C6.65052 2.48156 6.58718 2.29066 6.52384 2.09977C6.46051 1.90888 6.33383 1.718 6.20715 1.52711C6.08048 1.33622 5.9538 1.14532 5.76379 1.01806C5.57377 0.827169 5.44709 0.699911 5.25708 0.57265C5.06706 0.44539 4.87705 0.318128 4.68703 0.254498C4.49702 0.190868 4.307 0.127239 4.05365 0.0636089C3.86364 -2.13455e-05 3.61028 -2.28033e-05 3.42027 -2.28033e-05C2.9769 -2.28033e-05 2.53353 0.0636072 2.1535 0.254498C1.71013 0.445388 1.3301 0.699909 1.01341 1.01806C0.38003 1.65436 0 2.48156 0 3.43601C0 3.88142 0.0633383 4.32684 0.253353 4.70862C0.443368 5.0904 0.696721 5.53581 1.01341 5.85396C1.6468 6.49026 2.53353 6.87204 3.42027 6.87204C3.67362 6.87204 3.86364 6.87204 4.05365 6.80841C4.307 6.74478 4.49702 6.68115 4.68703 6.55389Z" fill="#B0B7C7"/>
<path d="M206.736 3.43601C206.736 1.5271 205.216 -2.28033e-05 203.316 -2.28033e-05C201.479 -2.28033e-05 199.896 1.5271 199.896 3.43601C199.896 5.34491 201.416 6.87204 203.316 6.87204C205.216 6.80841 206.736 5.28128 206.736 3.43601Z" fill="#B0B7C7"/>
<path d="M228.905 3.43601C228.905 1.5271 227.384 -2.28033e-05 225.484 -2.28033e-05C223.584 -2.28033e-05 222.064 1.5271 222.064 3.43601C222.064 5.34491 223.584 6.87204 225.484 6.87204C227.384 6.80841 228.905 5.28128 228.905 3.43601Z" fill="#B0B7C7"/>
<path d="M184.504 3.43601C184.504 1.5271 182.984 -2.28033e-05 181.084 -2.28033e-05C179.184 -2.28033e-05 177.664 1.5271 177.664 3.43601C177.664 5.34491 179.184 6.87204 181.084 6.87204C182.984 6.80841 184.504 5.28128 184.504 3.43601Z" fill="#B0B7C7"/>
<path d="M273.368 3.43601C273.368 1.5271 271.848 -2.28033e-05 269.948 -2.28033e-05C268.048 -2.28033e-05 266.528 1.5271 266.528 3.43601C266.528 5.34491 268.048 6.87204 269.948 6.87204C271.848 6.80841 273.368 5.28128 273.368 3.43601Z" fill="#B0B7C7"/>
<path d="M251.136 3.43601C251.136 1.5271 249.616 -2.28033e-05 247.716 -2.28033e-05C245.816 -2.28033e-05 244.296 1.5271 244.296 3.43601C244.296 5.34491 245.816 6.87204 247.716 6.87204C249.616 6.80841 251.136 5.28128 251.136 3.43601Z" fill="#B0B7C7"/>
<path d="M295.6 3.43601C295.6 1.5271 294.08 -2.28033e-05 292.18 -2.28033e-05C290.279 -2.28033e-05 288.759 1.5271 288.759 3.43601C288.759 5.34491 290.279 6.87204 292.18 6.87204C294.08 6.80841 295.6 5.28128 295.6 3.43601Z" fill="#B0B7C7"/>
<path d="M162.273 3.43601C162.273 1.5271 160.753 -2.28033e-05 158.853 -2.28033e-05C156.952 -2.28033e-05 155.432 1.5271 155.432 3.43601C155.432 5.34491 156.952 6.87204 158.853 6.87204C160.753 6.87204 162.273 5.28128 162.273 3.43601Z" fill="#B0B7C7"/>
<path d="M73.4724 3.43601C73.4724 1.5271 71.9522 -2.28033e-05 70.0521 -2.28033e-05C68.152 -2.28033e-05 66.6318 1.5271 66.6318 3.43601C66.6318 5.34491 68.152 6.87204 70.0521 6.87204C71.9522 6.80841 73.4724 5.28128 73.4724 3.43601Z" fill="#B0B7C7"/>
<path d="M51.2407 3.43601C51.2407 1.5271 49.7206 -2.28033e-05 47.8204 -2.28033e-05C45.9203 -2.28033e-05 44.4001 1.5271 44.4001 3.43601C44.4001 5.34491 45.9203 6.87204 47.8204 6.87204C49.7206 6.87204 51.2407 5.28128 51.2407 3.43601Z" fill="#B0B7C7"/>
<path d="M140.104 3.43601C140.104 1.5271 138.584 -2.28033e-05 136.684 -2.28033e-05C134.784 -2.28033e-05 133.264 1.5271 133.264 3.43601C133.264 5.34491 134.784 6.87204 136.684 6.87204C138.584 6.80841 140.104 5.28128 140.104 3.43601Z" fill="#B0B7C7"/>
<path d="M29.009 3.43601C29.009 1.5271 27.4889 -2.28033e-05 25.5887 -2.28033e-05C23.6886 -2.28033e-05 22.1685 1.5271 22.1685 3.43601C22.1685 5.34491 23.6886 6.87204 25.5887 6.87204C27.4889 6.87204 29.009 5.28128 29.009 3.43601Z" fill="#B0B7C7"/>
<path d="M117.873 3.43601C117.873 1.5271 116.352 -2.28033e-05 114.452 -2.28033e-05C112.552 -2.28033e-05 111.032 1.5271 111.032 3.43601C111.032 5.34491 112.552 6.87204 114.452 6.87204C116.352 6.87204 117.873 5.28128 117.873 3.43601Z" fill="#B0B7C7"/>
<path d="M95.6408 3.43601C95.6408 1.5271 94.1207 -2.28033e-05 92.2206 -2.28033e-05C90.3838 -2.28033e-05 88.8003 1.5271 88.8003 3.43601C88.8003 5.34491 90.3204 6.87204 92.2206 6.87204C94.1207 6.80841 95.6408 5.28128 95.6408 3.43601Z" fill="#B0B7C7"/>
<path d="M315.678 6.55389C315.868 6.49026 316.058 6.363 316.248 6.23574C316.438 6.10848 316.628 5.98122 316.755 5.79033C316.882 5.66307 317.072 5.47218 317.135 5.28128C317.262 5.09039 317.388 4.89951 317.452 4.70862C317.515 4.51773 317.642 4.32683 317.642 4.07231C317.705 3.6269 317.705 3.18149 317.642 2.73608C317.578 2.48156 317.515 2.29066 317.452 2.09977C317.388 1.90888 317.262 1.718 317.135 1.52711C317.008 1.33622 316.882 1.14532 316.755 1.01806C316.628 0.827169 316.438 0.699911 316.248 0.57265C316.058 0.44539 315.868 0.318128 315.678 0.254498C315.488 0.190868 315.235 0.127239 315.045 0.0636089C314.791 -2.13455e-05 314.601 -2.28033e-05 314.348 -2.28033e-05C313.905 -2.28033e-05 313.461 0.0636072 313.081 0.254498C312.701 0.445388 312.321 0.699909 312.005 1.01806C311.688 1.33621 311.434 1.71799 311.244 2.16341C311.054 2.54519 310.991 2.9906 310.991 3.43601C310.991 4.32683 311.371 5.21766 312.005 5.85396C312.638 6.49026 313.525 6.87204 314.411 6.87204C314.665 6.87204 314.855 6.87204 315.108 6.80841C315.235 6.74478 315.488 6.68115 315.678 6.55389Z" fill="#B0B7C7"/>
<path d="M4.68703 24.2431C4.87705 24.1795 5.06706 24.0522 5.25708 23.925C5.44709 23.7977 5.63711 23.6705 5.76379 23.4796C5.89046 23.3523 6.08048 23.1614 6.20715 22.9705C6.33383 22.7796 6.46051 22.5887 6.52384 22.3979C6.58718 22.207 6.65052 22.0161 6.71386 21.7615C6.7772 21.3161 6.7772 20.8707 6.71386 20.4253C6.65052 20.1708 6.58718 19.9799 6.52384 19.789C6.46051 19.5981 6.33383 19.4072 6.20715 19.2163C6.08048 19.0255 5.9538 18.8346 5.76379 18.7073C5.57377 18.58 5.44709 18.3891 5.25708 18.2619C5.06706 18.1346 4.87705 18.0074 4.68703 17.9437C4.49702 17.8801 4.307 17.8165 4.05365 17.7528C3.86364 17.6892 3.61028 17.6892 3.42027 17.6892C2.9769 17.6892 2.53353 17.7528 2.1535 17.9437C1.6468 18.071 1.3301 18.3255 1.01341 18.6437C0.38003 19.28 0 20.1708 0 21.0616C0 21.507 0.0633383 21.9524 0.253353 22.3342C0.443368 22.7796 0.696721 23.1614 1.01341 23.4796C1.6468 24.1159 2.53353 24.4977 3.42027 24.4977C3.67362 24.4977 3.86364 24.4976 4.05365 24.434C4.307 24.3704 4.49702 24.3068 4.68703 24.2431Z" fill="#B0B7C7"/>
<path d="M251.136 21.0616C251.136 19.1527 249.616 17.6256 247.716 17.6256C245.816 17.6256 244.296 19.1527 244.296 21.0616C244.296 22.9705 245.816 24.4977 247.716 24.4977C249.616 24.4977 251.136 22.9705 251.136 21.0616Z" fill="#B0B7C7"/>
<path d="M206.736 21.0616C206.736 19.1527 205.216 17.6256 203.316 17.6256C201.479 17.6256 199.896 19.1527 199.896 21.0616C199.896 22.9705 201.416 24.4977 203.316 24.4977C205.216 24.4977 206.736 22.9705 206.736 21.0616Z" fill="#B0B7C7"/>
<path d="M228.905 21.0616C228.905 19.1527 227.384 17.6256 225.484 17.6256C223.584 17.6256 222.064 19.1527 222.064 21.0616C222.064 22.9705 223.584 24.4977 225.484 24.4977C227.384 24.4977 228.905 22.9705 228.905 21.0616Z" fill="#B0B7C7"/>
<path d="M273.368 21.0616C273.368 19.1527 271.848 17.6256 269.948 17.6256C268.048 17.6256 266.528 19.1527 266.528 21.0616C266.528 22.9705 268.048 24.4977 269.948 24.4977C271.848 24.4977 273.368 22.9705 273.368 21.0616Z" fill="#B0B7C7"/>
<path d="M184.504 21.0616C184.504 19.1527 182.984 17.6256 181.084 17.6256C179.184 17.6256 177.664 19.1527 177.664 21.0616C177.664 22.9705 179.184 24.4977 181.084 24.4977C182.984 24.4977 184.504 22.9705 184.504 21.0616Z" fill="#B0B7C7"/>
<path d="M295.6 21.0616C295.6 19.1527 294.08 17.6256 292.18 17.6256C290.279 17.6256 288.759 19.1527 288.759 21.0616C288.759 22.9705 290.279 24.4977 292.18 24.4977C294.08 24.4977 295.6 22.9705 295.6 21.0616Z" fill="#B0B7C7"/>
<path d="M29.009 21.0616C29.009 19.1527 27.4889 17.6256 25.5887 17.6256C23.6886 17.6256 22.1685 19.1527 22.1685 21.0616C22.1685 22.9705 23.6886 24.4977 25.5887 24.4977C27.4889 24.4977 29.009 22.9705 29.009 21.0616Z" fill="#B0B7C7"/>
<path d="M73.4724 21.0616C73.4724 19.1527 71.9522 17.6256 70.0521 17.6256C68.152 17.6256 66.6318 19.1527 66.6318 21.0616C66.6318 22.9705 68.152 24.4977 70.0521 24.4977C71.9522 24.4977 73.4724 22.9705 73.4724 21.0616Z" fill="#B0B7C7"/>
<path d="M95.6408 21.0616C95.6408 19.1527 94.1207 17.6256 92.2206 17.6256C90.3838 17.6256 88.8003 19.1527 88.8003 21.0616C88.8003 22.9705 90.3204 24.4977 92.2206 24.4977C94.1207 24.4977 95.6408 22.9705 95.6408 21.0616Z" fill="#B0B7C7"/>
<path d="M51.2407 21.0616C51.2407 19.1527 49.7206 17.6256 47.8204 17.6256C45.9203 17.6256 44.4001 19.1527 44.4001 21.0616C44.4001 22.9705 45.9203 24.4977 47.8204 24.4977C49.7206 24.4977 51.2407 22.9705 51.2407 21.0616Z" fill="#B0B7C7"/>
<path d="M162.273 21.0616C162.273 19.1527 160.753 17.6256 158.853 17.6256C156.952 17.6256 155.432 19.1527 155.432 21.0616C155.432 22.9705 156.952 24.4977 158.853 24.4977C160.753 24.4977 162.273 22.9705 162.273 21.0616Z" fill="#B0B7C7"/>
<path d="M140.104 21.0616C140.104 19.1527 138.584 17.6256 136.684 17.6256C134.784 17.6256 133.264 19.1527 133.264 21.0616C133.264 22.9705 134.784 24.4977 136.684 24.4977C138.584 24.4977 140.104 22.9705 140.104 21.0616Z" fill="#B0B7C7"/>
<path d="M117.873 21.0616C117.873 19.1527 116.352 17.6256 114.452 17.6256C112.552 17.6256 111.032 19.1527 111.032 21.0616C111.032 22.9705 112.552 24.4977 114.452 24.4977C116.352 24.4977 117.873 22.9705 117.873 21.0616Z" fill="#B0B7C7"/>
<path d="M317.705 20.4253C317.642 20.1708 317.578 19.9799 317.515 19.789C317.452 19.5981 317.325 19.4072 317.198 19.2163C317.071 19.0254 316.945 18.8345 316.818 18.7073C316.185 18.071 315.298 17.6892 314.411 17.6892C313.968 17.6892 313.525 17.7528 313.144 17.9437C312.764 18.1346 312.384 18.3891 312.068 18.7073C311.751 19.0254 311.498 19.4072 311.308 19.8526C311.118 20.2344 311.054 20.6798 311.054 21.1252C311.054 22.016 311.434 22.9069 312.068 23.5432C312.384 23.8613 312.764 24.1158 313.144 24.3067C313.525 24.434 314.031 24.5612 314.411 24.5612C315.298 24.5612 316.185 24.1795 316.818 23.5432C317.578 22.6523 317.958 21.507 317.705 20.4253Z" fill="#B0B7C7"/>
<path d="M4.68703 41.8687C4.87705 41.7415 5.06706 41.6779 5.25708 41.5506C5.44709 41.4233 5.63711 41.2961 5.76379 41.1052C5.9538 40.9143 6.08048 40.787 6.20715 40.5961C6.33383 40.4052 6.46051 40.2144 6.52384 39.9598C6.58718 39.7689 6.65052 39.5781 6.71386 39.3235C6.7772 38.8781 6.7772 38.4327 6.71386 37.9873C6.65052 37.7328 6.58718 37.5419 6.52384 37.351C6.46051 37.1601 6.33383 36.9692 6.20715 36.7783C6.08048 36.5874 5.9538 36.4602 5.82712 36.2693C5.63711 36.142 5.44709 35.9511 5.25708 35.8239C5.06706 35.7602 4.87705 35.633 4.68703 35.5693C4.49702 35.5057 4.307 35.4421 4.05365 35.3785C3.86364 35.3148 3.61028 35.3148 3.42027 35.3148C2.9769 35.3148 2.53353 35.3785 2.1535 35.5693C1.6468 35.6966 1.3301 35.9511 1.01341 36.2693C0.38003 36.9056 0 37.7964 0 38.6872C0 39.1326 0.0633383 39.5781 0.253353 39.9598C0.443368 40.4052 0.696721 40.787 1.01341 41.1052C1.6468 41.7415 2.53353 42.1233 3.42027 42.1233C3.67362 42.1233 3.86364 42.1233 4.05365 42.0596C4.307 41.996 4.49702 41.9324 4.68703 41.8687Z" fill="#B0B7C7"/>
<path d="M228.905 38.6872C228.905 36.7783 227.384 35.2512 225.484 35.2512C223.584 35.2512 222.064 36.7783 222.064 38.6872C222.064 40.5961 223.584 42.1233 225.484 42.1233C227.384 42.1233 228.905 40.5961 228.905 38.6872Z" fill="#B0B7C7"/>
<path d="M206.736 38.6872C206.736 36.7783 205.216 35.2512 203.316 35.2512C201.479 35.2512 199.896 36.7783 199.896 38.6872C199.896 40.5961 201.416 42.1233 203.316 42.1233C205.216 42.1233 206.736 40.5961 206.736 38.6872Z" fill="#B0B7C7"/>
<path d="M251.136 38.6872C251.136 36.7783 249.616 35.2512 247.716 35.2512C245.816 35.2512 244.296 36.7783 244.296 38.6872C244.296 40.5961 245.816 42.1233 247.716 42.1233C249.616 42.1233 251.136 40.5961 251.136 38.6872Z" fill="#B0B7C7"/>
<path d="M184.504 38.6872C184.504 36.7783 182.984 35.2512 181.084 35.2512C179.184 35.2512 177.664 36.7783 177.664 38.6872C177.664 40.5961 179.184 42.1233 181.084 42.1233C182.984 42.1233 184.504 40.5961 184.504 38.6872Z" fill="#B0B7C7"/>
<path d="M273.368 38.6872C273.368 36.7783 271.848 35.2512 269.948 35.2512C268.048 35.2512 266.528 36.7783 266.528 38.6872C266.528 40.5961 268.048 42.1233 269.948 42.1233C271.848 42.1233 273.368 40.5961 273.368 38.6872Z" fill="#B0B7C7"/>
<path d="M295.6 38.6872C295.6 36.7783 294.08 35.2512 292.18 35.2512C290.279 35.2512 288.759 36.7783 288.759 38.6872C288.759 40.5961 290.279 42.1233 292.18 42.1233C294.08 42.1233 295.6 40.5961 295.6 38.6872Z" fill="#B0B7C7"/>
<path d="M117.873 38.6872C117.873 36.7783 116.352 35.2512 114.452 35.2512C112.552 35.2512 111.032 36.7783 111.032 38.6872C111.032 40.5961 112.552 42.1233 114.452 42.1233C116.352 42.1233 117.873 40.5961 117.873 38.6872Z" fill="#B0B7C7"/>
<path d="M73.4724 38.6872C73.4724 36.7783 71.9522 35.2512 70.0521 35.2512C68.152 35.2512 66.6318 36.7783 66.6318 38.6872C66.6318 40.5961 68.152 42.1233 70.0521 42.1233C71.9522 42.1233 73.4724 40.5961 73.4724 38.6872Z" fill="#B0B7C7"/>
<path d="M51.2406 38.6872C51.2406 36.7783 49.7205 35.2512 47.8203 35.2512C45.9202 35.2512 44.4634 36.7783 44.4634 38.6872C44.4634 40.5961 45.9835 42.1233 47.8836 42.1233C49.7838 42.1233 51.2406 40.5961 51.2406 38.6872Z" fill="#B0B7C7"/>
<path d="M95.6408 38.6872C95.6408 36.7783 94.1207 35.2512 92.2206 35.2512C90.3838 35.2512 88.8003 36.7783 88.8003 38.6872C88.8003 40.5961 90.3204 42.1233 92.2206 42.1233C94.1207 42.1233 95.6408 40.5961 95.6408 38.6872Z" fill="#B0B7C7"/>
<path d="M162.273 38.6872C162.273 36.7783 160.753 35.2512 158.853 35.2512C156.952 35.2512 155.432 36.7783 155.432 38.6872C155.432 40.5961 156.952 42.1233 158.853 42.1233C160.753 42.1233 162.273 40.5961 162.273 38.6872Z" fill="#B0B7C7"/>
<path d="M140.104 38.6872C140.104 36.7783 138.584 35.2512 136.684 35.2512C134.784 35.2512 133.264 36.7783 133.264 38.6872C133.264 40.5961 134.784 42.1233 136.684 42.1233C138.584 42.1233 140.104 40.5961 140.104 38.6872Z" fill="#B0B7C7"/>
<path d="M29.009 38.6872C29.009 36.7783 27.4889 35.2512 25.5887 35.2512C23.6886 35.2512 22.2318 36.7783 22.2318 38.6872C22.2318 40.5961 23.7519 42.1233 25.6521 42.1233C27.5522 42.1233 29.009 40.5961 29.009 38.6872Z" fill="#B0B7C7"/>
<path d="M315.678 41.8687C315.868 41.8051 316.058 41.6778 316.248 41.5506C316.438 41.4233 316.628 41.296 316.755 41.1051C316.882 40.9143 317.072 40.787 317.135 40.5961C317.262 40.4052 317.388 40.2143 317.452 40.0234C317.515 39.8325 317.642 39.6417 317.642 39.3871C317.705 38.9417 317.705 38.4963 317.642 38.0509C317.578 37.7964 317.515 37.6055 317.452 37.4146C317.388 37.2237 317.262 37.0328 317.135 36.8419C317.008 36.651 316.882 36.4601 316.755 36.3329C316.628 36.2056 316.438 36.0147 316.248 35.8875C316.058 35.7602 315.868 35.6329 315.678 35.5693C315.488 35.5057 315.235 35.4421 315.045 35.3784C314.791 35.3148 314.601 35.3148 314.348 35.3148C313.905 35.3148 313.461 35.3784 313.081 35.5693C312.701 35.7602 312.321 36.0147 312.005 36.3329C311.371 36.9692 310.991 37.86 310.991 38.7508C310.991 39.1962 311.054 39.6416 311.244 40.0234C311.371 40.4688 311.624 40.8506 312.005 41.1688C312.321 41.4869 312.701 41.7414 313.081 41.9323C313.461 42.0596 313.968 42.1869 314.348 42.1869C314.601 42.1869 314.791 42.1869 315.045 42.1232C315.235 41.996 315.488 41.9323 315.678 41.8687Z" fill="#B0B7C7"/>
<path d="M4.68703 59.4943C4.87705 59.3671 5.06706 59.3035 5.25708 59.1762C5.44709 59.0489 5.63711 58.9217 5.82712 58.7308C5.9538 58.6035 6.14382 58.4126 6.27049 58.2217C6.33383 58.0309 6.46051 57.84 6.52384 57.6491C6.58718 57.3946 6.65052 57.2037 6.71386 57.0128C6.7772 56.5674 6.7772 56.1219 6.71386 55.6765C6.65052 55.422 6.58718 55.2311 6.52384 55.0402C6.46051 54.8493 6.33383 54.5948 6.20715 54.4039C6.08048 54.2767 5.9538 54.0858 5.82712 53.8949C5.63711 53.7676 5.44709 53.6404 5.25708 53.4495C5.06706 53.3858 4.87705 53.2586 4.68703 53.195C4.49702 53.0677 4.307 53.0041 4.05365 53.0041C3.86364 52.9404 3.61028 52.9404 3.42027 52.9404C2.9769 52.9404 2.53353 53.0041 2.1535 53.195C1.6468 53.3222 1.3301 53.5767 1.01341 53.8949C0.696721 54.213 0.443368 54.5948 0.253353 55.0402C0.0633383 55.422 0 55.8674 0 56.3128C0 57.2037 0.38003 58.0945 1.01341 58.7308C1.3301 59.0489 1.6468 59.3035 2.09016 59.4943C2.53353 59.6216 2.91356 59.7489 3.42027 59.7489C3.67362 59.7489 3.86364 59.7489 4.05365 59.6852C4.307 59.6216 4.49702 59.558 4.68703 59.4943Z" fill="#B0B7C7"/>
<path d="M184.504 56.3128C184.504 54.4039 182.984 52.8768 181.084 52.8768C179.184 52.8768 177.664 54.4039 177.664 56.3128C177.664 58.2217 179.184 59.7489 181.084 59.7489C182.984 59.7489 184.504 58.2217 184.504 56.3128Z" fill="#B0B7C7"/>
<path d="M162.273 56.3128C162.273 54.4039 160.753 52.8768 158.853 52.8768C156.952 52.8768 155.432 54.4039 155.432 56.3128C155.432 58.2217 156.952 59.7489 158.853 59.7489C160.753 59.7489 162.273 58.2217 162.273 56.3128Z" fill="#B0B7C7"/>
<path d="M228.905 56.3128C228.905 54.4039 227.384 52.8768 225.484 52.8768C223.584 52.8768 222.064 54.4039 222.064 56.3128C222.064 58.2217 223.584 59.7489 225.484 59.7489C227.384 59.7489 228.905 58.2217 228.905 56.3128Z" fill="#B0B7C7"/>
<path d="M251.136 56.3128C251.136 54.4039 249.616 52.8768 247.716 52.8768C245.816 52.8768 244.296 54.4039 244.296 56.3128C244.296 58.2217 245.816 59.7489 247.716 59.7489C249.616 59.7489 251.136 58.2217 251.136 56.3128Z" fill="#B0B7C7"/>
<path d="M206.736 56.3128C206.736 54.4039 205.216 52.8768 203.316 52.8768C201.479 52.8768 199.896 54.4039 199.896 56.3128C199.896 58.2217 201.416 59.7489 203.316 59.7489C205.216 59.7489 206.736 58.2217 206.736 56.3128Z" fill="#B0B7C7"/>
<path d="M140.104 56.3128C140.104 54.4039 138.584 52.8768 136.684 52.8768C134.784 52.8768 133.264 54.4039 133.264 56.3128C133.264 58.2217 134.784 59.7489 136.684 59.7489C138.584 59.7489 140.104 58.2217 140.104 56.3128Z" fill="#B0B7C7"/>
<path d="M117.873 56.3128C117.873 54.4039 116.352 52.8768 114.452 52.8768C112.552 52.8768 111.032 54.4039 111.032 56.3128C111.032 58.2217 112.552 59.7489 114.452 59.7489C116.352 59.7489 117.873 58.2217 117.873 56.3128Z" fill="#B0B7C7"/>
<path d="M29.009 56.3128C29.009 54.4039 27.4889 52.8768 25.5887 52.8768C23.6886 52.8768 22.2318 54.4039 22.2318 56.3128C22.2318 58.2217 23.7519 59.7489 25.6521 59.7489C27.5522 59.7489 29.009 58.2217 29.009 56.3128Z" fill="#B0B7C7"/>
<path d="M295.6 56.3128C295.6 54.4039 294.08 52.8768 292.18 52.8768C290.279 52.8768 288.759 54.4039 288.759 56.3128C288.759 58.2217 290.279 59.7489 292.18 59.7489C294.08 59.7489 295.6 58.2217 295.6 56.3128Z" fill="#B0B7C7"/>
<path d="M51.2406 56.3128C51.2406 54.4039 49.7205 52.8768 47.8203 52.8768C45.9202 52.8768 44.4634 54.4039 44.4634 56.3128C44.4634 58.2217 45.9835 59.7489 47.8836 59.7489C49.7838 59.7489 51.2406 58.2217 51.2406 56.3128Z" fill="#B0B7C7"/>
<path d="M95.6408 56.3128C95.6408 54.4039 94.1207 52.8768 92.2206 52.8768C90.3838 52.8768 88.8003 54.4039 88.8003 56.3128C88.8003 58.2217 90.3204 59.7489 92.2206 59.7489C94.1207 59.7489 95.6408 58.2217 95.6408 56.3128Z" fill="#B0B7C7"/>
<path d="M73.4724 56.3128C73.4724 54.4039 71.9522 52.8768 70.0521 52.8768C68.152 52.8768 66.6318 54.4039 66.6318 56.3128C66.6318 58.2217 68.152 59.7489 70.0521 59.7489C71.9522 59.7489 73.4724 58.2217 73.4724 56.3128Z" fill="#B0B7C7"/>
<path d="M273.368 56.3128C273.368 54.4039 271.848 52.8768 269.948 52.8768C268.048 52.8768 266.528 54.4039 266.528 56.3128C266.528 58.2217 268.048 59.7489 269.948 59.7489C271.848 59.7489 273.368 58.2217 273.368 56.3128Z" fill="#B0B7C7"/>
<path d="M317.705 55.6765C317.642 55.422 317.578 55.2311 317.515 55.0402C317.452 54.8493 317.325 54.6584 317.198 54.4676C317.071 54.2767 316.945 54.0858 316.818 53.9585C316.185 53.3222 315.298 52.9404 314.411 52.9404C313.968 52.9404 313.525 53.0041 313.144 53.195C312.764 53.3222 312.384 53.5767 312.068 53.8949C311.751 54.213 311.498 54.5948 311.308 55.0402C311.118 55.422 311.054 55.8674 311.054 56.3128C311.054 56.7582 311.118 57.2037 311.308 57.6491C311.434 58.0309 311.688 58.4126 312.068 58.7308C312.384 59.0489 312.764 59.3035 313.144 59.4943C313.525 59.6216 314.031 59.7489 314.411 59.7489C315.298 59.7489 316.185 59.3671 316.818 58.7308C317.578 57.9672 317.958 56.7582 317.705 55.6765Z" fill="#B0B7C7"/>
<path d="M4.68703 77.1199C4.87705 77.0562 5.06706 76.929 5.25708 76.8017C5.44709 76.6745 5.63711 76.5472 5.82712 76.3563C5.9538 76.1654 6.14382 76.0382 6.27049 75.8473C6.33383 75.6564 6.46051 75.4655 6.52384 75.2746C6.58718 75.0837 6.65052 74.8292 6.71386 74.6383C6.7772 74.1929 6.7772 73.7475 6.71386 73.3021C6.65052 73.0475 6.58718 72.8566 6.52384 72.6657C6.46051 72.4749 6.33383 72.2203 6.20715 72.0931C6.08048 71.9022 5.9538 71.7113 5.76379 71.584C5.57377 71.4568 5.44709 71.2659 5.25708 71.2023C5.06706 71.0114 4.87705 70.8841 4.68703 70.8205C4.49702 70.7568 4.307 70.6296 4.05365 70.6296C3.86364 70.566 3.61028 70.566 3.42027 70.566C2.53353 70.566 1.6468 70.9477 1.01341 71.584C0.696721 71.8386 0.443368 72.2203 0.253353 72.6657C0.0633383 73.0475 0 73.4929 0 73.9384C0 74.8928 0.38003 75.72 1.01341 76.3563C1.6468 76.9926 2.53353 77.3744 3.42027 77.3744C3.67362 77.3744 3.86364 77.3744 4.05365 77.3108C4.307 77.2471 4.49702 77.1835 4.68703 77.1199Z" fill="#B0B7C7"/>
<path d="M162.273 73.9384C162.273 72.0294 160.753 70.5023 158.853 70.5023C156.952 70.5023 155.432 72.0294 155.432 73.9384C155.432 75.8473 156.952 77.3744 158.853 77.3744C160.753 77.3744 162.273 75.8473 162.273 73.9384Z" fill="#B0B7C7"/>
<path d="M184.504 73.9384C184.504 72.0294 182.984 70.5023 181.084 70.5023C179.184 70.5023 177.664 72.0294 177.664 73.9384C177.664 75.8473 179.184 77.3744 181.084 77.3744C182.984 77.3744 184.504 75.8473 184.504 73.9384Z" fill="#B0B7C7"/>
<path d="M228.905 73.9384C228.905 72.0294 227.384 70.5023 225.484 70.5023C223.584 70.5023 222.064 72.0294 222.064 73.9384C222.064 75.8473 223.584 77.3744 225.484 77.3744C227.384 77.3744 228.905 75.8473 228.905 73.9384Z" fill="#B0B7C7"/>
<path d="M206.736 73.9384C206.736 72.0294 205.216 70.5023 203.316 70.5023C201.479 70.5023 199.896 72.0294 199.896 73.9384C199.896 75.8473 201.416 77.3744 203.316 77.3744C205.216 77.3744 206.736 75.8473 206.736 73.9384Z" fill="#B0B7C7"/>
<path d="M295.6 73.9384C295.6 72.0294 294.08 70.5023 292.18 70.5023C290.279 70.5023 288.759 72.0294 288.759 73.9384C288.759 75.8473 290.279 77.3744 292.18 77.3744C294.08 77.3744 295.6 75.8473 295.6 73.9384Z" fill="#B0B7C7"/>
<path d="M251.136 73.9384C251.136 72.0294 249.616 70.5023 247.716 70.5023C245.816 70.5023 244.296 72.0294 244.296 73.9384C244.296 75.8473 245.816 77.3744 247.716 77.3744C249.616 77.3744 251.136 75.8473 251.136 73.9384Z" fill="#B0B7C7"/>
<path d="M273.368 73.9384C273.368 72.0294 271.848 70.5023 269.948 70.5023C268.048 70.5023 266.528 72.0294 266.528 73.9384C266.528 75.8473 268.048 77.3744 269.948 77.3744C271.848 77.3744 273.368 75.8473 273.368 73.9384Z" fill="#B0B7C7"/>
<path d="M73.4724 73.9384C73.4724 72.0294 71.9522 70.5023 70.0521 70.5023C68.152 70.5023 66.6318 72.0294 66.6318 73.9384C66.6318 75.8473 68.152 77.3744 70.0521 77.3744C71.9522 77.3744 73.4724 75.8473 73.4724 73.9384Z" fill="#B0B7C7"/>
<path d="M140.104 73.9384C140.104 72.0294 138.584 70.5023 136.684 70.5023C134.784 70.5023 133.264 72.0294 133.264 73.9384C133.264 75.8473 134.784 77.3744 136.684 77.3744C138.584 77.3744 140.104 75.8473 140.104 73.9384Z" fill="#B0B7C7"/>
<path d="M51.2406 73.9384C51.2406 72.0294 49.7205 70.5023 47.8203 70.5023C45.9202 70.5023 44.4634 72.0931 44.4634 73.9384C44.4634 75.8473 45.9835 77.3744 47.8836 77.3744C49.7838 77.3744 51.2406 75.8473 51.2406 73.9384Z" fill="#B0B7C7"/>
<path d="M117.873 73.9384C117.873 72.0294 116.352 70.5023 114.452 70.5023C112.552 70.5023 111.032 72.0294 111.032 73.9384C111.032 75.8473 112.552 77.3744 114.452 77.3744C116.352 77.3744 117.873 75.8473 117.873 73.9384Z" fill="#B0B7C7"/>
<path d="M95.6408 73.9384C95.6408 72.0294 94.1207 70.5023 92.2206 70.5023C90.3838 70.5023 88.8003 72.0294 88.8003 73.9384C88.8003 75.8473 90.3204 77.3744 92.2206 77.3744C94.1207 77.3744 95.6408 75.8473 95.6408 73.9384Z" fill="#B0B7C7"/>
<path d="M29.009 73.9384C29.009 72.0294 27.4889 70.5023 25.5887 70.5023C23.6886 70.5023 22.2318 72.0931 22.2318 73.9384C22.2318 75.8473 23.7519 77.3744 25.6521 77.3744C27.5522 77.3744 29.009 75.8473 29.009 73.9384Z" fill="#B0B7C7"/>
<path d="M317.198 75.8473C317.325 75.6564 317.452 75.4655 317.515 75.2746C317.578 75.0837 317.705 74.8292 317.705 74.6383C317.768 74.1929 317.768 73.7475 317.705 73.3021C317.642 73.0475 317.578 72.8566 317.515 72.6657C317.452 72.4749 317.325 72.284 317.198 72.0931C317.071 71.9022 316.945 71.7113 316.818 71.584C316.691 71.4568 316.501 71.2659 316.311 71.1386C316.121 71.0114 315.931 70.8841 315.741 70.8205C315.551 70.7568 315.298 70.6296 315.108 70.6296C314.855 70.566 314.665 70.566 314.411 70.566C313.968 70.566 313.525 70.6296 313.144 70.8205C312.764 70.9477 312.384 71.2023 312.068 71.5204C311.434 72.1567 311.054 73.0475 311.054 73.9384C311.054 74.8292 311.434 75.72 312.068 76.3563C312.384 76.6745 312.764 76.929 313.144 77.1199C313.525 77.3108 314.031 77.3744 314.411 77.3744C315.298 77.3744 316.185 76.9926 316.818 76.3563C316.945 76.229 317.071 76.0382 317.198 75.8473Z" fill="#B0B7C7"/>
<path d="M4.68703 94.7455C4.87705 94.6818 5.06706 94.5546 5.25708 94.4273C5.44709 94.3001 5.63711 94.1728 5.76379 93.9819C5.89046 93.791 6.08048 93.6638 6.20715 93.4729C6.33383 93.282 6.46051 93.0911 6.52384 92.9002C6.58718 92.7093 6.65052 92.4548 6.71386 92.2639C6.7772 91.8185 6.7772 91.3731 6.71386 90.9277C6.65052 90.6731 6.58718 90.4823 6.52384 90.2914C6.46051 90.1005 6.33383 89.9096 6.20715 89.7187C6.08048 89.5278 5.9538 89.3369 5.76379 89.2096C5.57377 89.0188 5.44709 88.8915 5.25708 88.8279C5.06706 88.637 4.87705 88.5097 4.68703 88.4461C4.49702 88.3825 4.307 88.3188 4.05365 88.2552C3.86364 88.1916 3.61028 88.1916 3.42027 88.1916C2.53353 88.1916 1.6468 88.5733 1.01341 89.2096C0.696721 89.4642 0.443368 89.9096 0.253353 90.2914C0.0633383 90.6731 0 91.1186 0 91.564C0 92.5184 0.38003 93.3456 1.01341 93.9819C1.6468 94.6818 2.47019 95 3.42027 95C3.67362 95 3.86364 95 4.05365 94.9364C4.307 94.8727 4.49702 94.8727 4.68703 94.7455Z" fill="#B0B7C7"/>
<path d="M162.273 91.564C162.273 89.6551 160.753 88.1279 158.853 88.1279C156.952 88.1279 155.432 89.6551 155.432 91.564C155.432 93.4729 157.016 95 158.916 95C160.816 95 162.273 93.4729 162.273 91.564Z" fill="#B0B7C7"/>
<path d="M184.504 91.564C184.504 89.6551 182.984 88.1279 181.084 88.1279C179.184 88.1279 177.664 89.6551 177.664 91.564C177.664 93.4729 179.247 95 181.084 95C182.984 95 184.504 93.4729 184.504 91.564Z" fill="#B0B7C7"/>
<path d="M228.905 91.564C228.905 89.6551 227.384 88.1279 225.484 88.1279C223.584 88.1279 222.064 89.6551 222.064 91.564C222.064 93.4729 223.648 95 225.548 95C227.384 95 228.905 93.4729 228.905 91.564Z" fill="#B0B7C7"/>
<path d="M206.736 91.564C206.736 89.6551 205.216 88.1279 203.316 88.1279C201.479 88.1279 199.896 89.6551 199.896 91.564C199.896 93.4729 201.479 95 203.316 95C205.216 95 206.736 93.4729 206.736 91.564Z" fill="#B0B7C7"/>
<path d="M295.6 91.564C295.6 89.6551 294.08 88.1279 292.18 88.1279C290.279 88.1279 288.759 89.6551 288.759 91.564C288.759 93.4729 290.279 95 292.18 95C294.08 95 295.6 93.4729 295.6 91.564Z" fill="#B0B7C7"/>
<path d="M251.136 91.564C251.136 89.6551 249.616 88.1279 247.716 88.1279C245.816 88.1279 244.296 89.6551 244.296 91.564C244.296 93.4729 245.879 95 247.716 95C249.616 95 251.136 93.4729 251.136 91.564Z" fill="#B0B7C7"/>
<path d="M273.368 91.564C273.368 89.6551 271.848 88.1279 269.948 88.1279C268.048 88.1279 266.528 89.6551 266.528 91.564C266.528 93.4729 268.111 95 269.948 95C271.848 95 273.368 93.4729 273.368 91.564Z" fill="#B0B7C7"/>
<path d="M73.4724 91.564C73.4724 89.6551 71.9522 88.1279 70.0521 88.1279C68.152 88.1279 66.6318 89.6551 66.6318 91.564C66.6318 93.4729 68.152 95 70.0521 95C71.9522 95 73.4724 93.4729 73.4724 91.564Z" fill="#B0B7C7"/>
<path d="M140.104 91.564C140.104 89.6551 138.584 88.1279 136.684 88.1279C134.784 88.1279 133.264 89.6551 133.264 91.564C133.264 93.4729 134.784 95 136.684 95C138.584 95 140.104 93.4729 140.104 91.564Z" fill="#B0B7C7"/>
<path d="M51.2406 91.564C51.2406 89.6551 49.7205 88.1279 47.8203 88.1279C45.9202 88.1279 44.4634 89.7187 44.4634 91.564C44.4634 93.4092 45.9835 95 47.8203 95C49.6571 95 51.2406 93.4729 51.2406 91.564Z" fill="#B0B7C7"/>
<path d="M117.873 91.564C117.873 89.6551 116.352 88.1279 114.452 88.1279C112.552 88.1279 111.032 89.6551 111.032 91.564C111.032 93.4729 112.552 95 114.452 95C116.352 95 117.873 93.4729 117.873 91.564Z" fill="#B0B7C7"/>
<path d="M95.6408 91.564C95.6408 89.6551 94.1207 88.1279 92.2206 88.1279C90.3838 88.1279 88.8003 89.6551 88.8003 91.564C88.8003 93.4729 90.3838 95 92.2206 95C94.1207 95 95.6408 93.4729 95.6408 91.564Z" fill="#B0B7C7"/>
<path d="M29.009 91.564C29.009 89.6551 27.4889 88.1279 25.5887 88.1279C23.6886 88.1279 22.2318 89.7187 22.2318 91.564C22.2318 93.4092 23.7519 95 25.5887 95C27.4256 95 29.009 93.4729 29.009 91.564Z" fill="#B0B7C7"/>
<path d="M317.198 93.4729C317.325 93.282 317.452 93.0911 317.515 92.9002C317.578 92.7093 317.705 92.4548 317.705 92.2639C317.768 91.8185 317.768 91.3731 317.705 90.9277C317.642 90.6731 317.578 90.4823 317.515 90.2914C317.452 90.1005 317.325 89.9096 317.198 89.7187C317.072 89.5278 316.945 89.3369 316.818 89.2096C316.692 89.0188 316.502 88.8915 316.312 88.7642C316.122 88.637 315.931 88.5097 315.741 88.4461C315.551 88.3825 315.298 88.3188 315.108 88.2552C314.855 88.1916 314.665 88.1916 314.411 88.1916C313.968 88.1916 313.525 88.2552 313.145 88.4461C312.701 88.637 312.321 88.8279 312.005 89.146C311.371 89.7823 310.991 90.6731 310.991 91.564C310.991 92.4548 311.371 93.3456 312.005 93.9819C312.321 94.3001 312.701 94.5546 313.081 94.7455C313.461 94.9364 313.968 95 314.348 95C315.235 95 316.121 94.6182 316.755 93.9819C316.945 93.8547 317.072 93.6638 317.198 93.4729Z" fill="#B0B7C7"/>
<path d="M337.91 6.55389C338.1 6.49026 338.29 6.363 338.48 6.23574C338.67 6.10848 338.86 5.98122 338.987 5.79033C339.113 5.66307 339.303 5.47218 339.367 5.28128C339.493 5.09039 339.62 4.89951 339.683 4.70862C339.747 4.51773 339.873 4.32683 339.873 4.07231C339.937 3.6269 339.937 3.18149 339.873 2.73608C339.81 2.48156 339.747 2.29066 339.683 2.09977C339.62 1.90888 339.493 1.718 339.367 1.52711C339.24 1.33622 339.113 1.14532 338.987 1.01806C338.86 0.827169 338.67 0.699911 338.48 0.57265C338.29 0.44539 338.1 0.318128 337.91 0.254498C337.72 0.190868 337.466 0.127239 337.276 0.0636089C337.023 -2.13455e-05 336.833 -2.28033e-05 336.58 -2.28033e-05C336.136 -2.28033e-05 335.693 0.0636072 335.313 0.254498C334.933 0.445388 334.553 0.699909 334.236 1.01806C333.919 1.33621 333.666 1.71799 333.476 2.16341C333.286 2.54519 333.223 2.9906 333.223 3.43601C333.223 4.32683 333.603 5.21766 334.236 5.85396C334.87 6.49026 335.756 6.87204 336.643 6.87204C336.896 6.87204 337.086 6.87204 337.34 6.80841C337.466 6.74478 337.656 6.68115 337.91 6.55389Z" fill="#B0B7C7"/>
<path d="M339.937 20.4253C339.873 20.1708 339.81 19.9799 339.747 19.789C339.683 19.5981 339.557 19.4072 339.43 19.2163C339.303 19.0254 339.177 18.8345 339.05 18.7073C338.417 18.071 337.53 17.6892 336.643 17.6892C336.2 17.6892 335.756 17.7528 335.376 17.9437C334.996 18.1346 334.616 18.3891 334.3 18.7073C333.983 19.0254 333.73 19.4072 333.539 19.8526C333.349 20.2344 333.286 20.6798 333.286 21.1252C333.286 22.016 333.666 22.9069 334.3 23.5432C334.616 23.8613 334.996 24.1158 335.376 24.3067C335.756 24.434 336.263 24.5612 336.643 24.5612C337.53 24.5612 338.417 24.1795 339.05 23.5432C339.747 22.6523 340.127 21.507 339.937 20.4253Z" fill="#B0B7C7"/>
<path d="M337.91 41.8687C338.1 41.8051 338.29 41.6778 338.48 41.5506C338.67 41.4233 338.86 41.296 338.987 41.1051C339.113 40.9143 339.303 40.787 339.367 40.5961C339.493 40.4052 339.62 40.2143 339.683 40.0234C339.747 39.8325 339.873 39.6417 339.873 39.3871C339.937 38.9417 339.937 38.4963 339.873 38.0509C339.81 37.7964 339.747 37.6055 339.683 37.4146C339.62 37.2237 339.493 37.0328 339.367 36.8419C339.24 36.651 339.113 36.4601 338.987 36.3329C338.86 36.2056 338.67 36.0147 338.48 35.8875C338.29 35.7602 338.1 35.6329 337.91 35.5693C337.72 35.5057 337.466 35.4421 337.276 35.3784C337.023 35.3148 336.833 35.3148 336.58 35.3148C336.136 35.3148 335.693 35.3784 335.313 35.5693C334.933 35.7602 334.553 36.0147 334.236 36.3329C333.603 36.9692 333.223 37.86 333.223 38.7508C333.223 39.1962 333.286 39.6416 333.476 40.0234C333.603 40.4688 333.856 40.8506 334.236 41.1688C334.553 41.4869 334.933 41.7414 335.313 41.9323C335.693 42.0596 336.2 42.1869 336.58 42.1869C336.833 42.1869 337.023 42.1869 337.276 42.1232C337.466 41.996 337.656 41.9323 337.91 41.8687Z" fill="#B0B7C7"/>
<path d="M339.937 55.6765C339.873 55.422 339.81 55.2311 339.747 55.0402C339.683 54.8493 339.557 54.6584 339.43 54.4676C339.303 54.2767 339.177 54.0858 339.05 53.9585C338.417 53.3222 337.53 52.9404 336.643 52.9404C336.2 52.9404 335.756 53.0041 335.376 53.195C334.996 53.3222 334.616 53.5767 334.3 53.8949C333.983 54.213 333.73 54.5948 333.539 55.0402C333.349 55.422 333.286 55.8674 333.286 56.3128C333.286 56.7582 333.349 57.2037 333.539 57.6491C333.666 58.0309 333.92 58.4126 334.3 58.7308C334.616 59.0489 334.996 59.3035 335.376 59.4943C335.756 59.6216 336.263 59.7489 336.643 59.7489C337.53 59.7489 338.417 59.3671 339.05 58.7308C339.747 57.9672 340.127 56.7582 339.937 55.6765Z" fill="#B0B7C7"/>
<path d="M339.43 75.8473C339.557 75.6564 339.683 75.4655 339.747 75.2746C339.81 75.0837 339.937 74.8292 339.937 74.6383C340 74.1929 340 73.7475 339.937 73.3021C339.873 73.0475 339.81 72.8566 339.747 72.6657C339.683 72.4749 339.557 72.284 339.43 72.0931C339.303 71.9022 339.177 71.7113 339.05 71.584C338.923 71.4568 338.733 71.2659 338.543 71.1386C338.353 71.0114 338.163 70.8841 337.973 70.8205C337.783 70.7568 337.53 70.6296 337.34 70.6296C337.086 70.566 336.896 70.566 336.643 70.566C336.2 70.566 335.756 70.6296 335.376 70.8205C334.996 70.9477 334.616 71.2023 334.3 71.5204C333.666 72.1567 333.286 73.0475 333.286 73.9384C333.286 74.8292 333.666 75.72 334.3 76.3563C334.616 76.6745 334.996 76.929 335.376 77.1199C335.756 77.3108 336.263 77.3744 336.643 77.3744C337.53 77.3744 338.417 76.9926 339.05 76.3563C339.113 76.229 339.303 76.0382 339.43 75.8473Z" fill="#B0B7C7"/>
<path d="M339.43 93.4729C339.557 93.282 339.683 93.0911 339.747 92.9002C339.81 92.7093 339.937 92.4548 339.937 92.2639C340 91.8185 340 91.3731 339.937 90.9277C339.873 90.6731 339.81 90.4823 339.747 90.2914C339.683 90.1005 339.557 89.9096 339.43 89.7187C339.303 89.5278 339.177 89.3369 339.05 89.2096C338.923 89.0188 338.733 88.8915 338.543 88.7642C338.353 88.637 338.163 88.5097 337.973 88.4461C337.783 88.3825 337.53 88.3188 337.34 88.2552C337.086 88.1916 336.896 88.1916 336.643 88.1916C336.2 88.1916 335.756 88.2552 335.376 88.4461C334.87 88.637 334.49 88.8279 334.173 89.146C333.54 89.7823 333.159 90.6731 333.159 91.564C333.159 92.4548 333.54 93.3456 334.173 93.9819C334.49 94.3001 334.87 94.5546 335.25 94.7455C335.693 94.9364 336.136 95 336.58 95C337.466 95 338.353 94.6182 338.987 93.9819C339.113 93.8547 339.303 93.6638 339.43 93.4729Z" fill="#B0B7C7"/>
</svg>
