<svg width="758" height="463" viewBox="0 0 758 463" fill="none" xmlns="http://www.w3.org/2000/svg">
<g clip-path="url(#clip0)">
<path d="M541.128 294.012C622.257 294.012 688.025 228.195 688.025 147.006C688.025 65.8169 622.257 0 541.128 0C459.999 0 394.231 65.8169 394.231 147.006C394.231 228.195 459.999 294.012 541.128 294.012Z" fill="#FFC778"/>
<path d="M550.229 173.059L517.048 206.264C514.885 209.771 512.928 213.42 511.195 217.192L561.149 167.202C557.379 168.936 553.732 170.894 550.229 173.059Z" fill="white"/>
<path d="M577.098 161.443L505.44 233.154C504.859 235.331 504.344 237.534 503.902 239.766L583.701 159.907C581.47 160.346 579.27 160.861 577.098 161.443Z" fill="white"/>
<path d="M595.515 158.278L502.278 251.584C502.139 253.356 502.046 255.137 502 256.93L600.856 158C599.065 158.051 597.285 158.143 595.515 158.278Z" fill="white"/>
<path d="M610.819 158.236L502.236 266.9C502.346 268.453 502.498 269.997 502.675 271.533L615.449 158.675C613.914 158.498 612.371 158.346 610.819 158.236Z" fill="white"/>
<path d="M624.218 160.097L504.091 280.313C504.378 281.697 504.694 283.072 505.04 284.435L628.337 161.046C626.976 160.7 625.605 160.384 624.218 160.097Z" fill="white"/>
<path d="M636.209 163.367L507.363 292.308C507.789 293.562 508.244 294.798 508.716 296.026L639.928 164.717C638.696 164.249 637.457 163.793 636.209 163.367Z" fill="white"/>
<path d="M647.053 167.785L511.773 303.165C512.317 304.304 512.878 305.43 513.46 306.544L650.426 169.476C649.317 168.89 648.191 168.329 647.053 167.785Z" fill="white"/>
<path d="M656.923 173.181L517.17 313.038C517.815 314.076 518.473 315.109 519.156 316.122L660.005 175.168C658.989 174.485 657.96 173.827 656.923 173.181Z" fill="white"/>
<path d="M665.912 179.455L523.435 322.033C524.173 322.983 524.932 323.911 525.703 324.831L668.707 181.721C667.788 180.953 666.856 180.193 665.912 179.455Z" fill="white"/>
<path d="M674.066 186.56L530.535 330.198C531.366 331.058 532.209 331.902 533.069 332.729L676.596 189.096C675.769 188.235 674.926 187.392 674.066 186.56Z" fill="white"/>
<path d="M681.419 194.476L538.445 337.552C539.368 338.324 540.3 339.075 541.248 339.813L683.675 197.282C682.941 196.332 682.19 195.396 681.419 194.476Z" fill="white"/>
<path d="M687.95 203.21L547.172 344.092C548.188 344.771 549.217 345.429 550.258 346.075L689.931 206.298C689.286 205.256 688.628 204.227 687.95 203.21Z" fill="white"/>
<path d="M693.62 212.804L556.764 349.763C557.881 350.345 559.011 350.902 560.154 351.442L695.303 216.192C694.759 215.053 694.198 213.922 693.62 212.804Z" fill="white"/>
<path d="M698.343 223.348L567.296 354.492C568.527 354.961 569.766 355.416 571.019 355.838L699.688 227.074C699.266 225.821 698.815 224.58 698.343 223.348Z" fill="white"/>
<path d="M701.99 234.968L578.911 358.138C580.277 358.48 581.652 358.796 583.039 359.079L702.934 239.095C702.647 237.711 702.331 236.335 701.99 234.968Z" fill="white"/>
<path d="M704.321 247.905L591.838 360.471C593.377 360.648 594.924 360.788 596.48 360.897L704.747 252.55C704.642 250.993 704.498 249.445 704.321 247.905Z" fill="white"/>
<path d="M704.941 262.554L606.472 361.096C608.273 361.045 610.06 360.944 611.835 360.796L704.642 267.921C704.789 266.145 704.89 264.356 704.941 262.554Z" fill="white"/>
<path d="M702.972 279.794L623.704 359.121C625.951 358.665 628.169 358.134 630.357 357.534L701.387 286.452C701.985 284.262 702.517 282.043 702.972 279.794Z" fill="white"/>
<path d="M695.446 302.595L646.488 351.59C650.363 349.775 654.102 347.72 657.69 345.45L689.311 313.806C691.584 310.219 693.633 306.473 695.446 302.595Z" fill="white"/>
<path d="M471.128 336.293H256.816C247.187 336.293 239.386 328.482 239.386 318.85V178.411C239.386 168.774 247.192 160.968 256.816 160.968H471.128C480.757 160.968 488.558 168.779 488.558 178.411V318.85C488.563 328.482 480.757 336.293 471.128 336.293Z" fill="#B0B7C7"/>
<g opacity="0.2">
<path d="M389.187 227.892L363.875 177.697L329.512 213.448C329.512 213.448 363.342 265.757 385.526 263.876C407.704 261.996 389.187 227.892 389.187 227.892Z" fill="#332938"/>
<path d="M391.854 217.051L452.722 255.79C452.722 255.79 446.8 277.126 424.2 274.468C405.277 272.247 380.706 251.968 371.107 229.392L391.854 217.051Z" fill="#332938"/>
<path d="M388.923 227.433L378.918 233.387L379.437 234.26L389.442 228.306L388.923 227.433Z" fill="#332938"/>
<path d="M372.78 131.257C372.886 119.437 362.94 109.765 350.565 109.653C338.19 109.542 328.072 119.034 327.966 130.855C327.86 142.675 337.806 152.347 350.181 152.458C362.556 152.569 372.674 143.077 372.78 131.257Z" fill="#332938"/>
<path d="M372.245 130.867H327.958V183.263H372.245V130.867Z" fill="#332938"/>
<path d="M341.106 141.694L340.914 163.061L359.259 163.225L359.45 141.858L341.106 141.694Z" fill="#332938"/>
<path d="M359.324 154.969L348.045 153.469L359.274 160.468L359.324 154.969Z" fill="#332938"/>
<path d="M359.649 155.436L341.666 153.251L341.859 131.564C341.92 124.545 347.933 118.903 355.282 118.969C362.631 119.035 368.542 124.779 368.476 131.803L368.349 146.105C368.309 151.36 364.55 156.417 359.649 155.436Z" fill="#332938"/>
<path d="M368.431 137.703L368.37 144.646C368.121 144.722 367.852 144.763 367.582 144.758C365.835 144.743 364.424 143.116 364.444 141.139C364.464 139.147 365.896 137.561 367.648 137.576C367.918 137.581 368.182 137.627 368.431 137.703Z" fill="#332938"/>
<path d="M345.19 134.7L341.163 134.664L341.331 115.864L364.149 116.067C364.053 126.451 355.566 134.791 345.19 134.7Z" fill="#332938"/>
<path d="M343.42 144.481C346.526 143.219 348.021 139.676 346.759 136.568C345.497 133.46 341.957 131.964 338.852 133.227C335.746 134.49 334.251 138.032 335.513 141.14C336.775 144.248 340.315 145.744 343.42 144.481Z" fill="#332938"/>
<path d="M355.627 141.17C355.607 143.274 353.89 144.961 351.788 144.941C349.685 144.92 347.999 143.203 348.019 141.098C348.04 138.994 349.756 137.307 351.859 137.327C353.961 137.348 355.647 139.065 355.627 141.17Z" fill="#332938"/>
<path d="M356.526 149.175C355.505 149.175 354.139 148.819 352.814 147.365L353.525 146.715C355.632 149.027 357.73 147.99 357.75 147.98L358.187 148.834C358.177 148.844 357.506 149.175 356.526 149.175Z" fill="#332938"/>
<path d="M353.552 137.721C353.222 137.721 352.781 137.606 352.352 137.136L352.582 136.926C353.263 137.673 353.941 137.338 353.948 137.335L354.089 137.611C354.086 137.614 353.869 137.721 353.552 137.721Z" fill="#332938"/>
<path d="M365.913 137.721C366.243 137.721 366.685 137.606 367.113 137.136L366.883 136.926C366.202 137.673 365.524 137.338 365.518 137.335L365.376 137.611C365.38 137.614 365.596 137.721 365.913 137.721Z" fill="#332938"/>
<path d="M355.658 137.82C355.653 138.486 355.109 139.02 354.444 139.01C353.778 139.004 353.245 138.461 353.255 137.795C353.266 137.129 353.804 136.595 354.469 136.606C355.129 136.616 355.663 137.16 355.658 137.82Z" fill="#332938"/>
<path d="M366.171 137.917C366.166 138.583 365.622 139.116 364.957 139.106C364.291 139.101 363.758 138.557 363.768 137.891C363.773 137.226 364.317 136.692 364.982 136.702C365.642 136.707 366.176 137.251 366.171 137.917Z" fill="#332938"/>
<path d="M361.102 143.497C361.041 143.497 360.975 143.492 360.914 143.482L358.258 143.025L358.42 142.079L361.077 142.537L361.209 142.41L360.807 138.923L361.762 138.816L362.163 142.303C362.199 142.644 362.082 142.974 361.833 143.208C361.63 143.396 361.371 143.497 361.102 143.497Z" fill="#332938"/>
<path d="M407.435 469.626H358.405V428.951H384.495V443.893C384.495 446.455 385.048 448.244 386.064 449.545C386.328 449.901 386.638 450.221 386.978 450.495C387.72 451.136 388.598 451.634 389.614 452.04C389.99 452.193 390.376 452.34 390.782 452.472C391.696 452.782 392.702 453.047 393.773 453.321C394.17 453.423 394.581 453.519 394.997 453.621C396.034 453.885 397.141 454.15 398.273 454.47C399.497 454.8 400.559 455.278 401.483 455.862C401.859 456.081 402.199 456.325 402.529 456.589C405.566 458.998 406.755 462.551 407.207 465.346C407.263 465.702 407.308 466.032 407.339 466.353C407.557 468.264 407.435 469.626 407.435 469.626Z" fill="#332938"/>
<path d="M384.495 418.847H358.405V443.888H384.495V418.847Z" fill="#332938"/>
<path d="M411.529 424.976H358.405V250.509H399.391L411.529 424.976Z" fill="#332938"/>
<path d="M384.495 424.976L358.405 429.982V424.976H384.495Z" fill="#332938"/>
<path d="M372.245 358.101L358.405 386.364V415.721L372.245 358.101Z" fill="#332938"/>
<path d="M370.147 465.438L369.243 466.276L368.38 465.351L358.405 454.637V452.838L370.071 465.351L370.147 465.438Z" fill="#332938"/>
<path d="M402.534 456.594L392.204 465.351L391.056 466.322L390.264 465.382L390.31 465.346L401.488 455.862C401.864 456.086 402.204 456.33 402.534 456.594Z" fill="#332938"/>
<path d="M386.644 448.378L384.991 451.795L386.106 452.336L387.759 448.918L386.644 448.378Z" fill="#332938"/>
<path d="M390.472 450.216L388.819 453.633L389.935 454.173L391.587 450.756L390.472 450.216Z" fill="#332938"/>
<path d="M394.353 452.118L392.702 455.536L393.814 456.073L395.464 452.655L394.353 452.118Z" fill="#332938"/>
<path d="M313.24 452.869C317.141 457.062 316.612 462.215 315.561 465.692C315.449 466.022 315.343 466.348 315.241 466.652C314.586 468.462 313.88 469.626 313.88 469.626L269.853 448.03L271.285 445.103L271.727 444.203L276.394 434.668L277.186 433.037L281.158 424.93L287.725 411.507H287.735L292.554 413.886L292.58 413.896L311.158 422.999L304.591 436.422C303.616 438.424 303.271 440.071 303.413 441.509C303.453 441.962 303.54 442.384 303.677 442.8C303.966 443.751 304.484 444.625 305.175 445.474C305.419 445.784 305.698 446.104 306.003 446.414C306.683 447.131 307.466 447.842 308.329 448.579C308.659 448.854 308.989 449.143 309.34 449.428C310.254 450.2 311.239 451.029 312.26 451.923C312.285 451.944 312.301 451.964 312.326 451.979C312.656 452.264 312.956 452.564 313.24 452.869Z" fill="#332938"/>
<path d="M292.179 402.451L281.169 424.938L304.597 436.426L315.607 413.939L292.179 402.451Z" fill="#332938"/>
<path d="M315.241 466.653L271.285 445.103L271.727 444.203L315.556 465.692C315.454 466.022 315.348 466.348 315.241 466.653Z" fill="#332938"/>
<path d="M371.259 361.42C370.95 362.258 370.599 363.097 370.188 363.915L358.4 387.991L337.181 431.334L319.766 422.796L318.664 422.242L289.477 407.929L322.483 340.52C322.636 340.19 322.803 339.87 322.981 339.56C329.258 327.921 343.098 322.762 355.358 327.204C355.764 327.346 356.165 327.514 356.562 327.667C357.059 327.875 357.542 328.099 358.029 328.343C358.151 328.409 358.283 328.465 358.405 328.531C366.724 332.785 371.889 340.856 372.773 349.557C372.819 349.999 372.849 350.451 372.874 350.894C373.047 354.395 372.539 357.974 371.259 361.42Z" fill="#332938"/>
<path d="M372.56 356.484L319.949 345.826L325.749 250.514H372.91L372.56 356.484Z" fill="#332938"/>
<path d="M312.905 419.426L287.278 412.438L289.477 407.94L312.905 419.426Z" fill="#332938"/>
<path d="M282.077 449.453L280.889 449.799L280.503 448.503L276.399 434.668L277.191 433.037L282.016 449.25L282.077 449.453Z" fill="#332938"/>
<path d="M313.24 452.869L299.787 457.951L298.801 458.327L298.41 457.291L298.37 457.174L312.255 451.918C312.28 451.939 312.295 451.959 312.321 451.974C312.656 452.264 312.956 452.564 313.24 452.869Z" fill="#332938"/>
<path d="M304.751 440.722L301.488 442.659L302.121 443.725L305.384 441.788L304.751 440.722Z" fill="#332938"/>
<path d="M306.935 444.428L303.672 446.365L304.304 447.431L307.568 445.494L306.935 444.428Z" fill="#332938"/>
<path d="M309.135 448.115L305.872 450.052L306.504 451.119L309.768 449.182L309.135 448.115Z" fill="#332938"/>
<path d="M361.143 250.545L358.405 296.648L356.562 327.672L355.647 343.123L355.602 343.229L319.771 422.801L318.669 422.247L354.434 342.823L355.358 327.209L358.405 275.8L359.909 250.509V250.479L360.523 250.509L361.143 250.545Z" fill="#332938"/>
<path d="M407.801 424.976H406.562L394.921 250.509L394.865 249.671L396.089 249.584L396.155 250.509L407.801 424.976Z" fill="#332938"/>
<path d="M313.53 301.939L414.764 292.43L390.574 187.979L359.248 163.253L341.204 159.929L328.888 178.943L313.53 301.939Z" fill="#332938"/>
<path d="M354.454 230.932L317.816 267.642L321.615 237.203L354.454 230.932Z" fill="#332938"/>
<path d="M287.77 180.254L342.575 164.763C342.575 164.763 347.257 182.323 334.682 195.852C323.834 207.527 296.876 216.34 281.655 206.713C270.68 199.771 274.992 182.541 287.77 180.254Z" fill="#332938"/>
<path d="M322.671 301.08L402.392 293.594L402.651 297.339L322.671 301.08Z" fill="#332938"/>
<path d="M372.875 350.894L378.822 296.084L384.967 297.339L372.875 350.894Z" fill="#332938"/>
<path d="M382.572 234.002L349.593 270.948L350.351 271.625L383.329 234.679L382.572 234.002Z" fill="#332938"/>
<path d="M380.203 244.455L354.038 284.445L354.887 285.002L381.053 245.012L380.203 244.455Z" fill="#332938"/>
<path d="M412.722 283.622L401.331 235.618L417.552 284.598L412.722 283.622Z" fill="#332938"/>
<path opacity="0.31" d="M447.004 284.77L313.855 321.542C310.625 322.437 307.252 320.521 306.358 317.283L279.72 220.68C278.827 217.448 280.741 214.073 283.976 213.178L417.125 176.407C420.355 175.512 423.728 177.428 424.622 180.666L451.26 277.269C452.153 280.501 450.239 283.876 447.004 284.77Z" fill="#332938"/>
<path d="M434.733 178.577L288.842 218.871L286.475 210.286C285.861 208.06 287.166 205.758 289.39 205.143L427.232 167.075C429.457 166.46 431.757 167.766 432.372 169.992L434.733 178.577Z" fill="#332938"/>
<path d="M456.359 272.842L318.588 310.889C315.881 311.636 313.078 310.041 312.331 307.337L285.642 210.556C284.896 207.847 286.49 205.041 289.192 204.294L426.963 166.247C429.67 165.499 432.473 167.095 433.22 169.799L459.909 266.58C460.66 269.284 459.066 272.095 456.359 272.842Z" fill="#332938"/>
<path d="M435.607 180.086L288.867 220.609L313.144 308.648C313.58 310.239 315.226 311.169 316.816 310.732L457.278 271.942C459.157 271.424 460.259 269.477 459.741 267.597L435.607 180.086Z" fill="#332938"/>
<path d="M410.163 187.11L288.867 220.609L313.144 308.648C313.58 310.239 315.226 311.169 316.816 310.732L435.236 278.026L410.163 187.11Z" fill="#332938"/>
<path d="M431.94 193.458L419.629 196.859C419.101 197.006 418.558 196.696 418.41 196.167C418.263 195.639 418.573 195.095 419.101 194.947L431.412 191.547C431.94 191.4 432.484 191.71 432.631 192.239C432.773 192.767 432.468 193.311 431.94 193.458Z" fill="#332938"/>
<path d="M428.989 201.072L421.366 203.176C420.838 203.323 420.295 203.013 420.147 202.485C420 201.956 420.31 201.412 420.838 201.265L428.461 199.161C428.989 199.013 429.533 199.323 429.68 199.852C429.827 200.381 429.518 200.924 428.989 201.072Z" fill="#332938"/>
<path d="M435.038 206.2L423.108 209.494C422.58 209.641 422.037 209.331 421.889 208.802C421.742 208.274 422.052 207.73 422.58 207.583L434.51 204.289C435.038 204.142 435.582 204.452 435.729 204.98C435.876 205.509 435.566 206.053 435.038 206.2Z" fill="#332938"/>
<path d="M429.573 214.51L424.85 215.816C424.322 215.964 423.779 215.654 423.631 215.125C423.484 214.596 423.794 214.053 424.322 213.905L429.045 212.599C429.573 212.452 430.117 212.762 430.264 213.29C430.411 213.819 430.102 214.363 429.573 214.51Z" fill="#332938"/>
<path d="M440.01 218.424L426.597 222.129C426.069 222.276 425.526 221.966 425.378 221.437C425.231 220.909 425.541 220.365 426.069 220.218L439.482 216.512C440.01 216.365 440.554 216.675 440.701 217.204C440.843 217.732 440.538 218.281 440.01 218.424Z" fill="#332938"/>
<path d="M426.049 166.496L290.107 204.04C287.125 204.863 285.373 207.948 286.196 210.932L288.933 220.853L435.673 180.33L432.936 170.409C432.113 167.421 429.03 165.672 426.049 166.496Z" fill="#332938"/>
<path d="M420.046 176.549C420.34 177.611 419.716 178.714 418.654 179.004C417.593 179.293 416.491 178.673 416.201 177.611C415.907 176.549 416.531 175.446 417.593 175.156C418.654 174.861 419.751 175.481 420.046 176.549Z" fill="#332938"/>
<path d="M412.235 178.704C412.529 179.766 411.905 180.869 410.843 181.159C409.782 181.448 408.68 180.828 408.39 179.766C408.095 178.704 408.72 177.601 409.782 177.311C410.843 177.016 411.94 177.642 412.235 178.704Z" fill="#332938"/>
<path d="M427.527 174.48C427.821 175.543 427.197 176.645 426.135 176.935C425.074 177.23 423.972 176.605 423.682 175.543C423.388 174.48 424.012 173.377 425.074 173.088C426.135 172.793 427.232 173.418 427.527 174.48Z" fill="#332938"/>
<path d="M456.526 273.447L318.756 311.494C315.718 312.333 312.565 310.544 311.727 307.499L285.038 210.718C284.2 207.679 285.988 204.523 289.03 203.684L426.8 165.637C429.837 164.798 432.991 166.587 433.829 169.632L460.518 266.412C461.356 269.452 459.563 272.608 456.526 273.447ZM289.36 204.899C286.988 205.555 285.592 208.02 286.247 210.388L312.93 307.169C313.585 309.542 316.049 310.94 318.415 310.285L456.186 272.237C458.558 271.581 459.954 269.116 459.299 266.748L432.61 169.967C431.955 167.593 429.492 166.196 427.125 166.851L289.36 204.899Z" fill="#332938"/>
<path d="M304.378 195.679L302.717 258.54C302.717 258.54 281.386 264.425 272.041 243.658C265.922 230.062 267.491 207.827 275.358 189.286C278.827 181.108 288.618 177.738 296.435 181.952C301.457 184.661 304.53 189.967 304.378 195.679Z" fill="#332938"/>
<path d="M282.382 258.179L282.509 243.48L291.757 243.562C298.095 243.617 303.189 248.802 303.138 255.145L303.012 269.843L293.763 269.762C287.425 269.711 282.331 264.522 282.382 258.179Z" fill="#332938"/>
<path d="M449.076 260.644L460.015 250.835L466.186 257.726C470.417 262.453 470.02 269.716 465.297 273.945L454.358 283.754L448.187 276.862C443.956 272.14 444.358 264.877 449.076 260.644Z" fill="#332938"/>
</g>
<path d="M245.785 417.466H78.8218C71.8792 417.466 66.252 411.835 66.252 404.887V131.377C66.252 124.43 71.8792 118.798 78.8218 118.798H245.78C252.723 118.798 258.35 124.43 258.35 131.377V404.887C258.35 411.835 252.723 417.466 245.785 417.466Z" fill="#8FD2FF"/>
<path d="M0 270.866C0 273.001 1.69629 274.734 3.78873 274.734C5.88117 274.734 7.57746 273.001 7.57746 270.866C7.57746 268.732 5.88117 266.999 3.78873 266.999C1.69629 266.999 0 268.732 0 270.866Z" fill="white"/>
<path d="M0 211.874C0 214.009 1.69629 215.742 3.78873 215.742C5.88117 215.742 7.57746 214.009 7.57746 211.874C7.57746 209.739 5.88117 208.006 3.78873 208.006C1.69629 208.006 0 209.734 0 211.874Z" fill="white"/>
<path d="M0 152.876C0 155.011 1.69629 156.744 3.78873 156.744C5.88117 156.744 7.57746 155.011 7.57746 152.876C7.57746 150.742 5.88117 149.009 3.78873 149.009C1.69629 149.009 0 150.742 0 152.876Z" fill="white"/>
<path d="M0 93.8839C0 96.0185 1.69629 97.7516 3.78873 97.7516C5.88117 97.7516 7.57746 96.0185 7.57746 93.8839C7.57746 91.7492 5.88117 90.0161 3.78873 90.0161C1.69629 90.0161 0 91.7492 0 93.8839Z" fill="white"/>
<path d="M0 34.8913C0 37.026 1.69629 38.7591 3.78873 38.7591C5.88117 38.7591 7.57746 37.026 7.57746 34.8913C7.57746 32.7567 5.88117 31.0236 3.78873 31.0236C1.69629 31.0236 0 32.7516 0 34.8913Z" fill="white"/>
<path d="M39.2636 270.866C39.2636 273.001 40.9599 274.734 43.0524 274.734C45.1448 274.734 46.8411 273.001 46.8411 270.866C46.8411 268.732 45.1448 266.999 43.0524 266.999C40.9599 266.999 39.2636 268.732 39.2636 270.866Z" fill="white"/>
<path d="M43.0524 215.742C45.1448 215.742 46.8411 214.01 46.8411 211.874C46.8411 209.738 45.1448 208.006 43.0524 208.006C40.9599 208.006 39.2636 209.738 39.2636 211.874C39.2636 214.01 40.9599 215.742 43.0524 215.742Z" fill="white"/>
<path d="M43.0524 156.744C45.1448 156.744 46.8411 155.012 46.8411 152.876C46.8411 150.74 45.1448 149.009 43.0524 149.009C40.9599 149.009 39.2636 150.74 39.2636 152.876C39.2636 155.012 40.9599 156.744 43.0524 156.744Z" fill="white"/>
<path d="M39.2636 93.8839C39.2636 96.0185 40.9599 97.7516 43.0524 97.7516C45.1448 97.7516 46.8411 96.0185 46.8411 93.8839C46.8411 91.7492 45.1448 90.0161 43.0524 90.0161C40.9599 90.0161 39.2636 91.7492 39.2636 93.8839Z" fill="white"/>
<path d="M43.0524 38.7591C45.1448 38.7591 46.8411 37.0275 46.8411 34.8913C46.8411 32.7552 45.1448 31.0236 43.0524 31.0236C40.9599 31.0236 39.2636 32.7552 39.2636 34.8913C39.2636 37.0275 40.9599 38.7591 43.0524 38.7591Z" fill="white"/>
<path d="M78.5323 270.866C78.5323 273.001 80.2286 274.734 82.3211 274.734C84.4135 274.734 86.1098 273.001 86.1098 270.866C86.1098 268.732 84.4135 266.999 82.3211 266.999C80.2286 266.999 78.5323 268.732 78.5323 270.866Z" fill="white"/>
<path d="M78.5323 211.874C78.5323 214.009 80.2286 215.742 82.3211 215.742C84.4135 215.742 86.1098 214.009 86.1098 211.874C86.1098 209.739 84.4135 208.006 82.3211 208.006C80.2286 208.006 78.5323 209.734 78.5323 211.874Z" fill="white"/>
<path d="M78.5323 152.876C78.5323 155.011 80.2286 156.744 82.3211 156.744C84.4135 156.744 86.1098 155.011 86.1098 152.876C86.1098 150.742 84.4135 149.009 82.3211 149.009C80.2286 149.009 78.5323 150.742 78.5323 152.876Z" fill="white"/>
<path d="M78.5323 93.8839C78.5323 96.0185 80.2286 97.7516 82.3211 97.7516C84.4135 97.7516 86.1098 96.0185 86.1098 93.8839C86.1098 91.7492 84.4135 90.0161 82.3211 90.0161C80.2286 90.0161 78.5323 91.7492 78.5323 93.8839Z" fill="white"/>
<path d="M78.5323 34.8913C78.5323 37.026 80.2286 38.7591 82.3211 38.7591C84.4135 38.7591 86.1098 37.026 86.1098 34.8913C86.1098 32.7567 84.4135 31.0236 82.3211 31.0236C80.2286 31.0236 78.5323 32.7516 78.5323 34.8913Z" fill="white"/>
<path d="M117.801 270.866C117.801 273.001 119.497 274.734 121.59 274.734C123.682 274.734 125.379 273.001 125.379 270.866C125.379 268.732 123.682 266.999 121.59 266.999C119.492 266.999 117.801 268.732 117.801 270.866Z" fill="white"/>
<path d="M121.585 215.742C123.677 215.742 125.373 214.01 125.373 211.874C125.373 209.738 123.677 208.006 121.585 208.006C119.492 208.006 117.796 209.738 117.796 211.874C117.796 214.01 119.492 215.742 121.585 215.742Z" fill="white"/>
<path d="M121.585 156.744C123.677 156.744 125.373 155.012 125.373 152.876C125.373 150.74 123.677 149.009 121.585 149.009C119.492 149.009 117.796 150.74 117.796 152.876C117.796 155.012 119.492 156.744 121.585 156.744Z" fill="white"/>
<path d="M117.801 93.8839C117.801 96.0185 119.497 97.7516 121.59 97.7516C123.682 97.7516 125.379 96.0185 125.379 93.8839C125.379 91.7492 123.682 90.0161 121.59 90.0161C119.492 90.0161 117.801 91.7492 117.801 93.8839Z" fill="white"/>
<path d="M121.585 38.7591C123.677 38.7591 125.373 37.0275 125.373 34.8913C125.373 32.7552 123.677 31.0236 121.585 31.0236C119.492 31.0236 117.796 32.7552 117.796 34.8913C117.796 37.0275 119.492 38.7591 121.585 38.7591Z" fill="white"/>
<path d="M157.065 270.866C157.065 273.001 158.761 274.734 160.853 274.734C162.946 274.734 164.642 273.001 164.642 270.866C164.642 268.732 162.946 266.999 160.853 266.999C158.761 266.999 157.065 268.732 157.065 270.866Z" fill="white"/>
<path d="M157.065 211.874C157.065 214.009 158.761 215.742 160.853 215.742C162.946 215.742 164.642 214.009 164.642 211.874C164.642 209.739 162.946 208.006 160.853 208.006C158.761 208.006 157.065 209.734 157.065 211.874Z" fill="white"/>
<path d="M157.065 152.876C157.065 155.011 158.761 156.744 160.853 156.744C162.946 156.744 164.642 155.011 164.642 152.876C164.642 150.742 162.946 149.009 160.853 149.009C158.761 149.009 157.065 150.742 157.065 152.876Z" fill="white"/>
<path d="M157.065 93.8839C157.065 96.0185 158.761 97.7516 160.853 97.7516C162.946 97.7516 164.642 96.0185 164.642 93.8839C164.642 91.7492 162.946 90.0161 160.853 90.0161C158.761 90.0161 157.065 91.7492 157.065 93.8839Z" fill="white"/>
<path d="M157.065 34.8913C157.065 37.026 158.761 38.7591 160.853 38.7591C162.946 38.7591 164.642 37.026 164.642 34.8913C164.642 32.7567 162.946 31.0236 160.853 31.0236C158.761 31.0236 157.065 32.7516 157.065 34.8913Z" fill="white"/>
<path d="M196.333 270.866C196.333 273.001 198.03 274.734 200.122 274.734C202.215 274.734 203.911 273.001 203.911 270.866C203.911 268.732 202.215 266.999 200.122 266.999C198.03 266.999 196.333 268.732 196.333 270.866Z" fill="white"/>
<path d="M196.333 211.874C196.333 214.009 198.03 215.742 200.122 215.742C202.215 215.742 203.911 214.009 203.911 211.874C203.911 209.739 202.215 208.006 200.122 208.006C198.03 208.006 196.333 209.734 196.333 211.874Z" fill="white"/>
<path d="M196.333 152.876C196.333 155.011 198.03 156.744 200.122 156.744C202.215 156.744 203.911 155.011 203.911 152.876C203.911 150.742 202.215 149.009 200.122 149.009C198.03 149.009 196.333 150.742 196.333 152.876Z" fill="white"/>
<path d="M196.333 93.8839C196.333 96.0185 198.03 97.7516 200.122 97.7516C202.215 97.7516 203.911 96.0185 203.911 93.8839C203.911 91.7492 202.215 90.0161 200.122 90.0161C198.03 90.0161 196.333 91.7492 196.333 93.8839Z" fill="white"/>
<path d="M196.333 34.8913C196.333 37.026 198.03 38.7591 200.122 38.7591C202.215 38.7591 203.911 37.026 203.911 34.8913C203.911 32.7567 202.215 31.0236 200.122 31.0236C198.03 31.0236 196.333 32.7516 196.333 34.8913Z" fill="white"/>
<path d="M235.597 270.866C235.597 273.001 237.293 274.734 239.386 274.734C241.478 274.734 243.175 273.001 243.175 270.866C243.175 268.732 241.478 266.999 239.386 266.999C237.293 266.999 235.597 268.732 235.597 270.866Z" fill="white"/>
<path d="M235.597 211.874C235.597 214.009 237.293 215.742 239.386 215.742C241.478 215.742 243.175 214.009 243.175 211.874C243.175 209.739 241.478 208.006 239.386 208.006C237.293 208.006 235.597 209.734 235.597 211.874Z" fill="white"/>
<path d="M235.597 152.876C235.597 155.011 237.293 156.744 239.386 156.744C241.478 156.744 243.175 155.011 243.175 152.876C243.175 150.742 241.478 149.009 239.386 149.009C237.293 149.009 235.597 150.742 235.597 152.876Z" fill="white"/>
<path d="M235.597 93.8839C235.597 96.0185 237.293 97.7516 239.386 97.7516C241.478 97.7516 243.175 96.0185 243.175 93.8839C243.175 91.7492 241.478 90.0161 239.386 90.0161C237.293 90.0161 235.597 91.7492 235.597 93.8839Z" fill="white"/>
<path d="M235.597 34.8913C235.597 37.026 237.293 38.7591 239.386 38.7591C241.478 38.7591 243.175 37.026 243.175 34.8913C243.175 32.7567 241.478 31.0236 239.386 31.0236C237.293 31.0236 235.597 32.7516 235.597 34.8913Z" fill="white"/>
<path d="M274.866 270.866C274.866 273.001 276.562 274.734 278.654 274.734C280.747 274.734 282.443 273.001 282.443 270.866C282.443 268.732 280.747 266.999 278.654 266.999C276.562 266.999 274.866 268.732 274.866 270.866Z" fill="white"/>
<path d="M274.866 211.874C274.866 214.009 276.562 215.742 278.654 215.742C280.747 215.742 282.443 214.009 282.443 211.874C282.443 209.739 280.747 208.006 278.654 208.006C276.562 208.006 274.866 209.734 274.866 211.874Z" fill="white"/>
<path d="M274.866 152.876C274.866 155.011 276.562 156.744 278.654 156.744C280.747 156.744 282.443 155.011 282.443 152.876C282.443 150.742 280.747 149.009 278.654 149.009C276.562 149.009 274.866 150.742 274.866 152.876Z" fill="white"/>
<path d="M274.866 93.8839C274.866 96.0185 276.562 97.7516 278.654 97.7516C280.747 97.7516 282.443 96.0185 282.443 93.8839C282.443 91.7492 280.747 90.0161 278.654 90.0161C276.562 90.0161 274.866 91.7492 274.866 93.8839Z" fill="white"/>
<path d="M274.866 34.8913C274.866 37.026 276.562 38.7591 278.654 38.7591C280.747 38.7591 282.443 37.026 282.443 34.8913C282.443 32.7567 280.747 31.0236 278.654 31.0236C276.562 31.0236 274.866 32.7516 274.866 34.8913Z" fill="white"/>
<path d="M314.129 270.866C314.129 273.001 315.826 274.734 317.918 274.734C320.011 274.734 321.707 273.001 321.707 270.866C321.707 268.732 320.011 266.999 317.918 266.999C315.826 266.999 314.129 268.732 314.129 270.866Z" fill="white"/>
<path d="M317.918 215.742C320.011 215.742 321.707 214.01 321.707 211.874C321.707 209.738 320.011 208.006 317.918 208.006C315.826 208.006 314.129 209.738 314.129 211.874C314.129 214.01 315.826 215.742 317.918 215.742Z" fill="white"/>
<path d="M317.918 156.744C320.011 156.744 321.707 155.012 321.707 152.876C321.707 150.74 320.011 149.009 317.918 149.009C315.826 149.009 314.129 150.74 314.129 152.876C314.129 155.012 315.826 156.744 317.918 156.744Z" fill="white"/>
<path d="M317.918 97.7516C320.011 97.7516 321.707 96.02 321.707 93.8839C321.707 91.7477 320.011 90.0161 317.918 90.0161C315.826 90.0161 314.129 91.7477 314.129 93.8839C314.129 96.02 315.826 97.7516 317.918 97.7516Z" fill="white"/>
<path d="M317.918 38.7591C320.011 38.7591 321.707 37.0275 321.707 34.8913C321.707 32.7552 320.011 31.0236 317.918 31.0236C315.826 31.0236 314.129 32.7552 314.129 34.8913C314.129 37.0275 315.826 38.7591 317.918 38.7591Z" fill="white"/>
<path d="M353.398 270.866C353.398 273.001 355.094 274.734 357.187 274.734C359.279 274.734 360.976 273.001 360.976 270.866C360.976 268.732 359.279 266.999 357.187 266.999C355.094 266.999 353.398 268.732 353.398 270.866Z" fill="white"/>
<path d="M353.398 211.874C353.398 214.009 355.094 215.742 357.187 215.742C359.279 215.742 360.976 214.009 360.976 211.874C360.976 209.739 359.279 208.006 357.187 208.006C355.094 208.006 353.398 209.734 353.398 211.874Z" fill="white"/>
<path d="M353.398 152.876C353.398 155.011 355.094 156.744 357.187 156.744C359.279 156.744 360.976 155.011 360.976 152.876C360.976 150.742 359.279 149.009 357.187 149.009C355.094 149.009 353.398 150.742 353.398 152.876Z" fill="white"/>
<path d="M353.398 93.8839C353.398 96.0185 355.094 97.7516 357.187 97.7516C359.279 97.7516 360.976 96.0185 360.976 93.8839C360.976 91.7492 359.279 90.0161 357.187 90.0161C355.094 90.0161 353.398 91.7492 353.398 93.8839Z" fill="white"/>
<path d="M353.398 34.8913C353.398 37.026 355.094 38.7591 357.187 38.7591C359.279 38.7591 360.976 37.026 360.976 34.8913C360.976 32.7567 359.279 31.0236 357.187 31.0236C355.094 31.0236 353.398 32.7516 353.398 34.8913Z" fill="white"/>
<path d="M392.667 270.866C392.667 273.001 394.363 274.734 396.456 274.734C398.548 274.734 400.244 273.001 400.244 270.866C400.244 268.732 398.548 266.999 396.456 266.999C394.358 266.999 392.667 268.732 392.667 270.866Z" fill="white"/>
<path d="M392.667 211.874C392.667 214.009 394.363 215.742 396.456 215.742C398.548 215.742 400.244 214.009 400.244 211.874C400.244 209.739 398.548 208.006 396.456 208.006C394.358 208.006 392.667 209.734 392.667 211.874Z" fill="white"/>
<path d="M392.667 152.876C392.667 155.011 394.363 156.744 396.456 156.744C398.548 156.744 400.244 155.011 400.244 152.876C400.244 150.742 398.548 149.009 396.456 149.009C394.358 149.009 392.667 150.742 392.667 152.876Z" fill="white"/>
<path d="M392.667 93.8839C392.667 96.0185 394.363 97.7516 396.456 97.7516C398.548 97.7516 400.244 96.0185 400.244 93.8839C400.244 91.7492 398.548 90.0161 396.456 90.0161C394.358 90.0161 392.667 91.7492 392.667 93.8839Z" fill="white"/>
<path d="M392.667 34.8913C392.667 37.026 394.363 38.7591 396.456 38.7591C398.548 38.7591 400.244 37.026 400.244 34.8913C400.244 32.7567 398.548 31.0236 396.456 31.0236C394.358 31.0236 392.667 32.7516 392.667 34.8913Z" fill="white"/>
<path d="M431.93 270.866C431.93 273.001 433.627 274.734 435.719 274.734C437.812 274.734 439.508 273.001 439.508 270.866C439.508 268.732 437.812 266.999 435.719 266.999C433.627 266.999 431.93 268.732 431.93 270.866Z" fill="white"/>
<path d="M431.93 211.874C431.93 214.009 433.627 215.742 435.719 215.742C437.812 215.742 439.508 214.009 439.508 211.874C439.508 209.739 437.812 208.006 435.719 208.006C433.627 208.006 431.93 209.734 431.93 211.874Z" fill="white"/>
<path d="M431.93 152.876C431.93 155.011 433.627 156.744 435.719 156.744C437.812 156.744 439.508 155.011 439.508 152.876C439.508 150.742 437.812 149.009 435.719 149.009C433.627 149.009 431.93 150.742 431.93 152.876Z" fill="white"/>
<path d="M431.93 93.8839C431.93 96.0185 433.627 97.7516 435.719 97.7516C437.812 97.7516 439.508 96.0185 439.508 93.8839C439.508 91.7492 437.812 90.0161 435.719 90.0161C433.627 90.0161 431.93 91.7492 431.93 93.8839Z" fill="white"/>
<path d="M431.93 34.8913C431.93 37.026 433.627 38.7591 435.719 38.7591C437.812 38.7591 439.508 37.026 439.508 34.8913C439.508 32.7567 437.812 31.0236 435.719 31.0236C433.627 31.0236 431.93 32.7516 431.93 34.8913Z" fill="white"/>
<path d="M471.199 270.866C471.199 273.001 472.896 274.734 474.988 274.734C477.08 274.734 478.777 273.001 478.777 270.866C478.777 268.732 477.08 266.999 474.988 266.999C472.896 266.999 471.199 268.732 471.199 270.866Z" fill="white"/>
<path d="M471.199 211.874C471.199 214.009 472.896 215.742 474.988 215.742C477.08 215.742 478.777 214.009 478.777 211.874C478.777 209.739 477.08 208.006 474.988 208.006C472.896 208.006 471.199 209.734 471.199 211.874Z" fill="white"/>
<path d="M471.199 152.876C471.199 155.011 472.896 156.744 474.988 156.744C477.08 156.744 478.777 155.011 478.777 152.876C478.777 150.742 477.08 149.009 474.988 149.009C472.896 149.009 471.199 150.742 471.199 152.876Z" fill="white"/>
<path d="M471.199 93.8839C471.199 96.0185 472.896 97.7516 474.988 97.7516C477.08 97.7516 478.777 96.0185 478.777 93.8839C478.777 91.7492 477.08 90.0161 474.988 90.0161C472.896 90.0161 471.199 91.7492 471.199 93.8839Z" fill="white"/>
<path d="M471.199 34.8913C471.199 37.026 472.896 38.7591 474.988 38.7591C477.08 38.7591 478.777 37.026 478.777 34.8913C478.777 32.7567 477.08 31.0236 474.988 31.0236C472.896 31.0236 471.199 32.7516 471.199 34.8913Z" fill="white"/>
<path d="M399.772 221.266L374.46 171.072L340.097 206.822C340.097 206.822 373.926 259.131 396.11 257.25C418.289 255.37 399.772 221.266 399.772 221.266Z" fill="#FFC778"/>
<path d="M402.438 210.425L463.307 249.164C463.307 249.164 457.385 270.501 434.785 267.842C415.861 265.621 391.291 245.342 381.692 222.766L402.438 210.425Z" fill="#FFC778"/>
<path d="M399.507 220.807L389.502 226.761L390.022 227.634L400.027 221.681L399.507 220.807Z" fill="#CF837E"/>
<path d="M383.365 124.631C383.471 112.811 373.525 103.139 361.15 103.028C348.774 102.916 338.656 112.409 338.55 124.229C338.444 136.049 348.39 145.721 360.766 145.832C373.141 145.944 383.259 136.452 383.365 124.631Z" fill="#523C1F"/>
<path d="M382.829 124.242H338.543V176.637H382.829V124.242Z" fill="#523C1F"/>
<path d="M351.69 135.068L351.499 156.435L369.843 156.599L370.035 135.233L351.69 135.068Z" fill="#E7B38E"/>
<path d="M369.909 148.343L358.629 146.843L369.858 153.842L369.909 148.343Z" fill="#332938"/>
<path d="M370.234 148.81L352.25 146.625L352.443 124.938C352.504 117.919 358.518 112.277 365.866 112.343C373.215 112.41 379.127 118.153 379.061 125.177L378.934 139.479C378.893 144.734 375.135 149.791 370.234 148.81Z" fill="#E7B38E"/>
<path d="M379.015 131.078L378.954 138.02C378.705 138.096 378.436 138.137 378.167 138.132C376.42 138.117 375.008 136.49 375.028 134.513C375.049 132.521 376.481 130.935 378.233 130.95C378.502 130.956 378.766 131.001 379.015 131.078Z" fill="#D4634B"/>
<path d="M355.775 128.074L351.748 128.038L351.915 109.238L374.734 109.441C374.637 119.825 366.151 128.165 355.775 128.074Z" fill="#523C1F"/>
<path d="M354.005 137.856C357.111 136.593 358.605 133.05 357.344 129.942C356.082 126.834 352.542 125.339 349.436 126.601C346.331 127.864 344.836 131.407 346.098 134.514C347.359 137.622 350.9 139.118 354.005 137.856Z" fill="#E7B38E"/>
<path d="M366.212 134.544C366.191 136.648 364.475 138.335 362.372 138.315C360.27 138.295 358.584 136.577 358.604 134.473C358.624 132.368 360.341 130.681 362.443 130.701C364.546 130.722 366.232 132.44 366.212 134.544Z" fill="#D4634B"/>
<path d="M367.111 142.549C366.09 142.549 364.724 142.193 363.398 140.739L364.109 140.089C366.217 142.401 368.314 141.365 368.335 141.354L368.771 142.208C368.761 142.218 368.091 142.549 367.111 142.549Z" fill="#332938"/>
<path d="M364.137 131.095C363.807 131.095 363.365 130.98 362.937 130.51L363.167 130.3C363.848 131.048 364.526 130.712 364.532 130.709L364.674 130.985C364.67 130.988 364.454 131.095 364.137 131.095Z" fill="#332938"/>
<path d="M376.498 131.095C376.828 131.095 377.269 130.98 377.698 130.51L377.468 130.3C376.787 131.048 376.109 130.712 376.102 130.709L375.961 130.985C375.964 130.988 376.181 131.095 376.498 131.095Z" fill="#332938"/>
<path d="M366.242 131.194C366.237 131.86 365.694 132.394 365.028 132.384C364.363 132.379 363.83 131.835 363.84 131.169C363.85 130.503 364.388 129.97 365.054 129.98C365.714 129.99 366.247 130.534 366.242 131.194Z" fill="#332938"/>
<path d="M376.755 131.291C376.75 131.957 376.207 132.49 375.541 132.48C374.876 132.475 374.343 131.931 374.353 131.266C374.358 130.6 374.901 130.066 375.567 130.076C376.227 130.081 376.76 130.625 376.755 131.291Z" fill="#332938"/>
<path d="M371.687 136.872C371.626 136.872 371.56 136.867 371.499 136.856L368.843 136.399L369.005 135.454L371.661 135.911L371.793 135.784L371.392 132.297L372.347 132.191L372.748 135.677C372.784 136.018 372.667 136.348 372.418 136.582C372.215 136.77 371.956 136.872 371.687 136.872Z" fill="#332938"/>
<path d="M418.02 463H368.99V422.325H395.079V437.267C395.079 439.829 395.633 441.618 396.649 442.919C396.913 443.275 397.222 443.595 397.563 443.87C398.304 444.51 399.183 445.008 400.199 445.415C400.574 445.567 400.96 445.714 401.367 445.847C402.281 446.157 403.286 446.421 404.358 446.695C404.754 446.797 405.166 446.894 405.582 446.995C406.618 447.26 407.725 447.524 408.858 447.844C410.082 448.174 411.143 448.652 412.068 449.237C412.443 449.455 412.784 449.699 413.114 449.963C416.151 452.373 417.339 455.925 417.791 458.721C417.847 459.076 417.893 459.407 417.923 459.727C418.142 461.638 418.02 463 418.02 463Z" fill="#547896"/>
<path d="M395.079 412.221H368.99V437.262H395.079V412.221Z" fill="#E7B38E"/>
<path d="M417.934 459.732H368.99V458.726H417.796C417.857 459.076 417.898 459.412 417.934 459.732Z" fill="#332938"/>
<path d="M422.113 418.35H368.99V243.884H409.975L422.113 418.35Z" fill="#DEB1A6"/>
<path d="M395.079 418.35L368.99 423.357V418.35H395.079Z" fill="#332938"/>
<path d="M382.829 351.475L368.99 379.739V409.095L382.829 351.475Z" fill="#332938"/>
<path d="M380.732 458.812L379.828 459.651L378.964 458.726L368.99 448.012V446.212L380.656 458.726L380.732 458.812Z" fill="#332938"/>
<path d="M413.119 449.969L402.789 458.726L401.641 459.696L400.849 458.756L400.894 458.721L412.073 449.237C412.449 449.46 412.789 449.704 413.119 449.969Z" fill="#332938"/>
<path d="M397.229 441.752L395.576 445.169L396.691 445.71L398.344 442.292L397.229 441.752Z" fill="#332938"/>
<path d="M401.056 443.59L399.404 447.007L400.519 447.547L402.172 444.13L401.056 443.59Z" fill="#332938"/>
<path d="M404.937 445.492L403.287 448.91L404.398 449.447L406.049 446.029L404.937 445.492Z" fill="#332938"/>
<path d="M323.825 446.243C327.725 450.436 327.197 455.59 326.146 459.066C326.034 459.397 325.927 459.722 325.826 460.027C325.171 461.836 324.465 463 324.465 463L280.437 441.404L281.869 438.477L282.311 437.577L286.979 428.043L287.771 426.411L291.742 418.305L298.309 404.882H298.319L303.139 407.26L303.164 407.27L321.742 416.373L315.176 429.796C314.201 431.799 313.855 433.445 313.997 434.884C314.038 435.336 314.124 435.758 314.261 436.175C314.551 437.125 315.069 437.999 315.76 438.848C316.003 439.158 316.283 439.478 316.588 439.788C317.268 440.505 318.05 441.216 318.914 441.953C319.244 442.228 319.574 442.518 319.924 442.802C320.838 443.575 321.824 444.403 322.845 445.298C322.87 445.318 322.885 445.338 322.911 445.354C323.241 445.638 323.54 445.938 323.825 446.243Z" fill="#547896"/>
<path d="M302.764 395.825L291.754 418.312L315.182 429.8L326.192 407.313L302.764 395.825Z" fill="#E7B38E"/>
<path d="M325.826 460.027L281.869 438.477L282.311 437.577L326.141 459.066C326.039 459.397 325.932 459.722 325.826 460.027Z" fill="#332938"/>
<path d="M381.844 354.794C381.534 355.632 381.184 356.471 380.772 357.289L368.985 381.365L347.766 424.709L330.351 416.17L329.249 415.616L300.061 401.304L333.068 333.894C333.22 333.564 333.388 333.244 333.566 332.934C339.843 321.295 353.683 316.136 365.943 320.578C366.349 320.721 366.75 320.888 367.146 321.041C367.644 321.249 368.126 321.473 368.614 321.717C368.736 321.783 368.868 321.839 368.99 321.905C377.309 326.159 382.474 334.23 383.358 342.931C383.403 343.373 383.434 343.826 383.459 344.268C383.632 347.77 383.124 351.348 381.844 354.794Z" fill="#DEB1A6"/>
<path d="M383.144 349.859L330.534 339.201L336.334 243.889H383.495L383.144 349.859Z" fill="#DEB1A6"/>
<path d="M323.49 412.8L297.862 405.812L300.061 401.314L323.49 412.8Z" fill="#332938"/>
<path d="M292.662 442.828L291.473 443.173L291.087 441.877L286.984 428.043L287.776 426.411L292.601 442.624L292.662 442.828Z" fill="#332938"/>
<path d="M323.825 446.243L310.371 451.326L309.386 451.702L308.995 450.665L308.954 450.548L322.839 445.293C322.865 445.313 322.88 445.333 322.905 445.349C323.241 445.638 323.54 445.938 323.825 446.243Z" fill="#332938"/>
<path d="M315.336 434.096L312.073 436.033L312.705 437.099L315.968 435.162L315.336 434.096Z" fill="#332938"/>
<path d="M317.52 437.802L314.257 439.739L314.889 440.806L318.152 438.869L317.52 437.802Z" fill="#332938"/>
<path d="M319.72 441.49L316.457 443.427L317.089 444.493L320.352 442.556L319.72 441.49Z" fill="#332938"/>
<path d="M371.727 243.919L368.99 290.022L367.146 321.046L366.232 336.497L366.186 336.603L330.356 416.175L329.254 415.621L365.018 336.197L365.943 320.583L368.99 269.174L370.493 243.884V243.853L371.108 243.884L371.727 243.919Z" fill="#332938"/>
<path d="M418.385 418.35H417.146L405.506 243.883L405.45 243.045L406.674 242.958L406.74 243.883L418.385 418.35Z" fill="#332938"/>
<path d="M324.114 295.313L425.348 285.804L401.158 181.354L369.833 156.627L351.788 153.303L339.472 172.317L324.114 295.313Z" fill="#A35A5F"/>
<path d="M365.039 224.306L328.401 261.017L332.2 230.578L365.039 224.306Z" fill="#CF837E"/>
<path d="M298.355 173.628L353.159 158.137C353.159 158.137 357.842 175.697 345.267 189.226C334.419 200.901 307.461 209.714 292.24 200.088C281.265 193.145 285.577 175.915 298.355 173.628Z" fill="#A35A5F"/>
<path d="M333.256 294.454L412.977 286.968L413.236 290.714L333.256 294.454Z" fill="#332938"/>
<path d="M383.459 344.268L389.406 289.458L395.552 290.714L383.459 344.268Z" fill="#332938"/>
<path d="M393.157 227.376L360.178 264.322L360.936 265L393.914 228.053L393.157 227.376Z" fill="#CF837E"/>
<path d="M390.788 237.829L364.622 277.819L365.472 278.376L391.638 238.386L390.788 237.829Z" fill="#CF837E"/>
<path d="M423.307 276.996L411.915 228.992L428.137 277.972L423.307 276.996Z" fill="#332938"/>
<path opacity="0.31" d="M457.588 278.145L324.439 314.916C321.209 315.811 317.837 313.895 316.943 310.657L290.305 214.054C289.411 210.822 291.326 207.447 294.561 206.553L427.71 169.781C430.94 168.886 434.312 170.802 435.206 174.04L461.844 270.643C462.738 273.875 460.823 277.25 457.588 278.145Z" fill="#332938"/>
<path d="M445.318 171.951L299.426 212.245L297.06 203.661C296.445 201.434 297.751 199.132 299.975 198.517L437.817 160.449C440.041 159.834 442.342 161.14 442.956 163.367L445.318 171.951Z" fill="#332938"/>
<path d="M466.943 266.216L329.173 304.264C326.466 305.011 323.662 303.415 322.916 300.711L296.227 203.93C295.48 201.221 297.075 198.416 299.777 197.668L437.548 159.621C440.255 158.874 443.058 160.47 443.805 163.173L470.493 259.954C471.245 262.658 469.65 265.469 466.943 266.216Z" fill="#332938"/>
<path d="M446.192 173.46L299.452 213.983L323.728 302.022C324.165 303.613 325.811 304.543 327.4 304.106L467.863 265.316C469.742 264.798 470.844 262.851 470.326 260.971L446.192 173.46Z" fill="#DEB1A6"/>
<path d="M420.747 180.484L299.452 213.983L323.728 302.022C324.165 303.613 325.811 304.543 327.4 304.106L445.821 271.4L420.747 180.484Z" fill="#332938"/>
<path d="M442.525 186.833L430.214 190.233C429.686 190.38 429.142 190.07 428.995 189.541C428.848 189.013 429.157 188.469 429.686 188.322L441.997 184.921C442.525 184.774 443.068 185.084 443.215 185.613C443.358 186.141 443.053 186.685 442.525 186.833Z" fill="#FAE2D7"/>
<path d="M439.574 194.446L431.951 196.55C431.423 196.698 430.879 196.388 430.732 195.859C430.585 195.33 430.894 194.787 431.423 194.639L439.046 192.535C439.574 192.388 440.117 192.698 440.265 193.226C440.412 193.755 440.102 194.299 439.574 194.446Z" fill="#FAE2D7"/>
<path d="M445.623 199.574L433.693 202.868C433.165 203.015 432.621 202.705 432.474 202.177C432.327 201.648 432.636 201.104 433.165 200.957L445.095 197.663C445.623 197.516 446.166 197.826 446.313 198.355C446.461 198.883 446.151 199.427 445.623 199.574Z" fill="#FAE2D7"/>
<path d="M440.158 207.884L435.435 209.19C434.907 209.338 434.363 209.028 434.216 208.499C434.069 207.971 434.378 207.427 434.907 207.279L439.63 205.973C440.158 205.826 440.701 206.136 440.849 206.664C440.996 207.193 440.686 207.737 440.158 207.884Z" fill="#FAE2D7"/>
<path d="M450.595 211.798L437.182 215.503C436.654 215.65 436.11 215.34 435.963 214.812C435.816 214.283 436.126 213.739 436.654 213.592L450.067 209.887C450.595 209.739 451.138 210.049 451.286 210.578C451.428 211.106 451.123 211.655 450.595 211.798Z" fill="#FAE2D7"/>
<path d="M436.633 159.87L300.691 197.414C297.71 198.238 295.958 201.323 296.781 204.306L299.518 214.227L446.258 173.704L443.52 163.783C442.697 160.795 439.615 159.046 436.633 159.87Z" fill="#619ED7"/>
<path d="M430.63 169.923C430.925 170.985 430.3 172.088 429.239 172.378C428.177 172.668 427.075 172.048 426.786 170.985C426.491 169.923 427.116 168.82 428.177 168.53C429.239 168.236 430.336 168.856 430.63 169.923Z" fill="#FFEFE8"/>
<path d="M422.819 172.078C423.114 173.14 422.489 174.243 421.428 174.533C420.366 174.823 419.264 174.203 418.975 173.14C418.68 172.078 419.305 170.975 420.366 170.685C421.428 170.391 422.525 171.016 422.819 172.078Z" fill="#FFEFE8"/>
<path d="M438.111 167.854C438.406 168.917 437.781 170.02 436.72 170.309C435.658 170.604 434.556 169.979 434.267 168.917C433.972 167.854 434.597 166.752 435.658 166.462C436.72 166.167 437.817 166.792 438.111 167.854Z" fill="#332938"/>
<path d="M467.111 266.821L329.34 304.868C326.303 305.707 323.149 303.918 322.311 300.874L295.623 204.093C294.785 201.053 296.572 197.897 299.614 197.058L437.385 159.011C440.422 158.172 443.576 159.961 444.414 163.006L471.103 259.787C471.941 262.826 470.148 265.982 467.111 266.821ZM299.945 198.273C297.573 198.929 296.176 201.394 296.831 203.762L323.515 300.543C324.17 302.917 326.633 304.314 329 303.659L466.77 265.611C469.142 264.956 470.539 262.491 469.884 260.122L443.195 163.341C442.54 160.968 440.077 159.57 437.71 160.226L299.945 198.273Z" fill="#619ED7"/>
<path d="M314.962 189.054L313.302 251.914C313.302 251.914 291.971 257.799 282.626 237.032C276.506 223.437 278.076 201.201 285.942 182.66C289.411 174.482 299.203 171.112 307.019 175.326C312.042 178.035 315.115 183.341 314.962 189.054Z" fill="#A35A5F"/>
<path d="M292.966 251.553L293.093 236.854L302.342 236.936C308.68 236.992 313.774 242.176 313.723 248.519L313.596 263.217L304.348 263.136C298.01 263.085 292.916 257.896 292.966 251.553Z" fill="#E7B38E"/>
<path d="M459.66 254.018L470.6 244.209L476.771 251.101C481.001 255.827 480.605 263.09 475.882 267.319L464.942 277.128L458.772 270.236C454.541 265.515 454.942 258.252 459.66 254.018Z" fill="#E7B38E"/>
<path d="M375.425 99.81L353.84 90.133L333.083 108.267L337.344 109.685L339.406 117.035L375.425 99.81Z" fill="#784146"/>
<path d="M339.406 124.069C339.406 124.069 350.153 113.243 361.356 111.952C372.56 110.661 381.285 115.24 381.285 115.24L375.419 99.81C375.419 99.81 364.78 99.81 357.324 101.599C344.658 104.638 337.344 114.422 337.344 114.422L339.406 124.069Z" fill="#A35A5F"/>
<path d="M342.702 231.194C343.43 225.324 339.265 219.976 333.4 219.248C327.535 218.52 322.191 222.688 321.463 228.557C320.736 234.427 324.9 239.775 330.765 240.503C336.63 241.231 341.975 237.063 342.702 231.194Z" fill="#D2CCFF"/>
<path d="M329.244 219.559L332.088 229.881L321.773 232.727C323.347 238.43 329.239 241.774 334.932 240.199C340.63 238.623 343.972 232.727 342.398 227.03C340.823 221.332 334.937 217.988 329.244 219.559Z" fill="#6C74D1"/>
<path d="M361.301 232.776C366.673 230.31 369.029 223.953 366.565 218.577C364.101 213.202 357.748 210.844 352.377 213.31C347.005 215.776 344.649 222.133 347.113 227.509C349.577 232.884 355.93 235.243 361.301 232.776Z" fill="#F37453"/>
<path d="M381.595 226.918C387.505 226.918 392.296 222.124 392.296 216.209C392.296 210.295 387.505 205.501 381.595 205.501C375.685 205.501 370.894 210.295 370.894 216.209C370.894 222.124 375.685 226.918 381.595 226.918Z" fill="#D2CCFF"/>
<path d="M391.91 213.363C390.336 207.661 384.444 204.316 378.751 205.892L384.444 226.537C390.138 224.956 393.479 219.061 391.91 213.363Z" fill="#6C74D1"/>
<path d="M429.246 244.704L402.96 251.963L403.412 253.604L429.699 246.345L429.246 244.704Z" fill="#D2CCFF"/>
<path d="M430.125 247.896L403.839 255.155L404.292 256.796L430.578 249.538L430.125 247.896Z" fill="#D2CCFF"/>
<path d="M422.488 253.438L404.721 258.344L405.173 259.985L422.94 255.079L422.488 253.438Z" fill="#D2CCFF"/>
<path d="M402.57 230.318C402.951 231.696 402.144 233.119 400.767 233.495C399.391 233.876 397.969 233.068 397.593 231.691C397.212 230.313 398.02 228.89 399.396 228.514C400.772 228.138 402.189 228.946 402.57 230.318Z" fill="#6C74D1"/>
<path d="M410.265 228.194C410.646 229.571 409.838 230.994 408.462 231.37C407.085 231.752 405.663 230.943 405.287 229.566C404.907 228.189 405.714 226.766 407.09 226.39C408.467 226.013 409.889 226.822 410.265 228.194Z" fill="#D2CCFF"/>
<path d="M418.04 226.049C418.421 227.426 417.614 228.849 416.237 229.226C414.861 229.602 413.439 228.799 413.063 227.421C412.682 226.044 413.49 224.621 414.866 224.245C416.242 223.869 417.664 224.672 418.04 226.049Z" fill="#D2CCFF"/>
<path d="M419.559 230.76L404.338 234.964C401.341 235.792 399.579 238.898 400.407 241.896L400.742 243.116C401.57 246.115 404.673 247.878 407.669 247.05L421.666 243.182C423.104 242.786 424.328 241.83 425.064 240.529L425.948 238.974C426.684 237.673 426.877 236.133 426.481 234.694C425.658 231.696 422.555 229.932 419.559 230.76Z" fill="#6C74D1"/>
<path d="M393.835 254.482L367.549 261.741L368.002 263.382L394.288 256.123L393.835 254.482Z" fill="#D2CCFF"/>
<path d="M394.715 257.674L368.429 264.933L368.881 266.574L395.167 259.316L394.715 257.674Z" fill="#F37453"/>
<path d="M387.077 263.216L369.31 268.122L369.763 269.763L387.53 264.857L387.077 263.216Z" fill="#D2CCFF"/>
<path d="M367.161 240.102C367.542 241.48 366.735 242.903 365.359 243.279C363.982 243.66 362.56 242.852 362.184 241.474C361.803 240.097 362.611 238.674 363.987 238.298C365.359 237.917 366.781 238.725 367.161 240.102Z" fill="#D2CCFF"/>
<path d="M374.856 237.973C375.237 239.35 374.429 240.773 373.053 241.149C371.676 241.525 370.254 240.722 369.879 239.345C369.498 237.967 370.305 236.544 371.682 236.168C373.058 235.792 374.475 236.6 374.856 237.973Z" fill="#D2CCFF"/>
<path d="M382.631 235.828C383.012 237.205 382.205 238.628 380.828 239.004C379.452 239.38 378.03 238.577 377.654 237.2C377.273 235.823 378.081 234.4 379.457 234.023C380.833 233.647 382.256 234.45 382.631 235.828Z" fill="#D2CCFF"/>
<path d="M384.145 240.539L368.924 244.742C365.927 245.571 364.165 248.676 364.993 251.675L365.328 252.895C366.156 255.893 369.259 257.657 372.255 256.829L386.252 252.961C387.695 252.564 388.914 251.609 389.65 250.308L390.534 248.753C391.27 247.451 391.463 245.911 391.062 244.473C390.249 241.474 387.146 239.711 384.145 240.539Z" fill="#D2CCFF"/>
<path d="M358.425 264.26L332.139 271.519L332.592 273.16L358.878 265.902L358.425 264.26Z" fill="#D2CCFF"/>
<path d="M359.304 267.452L333.018 274.711L333.471 276.352L359.757 269.094L359.304 267.452Z" fill="#D2CCFF"/>
<path d="M351.662 272.995L333.895 277.901L334.347 279.543L352.115 274.637L351.662 272.995Z" fill="#D2CCFF"/>
<path d="M331.753 249.881C332.133 251.258 331.326 252.681 329.95 253.057C328.573 253.439 327.151 252.63 326.775 251.253C326.395 249.876 327.202 248.453 328.578 248.077C329.95 247.695 331.372 248.503 331.753 249.881Z" fill="#D2CCFF"/>
<path d="M339.447 247.751C339.828 249.129 339.02 250.552 337.644 250.928C336.268 251.309 334.846 250.501 334.47 249.124C334.089 247.746 334.896 246.323 336.273 245.947C337.644 245.571 339.066 246.379 339.447 247.751Z" fill="#D2CCFF"/>
<path d="M347.222 245.606C347.603 246.984 346.796 248.407 345.419 248.783C344.043 249.159 342.621 248.356 342.245 246.979C341.864 245.601 342.672 244.178 344.048 243.802C345.425 243.426 346.841 244.229 347.222 245.606Z" fill="#D2CCFF"/>
<path d="M348.736 250.318L333.515 254.521C330.518 255.35 328.756 258.455 329.584 261.454L329.919 262.673C330.747 265.672 333.85 267.436 336.847 266.607L350.844 262.74C352.281 262.343 353.505 261.388 354.241 260.086L355.125 258.531C355.861 257.23 356.054 255.69 355.658 254.252C354.835 251.253 351.737 249.489 348.736 250.318Z" fill="#F37453"/>
<path d="M343.517 281.668L335.684 283.831L336.118 285.404L343.951 283.241L343.517 281.668Z" fill="white"/>
<path d="M349.76 283.188L336.517 286.845L336.95 288.418L350.194 284.761L349.76 283.188Z" fill="#FFC778"/>
<path d="M413.825 261.669L405.992 263.832L406.425 265.405L414.259 263.242L413.825 261.669Z" fill="white"/>
<path d="M420.068 263.189L406.825 266.846L407.258 268.418L420.502 264.761L420.068 263.189Z" fill="#FFC778"/>
<path d="M377.067 275.51L372.137 276.871L372.571 278.444L377.501 277.083L377.067 275.51Z" fill="#F7BE8F"/>
<path d="M370.132 277.561L351.533 282.697L351.967 284.269L370.566 279.133L370.132 277.561Z" fill="#619ED7"/>
<path d="M390.002 268.833L371.402 273.969L371.836 275.542L390.435 270.406L390.002 268.833Z" fill="#619ED7"/>
<path d="M350.974 279.612L345.192 281.209L345.626 282.781L351.408 281.185L350.974 279.612Z" fill="white"/>
<path opacity="0.31" d="M285.612 187.961H208.974C205.622 187.961 202.88 185.216 202.88 181.862V74.0113C202.88 70.6568 205.622 67.9123 208.974 67.9123H285.612C288.964 67.9123 291.707 70.6568 291.707 74.0113V181.862C291.707 185.216 288.964 187.961 285.612 187.961Z" fill="#332938"/>
<rect x="213.5" y="63.5" width="92" height="117" rx="2.5" fill="#B0B7C7" stroke="black"/>
<path d="M229.472 75.5411L219.487 75.4852L219.503 74.7991L229.487 74.855L229.472 75.5411Z" fill="#B2B2B2"/>
<path d="M301.163 60.934L217.888 60.4766C215.501 60.4614 213.52 62.4994 213.454 65.0254L213.393 67.5616L305.303 68.0648L305.364 65.5286C305.43 63.0077 303.55 60.9493 301.163 60.934Z" fill="#1F3374" stroke="#1A2E35" stroke-miterlimit="10"/>
<path d="M287.42 64.5121L288.726 63.643L288.746 62.7993L286.181 64.507L288.665 66.2402L288.685 65.3965L287.42 64.5121Z" fill="#B2B2B2"/>
<path d="M289.767 64.5273L291.072 63.6582L291.092 62.8095L288.522 64.5172L291.006 66.2554L291.026 65.4066L289.767 64.5273Z" fill="#B2B2B2"/>
<path d="M301.174 64.8577L302.489 63.4092C302.616 63.2669 302.616 63.0483 302.484 62.9162C302.352 62.7841 302.144 62.7891 302.017 62.9314L300.737 64.3444L299.528 62.9213C299.406 62.779 299.198 62.7688 299.061 62.9009C298.924 63.0331 298.914 63.2516 299.03 63.394L300.27 64.8526L298.954 66.3011C298.827 66.4435 298.827 66.662 298.959 66.7941C299.02 66.8551 299.101 66.8907 299.183 66.8907C299.269 66.8907 299.36 66.8551 299.427 66.7789L300.706 65.371L301.915 66.7941C301.976 66.8704 302.067 66.906 302.154 66.906C302.235 66.906 302.316 66.8755 302.382 66.8145C302.519 66.6823 302.535 66.4638 302.413 66.3215L301.174 64.8577Z" fill="#B2B2B2"/>
<path d="M305.232 68.2528L234.353 67.8615L234.084 78.7228L304.962 79.1141L305.232 68.2528Z" fill="#1F3374" stroke="#1A2E35" stroke-miterlimit="10"/>
<path d="M302.52 72.2629L298.376 72.2375L298.391 71.5869L302.535 71.6073L302.52 72.2629Z" fill="#B2B2B2"/>
<path d="M302.489 73.4166L298.345 73.3963L298.36 72.7407L302.504 72.7661L302.489 73.4166Z" fill="#B2B2B2"/>
<path d="M302.458 74.5754L298.314 74.55L298.335 73.8995L302.474 73.9198L302.458 74.5754Z" fill="#B2B2B2"/>
<path d="M248.06 122.041L228.649 121.934L228.837 114.305L248.248 114.412L248.06 122.041Z" fill="#1F3374" stroke="#1A2E35" stroke-miterlimit="10"/>
<path d="M227.121 122.132L221.519 122.102L221.717 114.244L227.314 114.275L227.121 122.132Z" fill="#1F3374" stroke="#1A2E35" stroke-miterlimit="10"/>
<path d="M222.936 117.431L224.434 115.916L225.937 117.528L225.953 116.847L224.454 115.235L222.951 116.75L222.936 117.431Z" fill="#B2B2B2"/>
<path d="M225.902 118.798L224.404 120.313L222.9 118.702L222.885 119.388L224.388 120.999L225.887 119.484L225.902 118.798Z" fill="#B2B2B2"/>
<path d="M255.252 122.285L249.655 122.254L249.848 114.402L255.445 114.432L255.252 122.285Z" fill="#1F3374" stroke="#1A2E35" stroke-miterlimit="10"/>
<path d="M254.068 117.797L252.565 119.312L251.067 117.7L251.047 118.387L252.55 119.998L254.048 118.483L254.068 117.797Z" fill="#B2B2B2"/>
<path d="M247.776 133.593L228.365 133.487L228.553 125.863L247.964 125.97L247.776 133.593Z" fill="#1F3374" stroke="#1A2E35" stroke-miterlimit="10"/>
<path d="M226.831 133.685L221.234 133.654L221.427 125.797L227.029 125.827L226.831 133.685Z" fill="#1A2E35" stroke="#1A2E35" stroke-miterlimit="10"/>
<path d="M222.646 128.989L224.15 127.474L225.648 129.085L225.668 128.399L224.165 126.788L222.667 128.303L222.646 128.989Z" fill="#B2B2B2"/>
<path d="M225.617 130.351L224.114 131.865L222.616 130.254L222.601 130.94L224.099 132.551L225.602 131.037L225.617 130.351Z" fill="#B2B2B2"/>
<path d="M254.967 133.842L249.366 133.812L249.564 125.954L255.16 125.985L254.967 133.842Z" fill="#1F3374" stroke="#1A2E35" stroke-miterlimit="10"/>
<path d="M253.779 129.349L252.281 130.864L250.777 129.253L250.762 129.939L252.26 131.55L253.764 130.036L253.779 129.349Z" fill="#B2B2B2"/>
<path d="M247.39 149.049L227.979 148.942L228.172 141.319L247.578 141.425L247.39 149.049Z" fill="#1F3374" stroke="#1A2E35" stroke-miterlimit="10"/>
<path d="M226.45 149.146L220.848 149.115L221.046 141.258L226.643 141.288L226.45 149.146Z" fill="#1F3374" stroke="#1A2E35" stroke-miterlimit="10"/>
<path d="M222.265 144.444L223.764 142.93L225.267 144.541L225.282 143.855L223.784 142.244L222.281 143.758L222.265 144.444Z" fill="#B2B2B2"/>
<path d="M225.231 145.807L223.733 147.321L222.23 145.71L222.215 146.396L223.718 148.007L225.216 146.493L225.231 145.807Z" fill="#B2B2B2"/>
<path d="M254.581 149.298L248.985 149.268L249.178 141.41L254.774 141.441L254.581 149.298Z" fill="#1F3374" stroke="#1A2E35" stroke-miterlimit="10"/>
<path d="M253.398 144.81L251.895 146.325L250.396 144.714L250.376 145.395L251.879 147.006L253.378 145.491L253.398 144.81Z" fill="#B2B2B2"/>
<path d="M247.105 160.607L227.695 160.5L227.882 152.871L247.293 152.978L247.105 160.607Z" fill="#1F3374" stroke="#1A2E35" stroke-miterlimit="10"/>
<path d="M226.161 160.698L220.564 160.668L220.757 152.81L226.359 152.841L226.161 160.698Z" fill="#1F3374" stroke="#1A2E35" stroke-miterlimit="10"/>
<path d="M221.976 155.997L223.479 154.482L224.977 156.094L224.998 155.413L223.494 153.801L221.996 155.316L221.976 155.997Z" fill="#B2B2B2"/>
<path d="M224.947 157.364L223.444 158.879L221.945 157.268L221.93 157.949L223.428 159.56L224.932 158.045L224.947 157.364Z" fill="#B2B2B2"/>
<path d="M254.297 160.851L248.695 160.82L248.893 152.963L254.49 152.993L254.297 160.851Z" fill="#1F3374" stroke="#1A2E35" stroke-miterlimit="10"/>
<path d="M253.109 156.363L251.61 157.878L250.107 156.266L250.092 156.947L251.59 158.559L253.093 157.044L253.109 156.363Z" fill="#B2B2B2"/>
<path d="M293.205 122.29L273.794 122.183L273.982 114.554L293.393 114.661L293.205 122.29Z" fill="#1F3374" stroke="#1A2E35" stroke-miterlimit="10"/>
<path d="M272.266 122.381L266.664 122.351L266.862 114.493L272.458 114.524L272.266 122.381Z" fill="#1F3374" stroke="#1A2E35" stroke-miterlimit="10"/>
<path d="M268.081 117.68L269.579 116.165L271.082 117.777L271.097 117.096L269.599 115.484L268.096 116.999L268.081 117.68Z" fill="#B2B2B2"/>
<path d="M271.047 119.047L269.548 120.562L268.045 118.951L268.03 119.632L269.533 121.243L271.031 119.728L271.047 119.047Z" fill="#B2B2B2"/>
<path d="M300.397 122.534L294.8 122.503L294.993 114.646L300.59 114.676L300.397 122.534Z" fill="#1F3374" stroke="#1A2E35" stroke-miterlimit="10"/>
<path d="M299.213 118.046L297.71 119.561L296.212 117.949L296.191 118.631L297.695 120.242L299.193 118.732L299.213 118.046Z" fill="#B2B2B2"/>
<path d="M292.921 133.842L273.51 133.736L273.698 126.107L293.109 126.214L292.921 133.842Z" fill="#1F3374" stroke="#1A2E35" stroke-miterlimit="10"/>
<path d="M271.976 133.934L266.379 133.903L266.572 126.046L272.169 126.076L271.976 133.934Z" fill="#1F3374" stroke="#1A2E35" stroke-miterlimit="10"/>
<path d="M267.791 129.233L269.294 127.718L270.793 129.329L270.813 128.648L269.31 127.037L267.811 128.552L267.791 129.233Z" fill="#B2B2B2"/>
<path d="M270.762 130.6L269.259 132.114L267.761 130.503L267.745 131.189L269.244 132.801L270.747 131.286L270.762 130.6Z" fill="#B2B2B2"/>
<path d="M300.112 134.086L294.51 134.056L294.708 126.203L300.305 126.234L300.112 134.086Z" fill="#1F3374" stroke="#1A2E35" stroke-miterlimit="10"/>
<path d="M298.924 129.599L297.425 131.113L295.922 129.502L295.907 130.188L297.405 131.799L298.908 130.285L298.924 129.599Z" fill="#B2B2B2"/>
<path d="M293.815 97.7923L216.608 97.3704L216.801 89.7467L294.002 90.1685L293.815 97.7923Z" fill="#1F3374" stroke="#1A2E35" stroke-miterlimit="10"/>
<path d="M301.006 98.0413L295.409 98.0108L295.602 90.1533L301.199 90.1838L301.006 98.0413Z" fill="#1F3374" stroke="#1A2E35" stroke-miterlimit="10"/>
<path d="M299.818 93.5535L298.319 95.0681L296.816 93.4569L296.801 94.138L298.299 95.7491L299.802 94.2345L299.818 93.5535Z" fill="#B2B2B2"/>
<path d="M293.525 109.35L216.323 108.923L216.511 101.299L293.713 101.721L293.525 109.35Z" fill="#1F3374" stroke="#1A2E35" stroke-miterlimit="10"/>
<path d="M300.717 109.594L295.12 109.563L295.318 101.706L300.915 101.741L300.717 109.594Z" fill="#1F3374" stroke="#1A2E35" stroke-miterlimit="10"/>
<path d="M299.533 105.106L298.03 106.621L296.532 105.009L296.511 105.696L298.015 107.307L299.513 105.792L299.533 105.106Z" fill="#B2B2B2"/>
<path d="M292.535 149.298L273.124 149.192L273.312 141.568L292.723 141.675L292.535 149.298Z" fill="#1F3374" stroke="#1A2E35" stroke-miterlimit="10"/>
<path d="M271.595 149.39L265.993 149.359L266.191 141.507L271.788 141.537L271.595 149.39Z" fill="#1F3374" stroke="#1A2E35" stroke-miterlimit="10"/>
<path d="M267.41 144.694L268.908 143.179L270.412 144.79L270.427 144.104L268.929 142.493L267.425 144.007L267.41 144.694Z" fill="#B2B2B2"/>
<path d="M270.376 146.056L268.878 147.57L267.375 145.959L267.359 146.645L268.863 148.256L270.361 146.742L270.376 146.056Z" fill="#B2B2B2"/>
<path d="M299.726 149.547L294.129 149.517L294.322 141.659L299.919 141.69L299.726 149.547Z" fill="#1F3374" stroke="#1A2E35" stroke-miterlimit="10"/>
<path d="M298.543 145.054L297.04 146.569L295.541 144.958L295.521 145.644L297.024 147.255L298.522 145.741L298.543 145.054Z" fill="#B2B2B2"/>
<path d="M292.25 160.851L272.839 160.744L273.027 153.12L292.438 153.227L292.25 160.851Z" fill="#1F3374" stroke="#1A2E35" stroke-miterlimit="10"/>
<path d="M271.306 160.947L265.709 160.917L265.902 153.059L271.499 153.09L271.306 160.947Z" fill="#1F3374" stroke="#1A2E35" stroke-miterlimit="10"/>
<path d="M267.121 156.246L268.624 154.731L270.122 156.343L270.143 155.656L268.639 154.045L267.141 155.56L267.121 156.246Z" fill="#B2B2B2"/>
<path d="M270.092 157.608L268.588 159.123L267.09 157.512L267.075 158.198L268.573 159.809L270.077 158.294L270.092 157.608Z" fill="#B2B2B2"/>
<path d="M299.442 161.1L293.84 161.069L294.038 153.212L299.635 153.242L299.442 161.1Z" fill="#1F3374" stroke="#1A2E35" stroke-miterlimit="10"/>
<path d="M298.253 156.612L296.755 158.127L295.252 156.515L295.237 157.196L296.735 158.808L298.238 157.293L298.253 156.612Z" fill="#B2B2B2"/>
<path d="M241.057 175.824L214.739 175.681L214.932 167.824L241.25 167.966L241.057 175.824Z" fill="#1F3374" stroke="#1A2E35" stroke-miterlimit="10"/>
<path d="M239.868 171.331L238.37 172.845L236.867 171.234L236.852 171.92L238.35 173.532L239.853 172.017L239.868 171.331Z" fill="#B2B2B2"/>
<path d="M298.401 176.139L272.083 175.997L272.281 168.139L298.594 168.281L298.401 176.139Z" fill="#1F3374" stroke="#1A2E35" stroke-miterlimit="10"/>
<path d="M297.217 171.646L295.714 173.161L294.216 171.549L294.195 172.236L295.699 173.847L297.197 172.332L297.217 171.646Z" fill="#B2B2B2"/>
<path d="M220.818 94.6919C219.685 94.6869 218.786 93.7059 218.817 92.5065C218.847 91.307 219.792 90.3362 220.925 90.3413C222.057 90.3464 222.956 91.3273 222.926 92.5268C222.895 93.7263 221.951 94.697 220.818 94.6919ZM220.909 90.997C220.117 90.9919 219.457 91.6729 219.437 92.5116C219.416 93.3502 220.041 94.0363 220.833 94.0414C221.625 94.0465 222.286 93.3654 222.306 92.5268C222.331 91.6882 221.702 91.002 220.909 90.997Z" fill="#B2B2B2"/>
<path d="M217.949 96.1964L217.522 95.7339L219.315 93.894L219.736 94.3616L217.949 96.1964Z" fill="#B2B2B2"/>
<path d="M224.81 96.3183L226.714 94.4785L223.002 94.4582L224.81 96.3183Z" fill="#B2B2B2"/>
<path d="M496.405 356.933C496.405 359.902 493.998 362.311 491.032 362.311C488.066 362.311 485.658 359.902 485.658 356.933C485.658 353.965 488.066 351.556 491.032 351.556C493.998 351.556 496.405 353.96 496.405 356.933Z" fill="white"/>
<path d="M513.058 356.933C513.058 359.902 510.651 362.311 507.685 362.311C504.719 362.311 502.311 359.902 502.311 356.933C502.311 353.965 504.719 351.556 507.685 351.556C510.651 351.551 513.058 353.96 513.058 356.933Z" fill="white"/>
<path d="M530.549 356.933C530.549 359.902 528.142 362.311 525.176 362.311C522.21 362.311 519.803 359.902 519.803 356.933C519.803 353.965 522.21 351.556 525.176 351.556C528.142 351.551 530.549 353.96 530.549 356.933Z" fill="#6C74D1"/>
<path d="M547.202 356.933C547.202 359.902 544.795 362.311 541.829 362.311C538.863 362.311 536.456 359.902 536.456 356.933C536.456 353.965 538.863 351.556 541.829 351.556C544.795 351.551 547.202 353.96 547.202 356.933Z" fill="#6C74D1"/>
<path d="M563.856 356.933C563.856 359.902 561.448 362.311 558.482 362.311C555.516 362.311 553.109 359.902 553.109 356.933C553.109 353.965 555.516 351.556 558.482 351.556C561.448 351.556 563.856 353.96 563.856 356.933Z" fill="#6C74D1"/>
<path d="M496.405 382.168C496.405 385.136 493.998 387.545 491.032 387.545C488.066 387.545 485.658 385.136 485.658 382.168C485.658 379.2 488.066 376.791 491.032 376.791C493.998 376.791 496.405 379.2 496.405 382.168Z" fill="white"/>
<path d="M513.058 382.168C513.058 385.136 510.651 387.545 507.685 387.545C504.719 387.545 502.311 385.136 502.311 382.168C502.311 379.2 504.719 376.791 507.685 376.791C510.651 376.791 513.058 379.2 513.058 382.168Z" fill="white"/>
<path d="M530.549 382.168C530.549 385.136 528.142 387.545 525.176 387.545C522.21 387.545 519.803 385.136 519.803 382.168C519.803 379.2 522.21 376.791 525.176 376.791C528.142 376.791 530.549 379.2 530.549 382.168Z" fill="#6C74D1"/>
<path d="M541.829 387.545C544.797 387.545 547.202 385.138 547.202 382.168C547.202 379.198 544.797 376.791 541.829 376.791C538.861 376.791 536.456 379.198 536.456 382.168C536.456 385.138 538.861 387.545 541.829 387.545Z" fill="#6C74D1"/>
<path d="M558.477 387.545C561.445 387.545 563.85 385.138 563.85 382.168C563.85 379.198 561.445 376.791 558.477 376.791C555.51 376.791 553.104 379.198 553.104 382.168C553.104 385.138 555.51 387.545 558.477 387.545Z" fill="#6C74D1"/>
<path d="M496.405 407.408C496.405 410.376 493.998 412.785 491.032 412.785C488.066 412.785 485.658 410.376 485.658 407.408C485.658 404.44 488.066 402.03 491.032 402.03C493.998 402.03 496.405 404.434 496.405 407.408Z" fill="white"/>
<path d="M513.058 407.408C513.058 410.376 510.651 412.785 507.685 412.785C504.719 412.785 502.311 410.376 502.311 407.408C502.311 404.44 504.719 402.03 507.685 402.03C510.651 402.025 513.058 404.434 513.058 407.408Z" fill="white"/>
<path d="M530.549 407.408C530.549 410.376 528.142 412.785 525.176 412.785C522.21 412.785 519.803 410.376 519.803 407.408C519.803 404.44 522.21 402.03 525.176 402.03C528.142 402.025 530.549 404.434 530.549 407.408Z" fill="#6C74D1"/>
<path d="M547.202 407.408C547.202 410.376 544.795 412.785 541.829 412.785C538.863 412.785 536.456 410.376 536.456 407.408C536.456 404.44 538.863 402.03 541.829 402.03C544.795 402.025 547.202 404.434 547.202 407.408Z" fill="#6C74D1"/>
<path d="M563.856 407.408C563.856 410.376 561.448 412.785 558.482 412.785C555.516 412.785 553.109 410.376 553.109 407.408C553.109 404.44 555.516 402.03 558.482 402.03C561.448 402.03 563.856 404.434 563.856 407.408Z" fill="#6C74D1"/>
<path d="M496.405 432.642C496.405 435.61 493.998 438.02 491.032 438.02C488.066 438.02 485.658 435.61 485.658 432.642C485.658 429.674 488.066 427.265 491.032 427.265C493.998 427.265 496.405 429.674 496.405 432.642Z" fill="white"/>
<path d="M513.058 432.642C513.058 435.61 510.651 438.02 507.685 438.02C504.719 438.02 502.311 435.61 502.311 432.642C502.311 429.674 504.719 427.265 507.685 427.265C510.651 427.265 513.058 429.674 513.058 432.642Z" fill="white"/>
<path d="M530.549 432.642C530.549 435.61 528.142 438.02 525.176 438.02C522.21 438.02 519.803 435.61 519.803 432.642C519.803 429.674 522.21 427.265 525.176 427.265C528.142 427.265 530.549 429.674 530.549 432.642Z" fill="#6C74D1"/>
<path d="M541.829 438.02C544.797 438.02 547.202 435.612 547.202 432.642C547.202 429.672 544.797 427.265 541.829 427.265C538.861 427.265 536.456 429.672 536.456 432.642C536.456 435.612 538.861 438.02 541.829 438.02Z" fill="#6C74D1"/>
<path d="M558.477 438.02C561.445 438.02 563.85 435.612 563.85 432.642C563.85 429.672 561.445 427.265 558.477 427.265C555.51 427.265 553.104 429.672 553.104 432.642C553.104 435.612 555.51 438.02 558.477 438.02Z" fill="#6C74D1"/>
<path d="M141.239 190.685L135.952 185.394C135.061 184.502 133.849 184 132.588 184H111.922C108.669 184 106.008 186.663 106.008 189.918V212.384C106.008 215.639 108.669 218.302 111.922 218.302H147.383C150.635 218.302 153.296 215.639 153.296 212.384V196.84C153.296 194.212 151.165 192.079 148.539 192.079H144.603C143.336 192.079 142.131 191.577 141.239 190.685Z" fill="white"/>
<path d="M153.288 225.266H106V230.473H153.288V225.266Z" fill="white"/>
<path d="M130.254 234.495H106V239.702H130.254V234.495Z" fill="white"/>
<path d="M141.238 257.282L135.951 251.991C135.06 251.099 133.848 250.597 132.587 250.597H111.921C108.668 250.597 106.007 253.26 106.007 256.515V278.981C106.007 282.236 108.668 284.899 111.921 284.899H147.381C150.634 284.899 153.295 282.236 153.295 278.981V263.437C153.295 260.809 151.164 258.676 148.538 258.676H144.602C143.335 258.676 142.13 258.174 141.238 257.282Z" fill="#6C74D1"/>
<path d="M153.288 291.87H106V297.077H153.288V291.87Z" fill="white"/>
<path d="M130.254 301.085H106V306.292H130.254V301.085Z" fill="white"/>
<path d="M141.238 323.878L135.951 318.588C135.06 317.696 133.848 317.194 132.587 317.194H111.921C108.668 317.194 106.007 319.856 106.007 323.112V345.578C106.007 348.833 108.668 351.496 111.921 351.496H147.381C150.634 351.496 153.295 348.833 153.295 345.578V330.033C153.295 327.406 151.164 325.273 148.538 325.273H144.602C143.335 325.273 142.13 324.771 141.238 323.878Z" fill="white"/>
<path d="M153.288 358.466H106V363.673H153.288V358.466Z" fill="white"/>
<path d="M130.254 367.682H106V372.889H130.254V367.682Z" fill="white"/>
<path d="M203.202 190.685L197.915 185.394C197.024 184.502 195.812 184 194.551 184H173.885C170.632 184 167.971 186.663 167.971 189.918V212.384C167.971 215.639 170.632 218.302 173.885 218.302H209.346C212.599 218.302 215.259 215.639 215.259 212.384V196.84C215.259 194.212 213.128 192.079 210.502 192.079H206.567C205.299 192.079 204.094 191.577 203.202 190.685Z" fill="white"/>
<path d="M215.252 225.266H167.964V230.473H215.252V225.266Z" fill="white"/>
<path d="M192.218 234.495H167.964V239.702H192.218V234.495Z" fill="white"/>
<path d="M203.202 257.282L197.915 251.991C197.024 251.099 195.812 250.597 194.551 250.597H173.885C170.632 250.597 167.971 253.26 167.971 256.515V278.981C167.971 282.236 170.632 284.899 173.885 284.899H209.346C212.599 284.899 215.259 282.236 215.259 278.981V263.437C215.259 260.809 213.128 258.676 210.502 258.676H206.567C205.299 258.676 204.094 258.174 203.202 257.282Z" fill="white"/>
<path d="M215.252 291.87H167.964V297.077H215.252V291.87Z" fill="white"/>
<path d="M192.218 301.085H167.964V306.292H192.218V301.085Z" fill="white"/>
<path d="M203.202 323.878L197.915 318.588C197.024 317.696 195.812 317.194 194.551 317.194H173.885C170.632 317.194 167.971 319.856 167.971 323.112V345.578C167.971 348.833 170.632 351.496 173.885 351.496H209.346C212.599 351.496 215.259 348.833 215.259 345.578V330.033C215.259 327.406 213.128 325.273 210.502 325.273H206.567C205.299 325.273 204.094 324.771 203.202 323.878Z" fill="#6C74D1"/>
<path d="M215.252 358.466H167.964V363.673H215.252V358.466Z" fill="white"/>
<path d="M192.218 367.682H167.964V372.889H192.218V367.682Z" fill="white"/>
<g filter="url(#filter0_d)">
<path d="M534.724 66.8856C536.344 66.8856 537.659 65.5693 537.659 63.9479C537.659 62.3317 536.344 61.0103 534.724 61.0103C533.109 61.0103 531.788 62.3266 531.788 63.9479C531.788 65.5693 533.109 66.8856 534.724 66.8856ZM537.634 70.2299C535.821 71.0736 533.632 71.0736 531.819 70.2299C530.148 70.9923 528.965 72.3442 528.965 73.5284C528.965 74.8601 530.823 75.0939 534.729 75.0939C538.635 75.0939 540.493 74.8601 540.493 73.5284C540.488 72.3442 539.305 70.9872 537.634 70.2299ZM534.724 50.1947C524.866 50.1947 516.877 58.1946 516.877 68.0597C516.877 77.9248 524.871 85.9246 534.724 85.9246C544.582 85.9246 552.576 77.9299 552.576 68.0597C552.576 58.1895 544.582 50.1947 534.724 50.1947ZM534.724 59.6075C537.116 59.6075 539.066 61.5541 539.066 63.953C539.066 66.352 537.116 68.2986 534.724 68.2986C532.332 68.2986 530.382 66.3469 530.382 63.953C530.382 61.5592 532.332 59.6075 534.724 59.6075ZM534.724 76.5017C531.362 76.5017 527.553 76.5017 527.553 73.5284C527.553 71.6987 529.203 69.7521 531.575 68.8017C531.768 68.7255 531.981 68.7356 532.164 68.8322C532.962 69.249 533.82 69.4624 534.724 69.4624C535.628 69.4624 536.491 69.249 537.284 68.8322C537.466 68.7356 537.68 68.7255 537.873 68.8017C540.239 69.7521 541.895 71.6937 541.895 73.5284C541.895 76.5017 538.086 76.5017 534.724 76.5017Z" fill="#F37453"/>
<path d="M590.676 72.3188H565.328C564.699 72.3188 564.186 71.8055 564.186 71.1752C564.186 70.545 564.699 70.0317 565.328 70.0317H590.676C591.306 70.0317 591.819 70.545 591.819 71.1752C591.819 71.8055 591.306 72.3188 590.676 72.3188Z" fill="#619ED7"/>
<path d="M603.652 72.3188H595.572C594.942 72.3188 594.43 71.8055 594.43 71.1752C594.43 70.545 594.942 70.0317 595.572 70.0317H603.652C604.282 70.0317 604.795 70.545 604.795 71.1752C604.795 71.8055 604.282 72.3188 603.652 72.3188Z" fill="#F37453"/>
<path d="M624.683 72.3188H607.969C607.339 72.3188 606.827 71.8055 606.827 71.1752C606.827 70.545 607.339 70.0317 607.969 70.0317H624.683C625.313 70.0317 625.826 70.545 625.826 71.1752C625.826 71.8055 625.313 72.3188 624.683 72.3188Z" fill="#619ED7"/>
<path d="M573.409 77.5284H565.328C564.699 77.5284 564.186 77.015 564.186 76.3848C564.186 75.7546 564.699 75.2412 565.328 75.2412H573.409C574.038 75.2412 574.551 75.7546 574.551 76.3848C574.556 77.015 574.043 77.5284 573.409 77.5284Z" fill="#F37453"/>
<path d="M603.373 77.5284H578.025C577.395 77.5284 576.882 77.015 576.882 76.3848C576.882 75.7546 577.395 75.2412 578.025 75.2412H603.373C604.003 75.2412 604.516 75.7546 604.516 76.3848C604.521 77.015 604.008 77.5284 603.373 77.5284Z" fill="white"/>
<path d="M627.863 77.5284H607.629C606.999 77.5284 606.486 77.015 606.486 76.3848C606.486 75.7546 606.999 75.2412 607.629 75.2412H627.863C628.492 75.2412 629.005 75.7546 629.005 76.3848C629.005 77.015 628.492 77.5284 627.863 77.5284Z" fill="#F37453"/>
<path d="M588.97 82.7379H565.1C564.47 82.7379 563.957 82.2246 563.957 81.5944C563.957 80.9641 564.47 80.4508 565.1 80.4508H588.97C589.6 80.4508 590.113 80.9641 590.113 81.5944C590.113 82.2246 589.605 82.7379 588.97 82.7379Z" fill="white"/>
<path d="M602.495 82.7379H593.312C592.682 82.7379 592.169 82.2246 592.169 81.5944C592.169 80.9641 592.682 80.4508 593.312 80.4508H602.495C603.124 80.4508 603.637 80.9641 603.637 81.5944C603.642 82.2246 603.129 82.7379 602.495 82.7379Z" fill="#EDBDB2"/>
<path d="M624.45 82.7379H606.263C605.633 82.7379 605.12 82.2246 605.12 81.5944C605.12 80.9641 605.633 80.4508 606.263 80.4508H624.45C625.08 80.4508 625.593 80.9641 625.593 81.5944C625.593 82.2246 625.08 82.7379 624.45 82.7379Z" fill="#619ED7"/>
<path d="M627.208 56.5987H565.328C564.181 56.5987 563.246 55.6635 563.246 54.5148C563.246 53.3662 564.181 52.431 565.328 52.431H627.208C628.355 52.431 629.29 53.3662 629.29 54.5148C629.29 55.6635 628.36 56.5987 627.208 56.5987Z" fill="#B0B7C7"/>
<path d="M534.724 112.77C536.344 112.77 537.659 111.454 537.659 109.833C537.659 108.216 536.344 106.895 534.724 106.895C533.109 106.895 531.788 108.211 531.788 109.833C531.788 111.454 533.109 112.77 534.724 112.77ZM537.634 116.11C535.821 116.953 533.632 116.953 531.819 116.11C530.148 116.872 528.965 118.224 528.965 119.408C528.965 120.74 530.823 120.974 534.729 120.974C538.635 120.974 540.493 120.74 540.493 119.408C540.488 118.224 539.305 116.872 537.634 116.11ZM534.724 96.0744C524.866 96.0744 516.877 104.074 516.877 113.934C516.877 123.799 524.871 131.799 534.724 131.799C544.582 131.799 552.576 123.804 552.576 113.934C552.576 104.069 544.582 96.0744 534.724 96.0744ZM534.724 105.487C537.116 105.487 539.066 107.434 539.066 109.833C539.066 112.232 537.116 114.178 534.724 114.178C532.332 114.178 530.382 112.227 530.382 109.833C530.382 107.439 532.332 105.487 534.724 105.487ZM534.724 122.386C531.362 122.386 527.553 122.386 527.553 119.413C527.553 117.578 529.203 115.637 531.575 114.686C531.768 114.61 531.981 114.62 532.164 114.717C532.962 115.134 533.82 115.347 534.724 115.347C535.628 115.347 536.491 115.134 537.284 114.717C537.466 114.62 537.68 114.61 537.873 114.686C540.239 115.637 541.895 117.578 541.895 119.413C541.895 122.386 538.086 122.386 534.724 122.386Z" fill="white"/>
<path d="M590.676 118.198H565.328C564.699 118.198 564.186 117.685 564.186 117.055C564.186 116.425 564.699 115.911 565.328 115.911H590.676C591.306 115.911 591.819 116.425 591.819 117.055C591.819 117.685 591.306 118.198 590.676 118.198Z" fill="#F37453"/>
<path d="M603.652 118.198H595.572C594.942 118.198 594.43 117.685 594.43 117.055C594.43 116.425 594.942 115.911 595.572 115.911H603.652C604.282 115.911 604.795 116.425 604.795 117.055C604.795 117.685 604.282 118.198 603.652 118.198Z" fill="#619ED7"/>
<path d="M624.683 118.198H607.969C607.339 118.198 606.827 117.685 606.827 117.055C606.827 116.425 607.339 115.911 607.969 115.911H624.683C625.313 115.911 625.826 116.425 625.826 117.055C625.826 117.685 625.313 118.198 624.683 118.198Z" fill="#EDBDB2"/>
<path d="M573.409 123.408H565.328C564.699 123.408 564.186 122.895 564.186 122.264C564.186 121.634 564.699 121.121 565.328 121.121H573.409C574.038 121.121 574.551 121.634 574.551 122.264C574.556 122.895 574.043 123.408 573.409 123.408Z" fill="#619ED7"/>
<path d="M603.373 123.408H578.025C577.395 123.408 576.882 122.895 576.882 122.264C576.882 121.634 577.395 121.121 578.025 121.121H603.373C604.003 121.121 604.516 121.634 604.516 122.264C604.521 122.895 604.008 123.408 603.373 123.408Z" fill="#F37453"/>
<path d="M627.863 123.408H607.629C606.999 123.408 606.486 122.895 606.486 122.264C606.486 121.634 606.999 121.121 607.629 121.121H627.863C628.492 121.121 629.005 121.634 629.005 122.264C629.005 122.895 628.492 123.408 627.863 123.408Z" fill="#F37453"/>
<path d="M588.97 128.618H565.1C564.47 128.618 563.957 128.104 563.957 127.474C563.957 126.844 564.47 126.33 565.1 126.33H588.97C589.6 126.33 590.113 126.844 590.113 127.474C590.113 128.104 589.605 128.618 588.97 128.618Z" fill="#EDBDB2"/>
<path d="M602.495 128.618H593.312C592.682 128.618 592.169 128.104 592.169 127.474C592.169 126.844 592.682 126.33 593.312 126.33H602.495C603.124 126.33 603.637 126.844 603.637 127.474C603.642 128.104 603.129 128.618 602.495 128.618Z" fill="white"/>
<path d="M624.45 128.618H606.263C605.633 128.618 605.12 128.104 605.12 127.474C605.12 126.844 605.633 126.33 606.263 126.33H624.45C625.08 126.33 625.593 126.844 625.593 127.474C625.593 128.104 625.08 128.618 624.45 128.618Z" fill="#619ED7"/>
<path d="M627.208 102.483H565.328C564.181 102.483 563.246 101.548 563.246 100.4C563.246 99.251 564.181 98.3158 565.328 98.3158H627.208C628.355 98.3158 629.29 99.251 629.29 100.4C629.29 101.548 628.36 102.483 627.208 102.483Z" fill="#F37453"/>
</g>
<path d="M638.34 223.381H568.787V268H638.34V223.381Z" fill="#F0EBF7"/>
<path d="M630.143 237.297H576.989V262.74H630.143V237.297Z" fill="#CBC0E0"/>
<path d="M603.566 228.199H576.989V232.321H603.566V228.199Z" fill="#CBC0E0"/>
<path d="M646.309 293.428H645.801V296.477H646.309V293.428Z" fill="black"/>
<path d="M646.309 287.527H645.801V281.621H646.309V287.527ZM646.309 275.72H645.801V269.819H646.309V275.72ZM646.309 263.919H645.801V258.018H646.309V263.919ZM646.309 252.112H645.801V246.211H646.309V252.112ZM646.309 240.311H645.801V234.41H646.309V240.311ZM646.309 228.509H645.801V222.608H646.309V228.509Z" fill="black"/>
<path d="M646.309 213.653H645.801V216.702H646.309V213.653Z" fill="black"/>
<path d="M666.695 275.375H663.647V275.883H666.695V275.375Z" fill="black"/>
<path d="M657.751 275.883H651.855V275.375H657.751V275.883ZM645.958 275.883H640.062V275.375H645.958V275.883ZM634.16 275.883H628.264V275.375H634.16V275.883ZM622.368 275.883H616.471V275.375H622.368V275.883ZM610.57 275.883H604.673V275.375H610.57V275.883ZM598.777 275.883H592.88V275.375H598.777V275.883Z" fill="black"/>
<path d="M586.984 275.375H583.937V275.883H586.984V275.375Z" fill="black"/>
<path d="M524.134 349.874H469.817C465.937 349.874 462.788 346.723 462.788 342.84V288.483C462.788 284.6 465.937 281.448 469.817 281.448H524.134C528.014 281.448 531.163 284.6 531.163 288.483V342.84C531.163 346.723 528.014 349.874 524.134 349.874Z" fill="#898B9A" fill-opacity="0.5"/>
<path d="M529.467 344.964H475.15C471.27 344.964 468.122 341.813 468.122 337.93V283.573C468.122 279.69 471.27 276.539 475.15 276.539H529.467C533.348 276.539 536.496 279.69 536.496 283.573V337.93C536.496 341.813 533.348 344.964 529.467 344.964Z" fill="#FFDEC8"/>
<path d="M498.822 310.185L480.138 291.486C475.775 296.513 473.088 303.034 472.956 310.185H498.822Z" fill="#BFA1A9"/>
<path d="M503.749 281.408V308.147L522.474 289.407C517.543 284.732 510.991 281.758 503.749 281.408Z" fill="#FCB393"/>
<path d="M500.864 308.142V281.402C493.622 281.753 487.07 284.732 482.139 289.397L500.864 308.142Z" fill="#FFB9B5"/>
<path d="M505.79 310.185H531.656C531.519 303.039 528.838 296.513 524.475 291.486L505.79 310.185Z" fill="#F8AD71"/>
<path d="M505.79 313.072L523.637 330.931C528.117 326.195 531.032 319.968 531.57 313.072H505.79Z" fill="#F5A74F"/>
<path d="M503.749 315.115V340.095C510.549 339.765 516.74 337.122 521.555 332.934L503.749 315.115Z" fill="#B99565"/>
<path d="M500.864 315.115L483.058 332.934C487.873 337.122 494.064 339.765 500.864 340.095V315.115Z" fill="#7C827B"/>
<path d="M497.756 314.403L498.665 313.519L497.395 313.498" stroke="#3E5945" stroke-miterlimit="10"/>
<path d="M494.881 313.458L476.014 313.153" stroke="#3E5945" stroke-miterlimit="10" stroke-dasharray="4.95 4.95"/>
<path d="M474.759 313.132L473.49 313.112C473.51 313.534 473.546 313.956 473.586 314.378" stroke="#3E5945" stroke-miterlimit="10"/>
<path d="M473.916 316.787C474.698 321.097 476.446 325.269 479.173 328.959" stroke="#3E5945" stroke-miterlimit="10" stroke-dasharray="4.78 4.78"/>
<path d="M479.919 329.92C480.183 330.25 480.458 330.571 480.737 330.891L481.651 330.006" stroke="#3E5945" stroke-miterlimit="10"/>
<path d="M483.439 328.278L496.862 315.267" stroke="#3E5945" stroke-miterlimit="10" stroke-dasharray="4.91 4.91"/>
</g>
<defs>
<filter id="filter0_d" x="512.877" y="50.1947" width="116.413" height="84.6046" filterUnits="userSpaceOnUse" color-interpolation-filters="sRGB">
<feFlood flood-opacity="0" result="BackgroundImageFix"/>
<feColorMatrix in="SourceAlpha" type="matrix" values="0 0 0 0 0 0 0 0 0 0 0 0 0 0 0 0 0 0 127 0"/>
<feOffset dx="-4" dy="3"/>
<feColorMatrix type="matrix" values="0 0 0 0 0 0 0 0 0 0 0 0 0 0 0 0 0 0 0.1 0"/>
<feBlend mode="normal" in2="BackgroundImageFix" result="effect1_dropShadow"/>
<feBlend mode="normal" in="SourceGraphic" in2="effect1_dropShadow" result="shape"/>
</filter>
<clipPath id="clip0">
<rect width="758" height="463" fill="white"/>
</clipPath>
</defs>
</svg>
