<svg width="385" height="339" viewBox="0 0 385 339" fill="none" xmlns="http://www.w3.org/2000/svg">
<mask id="path-1-inside-1" fill="white">
<path fill-rule="evenodd" clip-rule="evenodd" d="M343.863 239.616C353.585 218.248 359 194.506 359 169.5C359 75.8877 283.112 0 189.5 0C95.8877 0 20 75.8877 20 169.5C20 263.112 95.8877 339 189.5 339C240.721 339 286.635 316.28 317.715 280.369L384.379 290.104L343.863 239.616Z"/>
</mask>
<path fill-rule="evenodd" clip-rule="evenodd" d="M343.863 239.616C353.585 218.248 359 194.506 359 169.5C359 75.8877 283.112 0 189.5 0C95.8877 0 20 75.8877 20 169.5C20 263.112 95.8877 339 189.5 339C240.721 339 286.635 316.28 317.715 280.369L384.379 290.104L343.863 239.616Z" fill="white"/>
<path d="M343.863 239.616L342.953 239.202L342.698 239.762L343.083 240.242L343.863 239.616ZM317.715 280.369L317.86 279.38L317.318 279.301L316.959 279.715L317.715 280.369ZM384.379 290.104L384.234 291.094L386.75 291.461L385.159 289.479L384.379 290.104ZM358 169.5C358 194.361 352.617 217.961 342.953 239.202L344.774 240.03C354.553 218.535 360 194.652 360 169.5H358ZM189.5 1C282.56 1 358 76.44 358 169.5H360C360 75.3354 283.665 -1 189.5 -1V1ZM21 169.5C21 76.44 96.44 1 189.5 1V-1C95.3354 -1 19 75.3354 19 169.5H21ZM189.5 338C96.44 338 21 262.56 21 169.5H19C19 263.665 95.3354 340 189.5 340V338ZM316.959 279.715C286.061 315.416 240.418 338 189.5 338V340C241.023 340 287.209 317.145 318.472 281.024L316.959 279.715ZM384.523 289.115L317.86 279.38L317.571 281.359L384.234 291.094L384.523 289.115ZM343.083 240.242L383.599 290.73L385.159 289.479L344.643 238.99L343.083 240.242Z" fill="black" mask="url(#path-1-inside-1)"/>
<path d="M122.84 181H112.293V159.062H91.7266V181H81.1797V129.812H91.7266V150.555H112.293V129.812H122.84V181ZM183.133 172.527H205.527V181H172.586V129.812H183.133V172.527ZM222.156 172.527H244.551V181H211.609V129.812H222.156V172.527Z" fill="black"/>
<path d="M162.883 158.816H142.633V172.527H166.398V181H132.086V129.812H166.328V138.355H142.633V150.555H162.883V158.816ZM292.68 156.566C292.68 161.605 291.789 166.023 290.008 169.82C288.227 173.617 285.672 176.547 282.344 178.609C279.039 180.672 275.242 181.703 270.953 181.703C266.711 181.703 262.926 180.684 259.598 178.645C256.27 176.605 253.691 173.699 251.863 169.926C250.035 166.129 249.109 161.77 249.086 156.848V154.316C249.086 149.277 249.988 144.848 251.793 141.027C253.621 137.184 256.188 134.242 259.492 132.203C262.82 130.141 266.617 129.109 270.883 129.109C275.148 129.109 278.934 130.141 282.238 132.203C285.566 134.242 288.133 137.184 289.938 141.027C291.766 144.848 292.68 149.266 292.68 154.281V156.566ZM281.992 154.246C281.992 148.879 281.031 144.801 279.109 142.012C277.188 139.223 274.445 137.828 270.883 137.828C267.344 137.828 264.613 139.211 262.691 141.977C260.77 144.719 259.797 148.75 259.773 154.07V156.566C259.773 161.793 260.734 165.848 262.656 168.73C264.578 171.613 267.344 173.055 270.953 173.055C274.492 173.055 277.211 171.672 279.109 168.906C281.008 166.117 281.969 162.062 281.992 156.742V154.246Z" fill="#FFC778"/>
<path d="M310.012 165.285H301.574L300.379 129.812H311.207L310.012 165.285ZM305.793 170.84C307.504 170.84 308.875 171.344 309.906 172.352C310.961 173.359 311.488 174.648 311.488 176.219C311.488 177.766 310.961 179.043 309.906 180.051C308.875 181.059 307.504 181.562 305.793 181.562C304.105 181.562 302.734 181.059 301.68 180.051C300.648 179.043 300.133 177.766 300.133 176.219C300.133 174.672 300.648 173.395 301.68 172.387C302.734 171.355 304.105 170.84 305.793 170.84Z" fill="#6C74D1"/>
<path opacity="0.25" d="M115.828 220H108.797V185.875H115.828V220ZM153.586 212.969H141.258L138.914 220H131.438L144.141 185.875H150.656L163.43 220H155.953L153.586 212.969ZM143.156 207.273H151.688L147.398 194.5L143.156 207.273ZM175.805 185.875L184.57 210.625L193.289 185.875H202.523V220H195.469V210.672L196.172 194.57L186.961 220H182.133L172.945 194.594L173.648 210.672V220H166.617V185.875H175.805ZM243.281 220H219.891V215.359L230.93 203.594C232.445 201.938 233.562 200.492 234.281 199.258C235.016 198.023 235.383 196.852 235.383 195.742C235.383 194.227 235 193.039 234.234 192.18C233.469 191.305 232.375 190.867 230.953 190.867C229.422 190.867 228.211 191.398 227.32 192.461C226.445 193.508 226.008 194.891 226.008 196.609H219.211C219.211 194.531 219.703 192.633 220.688 190.914C221.688 189.195 223.094 187.852 224.906 186.883C226.719 185.898 228.773 185.406 231.07 185.406C234.586 185.406 237.312 186.25 239.25 187.938C241.203 189.625 242.18 192.008 242.18 195.086C242.18 196.773 241.742 198.492 240.867 200.242C239.992 201.992 238.492 204.031 236.367 206.359L228.609 214.539H243.281V220ZM248.461 203.219L250.43 185.875H269.555V191.523H255.984L255.141 198.859C256.75 198 258.461 197.57 260.273 197.57C263.523 197.57 266.07 198.578 267.914 200.594C269.758 202.609 270.68 205.43 270.68 209.055C270.68 211.258 270.211 213.234 269.273 214.984C268.352 216.719 267.023 218.07 265.289 219.039C263.555 219.992 261.508 220.469 259.148 220.469C257.086 220.469 255.172 220.055 253.406 219.227C251.641 218.383 250.242 217.203 249.211 215.688C248.195 214.172 247.656 212.445 247.594 210.508H254.297C254.438 211.93 254.93 213.039 255.773 213.836C256.633 214.617 257.75 215.008 259.125 215.008C260.656 215.008 261.836 214.461 262.664 213.367C263.492 212.258 263.906 210.695 263.906 208.68C263.906 206.742 263.43 205.258 262.477 204.227C261.523 203.195 260.172 202.68 258.422 202.68C256.812 202.68 255.508 203.102 254.508 203.945L253.852 204.555L248.461 203.219Z" fill="black"/>
<path d="M26.359 236.23L8.2241 254.378C7.04199 256.295 5.9728 258.289 5.02573 260.351L32.3271 233.029C30.2671 233.977 28.2739 235.047 26.359 236.23Z" fill="#FFC778"/>
<path d="M41.0443 229.882L1.88032 269.075C1.56233 270.265 1.2812 271.468 1.03925 272.688L44.6528 229.042C43.4338 229.282 42.231 229.563 41.0443 229.882Z" fill="#FFC778"/>
<path d="M51.1095 228.152L0.152092 279.147C0.0760499 280.116 0.0253474 281.089 0 282.069L54.029 228C53.0497 228.028 52.0773 228.078 51.1095 228.152Z" fill="#FFC778"/>
<path d="M59.4741 228.129L0.129028 287.518C0.18894 288.367 0.271904 289.211 0.368685 290.05L62.0042 228.369C61.1655 228.272 60.3221 228.189 59.4741 228.129Z" fill="#FFC778"/>
<path d="M66.7972 229.146L1.14297 294.849C1.29967 295.605 1.47249 296.357 1.66144 297.102L69.0486 229.665C68.3043 229.476 67.5554 229.303 66.7972 229.146Z" fill="#FFC778"/>
<path d="M73.3506 230.933L2.93109 301.405C3.16383 302.09 3.41268 302.766 3.67076 303.437L75.383 231.671C74.7102 231.415 74.0327 231.166 73.3506 230.933Z" fill="#FFC778"/>
<path d="M79.2773 233.348L5.3414 307.338C5.63866 307.961 5.94513 308.577 6.26312 309.186L81.1208 234.272C80.5147 233.952 79.8995 233.645 79.2773 233.348Z" fill="#FFC778"/>
<path d="M84.6717 236.297L8.29092 312.734C8.64348 313.302 9.00295 313.867 9.37624 314.42L86.3562 237.383C85.8008 237.01 85.2386 236.65 84.6717 236.297Z" fill="#FFC778"/>
<path d="M89.5845 239.726L11.7151 317.651C12.1184 318.17 12.5331 318.677 12.9548 319.18L91.1123 240.964C90.6099 240.545 90.1007 240.13 89.5845 239.726Z" fill="#FFC778"/>
<path d="M94.041 243.609L15.5956 322.113C16.0495 322.583 16.5104 323.045 16.9804 323.497L95.4236 244.995C94.9719 244.525 94.5111 244.064 94.041 243.609Z" fill="#FFC778"/>
<path d="M98.0597 247.935L19.9184 326.132C20.423 326.554 20.9323 326.965 21.4508 327.368L99.2925 249.469C98.8916 248.95 98.4814 248.438 98.0597 247.935Z" fill="#FFC778"/>
<path d="M101.629 252.709L24.6883 329.707C25.2437 330.078 25.8059 330.438 26.3751 330.791L102.712 254.397C102.36 253.827 102 253.265 101.629 252.709Z" fill="#FFC778"/>
<path d="M104.728 257.953L29.9307 332.806C30.5413 333.124 31.1588 333.429 31.7833 333.724L105.648 259.805C105.351 259.182 105.044 258.564 104.728 257.953Z" fill="#FFC778"/>
<path d="M107.309 263.716L35.6868 335.391C36.3597 335.647 37.0371 335.896 37.7215 336.127L108.044 265.752C107.814 265.067 107.567 264.389 107.309 263.716Z" fill="#FFC778"/>
<path d="M109.302 270.066L42.0351 337.384C42.7817 337.57 43.5329 337.743 44.291 337.898L109.819 272.322C109.662 271.565 109.489 270.813 109.302 270.066Z" fill="#FFC778"/>
<path d="M110.577 277.137L49.1002 338.659C49.9412 338.756 50.7869 338.832 51.6372 338.892L110.809 279.675C110.752 278.825 110.674 277.978 110.577 277.137Z" fill="#FFC778"/>
<path d="M110.915 285.143L57.0984 339C58.0823 338.972 59.0594 338.917 60.0295 338.836L110.752 288.076C110.833 287.105 110.888 286.128 110.915 285.143Z" fill="#FFC778"/>
<path d="M109.839 294.565L66.5161 337.921C67.7443 337.672 68.9563 337.381 70.1523 337.054L108.973 298.204C109.3 297.007 109.59 295.795 109.839 294.565Z" fill="#FFC778"/>
<path d="M105.726 307.027L78.9685 333.804C81.0862 332.813 83.1301 331.69 85.0911 330.449L102.373 313.154C103.615 311.194 104.735 309.146 105.726 307.027Z" fill="#FFC778"/>
<path d="M285.897 30.5248L271.52 44.9127C270.583 46.4319 269.735 48.0133 268.984 49.6477L290.629 27.9873C288.996 28.7387 287.415 29.5869 285.897 30.5248Z" fill="#8FD2FF"/>
<path d="M297.54 25.4918L266.491 56.5637C266.239 57.5071 266.016 58.4614 265.824 59.4285L300.4 24.8263C299.434 25.0165 298.48 25.2395 297.54 25.4918Z" fill="#8FD2FF"/>
<path d="M305.519 24.1207L265.121 64.5493C265.06 65.3171 265.02 66.0886 265 66.8656L307.834 24C307.057 24.0219 306.287 24.0622 305.519 24.1207Z" fill="#8FD2FF"/>
<path d="M312.151 24.1024L265.102 71.1856C265.15 71.8584 265.216 72.5275 265.292 73.193L314.157 24.2925C313.492 24.2157 312.823 24.1499 312.151 24.1024Z" fill="#8FD2FF"/>
<path d="M317.956 24.9086L265.906 76.9975C266.03 77.5971 266.167 78.1931 266.317 78.7836L319.741 25.3199C319.151 25.17 318.557 25.0329 317.956 24.9086Z" fill="#8FD2FF"/>
<path d="M323.152 26.3255L267.324 82.195C267.508 82.738 267.706 83.2737 267.91 83.8057L324.763 26.9105C324.23 26.7076 323.693 26.5101 323.152 26.3255Z" fill="#8FD2FF"/>
<path d="M327.851 28.2396L269.235 86.899C269.47 87.3926 269.713 87.8807 269.965 88.3633L329.312 28.9727C328.832 28.7186 328.344 28.4754 327.851 28.2396Z" fill="#8FD2FF"/>
<path d="M332.127 30.5778L271.573 91.1769C271.852 91.6266 272.137 92.0745 272.433 92.5133L333.463 31.4389C333.022 31.1427 332.577 30.8575 332.127 30.5778Z" fill="#8FD2FF"/>
<path d="M336.022 33.2963L274.288 95.0746C274.607 95.4859 274.936 95.8881 275.27 96.2867L337.233 34.2781C336.835 33.9453 336.431 33.6163 336.022 33.2963Z" fill="#8FD2FF"/>
<path d="M339.555 36.375L277.364 98.6121C277.724 98.9851 278.089 99.3507 278.462 99.7091L340.651 37.4737C340.293 37.1008 339.928 36.7352 339.555 36.375Z" fill="#8FD2FF"/>
<path d="M342.741 39.8047L280.791 101.799C281.191 102.133 281.595 102.459 282.006 102.779L343.718 41.0205C343.401 40.6091 343.075 40.2033 342.741 39.8047Z" fill="#8FD2FF"/>
<path d="M345.571 43.5891L284.573 104.632C285.013 104.927 285.459 105.212 285.91 105.492L346.429 44.9273C346.15 44.4757 345.865 44.0296 345.571 43.5891Z" fill="#8FD2FF"/>
<path d="M348.028 47.7464L288.729 107.089C289.213 107.342 289.703 107.583 290.198 107.817L348.757 49.2144C348.521 48.7208 348.278 48.2308 348.028 47.7464Z" fill="#8FD2FF"/>
<path d="M350.074 52.315L293.292 109.139C293.826 109.342 294.363 109.539 294.905 109.722L350.657 53.9293C350.474 53.3864 350.279 52.8489 350.074 52.315Z" fill="#8FD2FF"/>
<path d="M351.654 57.3499L298.325 110.718C298.917 110.867 299.513 111.004 300.114 111.126L352.063 59.1379C351.939 58.5382 351.802 57.9422 351.654 57.3499Z" fill="#8FD2FF"/>
<path d="M352.664 62.9551L303.926 111.729C304.593 111.806 305.264 111.867 305.938 111.914L352.849 64.968C352.803 64.2933 352.741 63.6224 352.664 62.9551Z" fill="#8FD2FF"/>
<path d="M352.933 69.3026L310.267 112C311.047 111.978 311.822 111.934 312.591 111.87L352.803 71.628C352.867 70.8584 352.911 70.0832 352.933 69.3026Z" fill="#8FD2FF"/>
<path d="M352.08 76.7726L317.733 111.144C318.707 110.947 319.668 110.717 320.616 110.457L351.393 79.6575C351.652 78.7087 351.883 77.747 352.08 76.7726Z" fill="#8FD2FF"/>
<path d="M348.819 86.6521L327.606 107.881C329.285 107.095 330.905 106.205 332.46 105.221L346.161 91.5096C347.146 89.9556 348.033 88.3322 348.819 86.6521Z" fill="#8FD2FF"/>
<path d="M87.023 115.023L83 122L78.977 115.023L72 111L78.977 106.977L83 100L87.023 106.977L94 111L87.023 115.023Z" fill="#F37453"/>
<path d="M276.023 240.023L272 247L267.977 240.023L261 236L267.977 231.977L272 225L276.023 231.977L283 236L276.023 240.023Z" fill="#F37453"/>
</svg>
