<svg width="105" height="105" viewBox="0 0 105 105" fill="none" xmlns="http://www.w3.org/2000/svg">
<g filter="url(#filter0_d)">
<rect x="13" y="9" width="79" height="79" rx="10" fill="#FAE2D7"/>
</g>
<path d="M38.2865 25.4431H73.934V74.7778H38.2865V25.4431Z" fill="#FFF5B5"/>
<path d="M69.073 25.4429H73.9339V74.7776H69.073V25.4429Z" fill="#FFEF8F"/>
<path d="M42.783 57.7859H69.1252V69.8043H42.783V57.7859Z" fill="#D9DDFF"/>
<path d="M38.2865 25.4431H73.934V34.6364H38.2865V25.4431Z" fill="#FFD54D"/>
<path d="M69.073 25.4429H73.9339V34.6362H69.073V25.4429Z" fill="#FFC919"/>
<path d="M59.3399 29.7126H69.1254V40.6249H59.3399V29.7126Z" fill="#7776D0"/>
<path d="M50.2215 77.4155C51.7235 75.2564 52.6039 72.6327 52.6039 69.8033C52.6039 67.7451 52.1375 65.7959 51.3053 64.0552C50.9858 63.3868 50.9401 62.6982 50.9401 61.9763C50.9401 55.5244 45.7097 50.2939 39.2577 50.2939C32.8058 50.2939 27.5754 55.5244 27.5754 61.9763C27.5754 62.7012 27.5269 63.3916 27.2065 64.0628C26.3209 65.9184 25.8508 68.0104 25.9179 70.2187C25.9988 72.8815 26.87 75.3519 28.302 77.4048L50.2215 77.4155Z" fill="#B36212"/>
<path d="M26.7604 80.309C26.7604 73.4145 32.3495 67.8254 39.2439 67.8254C46.1384 67.8254 51.7275 73.4145 51.7275 80.309H26.7604Z" fill="#FF8CCC"/>
<path d="M39.2439 67.8254C38.4122 67.8254 37.5996 67.9067 36.8135 68.0619C42.5445 69.1928 46.8666 74.2462 46.8666 80.309H51.7275C51.7275 73.4146 46.1385 67.8254 39.2439 67.8254Z" fill="#FF78C2"/>
<path d="M45.1392 57.0906C41.4254 65.018 33.0482 63.5868 31.2071 63.23C31.5332 67.3847 35.0054 70.6551 39.2439 70.6551C43.6978 70.6551 47.3083 67.0445 47.3083 62.5908C47.3083 60.4642 46.484 58.5314 45.1392 57.0906Z" fill="#FFDBD3"/>
<path d="M45.1392 57.0903C44.3578 58.7584 43.3698 60.012 42.2799 60.9486C42.3897 61.4787 42.4474 62.0277 42.4474 62.5904C42.4474 66.1971 40.0797 69.2509 36.8138 70.2819C37.5806 70.5241 38.397 70.6548 39.2441 70.6548C43.6979 70.6548 47.3084 67.0441 47.3084 62.5904C47.3083 60.4641 46.484 58.5311 45.1392 57.0903V57.0903Z" fill="#FFD1C7"/>
<path d="M32.7383 32.0259C33.2418 32.0259 33.6497 31.6179 33.6497 31.1145V20.8229H43.9402C44.4436 20.8229 44.8516 20.4148 44.8516 19.9114C44.8516 19.4081 44.4436 19 43.9402 19H32.7383C32.2348 19 31.8269 19.4081 31.8269 19.9114V31.1145C31.8269 31.618 32.2348 32.0259 32.7383 32.0259V32.0259Z" fill="black"/>
<path d="M79.4821 68.1946C78.9786 68.1946 78.5707 68.6027 78.5707 69.106V79.3977H68.2803C67.7768 79.3977 67.3688 79.8057 67.3688 80.3091C67.3688 80.8124 67.7768 81.2205 68.2803 81.2205H79.4821C79.9856 81.2205 80.3935 80.8124 80.3935 80.3091V69.106C80.3935 68.6025 79.9856 68.1946 79.4821 68.1946Z" fill="black"/>
<path d="M42.783 30.9508H53.1936C53.6971 30.9508 54.105 30.5427 54.105 30.0394C54.105 29.536 53.6971 29.1279 53.1936 29.1279H42.783C42.2795 29.1279 41.8716 29.536 41.8716 30.0394C41.8716 30.5427 42.2795 30.9508 42.783 30.9508Z" fill="black"/>
<path d="M42.783 41.5362H53.1936C53.6971 41.5362 54.105 41.1282 54.105 40.6248C54.105 40.1215 53.6971 39.7134 53.1936 39.7134H42.783C42.2795 39.7134 41.8716 40.1215 41.8716 40.6248C41.8716 41.1282 42.2795 41.5362 42.783 41.5362Z" fill="black"/>
<path d="M42.783 47.1764H69.1076C69.6111 47.1764 70.019 46.7683 70.019 46.2649C70.019 45.7616 69.6111 45.3535 69.1076 45.3535H42.783C42.2795 45.3535 41.8716 45.7616 41.8716 46.2649C41.8716 46.7683 42.2795 47.1764 42.783 47.1764V47.1764Z" fill="black"/>
<path d="M52.2468 75.6891H73.9339C74.4374 75.6891 74.8454 75.281 74.8454 74.7776V48.6925C74.8454 47.514 73.0225 47.514 73.0225 48.6925V73.8661H52.9251C53.228 72.8429 53.4169 71.784 53.4856 70.7156H69.1252C69.6287 70.7156 70.0367 70.3075 70.0367 69.8041V57.7858C70.0367 57.2824 69.6287 56.8743 69.1252 56.8743H50.7713C50.0866 55.3351 49.102 53.9577 47.8921 52.8165H63.1843C63.6877 52.8165 64.0957 52.4084 64.0957 51.9051C64.0957 51.4017 63.6877 50.9936 63.1843 50.9936H45.4163C43.5944 49.968 41.4931 49.3824 39.2576 49.3824C39.2377 49.3824 39.2177 49.3824 39.1979 49.3825V35.5477H58.4284V40.625C58.4284 41.1283 58.8364 41.5364 59.3398 41.5364H69.1252C69.6287 41.5364 70.0367 41.1283 70.0367 40.625V35.5477H73.0224V43.6695C73.0224 44.8479 74.8452 44.8479 74.8452 43.6695V25.4429C74.8452 24.9396 74.4373 24.5315 73.9338 24.5315H38.2865C37.783 24.5315 37.3751 24.9396 37.3751 25.4429V49.5207C35.2537 49.8356 33.2644 50.685 31.5409 52.0228C30.61 52.7455 31.7281 54.1855 32.6587 53.4628C34.561 51.986 36.8429 51.2055 39.2576 51.2055C45.1967 51.2055 50.0285 56.0373 50.0285 61.9764C50.0285 62.7666 50.0836 63.6128 50.4829 64.4483C51.2855 66.1268 51.6923 67.9285 51.6923 69.8033C51.6923 71.2239 51.4602 72.5987 51.0006 73.9087C49.8195 71.7425 48.0494 69.9057 45.854 68.6565C47.3223 67.0578 48.2196 64.927 48.2196 62.5905C48.2196 60.3105 47.3622 58.1365 45.8053 56.4684C45.2248 56.0189 44.7276 56.0973 44.3137 56.7037C42.8693 59.787 40.5037 61.6951 37.2827 62.3749C36.0387 62.6375 34.0047 62.8437 31.3806 62.3349C30.7007 62.2993 30.3399 62.6213 30.2986 63.301C30.4561 65.3071 31.2778 67.184 32.6311 68.6579C30.4494 69.9001 28.6878 71.7226 27.5072 73.8723C27.0948 72.6936 26.8675 71.4617 26.8288 70.1911C26.7678 68.1816 27.1716 66.2517 28.0291 64.4554C28.4315 63.6124 28.4869 62.7658 28.4869 61.9764C28.4869 60.1404 28.9566 58.3282 29.8453 56.7358C30.4196 55.7067 28.8276 54.8183 28.2536 55.8474C27.2136 57.7108 26.664 59.83 26.664 61.9763C26.664 62.6599 26.6171 63.1817 26.384 63.6701C25.4003 65.7311 24.9369 67.9437 25.0069 70.2464C25.0701 72.3288 25.5753 74.3208 26.5091 76.1736C26.0785 77.4909 25.8488 78.8843 25.8488 80.3088C25.8488 80.8122 26.2568 81.2203 26.7603 81.2203C27.2638 81.2203 27.6717 80.8122 27.6717 80.3088C27.6717 75.9288 30.184 71.8895 34.0948 69.9424C35.5953 70.9963 37.3845 71.5661 39.2439 71.5661C41.1568 71.5661 42.9318 70.9646 44.3898 69.9409C48.3024 71.8873 50.816 75.9278 50.816 80.3088C50.816 80.8122 51.224 81.2203 51.7274 81.2203C52.2309 81.2203 52.6389 80.8122 52.6389 80.3088C52.6389 78.9006 52.4145 77.5228 51.9933 76.2188C52.0817 76.0443 52.166 75.8675 52.2468 75.6891V75.6891ZM68.2139 39.7134H60.2514V30.624H68.2139V39.7134ZM73.0225 26.3544V33.7247H70.0368V29.7126C70.0368 29.2092 69.6288 28.8011 69.1253 28.8011H59.34C58.8365 28.8011 58.4285 29.2092 58.4285 29.7126V33.7247H39.1979V26.3544H73.0225ZM32.3071 64.3281C34.6258 64.6192 36.4618 64.4113 37.6591 64.1585C40.9476 63.4645 43.558 61.6078 45.282 58.7564C46.0072 59.8948 46.3969 61.2187 46.3969 62.5905C46.3969 66.5347 43.1882 69.7434 39.244 69.7434C35.9385 69.7435 33.0911 67.4439 32.3071 64.3281ZM51.4184 58.6973H68.2138V68.8928H53.487C53.3735 67.0702 52.9175 65.3146 52.1275 63.6622C51.8974 63.1811 51.8514 62.6605 51.8514 61.9764C51.8514 60.8426 51.7007 59.7433 51.4184 58.6973V58.6973Z" fill="black"/>
<defs>
<filter id="filter0_d" x="0" y="0" width="105" height="105" filterUnits="userSpaceOnUse" color-interpolation-filters="sRGB">
<feFlood flood-opacity="0" result="BackgroundImageFix"/>
<feColorMatrix in="SourceAlpha" type="matrix" values="0 0 0 0 0 0 0 0 0 0 0 0 0 0 0 0 0 0 127 0"/>
<feOffset dy="4"/>
<feGaussianBlur stdDeviation="6.5"/>
<feColorMatrix type="matrix" values="0 0 0 0 0 0 0 0 0 0 0 0 0 0 0 0 0 0 0.25 0"/>
<feBlend mode="normal" in2="BackgroundImageFix" result="effect1_dropShadow"/>
<feBlend mode="normal" in="SourceGraphic" in2="effect1_dropShadow" result="shape"/>
</filter>
</defs>
</svg>
