<svg width="147" height="163" viewBox="0 0 147 163" fill="none" xmlns="http://www.w3.org/2000/svg">
<g filter="url(#filter0_d)">
<path d="M90.3487 61.3448V82.9032C90.3487 85.3651 89.7587 87.7911 88.6283 89.9779L87.3139 92.5214C86.1835 94.7102 85.5935 97.1361 85.5935 99.5982V101.704H60.4921V59.4546L90.3487 61.3448Z" fill="#FFE5C2"/>
<path d="M86.6947 61.1138V82.9034C86.6947 85.3653 86.1048 87.7914 84.9743 89.9782L83.6599 92.5216C82.5295 94.7105 81.9395 97.1364 81.9395 99.5984V101.704H85.5935V99.5984C85.5935 97.1365 86.1834 94.7105 87.3139 92.5216L88.6283 89.9782C89.7587 87.7912 90.3487 85.3653 90.3487 82.9034V61.345L86.6947 61.1138Z" fill="#FED2A4"/>
<path d="M60.4914 101.531V99.6691C60.4914 97.1847 59.724 94.7611 58.2939 92.7296L55.1487 88.2614C53.4278 85.8166 52.5042 82.8999 52.5042 79.9103V64.5167C52.5042 62.3112 54.2922 60.5232 56.4977 60.5232C58.7035 60.5232 60.4914 62.3105 60.4914 64.5162C60.4913 68.833 60.4913 75.1041 60.4913 75.1041L68.0048 82.3869C69.4366 83.7749 70.481 85.5128 71.0343 87.4286L71.5212 89.1147" fill="#FFE5C2"/>
<path d="M56.8377 64.5161C56.8375 68.8331 56.8375 75.104 56.8375 75.104L64.3512 82.3868C65.783 83.7746 66.8272 85.5126 67.3805 87.4284C67.6655 88.4151 68.5942 89.0743 69.6197 89.0179L71.464 88.9162L71.0345 87.4284C70.4812 85.5126 69.4369 83.7746 68.005 82.3866L60.4914 75.1039C60.4914 75.1039 60.4914 68.8329 60.4916 64.516C60.4916 62.3102 58.7036 60.5229 56.4979 60.5229C55.8393 60.5229 55.2188 60.6834 54.6712 60.9656C55.9576 61.629 56.8377 62.9691 56.8377 64.5161V64.5161Z" fill="#FED2A4"/>
<path d="M82.884 63.4664C82.884 65.5276 84.5549 67.1985 86.6161 67.1985C88.6773 67.1985 90.3482 65.5276 90.3482 63.4664V57.7633C90.3482 55.7022 88.6773 54.0312 86.6161 54.0312C84.5549 54.0312 82.884 55.7022 82.884 57.7633V63.4664Z" fill="#FFE5C2"/>
<path d="M86.6161 54.031C85.9523 54.031 85.3294 54.2051 84.7892 54.509C85.926 55.1486 86.6944 56.3658 86.6944 57.7631V63.4661C86.6944 64.8634 85.926 66.0806 84.7892 66.7202C85.3294 67.0241 85.9523 67.1982 86.6161 67.1982C88.6773 67.1982 90.3482 65.5273 90.3482 63.4661V57.7631C90.3482 55.7021 88.6773 54.031 86.6161 54.031Z" fill="#FED2A4"/>
<path d="M75.4198 64.4741C75.4198 66.5353 77.0907 68.2062 79.1519 68.2062C81.2131 68.2062 82.884 66.5353 82.884 64.4741V54.7233C82.884 52.6621 81.2131 50.9912 79.1519 50.9912C77.0907 50.9912 75.4198 52.6621 75.4198 54.7233V64.4741Z" fill="#FFE5C2"/>
<path d="M79.1519 50.9912C78.488 50.9912 77.8651 51.1655 77.325 51.4692C78.4618 52.1088 79.2302 53.326 79.2302 54.7233V64.4741C79.2302 65.8715 78.4618 67.0886 77.325 67.7282C77.8651 68.0322 78.488 68.2062 79.1519 68.2062C81.2131 68.2062 82.884 66.5353 82.884 64.4741V54.7233C82.884 52.6621 81.2131 50.9912 79.1519 50.9912V50.9912Z" fill="#FED2A4"/>
<path d="M67.9556 54.7233C67.9556 52.6621 69.6265 50.9912 71.6877 50.9912C73.7489 50.9912 75.4198 52.6621 75.4198 54.7233V64.1857C75.4198 66.2469 73.7489 67.9178 71.6877 67.9178C69.6265 67.9178 67.9556 66.2469 67.9556 64.1857V54.7233Z" fill="#FFE5C2"/>
<path d="M71.6877 50.9912C71.0238 50.9912 70.4009 51.1655 69.8608 51.4692C70.9976 52.1088 71.766 53.326 71.766 54.7233V64.1857C71.766 65.5831 70.9976 66.8002 69.8608 67.4398C70.4009 67.7437 71.0238 67.9178 71.6877 67.9178C73.7489 67.9178 75.4198 66.2469 75.4198 64.1857V54.7233C75.4198 52.6621 73.7489 50.9912 71.6877 50.9912V50.9912Z" fill="#FED2A4"/>
<path d="M67.9556 68.7985V42.2375C67.9556 40.1763 66.2847 38.5054 64.2235 38.5054C62.1623 38.5054 60.4914 40.1763 60.4914 42.2375V61.3447L67.9556 68.7985Z" fill="#FFE5C2"/>
<path d="M64.4295 38.5109C63.6885 38.471 62.9922 38.6481 62.3965 38.9833C63.5332 39.6229 64.3017 40.8401 64.3017 42.2374V67.5187C64.3017 69.1681 65.6388 70.5052 67.2882 70.5052H67.9556V42.3236C67.9556 40.3272 66.4229 38.6186 64.4295 38.5109V38.5109Z" fill="#FED2A4"/>
<path d="M87.0209 101.704H59.4178C58.5446 101.704 57.8365 102.412 57.8365 103.285V110.639C57.8365 111.512 58.5444 112.22 59.4178 112.22H87.0209C87.8941 112.22 88.6022 111.513 88.6022 110.639V103.285C88.6022 102.412 87.8943 101.704 87.0209 101.704Z" fill="#ACA6D6"/>
<path d="M87.0209 101.704H83.367C84.2402 101.704 84.9483 102.412 84.9483 103.285V110.639C84.9483 111.512 84.2404 112.22 83.367 112.22H87.0209C87.8942 112.22 88.6022 111.513 88.6022 110.639V103.285C88.6022 102.412 87.8943 101.704 87.0209 101.704Z" fill="#978ECB"/>
<path d="M88.6491 122.709H57.8002C56.8035 122.709 56.0146 121.867 56.0798 120.872L56.2225 118.696C56.4182 116.217 57.5433 113.904 59.3726 112.22H87.0663L87.2428 112.39C88.9995 114.077 90.069 116.356 90.2448 118.786L90.37 120.882C90.4294 121.873 89.6418 122.709 88.6491 122.709V122.709Z" fill="#978ECB"/>
<path d="M90.3702 120.882L90.2449 118.786C90.0692 116.356 88.9997 114.077 87.2427 112.39L87.0663 112.22H83.4124L83.5888 112.39C85.3456 114.077 86.4151 116.356 86.5908 118.786L86.7161 120.882C86.7753 121.873 85.9877 122.709 84.995 122.709H88.6488C89.6418 122.709 90.4294 121.873 90.3702 120.882V120.882Z" fill="#8379C1"/>
<path d="M91.5215 118.694C91.3585 116.441 90.52 114.312 89.1297 112.566C89.5953 112.057 89.8821 111.382 89.8821 110.639V103.285C89.8821 101.646 88.4809 100.386 86.8734 100.424C86.8734 98.1512 87.1583 95.9685 88.087 93.8696C88.5856 92.7424 89.2 91.6601 89.7654 90.5657C90.9844 88.2074 91.6286 85.5576 91.6286 82.9032V77.3062C91.6286 76.5991 91.0557 76.0262 90.3487 76.0262C89.6417 76.0262 89.0688 76.5991 89.0688 77.3062V82.9032C89.0688 85.1506 88.5234 87.3937 87.4912 89.3905C86.831 90.6682 86.1082 91.9343 85.5633 93.2668C84.6211 95.5709 84.3136 97.9536 84.3136 100.424H61.772C61.772 97.2447 61.0304 94.4196 59.1965 91.7884C58.2028 90.3628 57.1957 88.9461 56.1953 87.5249C54.6179 85.2838 53.7841 82.6508 53.7841 79.9105V64.5168C53.7841 63.0205 55.0016 61.8032 56.4977 61.8032C57.9942 61.8032 59.2115 63.0203 59.2115 64.5161L59.2113 75.104C59.2113 76.4182 61.4695 77.8347 62.2023 78.5449C63.8396 80.1319 65.4768 81.7188 67.1139 83.3058C68.8755 85.013 69.6306 87.181 70.2912 89.4695C70.4871 90.1488 71.1973 90.5401 71.876 90.3443C72.555 90.1483 72.9467 89.4387 72.7507 88.7596C71.9597 86.0206 70.9993 83.5066 68.8954 81.4676L61.7717 74.5628L61.7714 42.2374C61.7714 40.8852 62.8714 39.7852 64.2235 39.7852C65.5756 39.7852 66.6757 40.8852 66.6757 42.2374V70.5051C66.6757 71.2122 67.2486 71.7851 67.9556 71.7851C68.6627 71.7851 69.2356 71.2122 69.2356 70.5051V68.5547C69.961 68.9636 70.7972 69.1981 71.6877 69.1981C73.1006 69.1981 74.378 68.6095 75.2899 67.6656C76.21 68.7771 77.5996 69.4865 79.1517 69.4865C80.8923 69.4865 82.428 68.5941 83.3267 67.2434C84.2076 68.0115 85.358 68.4784 86.6159 68.4784C87.5066 68.4784 88.343 68.2438 89.0686 67.8349V71.1244C89.0686 71.8315 89.6415 72.4044 90.3485 72.4044C91.0556 72.4044 91.6285 71.8315 91.6285 71.1244L91.6279 57.7634C91.6279 54.9998 89.3795 52.7514 86.6159 52.7514C85.6614 52.7514 84.7687 53.0198 84.0085 53.4847C83.4555 51.3182 81.4879 49.7115 79.1517 49.7115C77.6706 49.7115 76.3379 50.3577 75.4196 51.3825C74.5013 50.3577 73.1689 49.7115 71.6877 49.7115C70.7972 49.7115 69.961 49.9459 69.2356 50.3548V42.2374C69.2356 39.4737 66.9871 37.2253 64.2235 37.2253C61.4599 37.2253 59.2115 39.4737 59.2115 42.2374V59.9968C58.4181 59.5188 57.4898 59.2431 56.4979 59.2431C53.5901 59.2431 51.2244 61.6088 51.2244 64.5166V79.9102C51.2244 83.1808 52.2195 86.3235 54.1022 88.9982C55.0552 90.352 56.011 91.7038 56.9611 93.0595C58.5526 95.3308 59.2117 97.6744 59.2117 100.434C57.7304 100.541 56.5568 101.777 56.5568 103.285V110.639C56.5568 111.383 56.8445 112.059 57.3116 112.568C55.9501 114.289 55.1219 116.375 54.9465 118.595C54.9459 118.601 54.9456 118.606 54.9451 118.612L54.8026 120.789C54.7167 122.101 55.5337 123.353 56.768 123.805C57.4836 124.067 58.2859 123.989 59.0347 123.989C59.7417 123.989 60.3146 123.416 60.3146 122.709C60.3146 122.002 59.7417 121.429 59.0347 121.429C58.6372 121.429 57.3106 121.666 57.3572 120.956L57.499 118.788C57.6589 116.789 58.5036 114.93 59.8919 113.5H86.5453C87.9638 114.949 88.8215 116.848 88.9672 118.862L89.0925 120.959C89.1077 121.212 88.9027 121.429 88.649 121.429H65.086C64.379 121.429 63.8061 122.002 63.8061 122.709C63.8061 123.416 64.379 123.989 65.086 123.989H88.6491C90.3525 123.989 91.7498 122.508 91.6477 120.806L91.5215 118.694ZM86.6161 55.3112C87.9682 55.3112 89.0683 56.4113 89.0683 57.7634V63.4664C89.0683 64.8185 87.9682 65.9186 86.6161 65.9186C85.264 65.9186 84.1639 64.8185 84.1639 63.4664V57.7634C84.1639 56.4113 85.264 55.3112 86.6161 55.3112ZM79.1519 52.2713C80.504 52.2713 81.6041 53.3714 81.6041 54.7235V64.4743C81.6041 65.8264 80.504 66.9265 79.1519 66.9265C77.7998 66.9265 76.6997 65.8264 76.6997 64.4743V54.7235C76.6996 53.3715 77.7998 52.2713 79.1519 52.2713V52.2713ZM71.6877 52.2713C73.0398 52.2713 74.1397 53.3714 74.1397 54.7235V64.1859C74.1397 65.538 73.0398 66.6381 71.6877 66.6381C70.3356 66.6381 69.2356 65.538 69.2356 64.1859V54.7235C69.2356 53.3715 70.3356 52.2713 71.6877 52.2713V52.2713ZM59.418 110.941C59.2518 110.941 59.1165 110.805 59.1165 110.639V103.285C59.1165 103.119 59.2518 102.984 59.418 102.984H87.0209C87.1871 102.984 87.3223 103.119 87.3223 103.285V110.639C87.3223 110.805 87.1871 110.941 87.0209 110.941H59.418Z" fill="black"/>
<path d="M66.8428 105.681C66.1352 105.681 65.5615 106.254 65.5615 106.962C65.5615 107.67 66.1352 108.243 66.8428 108.243C67.5503 108.243 68.124 107.67 68.124 106.962C68.124 106.254 67.5505 105.681 66.8428 105.681Z" fill="black"/>
<path d="M106.093 65.095H101.295C100.588 65.095 100.015 65.6679 100.015 66.3749C100.015 67.0819 100.588 67.6548 101.295 67.6548H106.093C106.8 67.6548 107.373 67.0819 107.373 66.3749C107.373 65.6679 106.799 65.095 106.093 65.095Z" fill="black"/>
<path d="M75.4196 44.3579C76.1267 44.3579 76.6996 43.785 76.6996 43.0779V38.2799C76.6996 37.5729 76.1267 37 75.4196 37C74.7126 37 74.1397 37.5729 74.1397 38.2799V43.0779C74.1397 43.785 74.7128 44.3579 75.4196 44.3579Z" fill="black"/>
<path d="M97.7643 52.267C98.0918 52.267 98.4194 52.1421 98.6695 51.8922L100.366 50.1959C100.866 49.6959 100.866 48.8856 100.366 48.3857C99.8658 47.8861 99.0555 47.8861 98.5556 48.3857L96.8593 50.0821C96.3594 50.5821 96.3594 51.3924 96.8593 51.8922C97.1091 52.1421 97.4368 52.267 97.7643 52.267V52.267Z" fill="black"/>
<path d="M98.6693 79.878C98.1696 79.3783 97.3591 79.3781 96.8593 79.8781C96.3594 80.378 96.3594 81.1885 96.8594 81.6881L98.5558 83.3843C98.8056 83.6341 99.1333 83.7591 99.4608 83.7591C99.7883 83.7591 100.116 83.6341 100.366 83.3841C100.866 82.8843 100.866 82.0738 100.366 81.5741L98.6693 79.878Z" fill="black"/>
<path d="M44.3579 66.3749C44.3579 65.6679 43.785 65.095 43.0779 65.095H38.2799C37.5729 65.095 37 65.6679 37 66.3749C37 67.0819 37.5729 67.6548 38.2799 67.6548H43.0779C43.7848 67.6548 44.3579 67.0818 44.3579 66.3749Z" fill="black"/>
<path d="M45.817 48.3855C45.317 47.8858 44.5067 47.8858 44.0068 48.3855C43.507 48.8855 43.507 49.6958 44.0068 50.1957L45.7032 51.892C45.9532 52.1418 46.2808 52.2668 46.6083 52.2668C46.9358 52.2668 47.2635 52.1418 47.5135 51.892C48.0133 51.392 48.0133 50.5817 47.5135 50.0818L45.817 48.3855Z" fill="black"/>
<path d="M45.7033 79.8779L44.007 81.5741C43.507 82.0739 43.507 82.8844 44.0068 83.3841C44.2568 83.6341 44.5843 83.759 44.912 83.759C45.2395 83.759 45.5671 83.6341 45.817 83.3842L47.5133 81.6881C48.0133 81.1882 48.0133 80.3778 47.5135 79.8781C47.0136 79.3784 46.203 79.3781 45.7033 79.8779V79.8779Z" fill="black"/>
</g>
<path d="M75.4414 134.781V144.088C75.4414 145.143 75.2168 146.057 74.7676 146.832C74.3184 147.6 73.6738 148.186 72.834 148.59C71.9941 148.993 71.0013 149.195 69.8555 149.195C68.1237 149.195 66.7598 148.746 65.7637 147.848C64.7676 146.949 64.2598 145.719 64.2402 144.156V134.781H67.6875V144.225C67.7266 145.781 68.4492 146.559 69.8555 146.559C70.5651 146.559 71.1022 146.363 71.4668 145.973C71.8314 145.582 72.0137 144.947 72.0137 144.068V134.781H75.4414ZM87.248 143.795C87.248 145.436 86.877 146.747 86.1348 147.73C85.3991 148.707 84.403 149.195 83.1465 149.195C82.1764 149.195 81.3789 148.84 80.7539 148.131V153.062H77.4629V138.434H80.5391L80.6367 139.41C81.2682 138.629 82.0983 138.238 83.127 138.238C84.429 138.238 85.4414 138.72 86.1641 139.684C86.8867 140.641 87.248 141.959 87.248 143.639V143.795ZM83.957 143.59C83.957 141.715 83.4102 140.777 82.3164 140.777C81.5352 140.777 81.0143 141.057 80.7539 141.617V145.777C81.0404 146.363 81.5677 146.656 82.3359 146.656C83.3841 146.656 83.9245 145.751 83.957 143.941V143.59Z" fill="#6C74D1"/>
<defs>
<filter id="filter0_d" x="0" y="0" width="146.373" height="163" filterUnits="userSpaceOnUse" color-interpolation-filters="sRGB">
<feFlood flood-opacity="0" result="BackgroundImageFix"/>
<feColorMatrix in="SourceAlpha" type="matrix" values="0 0 0 0 0 0 0 0 0 0 0 0 0 0 0 0 0 0 127 0"/>
<feOffset dx="1" dy="1"/>
<feGaussianBlur stdDeviation="19"/>
<feColorMatrix type="matrix" values="0 0 0 0 0.423529 0 0 0 0 0.454902 0 0 0 0 0.819608 0 0 0 1 0"/>
<feBlend mode="normal" in2="BackgroundImageFix" result="effect1_dropShadow"/>
<feBlend mode="normal" in="SourceGraphic" in2="effect1_dropShadow" result="shape"/>
</filter>
</defs>
</svg>
