<svg width="161" height="242" viewBox="0 0 161 242" fill="none" xmlns="http://www.w3.org/2000/svg">
<path d="M9.18216 4.08869L-75.9144 89.2483C-76.6053 91.8338 -77.2162 94.4493 -77.7419 97.0999L17.0229 2.26483C14.3742 2.78593 11.7607 3.39723 9.18216 4.08869Z" fill="white"/>
<path d="M31.052 0.330699L-79.6695 111.134C-79.8348 113.239 -79.9449 115.353 -80 117.483L37.3957 0C35.2678 0.0601268 33.1549 0.170361 31.052 0.330699Z" fill="white"/>
<path d="M49.2269 0.280701L-79.7197 129.323C-79.5895 131.167 -79.4092 133.001 -79.1989 134.824L54.7244 0.801804C52.9019 0.59136 51.0694 0.410975 49.2269 0.280701Z" fill="white"/>
<path d="M65.1388 2.4903L-77.5165 145.251C-77.1761 146.895 -76.8006 148.528 -76.39 150.147L70.0305 3.61767C68.4133 3.20681 66.7861 2.83101 65.1388 2.4903Z" fill="white"/>
<path d="M79.3782 6.37341L-73.6312 159.496C-73.1255 160.985 -72.5848 162.453 -72.024 163.911L83.7943 7.97679C82.3323 7.42061 80.8602 6.87948 79.3782 6.37341Z" fill="white"/>
<path d="M92.2558 11.6194L-68.3941 172.389C-67.7482 173.741 -67.0823 175.079 -66.3914 176.402L96.2613 13.6287C94.9445 12.9322 93.6077 12.2658 92.2558 11.6194Z" fill="white"/>
<path d="M103.977 18.028L-61.9853 184.113C-61.2192 185.346 -60.4382 186.574 -59.6271 187.776L107.637 20.388C106.43 19.5763 105.209 18.7946 103.977 18.028Z" fill="white"/>
<path d="M114.652 25.4786L-54.5451 194.796C-53.6689 195.923 -52.7677 197.025 -51.8514 198.118L117.971 28.1693C116.88 27.2574 115.773 26.3555 114.652 25.4786Z" fill="white"/>
<path d="M124.335 33.9164L-46.1136 204.491C-45.1272 205.513 -44.1259 206.516 -43.1045 207.498L127.339 36.9278C126.358 35.9056 125.356 34.9035 124.335 33.9164Z" fill="white"/>
<path d="M133.067 43.3163L-36.7208 213.225C-35.6243 214.142 -34.5177 215.034 -33.3912 215.91L135.745 46.6483C134.874 45.5209 133.983 44.4086 133.067 43.3163Z" fill="white"/>
<path d="M140.822 53.6882L-26.3566 220.991C-25.1499 221.798 -23.9283 222.579 -22.6916 223.346L143.176 57.3559C142.41 56.1183 141.628 54.8957 140.822 53.6882Z" fill="white"/>
<path d="M147.557 65.0822L-14.9659 227.725C-13.6391 228.417 -12.2973 229.078 -10.9404 229.719L149.554 69.1056C148.908 67.7528 148.243 66.41 147.557 65.0822Z" fill="white"/>
<path d="M153.164 77.6038L-2.4588 233.342C-0.996799 233.898 0.475194 234.44 1.96223 234.941L154.761 82.0281C154.261 80.5399 153.725 79.0668 153.164 77.6038Z" fill="white"/>
<path d="M157.495 91.4027L11.335 237.671C12.9572 238.077 14.5895 238.453 16.2367 238.789L158.617 96.303C158.276 94.6596 157.901 93.0261 157.495 91.4027Z" fill="white"/>
<path d="M160.264 106.765L26.6862 240.442C28.5137 240.653 30.3512 240.818 32.1987 240.948L160.77 112.282C160.645 110.433 160.474 108.594 160.264 106.765Z" fill="white"/>
<path d="M161 124.162L44.0648 241.184C46.2027 241.123 48.3257 241.003 50.4336 240.828L160.644 130.535C160.82 128.426 160.94 126.301 161 124.162Z" fill="white"/>
<path d="M158.662 144.635L64.5279 238.839C67.1966 238.298 69.8302 237.666 72.4288 236.955L156.779 152.542C157.49 149.941 158.121 147.306 158.662 144.635Z" fill="white"/>
<path d="M149.724 171.712L91.5849 229.895C96.1862 227.74 100.627 225.3 104.888 222.604L142.439 185.025C145.138 180.766 147.571 176.317 149.724 171.712Z" fill="white"/>
</svg>
